<svg xmlns="http://www.w3.org/2000/svg" width="27.7196mm" height="19.7773mm" viewBox="0 0 78.5752 56.0615"><defs><style>.a{fill:#f51339;}.b{fill:#242424;}</style></defs><path class="a" d="M306.0317,204.0146a2,2,0,0,1-1.414-3.414L325.63,179.5879a2.0586,2.0586,0,0,1,2.8281,0l7.7676,7.7676,20.6455-20.646a2,2,0,1,1,2.8281,2.8281l-22.06,22.06a2.0586,2.0586,0,0,1-2.8281,0l-7.7676-7.7676-19.5981,19.5986A1.9926,1.9926,0,0,1,306.0317,204.0146Z" transform="translate(-292.8711 -157.0381)"/><path class="b" d="M369.4463,213.1H294.8711a2,2,0,0,1-2-2V159.0381a2,2,0,0,1,4,0V209.1h72.5752a2,2,0,1,1,0,4Z" transform="translate(-292.8711 -157.0381)"/></svg>