<svg xmlns="http://www.w3.org/2000/svg" width="25.2466mm" height="27.6447mm" viewBox="0 0 71.565 78.363"><defs><style>.a{fill:#242424;}.b{fill:#f51339;}</style></defs><path class="a" d="M335.1357,201.7627a1.9965,1.9965,0,0,1-1.5029-.6787L296.874,159.2925a2,2,0,0,1,.1812-2.8228l11.4653-10.0844a2,2,0,0,1,2.8228.1811l36.7583,41.791a2.0011,2.0011,0,0,1-.1807,2.8233l-11.4653,10.0839A1.9931,1.9931,0,0,1,335.1357,201.7627Zm-33.937-43.61L335.3154,196.94l8.4619-7.4424L309.6606,150.71Z" transform="translate(-296.3758 -145.8872)"/><path class="a" d="M349.7217,206.8066a1.993,1.993,0,0,1-.6543-.11l-14.585-5.0479a2,2,0,0,1-.6665-3.3916l11.439-10.0615a2,2,0,0,1,3.2793,1.0947l3.1455,15.1094a1.9991,1.9991,0,0,1-1.958,2.4072Zm-10.6851-7.8144,8.0083,2.7715-1.7265-8.2959Z" transform="translate(-296.3758 -145.8872)"/><circle class="b" cx="63.8248" cy="70.6227" r="7.7403"/></svg>