<svg xmlns="http://www.w3.org/2000/svg" width="27.5532mm" height="18.0776mm" viewBox="0 0 78.1035 51.2437"><defs><style>.a{fill:#242424;}.b{fill:#f51339;}</style></defs><path class="a" d="M320.8545,182.9746a2,2,0,0,1-1.4141-3.4141l7.7061-7.706a2,2,0,1,1,2.8281,2.8281l-7.706,7.7061A1.993,1.993,0,0,1,320.8545,182.9746Z" transform="translate(-300.7266 -155.3784)"/><path class="a" d="M328.5825,190.7314a1.9926,1.9926,0,0,1-1.414-.5859l-7.7061-7.706a2,2,0,1,1,2.8281-2.8282l7.7061,7.7061a2,2,0,0,1-1.4141,3.414Z" transform="translate(-300.7266 -155.3784)"/><path class="a" d="M358.7021,182.9746a1.9934,1.9934,0,0,1-1.414-.5859l-7.7061-7.7061a2,2,0,1,1,2.8282-2.8281l7.706,7.706a2,2,0,0,1-1.4141,3.4141Z" transform="translate(-300.7266 -155.3784)"/><path class="a" d="M350.9746,190.7314a2,2,0,0,1-1.4141-3.414l7.7061-7.7061a2,2,0,1,1,2.8281,2.8282l-7.706,7.706A1.9938,1.9938,0,0,1,350.9746,190.7314Z" transform="translate(-300.7266 -155.3784)"/><path class="b" d="M336.8052,196.998a1.9793,1.9793,0,0,1-.418-.0439,2,2,0,0,1-1.5405-2.3721l5.9512-27.9966a2,2,0,0,1,3.9121.8321l-5.9507,27.9966A2,2,0,0,1,336.8052,196.998Z" transform="translate(-300.7266 -155.3784)"/><path class="a" d="M376.83,206.6221H302.7266a2,2,0,0,1-2-2V157.3784a2,2,0,0,1,2-2H376.83a2,2,0,0,1,2,2v47.2437A2,2,0,0,1,376.83,206.6221Zm-72.1035-4H374.83V159.3784H304.7266Z" transform="translate(-300.7266 -155.3784)"/></svg>