<svg xmlns="http://www.w3.org/2000/svg" width="62.0343mm" height="50.3892mm" viewBox="0 0 175.8453 142.8356"><defs><style>.a{fill:#fff;}.b{fill:#242424;}.c{fill:#565656;}</style></defs><path class="a" d="M253.6188,189.1043a40.45,40.45,0,0,1,14.6823-28.638,49.8058,49.8058,0,0,1,63.172,0,40.4911,40.4911,0,0,1,14.6823,28.6258,39.7617,39.7617,0,0,1-12.3613,30.7415,49.6464,49.6464,0,0,1-67.8263,0,39.7,39.7,0,0,1-12.3491-30.7295Z" transform="translate(-184.2033 -109.9995)"/><path class="b" d="M275.9055,190.3774a20.7553,20.7553,0,0,1,7.5335-14.6941,25.5555,25.5555,0,0,1,32.4134,0,20.7761,20.7761,0,0,1,7.5334,14.6879,20.4013,20.4013,0,0,1-6.3425,15.7733,25.4735,25.4735,0,0,1-34.8015,0,20.37,20.37,0,0,1-6.3363-15.7672Z" transform="translate(-184.2033 -109.9995)"/><path class="c" d="M238.0677,202.1625a43.396,43.396,0,0,0,1.87,10.2375,54.0064,54.0064,0,0,0,11.6677,20.202,60.2818,60.2818,0,0,0,20.42,14.6631,66.77,66.77,0,0,0,53.6089-.0931,60.7009,60.7009,0,0,0,20.4045-14.722,54.4578,54.4578,0,0,0,11.6646-20.2392,50.8519,50.8519,0,0,0,1.83-22.5188,52.1618,52.1618,0,0,0-7.44-20.36,56.8066,56.8066,0,0,0-13.572-14.9639l.0124-.0093-54.9269-42.178c-.05-.0372-.09-.0775-.1427-.1117-3.6039-2.7664-9.6641-2.7571-13.6278.0155-4.0071,2.8036-4.4661,7.44-.8994,10.3647l-.0155.0155,22.91,18.63-69.8449.0744h-.0931c-5.7718.0063-11.32,3.7929-12.4182,8.5783-1.1289,4.8752,2.7913,8.9194,8.7927,8.9411l-.0094.0216,35.3877-.0682-63.1457,48.4737c-.0807.059-.1675.121-.242.18-5.9579,4.5621-7.8839,12.1479-4.1311,16.9487,3.8086,4.8815,11.9065,4.8908,17.9264.028l34.4573-28.21a53.9124,53.9124,0,0,0-.4621,6.0941Zm88.5777,12.7527a39.8387,39.8387,0,0,1-55.6247.09,33.077,33.077,0,0,1-7.5924-11.8843,30.86,30.86,0,0,1-1.743-13.28,31.3549,31.3549,0,0,1,3.8055-12.5015,34.4575,34.4575,0,0,1,8.4484-10.0452,40.1444,40.1444,0,0,1,49.7816-.0713,34.3237,34.3237,0,0,1,8.4391,10.0142,31.3693,31.3693,0,0,1,3.821,12.4952,30.9347,30.9347,0,0,1-1.7492,13.2706,33.23,33.23,0,0,1-7.5863,11.9122Z" transform="translate(-184.2033 -109.9995)"/></svg>