<svg xmlns="http://www.w3.org/2000/svg" width="86.1875mm" height="8.4724mm" viewBox="0 0 244.311 24.0161"><defs><style>.a{fill:#242424;}</style></defs><path class="a" d="M150.7793,172.6421v7.0561h9.2881V181.34h-9.2881v7.6206H148.88V171h12.3159v1.6421Z" transform="translate(-148.8804 -169.9224)"/><path class="a" d="M178.1045,184.1631H168.0981l-2.1552,4.7978h-1.9756L172.1777,171h1.8731l8.21,17.9609H180.26Zm-.6924-1.54-4.3105-9.6474-4.3106,9.6474Z" transform="translate(-148.8804 -169.9224)"/><path class="a" d="M190.5356,187.9346a8.6432,8.6432,0,0,1-3.3613-3.2715,9.6053,9.6053,0,0,1,0-9.3652,8.6238,8.6238,0,0,1,3.374-3.2715,9.877,9.877,0,0,1,4.8238-1.18,9.9994,9.9994,0,0,1,3.6948.667,7.6586,7.6586,0,0,1,2.873,1.95l-1.2055,1.2055a7.1544,7.1544,0,0,0-5.3111-2.1293,7.8033,7.8033,0,0,0-3.874.975,7.1266,7.1266,0,0,0-2.7329,2.6685,7.7938,7.7938,0,0,0,0,7.5952,7.1253,7.1253,0,0,0,2.7329,2.668,7.7978,7.7978,0,0,0,3.874.9746,7.0544,7.0544,0,0,0,5.3111-2.1553l1.2055,1.2061a7.7621,7.7621,0,0,1-2.8857,1.9629,9.9317,9.9317,0,0,1-3.7075.68A9.7991,9.7991,0,0,1,190.5356,187.9346Z" transform="translate(-148.8804 -169.9224)"/><path class="a" d="M221.2612,187.3184v1.6425H208.56V171h12.3154v1.6421h-10.417v6.3887h9.2881v1.6167h-9.2881v6.6709Z" transform="translate(-148.8804 -169.9224)"/><path class="a" d="M242.3384,181.2246a4.4038,4.4038,0,0,1,.9619,2.9385,4.1316,4.1316,0,0,1-1.7061,3.5527,8.5094,8.5094,0,0,1-5.042,1.2451h-8.2617V171H236.04a7.7943,7.7943,0,0,1,4.6562,1.2061,3.9737,3.9737,0,0,1,1.6553,3.4126,4.2816,4.2816,0,0,1-.7315,2.5273,4.3885,4.3885,0,0,1-2.0136,1.5522A4.7663,4.7663,0,0,1,242.3384,181.2246Zm-12.1494-8.6592v6.5166h5.7216a5.7759,5.7759,0,0,0,3.3614-.8335,3.08,3.08,0,0,0,0-4.85,5.7767,5.7767,0,0,0-3.3614-.8335Zm9.9814,14.0088a2.8627,2.8627,0,0,0,1.2315-2.5654q0-3.3611-4.875-3.3613H230.189v6.748h6.3379A6.6,6.6,0,0,0,240.17,186.5742Z" transform="translate(-148.8804 -169.9224)"/><path class="a" d="M253.2163,187.9219A8.7172,8.7172,0,0,1,249.83,184.65a9.5561,9.5561,0,0,1,0-9.34,8.7169,8.7169,0,0,1,3.3867-3.2714,10.3985,10.3985,0,0,1,9.6475-.0127,8.7424,8.7424,0,0,1,3.374,3.2715,9.5189,9.5189,0,0,1,0,9.3652,8.74,8.74,0,0,1-3.374,3.2715,10.4024,10.4024,0,0,1-9.6475-.0127Zm8.6856-1.4629a6.9692,6.9692,0,0,0,2.6943-2.668,7.9367,7.9367,0,0,0,0-7.6211,6.969,6.969,0,0,0-2.6943-2.6679,8.202,8.202,0,0,0-7.71,0,7.0211,7.0211,0,0,0-2.72,2.6679,7.84,7.84,0,0,0,0,7.6211,7.0213,7.0213,0,0,0,2.72,2.668,8.2058,8.2058,0,0,0,7.71,0Z" transform="translate(-148.8804 -169.9224)"/><path class="a" d="M277.31,187.9219a8.7172,8.7172,0,0,1-3.3867-3.2715,9.5527,9.5527,0,0,1,0-9.34,8.7169,8.7169,0,0,1,3.3867-3.2714,10.3983,10.3983,0,0,1,9.6474-.0127,8.742,8.742,0,0,1,3.3741,3.2715,9.5189,9.5189,0,0,1,0,9.3652,8.7392,8.7392,0,0,1-3.3741,3.2715,10.4022,10.4022,0,0,1-9.6474-.0127Zm8.6855-1.4629a6.97,6.97,0,0,0,2.6944-2.668,7.9367,7.9367,0,0,0,0-7.6211,6.9692,6.9692,0,0,0-2.6944-2.6679,8.2018,8.2018,0,0,0-7.71,0,7.0213,7.0213,0,0,0-2.72,2.6679,7.84,7.84,0,0,0,0,7.6211,7.0216,7.0216,0,0,0,2.72,2.668,8.2056,8.2056,0,0,0,7.71,0Z" transform="translate(-148.8804 -169.9224)"/><path class="a" d="M303.9541,180.519l-3.6689,3.72v4.7216h-1.8985V171h1.8985v10.8535L310.8311,171h2.1806l-7.7744,8.1338,8.3135,9.8271H311.293Z" transform="translate(-148.8804 -169.9224)"/><path class="a" d="M338.49,176.2212a6.1568,6.1568,0,0,1,2.4121,2.4248,7.7813,7.7813,0,0,1,0,7.1587,6.1747,6.1747,0,0,1-2.3994,2.4248,6.9079,6.9079,0,0,1-3.4511.8594,6.38,6.38,0,0,1-2.9629-.68,5.6118,5.6118,0,0,1-2.169-1.9883v7.5176h-1.8213V175.4644h1.7452v2.6684a5.6114,5.6114,0,0,1,2.1679-2.0527,6.3613,6.3613,0,0,1,3.04-.7183A6.9348,6.9348,0,0,1,338.49,176.2212Zm-1.0009,10.5972a4.6169,4.6169,0,0,0,1.8086-1.86,5.6582,5.6582,0,0,0,.6542-2.7451,5.5861,5.5861,0,0,0-.6542-2.7329,4.7322,4.7322,0,0,0-1.8086-1.86,5.2935,5.2935,0,0,0-5.1446,0,4.7681,4.7681,0,0,0-1.7959,1.86,5.5971,5.5971,0,0,0-.6543,2.7329,5.6694,5.6694,0,0,0,.6543,2.7451,4.65,4.65,0,0,0,1.7959,1.86,5.3835,5.3835,0,0,0,5.1446,0Z" transform="translate(-148.8804 -169.9224)"/><path class="a" d="M348.0342,172.1289a1.2576,1.2576,0,0,1-.3848-.9233,1.2307,1.2307,0,0,1,.3848-.8985,1.29,1.29,0,0,1,.9492-.3847,1.3158,1.3158,0,0,1,.9492.372,1.1889,1.1889,0,0,1,.3848.8853,1.3424,1.3424,0,0,1-2.2832.9492Zm.0254,3.3355h1.8213v13.4965H348.06Z" transform="translate(-148.8804 -169.9224)"/><path class="a" d="M366.123,188.9609l-4.2851-5.6445-4.3106,5.6445h-2.0527l5.3369-6.9277-5.08-6.5688h2.0528l4.0537,5.2856,4.0537-5.2856h2.002l-5.0811,6.5688,5.3887,6.9277Z" transform="translate(-148.8804 -169.9224)"/><path class="a" d="M385.0576,182.7773h-11.289a4.8234,4.8234,0,0,0,1.6162,3.3995,5.3662,5.3662,0,0,0,3.6953,1.2959,5.8116,5.8116,0,0,0,2.3086-.4493,5.039,5.039,0,0,0,1.8222-1.3213l1.0264,1.1807a5.7926,5.7926,0,0,1-2.2451,1.6416,7.5823,7.5823,0,0,1-2.9639.5645,7.4924,7.4924,0,0,1-3.6816-.8848,6.3879,6.3879,0,0,1-2.502-2.45,6.9876,6.9876,0,0,1-.8974-3.541,7.2308,7.2308,0,0,1,.8593-3.541,6.2153,6.2153,0,0,1,2.36-2.4375,6.59,6.59,0,0,1,3.374-.8726,6.5233,6.5233,0,0,1,3.3613.8726,6.1892,6.1892,0,0,1,2.335,2.4243,7.3026,7.3026,0,0,1,.8467,3.5542Zm-9.7881-4.6059a4.8864,4.8864,0,0,0-1.5009,3.2456h9.57a4.8906,4.8906,0,0,0-1.501-3.2456,4.9566,4.9566,0,0,0-6.5684,0Z" transform="translate(-148.8804 -169.9224)"/><path class="a" d="M391.37,169.9224h1.8213v19.0385H391.37Z" transform="translate(-148.8804 -169.9224)"/></svg>