<svg xmlns="http://www.w3.org/2000/svg" width="37.6617mm" height="14.1111mm" viewBox="0 0 106.7576 39.9999"><defs><style>.a{fill:#242424;}.b{fill:#999;}.c{fill:#585858;}.d{fill:#fabc04;}.e{fill:#e1c025;}</style></defs><path class="a" d="M233.4686,166.72a7.9107,7.9107,0,0,1,1.8689-2.9619,7.32,7.32,0,0,1,11.5129,1.71c1.7631,3.2088,3.6319,6.347,5.4479,9.5206l9.0975,15.8324a7.2884,7.2884,0,1,1-12.7471,7.07l-8.0044-13.8931a1.6,1.6,0,0,0-.1939-.2821,2.8681,2.8681,0,0,1-.5818-.8639L233.98,172.644a7.3007,7.3007,0,0,1-.97-3.8788,5.4049,5.4049,0,0,1,.4584-2.0452" transform="translate(-218.571 -161.6834)"/><path class="b" d="M233.4686,166.72a10.1432,10.1432,0,0,0-.335,1.9394,7.6165,7.6165,0,0,0,1.0579,4.1433l5.8005,10.0319c.1763.3.3173.5994.4937.8815l-3.1912,5.4832-4.4606,7.687c-.0705,0-.0882-.0352-.1058-.0881a1.0946,1.0946,0,0,1,.07-.4055,7.096,7.096,0,0,0-1.6925-6.9994,6.7192,6.7192,0,0,0-4.1433-2.1334,7.1557,7.1557,0,0,0-5.6595,1.5692c-.3.2292-.4936.5641-.8462.74a.1174.1174,0,0,1-.1234-.0882l2.5212-4.39,10.49-18.1773c.0352-.07.0881-.1234.1234-.194" transform="translate(-218.571 -161.6834)"/><path class="c" d="M220.4042,189.5343l1.0049-.8992a7.2873,7.2873,0,0,1,11.654,4.4254,7.749,7.749,0,0,1-.2821,3.7553,1.8449,1.8449,0,0,1-.0705.3c-.1587.2821-.3.5819-.4761.8639a7.0883,7.0883,0,0,1-6.9112,3.6849,7.2373,7.2373,0,0,1-6.6821-6.3118,7.0542,7.0542,0,0,1,.97-4.69c.1763-.3174.3879-.6.5818-.9168.0882-.0706.0529-.2116.2116-.2116" transform="translate(-218.571 -161.6834)"/><path class="d" d="M220.4042,189.5343c-.0705.0705-.0705.1939-.194.2116-.0176-.1234.0529-.194.1235-.2821Z" transform="translate(-218.571 -161.6834)"/><path class="e" d="M232.7105,197.1155c-.0706-.1234,0-.2115.0705-.3l.07.0705Z" transform="translate(-218.571 -161.6834)"/><path class="a" d="M269.3671,165.2614a8.1138,8.1138,0,1,0,0,16.2236,7.4759,7.4759,0,0,0,5.6883-2.2833,7.9673,7.9673,0,0,0,1.8026-6.5695h-7.4909v2.2032h5.3278a4.6647,4.6647,0,0,1-1.2018,2.804,5.5185,5.5185,0,0,1-4.126,1.6424,5.8887,5.8887,0,0,1,0-11.7771,5.5033,5.5033,0,0,1,4.0058,1.6023l1.5623-1.5623a7.69,7.69,0,0,0-5.5681-2.2833Zm13.58,5.8085a5.2883,5.2883,0,1,0,5.2076,5.2877,5.1654,5.1654,0,0,0-5.2076-5.2877m0,8.4923a3.2181,3.2181,0,1,1,2.9242-3.2046,3.0373,3.0373,0,0,1-2.9242,3.2046m11.2964-8.4923a5.2883,5.2883,0,1,0,5.2076,5.2877,5.1415,5.1415,0,0,0-5.2076-5.2877m0,8.4923a3.2181,3.2181,0,1,1,2.9243-3.2046,3.0372,3.0372,0,0,1-2.9243,3.2046M305.5,171.07a5.2344,5.2344,0,0,0,0,10.4552,3.5011,3.5011,0,0,0,2.724-1.2017h.08v.7611c0,2.0029-1.0415,3.0845-2.764,3.0845a2.8582,2.8582,0,0,1-2.6038-1.8427l-2.0029.8412a4.9126,4.9126,0,0,0,4.6067,3.0845c2.6839,0,4.9271-1.6023,4.9271-5.4479V171.43h-2.1631v.8412h-.08A3.5011,3.5011,0,0,0,305.5,171.07m.2,8.4122a2.9946,2.9946,0,0,1-2.8842-3.1646,3.0313,3.0313,0,0,1,2.8842-3.2046,2.9412,2.9412,0,0,1,2.764,3.2046,2.9043,2.9043,0,0,1-2.764,3.1646m6.4494-13.58h2.2833v15.4625h-2.2833Zm8.4122,5.1675a5.029,5.029,0,0,0-5.0073,5.2877,5.1745,5.1745,0,0,0,5.2477,5.2877,5.2376,5.2376,0,0,0,4.4064-2.3234l-1.8026-1.2017a3.0272,3.0272,0,0,1-2.6038,1.4421,2.6235,2.6235,0,0,1-2.5638-1.6024l7.09-2.9242-.24-.6009a4.964,4.964,0,0,0-4.5266-3.3649m-2.7239,5.1275a2.9,2.9,0,0,1,2.764-3.0845,1.997,1.997,0,0,1,1.9628,1.1216Z" transform="translate(-218.571 -161.6834)"/><path class="a" d="M276.1418,199.9409l5.2877-14.06h2.0429l5.2877,14.06h-2.0029l-1.362-3.8055h-5.8885l-1.362,3.8055Zm3.9657-5.4879h4.6868l-2.2833-6.3293h-.08Zm10.4953,4.3262a5.3019,5.3019,0,0,1-1.3219-3.6453,5.446,5.446,0,0,1,1.3219-3.6453,4.1966,4.1966,0,0,1,3.2447-1.4821,4.2489,4.2489,0,0,1,1.9228.4406,3.3357,3.3357,0,0,1,1.362,1.2018h.08l-.08-1.322v-4.4464h1.8026v14.06h-1.7225V198.619h-.08a3.6491,3.6491,0,0,1-1.362,1.2018,3.99,3.99,0,0,1-1.9228.4406,4.1387,4.1387,0,0,1-3.2447-1.4822m5.6883-1.1216a3.9967,3.9967,0,0,0,0-5.0073,2.9142,2.9142,0,0,0-4.3263,0,3.94,3.94,0,0,0,0,4.9673,2.8613,2.8613,0,0,0,2.1631.9614,2.591,2.591,0,0,0,2.1632-.9214M307.267,199.38a4.738,4.738,0,0,1-5.3277.12,4.29,4.29,0,0,1-1.5623-2.0029l1.6024-.681a2.97,2.97,0,0,0,1.0415,1.362,2.5176,2.5176,0,0,0,1.4821.4807,2.7526,2.7526,0,0,0,1.4421-.3605,1.0171,1.0171,0,0,0,.5609-.8813c0-.6009-.4807-1.0816-1.4021-1.362l-1.6424-.4006c-1.8827-.4807-2.8041-1.362-2.8041-2.7239a2.5492,2.5492,0,0,1,1.0816-2.1231,4.57,4.57,0,0,1,2.724-.8012,4.6714,4.6714,0,0,1,2.3234.6009,3.3673,3.3673,0,0,1,1.4421,1.6424l-1.6024.681a2.2629,2.2629,0,0,0-.8813-.9614,2.7053,2.7053,0,0,0-1.402-.3606,2.3827,2.3827,0,0,0-1.2819.3606,1.0518,1.0518,0,0,0-.5608.8813c0,.5608.5208.9614,1.5623,1.1616l1.4421.3606c1.9228.4807,2.8441,1.4421,2.8441,2.8842a2.4988,2.4988,0,0,1-1.0815,2.1231" transform="translate(-218.571 -161.6834)"/></svg>