<svg xmlns="http://www.w3.org/2000/svg" width="41.4879mm" height="41.4879mm" viewBox="0 0 117.6036 117.6036"><defs><style>.a{fill:#242424;}</style></defs><path class="a" d="M340.1575,122.6155a58.8018,58.8018,0,1,0,58.8018,58.8018A58.9747,58.9747,0,0,0,340.1575,122.6155Zm-32.761,91.5628a45.5916,45.5916,0,0,1-13.44-31.921l45.7814,45.3614C327.9771,227.1987,316.2167,222.9986,307.3965,214.1783Zm42.8413,12.18L295.2161,171.337a46.172,46.172,0,0,1,82.3225-17.22l-6.3,5.46a38.776,38.776,0,0,0-31.0809-15.96,38.2011,38.2011,0,0,0-35.7011,25.2007l48.3015,48.3015a38.0782,38.0782,0,0,0,24.3607-27.3008H356.958v-8.4h29.4009A46.3324,46.3324,0,0,1,350.2378,226.3587Z" transform="translate(-281.3557 -122.6155)"/></svg>