<svg xmlns="http://www.w3.org/2000/svg" width="38.4186mm" height="14.2533mm" viewBox="0 0 108.9032 40.403"><defs><style>.a,.b{fill:#464646;}.b{fill-rule:evenodd;}.c{fill:#686868;}.d{fill:#242424;}</style></defs><path class="a" d="M258.6666,185.7968l2.388,6.27h-4.627l2.24-6.27Zm-.896-2.1-5.224,13.73h1.94l1.343-3.73h5.82l1.343,3.73h1.94l-5.224-13.73h-1.938Zm28.2,13.742h1.8v-13.732h-1.8v13.732Zm-18.35-8.07a3.82,3.82,0,0,1,2.985-1.642c2.388,0,3.582,1.642,3.582,4.03v5.82h-1.8v-5.522c0-1.94-1.045-2.687-2.388-2.687a2.78,2.78,0,0,0-2.537,2.836v5.224h-1.8v-9.539h1.8l.15,1.493Zm8.06,5.234c0-2.1,1.94-3.284,4.18-3.284a4.0772,4.0772,0,0,1,2.537.597v-.3a2.2308,2.2308,0,0,0-2.388-2.24,2.1876,2.1876,0,0,0-2.24,1.343l-1.642-.746c.3-.896,1.493-2.24,3.88-2.24a3.8728,3.8728,0,0,1,4.18,4.03v5.672h-1.642v-1.343h-.15a3.5955,3.5955,0,0,1-3.134,1.642c-1.94,0-3.582-1.194-3.582-3.134m6.716-1.194a3.7517,3.7517,0,0,0-2.24-.597c-1.8,0-2.537,1.045-2.537,1.8,0,1.045,1.045,1.493,1.94,1.493a2.9105,2.9105,0,0,0,2.836-2.687" transform="translate(-217.6744 -161.2158)"/><path class="b" d="M290.3086,201.6188l2.1-4.925-3.73-8.657h1.8l2.836,6.567,2.836-6.567h1.8l-5.82,13.582h-1.822Zm26.27-10.45a2.8326,2.8326,0,0,0-2.537-1.94,3.3194,3.3194,0,0,0,0,6.568,2.888,2.888,0,0,0,2.537-1.8l1.493.896a4.3846,4.3846,0,0,1-4.03,2.687,4.8583,4.8583,0,0,1-4.627-5.075,4.7722,4.7722,0,0,1,4.627-5.075,4.3743,4.3743,0,0,1,4.03,2.687l-1.493,1.045Z" transform="translate(-217.6744 -161.2158)"/><path class="a" d="M322.9956,197.7368c2.388,0,3.582-1.343,3.582-2.985,0-3.582-5.224-2.24-5.224-4.328,0-.746.597-1.194,1.642-1.194a2.9717,2.9717,0,0,1,2.537,1.194l1.045-1.045a5.555,5.555,0,0,0-3.73-1.8c-2.24,0-3.433,1.343-3.433,2.985,0,3.433,5.373,2.24,5.373,4.03,0,.896-.597,1.493-1.8,1.493a2.9329,2.9329,0,0,1-2.388-1.493l-1.326,1.055c.896.896,2.24,2.1,3.73,2.1Zm-17.015-.298h1.8v-9.552h-1.8Z" transform="translate(-217.6744 -161.2158)"/><path class="b" d="M306.7266,183.2688a1.194,1.194,0,0,1,0,2.388,1.194,1.194,0,1,1,0-2.388Zm-2.537,12.687.3,1.343h-1.8c-1.642,0-2.388-1.194-2.388-2.985v-4.645h-1.8v-1.8h1.8v-2.818h1.8v2.836h2.1v1.8h-2.1v4.925c0,1.343,1.045,1.343,2.1,1.343Z" transform="translate(-217.6744 -161.2158)"/><path class="a" d="M261.6216,168.5268v2.24h5.224a4.4851,4.4851,0,0,1-1.194,2.687,5.3608,5.3608,0,0,1-4.03,1.642,5.7032,5.7032,0,0,1-5.672-5.82,5.7051,5.7051,0,0,1,9.552-4.327l1.493-1.493a7.762,7.762,0,0,0-5.373-2.24,7.9016,7.9016,0,1,0,0,15.8,6.9762,6.9762,0,0,0,5.522-2.24,7.0493,7.0493,0,0,0,1.94-5.075,3.6847,3.6847,0,0,0-.15-1.343h-7.313Zm13.282-1.8a5.075,5.075,0,1,0,0,10.15,5.03,5.03,0,0,0,5.075-4.9846q0-.0452,0-.09A4.9436,4.9436,0,0,0,274.9036,166.7268Zm0,8.2a3.1441,3.1441,0,0,1,0-6.258,3.1474,3.1474,0,0,1,.001,6.264Zm24.47-7.156a3.8735,3.8735,0,0,0-2.836-1.194,5.0844,5.0844,0,0,0,0,10.15,3.5151,3.5151,0,0,0,2.687-1.194h.15v.746c0,1.94-1.045,2.985-2.687,2.985a2.8482,2.8482,0,0,1-2.537-1.8l-1.94.746a4.94,4.94,0,0,0,4.478,2.985c2.687,0,4.925-1.493,4.925-5.373v-9.253h-2.1v1.194Zm-2.537,7.164a3.1712,3.1712,0,1,1,2.687-3.134A2.8932,2.8932,0,0,1,296.8366,174.9348Zm-10.897-8.2a5.075,5.075,0,1,0,0,10.15,5.03,5.03,0,0,0,5.075-4.9846q0-.0452,0-.09A4.859,4.859,0,0,0,285.94,166.7348Zm0,8.2a3.15,3.15,0,0,1,0-6.268,3.15,3.15,0,0,1,0,6.268Zm17.334-13.572h2.24v15.522h-2.24Zm8.358,13.582a2.888,2.888,0,0,1-2.537-1.493l6.866-2.836-.3-.597a4.6654,4.6654,0,0,0-9.104,1.791,5.03,5.03,0,0,0,4.9846,5.075q.0452,0,.09,0a5.43,5.43,0,0,0,4.328-2.24l-1.8-1.194a2.888,2.888,0,0,1-2.537,1.493Zm-.15-6.27a1.9988,1.9988,0,0,1,1.94,1.194l-4.627,1.94C308.7946,169.5688,310.2876,168.6748,311.4816,168.6748Z" transform="translate(-217.6744 -161.2158)"/><path class="c" d="M239.5222,166.2409v26.2173a4.23,4.23,0,0,0,4.171,4.5682c1.9862,0,4.171-1.39,4.171-4.5682V166.44a4.176,4.176,0,0,0-4.171-4.37A4.2393,4.2393,0,0,0,239.5222,166.2409Z" transform="translate(-217.6744 -161.2158)"/><path class="d" d="M228.5983,179.5482v12.91a4.23,4.23,0,0,0,4.171,4.5682c1.9861,0,4.1709-1.39,4.1709-4.5682V179.7468a4.1759,4.1759,0,0,0-4.1709-4.37A4.2393,4.2393,0,0,0,228.5983,179.5482Z" transform="translate(-217.6744 -161.2158)"/><circle class="d" cx="4.171" cy="31.6397" r="4.1709"/></svg>