<?xml version="1.0" encoding="utf-8"?>
<!-- Generator: Adobe Illustrator 25.2.3, SVG Export Plug-In . SVG Version: 6.00 Build 0)  -->
<svg version="1.1" id="Layer_1" xmlns="http://www.w3.org/2000/svg" xmlns:xlink="http://www.w3.org/1999/xlink" x="0px" y="0px"
	 viewBox="0 0 140.1 136.6" style="enable-background:new 0 0 140.1 136.6;" xml:space="preserve">
<style type="text/css">
	.st0{fill:#242424;}
	.st1{fill:#FFFFFF;}
</style>
<g>
	<path class="st0" d="M24.8,0h90.5c13.7,0,24.8,11.1,24.8,24.8l0,0v86.9c0,13.7-11.1,24.8-24.8,24.8l0,0H24.8
		C11.1,136.6,0,125.5,0,111.8l0,0v-87C0,11.1,11.1,0,24.8,0L24.8,0z"/>
	<path class="st1" d="M67.9,81.9H46.2l-4.4,13.7c-0.1,0.5-0.6,0.9-1.1,0.8h-11c-0.6,0-0.8-0.4-0.6-1.1l18.8-54.1
		c0.2-0.6,0.4-1.2,0.6-1.9c0.2-1.3,0.4-2.5,0.4-3.8c0-0.3,0.2-0.6,0.5-0.6h15.1c0.5,0,0.7,0.2,0.8,0.5l21.3,60.1
		c0.2,0.6,0,0.9-0.6,0.9H73.6c-0.4,0-0.8-0.2-0.9-0.6L67.9,81.9z M49.5,70.1h14.8c-0.4-1.2-0.8-2.7-1.3-4.2c-0.5-1.6-1-3.3-1.6-5
		c-0.6-1.8-1.1-3.6-1.7-5.4s-1.1-3.5-1.6-5.2c-0.5-1.6-0.9-3.2-1.3-4.6h-0.1c-0.5,2.5-1.2,5.1-2,7.5c-0.9,2.8-1.8,5.7-2.7,8.6
		C51.3,64.9,50.4,67.6,49.5,70.1L49.5,70.1z"/>
	<path class="st1" d="M99.1,44.9c-1.9,0-3.8-0.7-5.2-2c-1.3-1.5-2-3.4-2-5.4c-0.1-2,0.7-3.8,2.1-5.2c1.4-1.3,3.3-2.1,5.2-2
		c2-0.1,3.9,0.6,5.3,2c2.6,3.1,2.6,7.6-0.1,10.6C103,44.3,101.1,45.1,99.1,44.9z M92.6,95.6V50.7c0-0.6,0.2-0.8,0.8-0.8H105
		c0.5,0,0.8,0.3,0.8,0.8v44.9c0,0.6-0.2,0.9-0.8,0.9H93.4c-0.4,0-0.8-0.3-0.9-0.7C92.5,95.7,92.5,95.6,92.6,95.6z"/>
</g>
</svg>
