<?xml version="1.0" encoding="utf-8"?>
<!-- Generator: Adobe Illustrator 25.2.3, SVG Export Plug-In . SVG Version: 6.00 Build 0)  -->
<svg version="1.1" id="Layer_1" xmlns="http://www.w3.org/2000/svg" xmlns:xlink="http://www.w3.org/1999/xlink" x="0px" y="0px"
	 viewBox="0 0 113.6 110.7" style="enable-background:new 0 0 113.6 110.7;" xml:space="preserve">
<style type="text/css">
	.st0{fill:#242424;}
	.st1{fill:#FFFFFF;}
</style>
<g>
	<path class="st0" d="M20.1,0h73.3c11.1,0,20.1,9,20.1,20.1l0,0v70.5c0,11.1-9,20.1-20.1,20.1l0,0H20.1C9,110.7,0,101.8,0,90.7l0,0
		V20.1C0,9,9,0,20.1,0L20.1,0z"/>
	<path class="st1" d="M41.3,29v48.6c0,0.5-0.2,0.8-0.7,0.8h-9.3c-0.4,0-0.6-0.2-0.6-0.8V29c0-0.4,0.2-0.6,0.7-0.6h9.2
		c0.3,0,0.6,0.2,0.6,0.4l0,0C41.3,28.9,41.3,28.9,41.3,29z"/>
	<path class="st1" d="M68.5,79c-3.5,0.1-7-0.7-10.2-2.1c-3-1.4-5.5-3.6-7.1-6.4c-1.8-3.3-2.7-7-2.6-10.8c0-3.5,0.9-7,2.6-10
		c1.8-3.1,4.4-5.6,7.5-7.3c3.7-1.9,7.8-2.9,12-2.7c0.3,0,0.7,0,1,0c0.4,0,0.9,0,1.5,0.1v-15c0-0.3,0.1-0.5,0.5-0.5h9.6
		c0.2,0,0.4,0.1,0.5,0.3v45.1c0,0.9,0,1.8,0.1,2.8s0.1,1.9,0.2,2.7c0,0.3-0.2,0.6-0.5,0.8c-2.5,1-5.1,1.8-7.7,2.3
		C73.4,78.8,71,79,68.5,79z M73.2,69.6V48.7c-0.4-0.1-0.8-0.2-1.3-0.2s-1-0.1-1.6-0.1c-1.9,0-3.7,0.4-5.3,1.2c-1.6,0.8-3,2-4,3.5
		c-1.1,1.8-1.7,3.9-1.6,6c0,1.7,0.2,3.3,0.8,4.9c0.5,1.3,1.2,2.4,2.1,3.4c0.9,0.9,2,1.5,3.2,1.9c1.3,0.4,2.6,0.6,3.9,0.6
		c0.7,0,1.4,0,2-0.1C72,69.8,72.6,69.8,73.2,69.6z"/>
</g>
</svg>
