<svg xmlns="http://www.w3.org/2000/svg" width="72.8695mm" height="43.7502mm" viewBox="0 0 206.5592 124.0163"><defs><style>.a{fill:#242424;}</style></defs><path class="a" d="M217.5856,151.7544h38.959v3.0816H221.1569v23.1934h33.2774v3.0816H221.1569v25.4641H256.95v3.0816H217.5856Zm42.4491,0h4.1394l18.3432,25.464,18.749-25.464,25.5016-32.3452L284.871,179.8946l21.59,29.7621h-4.3017l-19.6418-27.086-19.723,27.086h-4.2206l21.7521-29.7621Zm47.9682,3.0816v-3.0816H352.4v3.0816H331.9464v54.8207h-3.5712V154.836Z" transform="translate(-168.8464 -119.4092)"/><polygon class="a" points="0 32.345 4.464 32.345 66.021 124.016 40.582 90.248 3.734 36.724 3.571 90.248 0 90.248 0 32.345"/><path class="a" d="M352.04,205.6451a1.29,1.29,0,1,0-1.2769-1.29A1.2538,1.2538,0,0,0,352.04,205.6451Zm3.5091-3.393a3.4928,3.4928,0,0,0,3.8219,3.5488,3.5874,3.5874,0,0,0,3.874-3.9556v-8.8374h-1.9457v8.8287c0,1.3936-.7036,2.138-1.9457,2.138a1.7422,1.7422,0,0,1-1.8935-1.7225ZM365.79,202.14c.139,2.2331,2.0065,3.6613,4.786,3.6613,2.9707,0,4.8295-1.4974,4.8295-3.8864,0-1.8782-1.06-2.9169-3.6308-3.5141l-1.3811-.3376c-1.633-.3809-2.2931-.8915-2.2931-1.7831,0-1.1252,1.025-1.8609,2.5624-1.8609a2.3925,2.3925,0,0,1,2.6492,1.87h1.8936c-.1129-2.1033-1.9717-3.5834-4.5167-3.5834-2.7362,0-4.56,1.48-4.56,3.7046,0,1.835,1.0336,2.9256,3.3007,3.4536l1.6156.3895c1.659.3895,2.3887.9607,2.3887,1.9128,0,1.108-1.1466,1.9129-2.71,1.9129-1.6764,0-2.84-.753-3.0054-1.9388Z" transform="translate(-168.8464 -119.4092)"/></svg>