<svg xmlns="http://www.w3.org/2000/svg" width="60.6778mm" height="37.3946mm" viewBox="0 0 172 106.0005"><defs><style>.a,.c{fill:#686868;}.b,.d{fill:#242424;}.b{fill-rule:evenodd;}.c{opacity:0.66;isolation:isolate;}</style></defs><path class="a" d="M271.1392,234.4176a3.24,3.24,0,0,1-1.629-.439l-5.1862-3.087c-.774-.436-.396-.591-.1407-.68a10.3,10.3,0,0,0,2.3449-1.074.398.398,0,0,1,.3856.03l3.9842,2.38a.505.505,0,0,0,.4812,0l15.5328-9.0212a.4831.4831,0,0,0,.174-.18.4929.4929,0,0,0,.064-.243V204.0655a.52.52,0,0,0-.065-.2472.4982.4982,0,0,0-.177-.1837l-15.5263-9.0137a.4838.4838,0,0,0-.4785,0l-15.5227,9.0164a.5025.5025,0,0,0-.2463.4282v18.0379a.4793.4793,0,0,0,.245.4178l4.255,2.4739c2.3087,1.1616,3.7223-.2064,3.7223-1.5809V205.6048a.451.451,0,0,1,.1323-.32.4458.4458,0,0,1,.3191-.13h1.97a.4466.4466,0,0,1,.3179.1312.4523.4523,0,0,1,.1322.3191v17.8094c0,3.1006-1.678,4.8787-4.5994,4.8787a6.6127,6.6127,0,0,1-3.5779-.9785l-4.0732-2.36a3.3052,3.3052,0,0,1-1.629-2.8514V204.0655a3.2973,3.2973,0,0,1,1.629-2.8488l15.533-9.0319a3.3852,3.3852,0,0,1,3.2645,0l15.5313,9.0319a3.2871,3.2871,0,0,1,1.194,1.2053,3.3215,3.3215,0,0,1,.438,1.6435v18.0379a3.314,3.314,0,0,1-1.632,2.8514l-15.5313,9.0238A3.2428,3.2428,0,0,1,271.1392,234.4176Z" transform="translate(-186.126 -128.4171)"/><path class="a" d="M275.937,221.9907c-6.7971,0-8.2212-3.14-8.2212-5.7729a.4507.4507,0,0,1,.1313-.3193.4451.4451,0,0,1,.3177-.1311h2.0082a.4483.4483,0,0,1,.2936.1082.4536.4536,0,0,1,.1527.2747c.3031,2.0571,1.2071,3.0954,5.3177,3.0954,3.2723,0,4.6653-.7449,4.6653-2.4919,0-1.0071-.3948-1.7547-5.48-2.2557-4.25-.4231-6.8786-1.368-6.8786-4.7892,0-3.1538,2.6415-5.0345,7.0707-5.0345,4.976,0,7.4382,1.7379,7.75,5.4667a.452.452,0,0,1-.2664.4536.4482.4482,0,0,1-.181.0383h-2.016a.4453.4453,0,0,1-.28-.1.45.45,0,0,1-.1564-.2535c-.4837-2.1649-1.66-2.8566-4.8509-2.8566-3.5727,0-3.9881,1.2525-3.9881,2.1908,0,1.1369.49,1.4679,5.314,2.11,4.7735.6347,7.041,1.5341,7.041,4.91C283.681,220.04,280.8589,221.9907,275.937,221.9907Z" transform="translate(-186.126 -128.4171)"/><path class="a" d="M298.335,203.0732a3.0127,3.0127,0,0,1-1.849,2.7826,2.98,2.98,0,0,1-3.262-.6534,3.0239,3.0239,0,0,1,.454-4.6346,2.9733,2.9733,0,0,1,3.778.3773A3.03,3.03,0,0,1,298.335,203.0732Zm-5.504-.0084a2.545,2.545,0,0,0,.42,1.4067,2.5084,2.5084,0,0,0,4.554-.9076,2.5463,2.5463,0,0,0-.145-1.4614,2.51,2.51,0,0,0-4.829.9623Zm1.386-1.6814h1.157c.395,0,1.172,0,1.172.8929a.7765.7765,0,0,1-.158.5381.7684.7684,0,0,1-.477.2906c.461.0319.492.3349.555.7651a3.3522,3.3522,0,0,0,.174.8923h-.712c-.017-.159-.128-1.02-.128-1.0675-.046-.1915-.111-.2868-.348-.2868h-.585v1.3543h-.65Zm.634,1.4822h.523a.4488.4488,0,0,0,.364-.1192.44.44,0,0,0,.111-.1633.4483.4483,0,0,0,.031-.1951c0-.4628-.317-.4628-.491-.4628h-.538Z" transform="translate(-186.126 -128.4171)"/><path class="b" d="M223.0388,163.8453a2.0008,2.0008,0,0,0-.9945-1.7392l-16.4681-9.5368a1.9323,1.9323,0,0,0-.9067-.2635h-.17a1.96,1.96,0,0,0-.9094.2635l-16.4682,9.5368a2.01,2.01,0,0,0-.9957,1.7392l.0362,25.68a.9848.9848,0,0,0,.4966.8644.9518.9518,0,0,0,.9879,0l9.7871-5.6394a2.0189,2.0189,0,0,0,.9957-1.7365V171.016a1.9962,1.9962,0,0,1,.9931-1.7326l4.1673-2.4154a1.97,1.97,0,0,1,.9971-.2687,1.9383,1.9383,0,0,1,.9892.2687l4.1661,2.4154a1.9973,1.9973,0,0,1,.9943,1.7326v11.9975a2.0234,2.0234,0,0,0,.9971,1.7365l9.7844,5.6394a.9635.9635,0,0,0,.9944,0,1.0015,1.0015,0,0,0,.4941-.8644Z" transform="translate(-186.126 -128.4171)"/><path class="b" d="M302.278,128.544a.9926.9926,0,0,0-1.348.3768,1.0067,1.0067,0,0,0-.131.4973v25.4313a.7054.7054,0,0,1-.093.35.6956.6956,0,0,1-.603.35.69.69,0,0,1-.348-.094l-4.125-2.3913a1.98,1.98,0,0,0-1.988.0007l-16.4743,9.5672a2.0036,2.0036,0,0,0-.9951,1.7333v19.1385a2.0057,2.0057,0,0,0,.9946,1.734l16.4738,9.5744a1.98,1.98,0,0,0,1.99,0l16.477-9.5744a2.0034,2.0034,0,0,0,.994-1.734V135.7973a2.005,2.005,0,0,0-1.02-1.7484Zm-1.528,48.6723a.4988.4988,0,0,1-.067.25.5039.5039,0,0,1-.182.1828l-5.657,3.281a.4944.4944,0,0,1-.496,0l-5.657-3.281a.4975.4975,0,0,1-.248-.4329v-6.5724a.5085.5085,0,0,1,.066-.25.5.5,0,0,1,.182-.1834l5.656-3.2875a.4949.4949,0,0,1,.498,0l5.656,3.2875a.4928.4928,0,0,1,.182.1834.4994.4994,0,0,1,.067.25Z" transform="translate(-186.126 -128.4171)"/><path class="b" d="M357.136,170.4718a2.0031,2.0031,0,0,0,.99-1.7308v-4.6379a2.0037,2.0037,0,0,0-.99-1.7313l-16.369-9.5634a1.98,1.98,0,0,0-1.994-.0026l-16.468,9.5672a1.9862,1.9862,0,0,0-.728.7326,2.0073,2.0073,0,0,0-.267,1.0007V183.24a2.0006,2.0006,0,0,0,1.005,1.7392l16.366,9.3842a1.9779,1.9779,0,0,0,1.951.011l9.899-5.5367a.99.99,0,0,0,.372-.3644,1.0068,1.0068,0,0,0,.007-1.0089.991.991,0,0,0-.367-.37l-16.573-9.5718a.999.999,0,0,1-.366-.3665,1.0141,1.0141,0,0,1-.134-.5018V170.658a1.0048,1.0048,0,0,1,.498-.8669l5.158-2.9923a.9875.9875,0,0,1,.993,0l5.161,2.9923a1.0048,1.0048,0,0,1,.498.8669v4.7178a1.0108,1.0108,0,0,0,.133.5011.9985.9985,0,0,0,.365.3665.99.99,0,0,0,.996-.0019Z" transform="translate(-186.126 -128.4171)"/><path class="b" d="M339.527,169.5757a.3787.3787,0,0,1,.382,0l3.161,1.8351a.3838.3838,0,0,1,.191.3329v3.673a.3842.3842,0,0,1-.191.333l-3.161,1.8351a.3793.3793,0,0,1-.382,0l-3.158-1.8351a.3842.3842,0,0,1-.191-.333v-3.673a.3838.3838,0,0,1,.191-.3329Z" transform="translate(-186.126 -128.4171)"/><path class="b" d="M248.62,152.9053a1.9623,1.9623,0,0,1,1.973,0l16.34,9.4886a1.9872,1.9872,0,0,1,.9873,1.72v18.992a1.99,1.99,0,0,1-.9866,1.72l-16.34,9.4963a1.9641,1.9641,0,0,1-1.9743,0l-16.3367-9.4962a1.99,1.99,0,0,1-.9864-1.72V164.1133a1.9872,1.9872,0,0,1,.9871-1.7194Z" transform="translate(-186.126 -128.4171)"/><path class="c" d="M266.8483,162.394l-16.2675-9.4886a1.9557,1.9557,0,0,0-.5159-.2063l-18.3879,31.652a2.0768,2.0768,0,0,0,.5552.475l16.3651,9.4964a1.9232,1.9232,0,0,0,1.5715.1674l17.1793-31.6547A1.7351,1.7351,0,0,0,266.8483,162.394Z" transform="translate(-186.126 -128.4171)"/><path class="d" d="M250.5522,194.3224l16.3015-9.4964a1.921,1.921,0,0,0,.9088-1.72v-.0745l-17.6351-30.3163a1.98,1.98,0,0,0-1.5291.19l-16.17,9.3811,17.5907,32.2468A1.9676,1.9676,0,0,0,250.5522,194.3224Z" transform="translate(-186.126 -128.4171)"/></svg>