<?xml version="1.0" encoding="utf-8"?>
<!-- Generator: Adobe Illustrator 25.2.3, SVG Export Plug-In . SVG Version: 6.00 Build 0)  -->
<svg version="1.1" id="Layer_1" xmlns="http://www.w3.org/2000/svg" xmlns:xlink="http://www.w3.org/1999/xlink" x="0px" y="0px"
	 viewBox="0 0 172.6 168.3" style="enable-background:new 0 0 172.6 168.3;" xml:space="preserve">
<style type="text/css">
	.st0{fill:#242424;}
	.st1{fill:#FFFFFF;}
</style>
<g>
	<path class="st0" d="M30.6,0h111.5c16.9,0,30.6,13.7,30.6,30.5c0,0,0,0,0,0.1v107.2c0,16.9-13.7,30.6-30.5,30.6c0,0,0,0-0.1,0H30.6
		C13.7,168.3,0,154.7,0,137.8c0,0,0,0,0-0.1V30.6C0,13.7,13.7,0,30.6,0C30.5,0,30.6,0,30.6,0z"/>
	<path class="st1" d="M38.8,118V44c0-0.5,0.2-0.8,0.7-0.8c1.2,0,2.4,0,4-0.1C45.2,43,47,43,49,43s4-0.1,6.3-0.1s4.4-0.1,6.5-0.1
		c5-0.1,10.1,0.6,14.8,2.2c3.6,1.2,6.9,3.2,9.6,5.9c2.3,2.3,4.1,5.1,5.3,8.2c1.1,3,1.6,6.2,1.7,9.4c0,6.2-1.4,11.3-4.3,15.3
		s-6.9,7.1-11.6,8.8c-5.2,1.8-10.7,2.6-16.2,2.4c-1.7,0-2.9,0-3.6-0.1s-1.7-0.1-3.1-0.1V118c0.1,0.5-0.3,0.9-0.8,1l0,0h-14
		C39.1,119,38.8,118.7,38.8,118z M54.5,57.1v24.2c1,0.1,1.9,0.1,2.8,0.1h3.8c2.8,0,5.6-0.4,8.3-1.3c2.3-0.7,4.3-2,5.9-3.8
		c1.5-1.8,2.2-4.2,2.2-7.4c0.1-2.2-0.5-4.5-1.7-6.4c-1.2-1.9-3-3.3-5-4.1c-2.7-1.1-5.6-1.5-8.5-1.4c-1.9,0-3.5,0-4.9,0.1
		C56.5,57,55.5,57,54.5,57.1L54.5,57.1z"/>
	<path class="st1" d="M138.1,76.9c-2.2-1.1-4.5-2-6.9-2.4c-2.6-0.6-5.3-0.9-8.1-0.9c-1.5-0.1-2.9,0.1-4.3,0.5
		c-0.9,0.2-1.7,0.7-2.2,1.4c-0.4,0.6-0.6,1.3-0.6,1.9c0,0.7,0.3,1.3,0.7,1.9c0.7,0.8,1.5,1.5,2.4,1.9c1.7,0.9,3.4,1.7,5.1,2.4
		c3.9,1.3,7.6,3.1,11.1,5.3c2.4,1.5,4.3,3.5,5.7,6c1.2,2.3,1.7,4.8,1.7,7.4c0.1,3.4-0.9,6.7-2.8,9.6c-2,2.9-4.8,5.1-8.1,6.4
		c-4.1,1.6-8.6,2.4-13,2.3c-3.3,0-6.6-0.3-9.8-0.9c-2.5-0.4-5-1.2-7.3-2.3c-0.5-0.3-0.8-0.8-0.8-1.4v-12.5c0-0.2,0.1-0.5,0.3-0.6
		c0.2-0.1,0.5-0.1,0.6,0.1c2.8,1.6,5.8,2.8,8.9,3.5c2.8,0.7,5.6,1.1,8.5,1.1c2,0.1,4.1-0.2,6-1c1.2-0.5,1.9-1.7,1.9-3
		c-0.1-1.2-0.7-2.2-1.7-2.9c-1.2-0.9-3.5-2-7-3.4c-3.6-1.3-7-3-10.2-5.2c-2.3-1.6-4.1-3.7-5.5-6.1c-1.1-2.3-1.7-4.8-1.7-7.3
		c0-3.1,0.9-6.1,2.4-8.7c1.8-2.9,4.5-5.2,7.6-6.6c3.4-1.7,7.6-2.5,12.7-2.5c3,0,6,0.2,8.9,0.6c2.1,0.3,4.2,0.8,6.2,1.7
		c0.3,0.1,0.6,0.3,0.7,0.6c0.1,0.3,0.1,0.6,0.1,0.9v11.7c0,0.3-0.1,0.6-0.4,0.7C139,77,138.5,77,138.1,76.9z"/>
</g>
</svg>
