<?xml version="1.0" encoding="utf-8"?>
<!-- Generator: Adobe Illustrator 25.2.3, SVG Export Plug-In . SVG Version: 6.00 Build 0)  -->
<svg version="1.1" id="Layer_1" xmlns="http://www.w3.org/2000/svg" xmlns:xlink="http://www.w3.org/1999/xlink" x="0px" y="0px"
	 viewBox="0 0 142.1 138.6" style="enable-background:new 0 0 142.1 138.6;" xml:space="preserve">
<style type="text/css">
	.st0{fill:#242424;}
	.st1{fill:#FFFFFF;}
</style>
<g>
	<path class="st0" d="M25.2,0H117c13.9,0,25.2,11.2,25.2,25.1l0,0v88.2c0,13.9-11.2,25.2-25.1,25.2l0,0H25.2
		C11.3,138.6,0,127.4,0,113.5l0,0V25.2C0,11.3,11.2,0,25.2,0C25.1,0,25.2,0,25.2,0z"/>
	<path class="st1" d="M33.8,97.2v-61c0-0.4,0.2-0.7,0.6-0.7c1,0,2,0,3.3-0.1c1.4-0.1,2.9-0.1,4.5-0.1s3.3-0.1,5.2-0.1
		s3.6-0.1,5.4-0.1c4.1-0.1,8.3,0.5,12.2,1.8c3,1,5.7,2.7,7.9,4.9c1.9,1.9,3.4,4.2,4.3,6.8c0.9,2.5,1.4,5.1,1.4,7.7
		c0,5.1-1.2,9.3-3.6,12.6s-5.7,5.8-9.5,7.2c-4.3,1.5-8.8,2.1-13.3,2c-1.4,0-2.4,0-3-0.1s-1.4-0.1-2.5-0.1v19
		c0.1,0.4-0.2,0.8-0.6,0.8l0,0H34.5C34,98,33.8,97.7,33.8,97.2z M46.7,47v19.9C47.5,67,48.3,67,49,67h3.1c2.3,0,4.6-0.4,6.8-1.1
		c1.9-0.6,3.6-1.6,4.9-3.1c1.3-1.7,2-3.9,1.8-6.1c0.1-1.9-0.4-3.7-1.4-5.3c-1-1.5-2.4-2.7-4.1-3.4c-2.2-0.9-4.6-1.3-7-1.2
		c-1.5,0-2.9,0-4,0.1C48.3,46.9,47.5,46.9,46.7,47L46.7,47z"/>
	<path class="st1" d="M86.8,50.5h10.4c0.6,0,1.1,0.4,1.2,0.9c0.2,0.5,0.3,1,0.4,1.5c0.1,0.6,0.2,1.2,0.3,1.8
		c0.1,0.7,0.1,1.4,0.1,2.1c1.8-2.1,3.9-3.8,6.3-5.1c2.8-1.5,5.9-2.3,9-2.3c0.4-0.1,0.8,0.2,0.8,0.6l0,0v11.8c0,0.5-0.3,0.7-0.9,0.7
		c-2.1-0.1-4.3,0.1-6.4,0.6c-1.7,0.4-3.4,0.9-5,1.6c-1.1,0.5-2.2,1.3-3,2.2v30.2c0,0.6-0.2,0.8-0.8,0.8H87.6
		c-0.4,0.1-0.9-0.2-0.9-0.7l0,0v-33c0-1.4,0-2.9-0.1-4.4s-0.1-3.1-0.1-4.6c0-1.4-0.1-2.7-0.2-4C86.2,50.9,86.4,50.6,86.8,50.5
		L86.8,50.5C86.6,50.4,86.8,50.4,86.8,50.5L86.8,50.5z"/>
</g>
</svg>
