<svg xmlns="http://www.w3.org/2000/svg" width="48.4006mm" height="43.1028mm" viewBox="0 0 137.1987 122.1812"><defs><style>.a{fill:#242424;}</style></defs><path class="a" d="M340.7253,181.4313c0-9.0888-11.3819-17.7021-28.8324-23.0436,4.027-17.786,2.2372-31.9365-5.649-36.467a12.2622,12.2622,0,0,0-6.2643-1.566v6.2363a6.4762,6.4762,0,0,1,3.1881.7271c3.8033,2.1813,5.4532,10.487,4.1668,21.17-.3076,2.6287-.811,5.3973-1.4262,8.2218a135.5224,135.5224,0,0,0-17.7581-3.0482,136.4259,136.4259,0,0,0-11.6336-13.9828c9.1167-8.4735,17.6742-13.1158,23.491-13.1158v-6.2363h0c-7.6905,0-17.7581,5.4812-27.9375,14.99-10.18-9.4523-20.247-14.8776-27.9376-14.8776v6.2363c5.7889,0,14.3743,4.6143,23.4911,13.0319a132.08,132.08,0,0,0-11.55,13.9548,130.5807,130.5807,0,0,0-17.786,3.0762c-.6432-2.7966-1.1187-5.5092-1.4543-8.11-1.3143-10.6828.3077-18.9886,4.083-21.1979a6.2245,6.2245,0,0,1,3.216-.7271v-6.2363h0a12.47,12.47,0,0,0-6.32,1.5661c-7.8583,4.53-9.62,18.653-5.5651,36.3831-17.3945,5.3694-28.7206,13.9548-28.7206,23.0156,0,9.0888,11.382,17.7022,28.8325,23.0436-4.0271,17.786-2.2373,31.9366,5.649,36.467a12.2932,12.2932,0,0,0,6.2922,1.566c7.6905,0,17.7581-5.4812,27.9376-14.9895,10.1794,9.4524,20.247,14.8777,27.9375,14.8777a12.4692,12.4692,0,0,0,6.32-1.5661c7.8583-4.53,9.62-18.653,5.5651-36.3831C329.3993,199.1055,340.7253,190.4921,340.7253,181.4313Zm-36.4111-18.653c-1.0347,3.6076-2.3211,7.327-3.7753,11.0464-1.1466-2.2372-2.3491-4.4745-3.6635-6.7117-1.2864-2.2373-2.6567-4.4186-4.027-6.544C296.82,161.1563,300.6508,161.8834,304.3142,162.7783Zm-12.8081,29.7833c-2.1813,3.7753-4.4186,7.3549-6.74,10.6828-4.1669.3635-8.39.5593-12.64.5593-4.2228,0-8.4456-.1958-12.5845-.5313q-3.4817-4.9918-6.7677-10.6269-3.1879-5.4952-5.8168-11.13c1.7339-3.7474,3.6915-7.4947,5.7889-11.1582,2.1813-3.7754,4.4185-7.3549,6.74-10.6828,4.1668-.3636,8.39-.5593,12.64-.5593,4.2228,0,8.4456.1957,12.5844.5313q3.4818,4.9918,6.7677,10.6269,3.1881,5.4952,5.8168,11.13C295.5331,185.1507,293.6035,188.8981,291.5061,192.5616Zm9.0328-3.6355c1.51,3.7473,2.7966,7.4947,3.8592,11.13-3.6634.8949-7.5227,1.65-11.5217,2.2373,1.37-2.1534,2.7406-4.3627,4.027-6.6279C298.19,193.4285,299.3923,191.1633,300.5389,188.9261Zm-28.357,29.8391a115.2787,115.2787,0,0,1-7.7744-8.9489c2.5169.1118,5.09.1957,7.69.1957,2.6288,0,5.23-.0559,7.7744-.1957A109.1574,109.1574,0,0,1,272.1819,218.7652Zm-20.8063-16.4716c-3.9711-.5873-7.8024-1.3144-11.4659-2.2093,1.0348-3.6076,2.3212-7.327,3.7754-11.0464,1.1466,2.2373,2.3491,4.4745,3.6634,6.7117S250.0053,200.1682,251.3756,202.2936Zm20.6665-58.1962a115.2973,115.2973,0,0,1,7.7744,8.9489c-2.5169-.1118-5.09-.1957-7.6905-.1957-2.6288,0-5.23.0559-7.7744.1957A109.1741,109.1741,0,0,1,272.0421,144.0974ZM251.3476,160.569c-1.37,2.1534-2.7406,4.3627-4.027,6.6279-1.2864,2.2372-2.4889,4.4744-3.6355,6.7117-1.51-3.7474-2.7966-7.4948-3.8593-11.13C243.4893,161.9114,247.3485,161.1563,251.3476,160.569Zm-25.3088,35.0128c-9.9-4.2227-16.3038-9.76-16.3038-14.15s6.4041-9.9557,16.3038-14.15c2.4051-1.0348,5.0338-1.9576,7.7465-2.8245a134.3086,134.3086,0,0,0,6.2922,17.0309,132.4371,132.4371,0,0,0-6.2083,16.9471C231.1006,197.5674,228.4718,196.6166,226.0388,195.5818Zm15.0455,39.9627c-3.8033-2.1813-5.4533-10.487-4.1669-21.17.3076-2.6288.811-5.3974,1.4263-8.2219a135.52,135.52,0,0,0,17.7581,3.0482,136.4043,136.4043,0,0,0,11.6336,13.9828c-9.1168,8.4735-17.6742,13.1158-23.491,13.1158A6.6731,6.6731,0,0,1,241.0843,235.5445Zm66.3341-21.31c1.3144,10.6828-.3076,18.9886-4.0829,21.1979a6.2249,6.2249,0,0,1-3.2161.7271c-5.7888,0-14.3742-4.6143-23.491-13.0319a132.09,132.09,0,0,0,11.55-13.9548,130.5961,130.5961,0,0,0,17.786-3.0762A78.282,78.282,0,0,1,307.4184,214.2348Zm10.7667-18.653c-2.405,1.0348-5.0337,1.9576-7.7464,2.8246a134.32,134.32,0,0,0-6.2922-17.031,132.4261,132.4261,0,0,0,6.2083-16.9471c2.7686.8669,5.3973,1.8177,7.8583,2.8525,9.9,4.2228,16.3039,9.76,16.3039,14.15C334.489,185.8219,328.0849,191.387,318.1851,195.5818Z" transform="translate(-203.5266 -120.3267)"/><path class="a" d="M244.1045,120.4386Z" transform="translate(-203.5266 -120.3267)"/><circle class="a" cx="68.5714" cy="61.1046" r="12.7802"/><path class="a" d="M299.9516,120.3547Z" transform="translate(-203.5266 -120.3267)"/></svg>