<svg xmlns="http://www.w3.org/2000/svg" width="88.576mm" height="15.1056mm" viewBox="0 0 251.0814 42.819"><defs><style>.a,.c{fill:#242424;}.b{fill:#686868;}.c{fill-rule:evenodd;}</style></defs><path class="a" d="M273.5921,173.043c.5539-4.683,1.2085-7.7043,2.3666-8.1575,1.46-.5539,4.0284.7049,4.8341,1.6617a6.886,6.886,0,0,1,1.3093,3.978,77.2774,77.2774,0,0,1,.2517,9.6682c-.151,2.9709-.3021,12.84-.2517,15.1065s-7.9561.7553-8.1072-1.36c-.6043-1.561-.9567-16.2647-.4028-20.8973ZM324.3,195.3c-1.7624,1.5106-4.4312,2.1652-8.56,1.9638a34.8549,34.8549,0,0,1-13.898-3.0213c-2.9206-1.1582-8.3589-4.0284-8.8121-4.23-.6546-.3021-.2518,4.0284-1.1078,5.9419-.6043,1.36-4.8341-.1007-5.7909-.9064-1.9134-1.7121-1.5106-6.9994-1.561-14.754,0-6.3447.4029-14.4015,1.561-15.459,1.0575-.9567,3.5752.6043,4.9348,2.2156,2.0142,2.266-.4532,6.8483,1.36,6.5462,1.3092-.2518,5.9922-3.3738,9.4164-5.0355,3.2227-1.561,5.0858-1.9135,6.4958-1.1078,1.2085.7049,5.2369,4.7333,1.8631,6.5965-1.8631.8057-5.1362,2.5681-7.5029,3.7766-2.1149,1.1078-4.3809,2.3163-4.23,3.1724.2014.9567,5.2369,3.7262,10.9774,6.0426a63.66,63.66,0,0,0,14.3008,3.8773c4.28.6043,2.417,2.82.5539,4.3809Zm-54.2323-10.2221c-1.5106-1.6114-1.8128-.7553-11.5816,1.3092-6.5965,1.41-7.4022-.05-7.5533-1.1581a75.04,75.04,0,0,1,0-9.2653c.2014-4.532.1007-7.7043-2.1149-9.2653-2.266-1.6114-3.4745-1.46-4.5823-1.1582s-1.7121,3.3234-1.7121,3.3234a49.9619,49.9619,0,0,0-.9063,8.3589c-.05,2.4674-.3525,7.1.2014,9.3157-2.7695-.2014-16.5164-3.827-17.725-6.0929-.4532-.9064,3.6256-3.3235,5.64-4.4313,2.6185-1.41,4.5823-1.8127,5.74-2.6688,1.8632-1.36.705-3.4241-.9063-5.4887-1.561-2.0645-3.0213-2.0645-5.9419-.5539-3.8773,2.0142-6.2944,3.7767-8.9632,5.1866-2.2156,1.1581-2.82,1.1581-3.122,1.0071-.7553-.3021-.4028-3.7766-.6546-5.5894s-1.7624-3.3234-4.0284-4.1291c-2.1149-.7553-3.9277-1.1582-4.28,1.7624a155.1283,155.1283,0,0,0-1.0071,23.5158c.2014,6.6468.3022,7.05,2.1653,8.0064,4.3305,2.2156,6.2944,1.0071,6.3951-2.266.151-4.4312.151-5.74,1.2085-5.7908.8057-.05,10.3731,3.6759,15.61,4.9348a80.1461,80.1461,0,0,0,17.3725,2.5681,43.5246,43.5246,0,0,0,16.0128-2.1653c2.77-.856,5.237-2.3163,5.5391-3.7262s.705-3.9277-.8057-5.5391Z" transform="translate(-146.5853 -160.0078)"/><path class="b" d="M195.1894,160.5549c.9064-1.712,1.8128.8561,2.6688,4.0788s2.9709,6.5461-2.6185,6.9993a72.5336,72.5336,0,0,0-8.2582,0,20.286,20.286,0,0,0-7.1,1.3092c-1.2589.4532-1.3093,1.8128-.1511,2.5682.8057.5035,4.7837,2.0142,8.4093,3.4241,4.4816,1.7624,10.9774,3.978,13.7469,6.0929a8.15,8.15,0,0,1,2.2659,10.6753c-1.712,3.0716-7.15,4.8844-14.4518,5.9922-9.7689,1.46-28.6016,1.3093-35.1981.6546-6.798-.6546-8.0568-1.0574-7.9058-1.8127s4.6327-.554,8.7114-.8057c5.1866-.3022,27.2421-2.2156,32.2272-5.8412,3.0717-2.2156,1.3092-4.0788.8057-4.4312-1.2589-1.5107-6.1937-3.6759-10.4235-5.8916-6.1936-3.2227-10.8767-5.9418-12.0852-8.56a5.8375,5.8375,0,0,1,1.5107-6.8483c2.7191-2.7192,5.8412-4.1291,10.071-5.1866a45.2083,45.2083,0,0,1,10.927-1.3092c3.0213-.151,6.2944,0,6.8483-1.1078Z" transform="translate(-146.5853 -160.0078)"/><path class="c" d="M382.6609,191.7246a51.0382,51.0382,0,0,1-8.3086.4029,8.8245,8.8245,0,0,1-3.2731-.6546c-2.2659-1.5107,5.69-4.18,6.6972-4.532,2.77-1.0071,8.3589-2.6184,8.3589-2.6184s5.237-1.3093,5.388-4.1292c.2015-3.4241-3.3234-4.9851-6.0426-5.8411a24.8055,24.8055,0,0,0-3.3737-.5539c-.7554-.1008-1.561-.1008-2.3164-.1511a31.2178,31.2178,0,0,0-4.33.2518c-1.46.2014-4.6326.2517-5.0858,2.1149-.2518.9567-1.3092,2.9206-.4028,3.7766.9567.9064,2.5177.5539,3.6759.4028,1.6113-.151,3.2227-.4531,4.834-.6042,1.2086-.1007,2.7192-.4029,3.7263.5035,1.2085,1.1078-1.9639,2.1149-2.6185,2.3667-2.417,1.0071-4.9347,1.7624-7.3518,2.7695-2.2659.9568-4.5319,1.8632-6.7476,2.9206a33.5157,33.5157,0,0,0-2.9205,1.6617l-.4532-.3021-2.77.3021-2.7695.2518c-1.8631.1511-3.7766.2014-5.64.3021-.9568.05-2.4171.05-3.1221-.6042-1.6113-1.5107-.7049-3.6256.3525-5.1362a14.8667,14.8667,0,0,1,4.4816-3.827,15.6136,15.6136,0,0,1,3.6256-1.6114,24.5452,24.5452,0,0,1,2.6185-.6043c.151.2518.2517.5036.4028.7554a11.3775,11.3775,0,0,0,2.3667-.8561c.6546-.3525,1.5106-1.0071,1.561-1.8128a3.2508,3.2508,0,0,0-1.561-2.4673,5.5052,5.5052,0,0,0-2.82-.7554,23.3177,23.3177,0,0,0-3.2731.2015,12.202,12.202,0,0,0-2.2659.5035,17.9429,17.9429,0,0,0-3.5249,1.46,16.7547,16.7547,0,0,0-4.0787,3.1723,12.8463,12.8463,0,0,0-1.46,1.9135,14.6026,14.6026,0,0,0-1.2589,2.87,12.3955,12.3955,0,0,0,.6546,8.7114,9.9051,9.9051,0,0,0,11.0277,5.5894,14.4529,14.4529,0,0,0,2.87-.8561,24.5159,24.5159,0,0,0,2.87-1.2085,11.2257,11.2257,0,0,1,2.266-1.0574c.3021.4028.5035.9063.8056,1.2588a7.1313,7.1313,0,0,0,1.1079,1.0071,5.3718,5.3718,0,0,0,2.7191.9568c2.5178.3021,5.0355.4532,7.5533.5035a48.5644,48.5644,0,0,0,6.0426-.3021c1.3092-.1007,2.5681-.3021,3.8773-.4532a31.2393,31.2393,0,0,0,9.5171-2.6688,10.3993,10.3993,0,0,0,3.3738-2.5681,5.4274,5.4274,0,0,0-1.2085-.6043,16.4184,16.4184,0,0,0-8.2583-.7049c-1.2588.151-2.5177.3021-3.7766.4028a11.3621,11.3621,0,0,1-1.7624.151Zm-43.6578,2.9206a2.6906,2.6906,0,0,0-.151-1.3092,3.5085,3.5085,0,0,0-2.4171-2.1149,3.6221,3.6221,0,0,0-2.7695.6042,3.8,3.8,0,0,0-1.0574,1.3093,4.0585,4.0585,0,0,0,.2517,3.5752,3.4122,3.4122,0,0,0,4.9348.3021,3.8508,3.8508,0,0,0,1.2086-2.3667Z" transform="translate(-146.5853 -160.0078)"/></svg>