<svg xmlns="http://www.w3.org/2000/svg" width="881.8676mm" height="661.0257mm" viewBox="0 0 2499.7823 1873.7738"><defs><style>.a{fill:#242424;}</style></defs><path class="a" d="M2151.3672,1077.1485c-87.4023.4931-163.0859,21.4843-226.5625,52.7392-23.4374-46.3867-46.875-86.9189-50.7763-117.1875-4.3945-35.1562-9.7656-56.6455-4.3945-98.6328,5.3661-41.9971,29.78-101.5674,29.78-106.45-.4933-4.3945-5.3761-25.8789-55.6641-26.3671s-93.75,9.7656-98.6328,22.9492a560.7749,560.7749,0,0,0-20.9961,74.707c-8.789,45.8984-100.5859,208.4961-152.8319,293.9453-17.09-33.2031-31.7383-62.5-34.673-85.9423-4.3895-35.1514-9.7656-56.6407-4.3895-98.628,5.3711-41.9971,29.7851-101.5625,29.7851-106.4453-.4883-4.3945-5.3711-25.8789-55.6591-26.3672-50.2978-.4883-93.75,9.7657-98.6328,22.9492s-10.254,44.4337-20.9961,74.7071c-10.259,30.2734-132.3293,301.7578-164.0676,372.5586-16.1133,36.1328-30.2686,64.9413-40.5273,84.4726-10.254,19.5312-.4883,1.4648-1.4649,3.418-8.7891,16.6015-13.6719,25.8789-13.6719,25.8789v.4932c-6.8359,12.207-14.16,23.9208-17.583,23.9208-2.4414,0-7.3242-32.7149.9766-77.6318,18.0664-94.2431,62.0117-241.2109,61.5283-246.582,0-2.4414,8.2959-28.3252-28.3252-41.5039-35.6445-13.1836-48.335,8.7891-51.2695,8.7891-2.93,0-5.3712,7.8125-5.3712,7.8125s39.5509-165.5225-75.6835-165.5225c-72.2657,0-171.875,78.6134-221.1915,150.3907-31.25,17.09-97.6562,53.2178-167.9688,91.7969-26.8554,14.6484-54.6874,30.2734-81.0546,44.4336l-5.3661-5.8693c-139.6484-148.9258-397.9492-254.3945-387.207-454.59,3.9062-72.7539,29.2968-264.6485,496.0985-497.07,382.3243-190.43,688.4766-138.1836,741.6943-21.9726,75.6836,166.0156-163.5742,474.6093-561.03,519.043-151.3672,17.09-230.9619-41.504-250.9765-63.4766-20.9962-22.9492-23.9258-23.9258-31.7383-19.5313-12.6953,6.836-4.8828,27.3438,0,39.5509,11.7187,30.7617,60.5469,85.4492,143.5547,112.793,72.749,23.9257,250.4883,37.1094,465.332-45.8985,240.7226-93.2617,428.7109-352.0507,373.5352-568.3593-56.1524-220.2149-421.3868-292.48-766.6016-169.9219-205.5712,73.2422-428.2274,187.5-588.3837,337.4023C19.5312,575.6836-10.7422,730.957,1.9531,795.41c44.4385,229.98,361.3282,379.8828,488.2813,490.7227-6.3477,3.4131-12.207,6.831-17.5781,9.7656-63.4766,31.2451-305.1758,157.7148-365.7227,291.499-68.3594,151.3672,10.7422,260.2588,63.4766,274.9072,163.0859,45.41,330.0781-36.1327,420.41-170.41,89.8389-134.2773,79.1016-308.5938,37.5977-388.1836l-1.47-2.93,49.8046-29.2969c32.2315-19.0429,63.97-36.6211,91.7969-51.7627-15.62,42.48-26.8555,92.7736-32.71,166.0157-6.8359,85.9425,28.32,197.2656,74.7071,241.211,20.5078,19.038,44.9218,19.5312,60.0586,19.5312,53.7109,0,78.125-44.4385,104.9805-97.6562,33.2031-64.9414,62.5-140.1368,62.5-140.1368S1001.4649,1612.3,1101.5625,1612.3c36.6211,0,73.2422-47.3633,89.8437-71.7774v.4883s.9766-1.4648,2.93-4.8828q3.0731-4.5438,5.8593-9.2724v-.9766c14.6485-25.3907,47.3633-83.4961,96.1914-179.6874,62.9834-124.0235,123.5351-279.2969,123.5351-279.2969s5.8594,38.0859,23.9258,100.586c10.7373,37.1142,34.1747,77.6367,52.2412,117.1875-14.6484,20.5079-23.4374,32.2315-23.4374,32.2315l.4883.4884c-11.7138,15.625-24.9024,32.2315-38.5693,48.8281-49.8047,59.57-109.375,127.4463-117.1875,146.9776-9.2773,22.9443-7.3242,40.0342,10.7422,53.7109,13.1837,9.7656,36.6211,11.7138,61.5235,9.7656,44.922-2.9346,76.1719-14.16,91.7968-21.0009a317.9211,317.9211,0,0,0,79.1017-41.5039c48.8281-36.1279,78.6133-87.3974,75.6835-155.7568-1.4647-37.5977-13.6718-74.707-28.8085-109.8633,4.3945-6.3476,8.7939-12.7,13.1836-19.5312,77.1484-112.7979,136.7188-236.8164,136.7188-236.8164s5.8594,38.0859,23.9257,100.5859c9.2724,31.7383,27.8321,66.4112,44.4337,100.5909-72.2656,59.0819-117.6758,127.4413-133.3008,172.3633-28.8085,83.0078-6.3476,120.6055,36.1328,129.3945,19.038,3.9062,46.3867-4.8828,66.89-13.6718a303.1246,303.1246,0,0,0,84.4775-43.457c48.8281-36.1328,95.7032-86.4259,93.2618-154.2969-1.4648-31.25-9.7657-62.0117-20.9961-91.3086,61.5235-25.3906,141.1084-40.0391,242.1876-27.832,217.2851,25.3906,260.2538,161.1328,251.958,217.7734-8.3008,56.6456-53.7109,87.8907-68.8526,97.6563-15.1367,9.2773-20.0195,12.7-18.5546,19.5312,1.9531,10.2589,8.789,9.7657,21.9727,7.8175,18.0664-2.9346,114.2577-46.3867,118.1641-150.874,5.8594-134.2968-121.582-280.7812-347.6563-279.3213ZM475.5859,1642.09c-71.7773,78.6133-172.8515,108.3985-215.82,83.0078-46.3867-26.8555-28.3252-142.5782,60.0586-226.0742,53.711-50.7812,123.5352-97.6562,169.4336-126.4648,10.2539-6.3476,25.8789-15.62,44.4336-26.8555a52.0987,52.0987,0,0,1,4.8828-2.93c3.418-1.9531,7.3242-4.3945,11.2305-6.8359C582.52,1455.0781,551.27,1559.57,475.5859,1642.09Zm524.9024-356.9336c-24.9024,61.0351-77.6367,217.7734-109.375,208.9843-27.3486-7.3243-43.9453-125.9765-5.376-243.164,19.5313-59.0869,61.0352-129.3946,85.4492-156.7432,39.5557-43.9453,82.5195-58.5937,93.2666-40.5273C1077.1485,1077.1483,1016.1133,1247.07,1000.4883,1285.1562Zm433.1053,207.0312c-10.7422,5.376-20.5078,9.2773-24.9023,6.3525-3.4181-1.9531,4.3895-9.2773,4.3895-9.2773s54.1993-58.1055,75.6836-84.9609c12.2071-15.62,26.8555-33.6865,42.4806-54.1993v5.8594c.005,70.3078-67.3779,117.1828-97.6512,136.2257Zm333.98-76.1719c-7.8126-5.86-6.831-23.9258,19.5312-80.5664,10.2589-22.461,33.6914-60.0586,74.2188-95.7032,4.8828,14.6484,7.8175,28.8037,7.3242,41.9922C1868.1639,1369.6287,1805.664,1402.3437,1767.5731,1416.0155Z" transform="translate(0.5648 -1.1749)"/></svg>