<svg xmlns="http://www.w3.org/2000/svg" width="66.1242mm" height="18.8797mm" viewBox="0 0 187.4386 53.5174"><defs><style>.a{fill:#787878;}.b{fill:#242424;}.c{fill:#464646;}</style></defs><path class="a" d="M243.43,194.6594a5.9711,5.9711,0,0,1-1.86,4.49,6.3716,6.3716,0,0,1-4.5794,1.7841,7.56,7.56,0,0,1-6.2825-3.0145l1.7215-1.9577a5.9707,5.9707,0,0,0,4.4333,2.35,4.1529,4.1529,0,0,0,2.7431-1.0063,3.1581,3.1581,0,0,0,1.2021-2.5283,3.4464,3.4464,0,0,0-1.4264-2.7145,16.9094,16.9094,0,0,0-2.773-1.6412,12.35,12.35,0,0,1-3.4572-2.4069,5.4377,5.4377,0,0,1-1.4842-3.8364,5.3221,5.3221,0,0,1,1.6737-4.0615,5.8422,5.8422,0,0,1,4.1586-1.5751q2.9337.0017,5.9123,2.877l-1.7591,1.8193a6.33,6.33,0,0,0-4.2776-2.1135,3.3582,3.3582,0,0,0-2.2463.8382,2.6244,2.6244,0,0,0-.9764,2.083q-.0024,2.1007,4.0632,4.2038a14.35,14.35,0,0,1,3.6336,2.47A5.498,5.498,0,0,1,243.43,194.6594Z" transform="translate(-178.4067 -154.6586)"/><path class="a" d="M265.2287,200.3852h-2.7593V190.2363a26.1248,26.1248,0,0,0-.2927-4.9084,5.0017,5.0017,0,0,0-5.3477-4.2425,6.7628,6.7628,0,0,0-4.4392,1.6329,7.6173,7.6173,0,0,0-2.5848,4.0771,27.5685,27.5685,0,0,0-.3906,5.7866v7.8032h-2.76V170.8668h2.76v12.0381q3.3018-4.3626,7.976-4.3637a7.6866,7.6866,0,0,1,4.1932,1.1845,7.0633,7.0633,0,0,1,2.756,3.2587,17.3766,17.3766,0,0,1,.8891,6.4393Z" transform="translate(-178.4067 -154.6586)"/><path class="a" d="M287.8641,189.8546a8.5677,8.5677,0,0,0-2.3921-6.0643,8.0761,8.0761,0,0,0-11.7768,0,8.5509,8.5509,0,0,0-2.3906,6.0643,8.7038,8.7038,0,0,0,1.0733,4.2382,7.8523,7.8523,0,0,0,3.0277,3.1239,8.2706,8.2706,0,0,0,4.1789,1.0947A7.6679,7.6679,0,0,0,286.75,194.15,8.6584,8.6584,0,0,0,287.8641,189.8546Zm2.7993-.06a10.82,10.82,0,0,1-3.1913,7.9184,11.2975,11.2975,0,0,1-15.7873.0112,10.789,10.789,0,0,1-3.2-7.93,11.0652,11.0652,0,0,1,2.9368-7.672,11.0912,11.0912,0,0,1,16.3048-.02A11.1041,11.1041,0,0,1,290.6634,189.7943Z" transform="translate(-178.4067 -154.6586)"/><path class="a" d="M313.5941,189.776a8.73,8.73,0,0,0-1.1331-4.2963,8.1736,8.1736,0,0,0-3.0766-3.1534,8.3277,8.3277,0,0,0-4.2271-1.1239,7.9936,7.9936,0,0,0-6.0245,2.4995,8.5613,8.5613,0,0,0-2.3926,6.1527,7.8887,7.8887,0,0,0,4.199,7.4206,8.5146,8.5146,0,0,0,4.2579,1.1318,8.0341,8.0341,0,0,0,4.2181-1.172,8.9051,8.9051,0,0,0,4.1789-7.459Zm2.7788-.0983a11.0407,11.0407,0,0,1-3.1293,7.9279,10.3346,10.3346,0,0,1-7.7822,3.3279,10.64,10.64,0,0,1-8.5257-4.2088V208.176h-2.74V179.0892h2.74v3.9144a10,10,0,0,1,8.4476-4.4624,10.4987,10.4987,0,0,1,7.793,3.269A10.8526,10.8526,0,0,1,316.3729,189.6777Z" transform="translate(-178.4067 -154.6586)"/><polygon class="b" points="151 26.798 146.653 26.798 146.653 45.727 143.876 45.727 143.876 26.798 140.136 26.798 140.136 24.431 143.876 24.431 143.876 16.522 146.653 16.522 146.653 24.431 151 24.431 151 26.798"/><path class="b" d="M349.8281,187.5642a7.9026,7.9026,0,0,0-4.3647-5.5835,8.5471,8.5471,0,0,0-3.62-.7969,7.8294,7.8294,0,0,0-5.3844,2.0033,9.0472,9.0472,0,0,0-2.4845,4.3771Zm2.9962,2.3877H333.6992a8.849,8.849,0,0,0,2.2292,5.9558,7.4551,7.4551,0,0,0,5.7879,2.4993,8.451,8.451,0,0,0,5.7669-2.0672,12.7661,12.7661,0,0,0,2.3265-3.0207l2.31,1.2126a11.2132,11.2132,0,0,1-5.971,5.6767,11.5636,11.5636,0,0,1-4.2079.7251,10.7148,10.7148,0,0,1-7.9372-3.1712,10.8583,10.8583,0,0,1-3.1422-7.968,11.386,11.386,0,0,1,2.4873-7.2216,10.1628,10.1628,0,0,1,8.4354-4.0315,10.5,10.5,0,0,1,8.6913,4.1289A11.6069,11.6069,0,0,1,352.8243,189.9519Z" transform="translate(-178.4067 -154.6586)"/><polygon class="b" points="187.439 26.798 183.093 26.798 183.093 45.727 180.314 45.727 180.314 26.798 176.575 26.798 176.575 24.431 180.314 24.431 180.314 16.522 183.093 16.522 183.093 24.431 187.439 24.431 187.439 26.798"/><rect class="a" y="24.1138" width="22.6253" height="22.6271"/><rect class="b" x="24.1139" y="24.1138" width="22.6251" height="22.6271"/><rect class="c" x="11.908" width="22.6251" height="22.6256"/></svg>