<svg xmlns="http://www.w3.org/2000/svg" width="64.796mm" height="38.5702mm" viewBox="0 0 183.6736 109.3328"><defs><style>.a{fill:#242424;}.b{fill:#fff;}</style></defs><path class="a" d="M197.3347,126.7509h149.507a17.1135,17.1135,0,0,1,17.1211,17.1211v57.0692a17.1135,17.1135,0,0,1-17.1211,17.1211H293.2271l7.3592,18.0214-32.3645-18.0214h-70.811A17.1135,17.1135,0,0,1,180.29,200.9412V143.872a17.0492,17.0492,0,0,1,17.0457-17.1211Z" transform="translate(-180.2892 -126.7509)"/><path class="b" d="M190.7476,142.3559a6.01,6.01,0,0,1,4.7038-2.3145q5.7118-.448,6.4958,5.3758,3.4719,23.4075,7.5414,39.6468L225.84,153.9293q2.24-4.2559,5.6-4.48c3.2852-.224,5.3011,1.8665,6.1224,6.2717a139.4578,139.4578,0,0,0,7.0931,25.5349q2.9118-28.4475,9.8559-41.0653a5.7352,5.7352,0,0,1,4.9278-3.2852,6.4865,6.4865,0,0,1,4.7038,1.4933,5.8478,5.8478,0,0,1,2.3146,4.2558,6.4783,6.4783,0,0,1-.7467,3.5838c-2.9118,5.3759-5.3011,14.4105-7.2421,26.9533-1.8666,12.1705-2.5386,21.6527-2.0906,28.4471a8.8611,8.8611,0,0,1-.896,4.9279,4.8116,4.8116,0,0,1-3.9572,2.6878c-1.9412.1493-3.9571-.7466-5.8984-2.7625q-10.4156-10.64-16.5-31.8071-7.28,14.3352-10.7513,21.5034c-4.4052,8.4368-8.1383,12.7675-11.2744,12.9913-2.016.1493-3.7332-1.568-5.2265-5.1518q-5.7119-14.6719-12.32-56.67a6.3608,6.3608,0,0,1,1.1945-5.0025ZM351.2032,154.078a17.1945,17.1945,0,0,0-11.9459-8.6613,19.5944,19.5944,0,0,0-4.0318-.448c-7.1677,0-12.9913,3.7332-17.5458,11.2a39.5623,39.5623,0,0,0-5.8238,21.0549,28.91,28.91,0,0,0,3.5838,14.7835,17.1948,17.1948,0,0,0,11.946,8.6614,19.6006,19.6006,0,0,0,4.0318.448c7.2422,0,13.0659-3.7333,17.5458-11.2a40.0092,40.0092,0,0,0,5.8238-21.13A27.5528,27.5528,0,0,0,351.2032,154.078ZM341.7957,174.76c-1.0452,4.9278-2.9118,8.586-5.6744,11.0505-2.1652,1.9413-4.1811,2.7626-6.0478,2.3893-1.7919-.3734-3.2852-1.9413-4.4051-4.8532a18.9486,18.9486,0,0,1-1.344-6.7944,25.9593,25.9593,0,0,1,.5227-5.45,24.143,24.143,0,0,1,3.9571-8.8852c2.4639-3.6585,5.0771-5.1518,7.7652-4.6291,1.792.3733,3.2852,1.9413,4.4051,4.8531a18.9494,18.9494,0,0,1,1.344,6.7944,26.1976,26.1976,0,0,1-.5226,5.5251ZM304.4635,154.078a17.35,17.35,0,0,0-11.946-8.6613,19.5937,19.5937,0,0,0-4.0318-.448c-7.1677,0-12.9913,3.7332-17.5458,11.2a39.5632,39.5632,0,0,0-5.8238,21.0549A28.91,28.91,0,0,0,268.7,192.0069a17.1944,17.1944,0,0,0,11.9459,8.6614,19.6013,19.6013,0,0,0,4.0318.448c7.2422,0,13.0659-3.7333,17.5458-11.2a40.0092,40.0092,0,0,0,5.8238-21.13A28.2516,28.2516,0,0,0,304.4635,154.078ZM294.9813,174.76c-1.0452,4.9278-2.9118,8.586-5.6744,11.0505-2.1652,1.9413-4.1811,2.7626-6.0478,2.3893-1.7919-.3734-3.2852-1.9413-4.4051-4.8532a18.9486,18.9486,0,0,1-1.344-6.7944,25.9593,25.9593,0,0,1,.5227-5.45,24.143,24.143,0,0,1,3.9571-8.8852c2.4639-3.6585,5.0771-5.1518,7.7652-4.6291,1.792.3733,3.2852,1.9413,4.4052,4.8531a18.9514,18.9514,0,0,1,1.3439,6.7944,22.0535,22.0535,0,0,1-.5226,5.5251Z" transform="translate(-180.2892 -126.7509)"/></svg>