<svg xmlns="http://www.w3.org/2000/svg" width="29.8262mm" height="29.8252mm" viewBox="0 0 84.5467 84.5439"><defs><style>.a{fill:#363636;}</style></defs><path class="a" d="M235.8614,181.4163a36.27,36.27,0,0,0,20.4378,32.6368L239.001,166.658A36.1261,36.1261,0,0,0,235.8614,181.4163Z" transform="translate(-229.8526 -139.1454)"/><path class="a" d="M296.6057,179.5863a19.0931,19.0931,0,0,0-2.9906-10.0012c-1.8382-2.9871-3.5612-5.5167-3.5612-8.5038a6.28,6.28,0,0,1,6.0894-6.4366c.1608,0,.3133.02.47.029a36.2557,36.2557,0,0,0-54.7873,6.8257c.8508.0255,1.6527.0435,2.3337.0435,3.7931,0,9.6645-.46,9.6645-.46a1.4984,1.4984,0,0,1,.2325,2.9872s-1.9645.2311-4.15.3457l13.2057,39.28,7.936-23.801-5.65-15.48c-1.9528-.1146-3.8027-.3457-3.8027-.3457a1.4983,1.4983,0,0,1,.2291-2.9872s5.9887.46,9.552.46c3.7924,0,9.6645-.46,9.6645-.46a1.4984,1.4984,0,0,1,.2325,2.9872s-1.9686.2311-4.1505.3457l13.105,38.9822,3.6171-12.0871C295.4126,186.2934,296.6057,182.6908,296.6057,179.5863Z" transform="translate(-229.8526 -139.1454)"/><path class="a" d="M272.7612,184.5883l-10.88,31.6163a36.2822,36.2822,0,0,0,22.2865-.5782,3.1906,3.1906,0,0,1-.2581-.5Z" transform="translate(-229.8526 -139.1454)"/><path class="a" d="M303.9448,164.018a27.8319,27.8319,0,0,1,.2442,3.7289,34.2069,34.2069,0,0,1-2.7573,12.989l-11.077,32.0262a36.27,36.27,0,0,0,13.59-48.7441Z" transform="translate(-229.8526 -139.1454)"/><path class="a" d="M272.1249,139.1454a42.272,42.272,0,1,0,42.2744,42.2709A42.32,42.32,0,0,0,272.1249,139.1454Zm0,82.6063a40.3341,40.3341,0,1,1,40.332-40.3354A40.3809,40.3809,0,0,1,272.1249,221.7517Z" transform="translate(-229.8526 -139.1454)"/></svg>