<?xml version="1.0" encoding="utf-8"?>
<!-- Generator: Adobe Illustrator 25.2.3, SVG Export Plug-In . SVG Version: 6.00 Build 0)  -->
<svg version="1.1" id="Layer_1" xmlns="http://www.w3.org/2000/svg" xmlns:xlink="http://www.w3.org/1999/xlink" x="0px" y="0px"
	 viewBox="0 0 160.9 156.9" style="enable-background:new 0 0 160.9 156.9;" xml:space="preserve">
<style type="text/css">
	.st0{fill:#242424;}
	.st1{fill:#FFFFFF;}
</style>
<g>
	<path class="st0" d="M28.5,0h103.9c15.7,0,28.5,12.7,28.5,28.5l0,0v99.9c0,15.7-12.7,28.5-28.5,28.5l0,0H28.5
		C12.8,156.9,0,144.2,0,128.5l0,0v-100C0,12.8,12.7,0,28.5,0L28.5,0z"/>
	<path class="st1" d="M84.6,41.2L64.5,74.4L86,109.6c0.1,0.2,0.2,0.5,0.1,0.8s-0.3,0.1-0.7,0.1H70c-1.1,0-1.8-0.1-2.3-0.7
		c-1.4-2.8-2.9-5.6-4.3-8.4c-1.4-2.7-3-5.6-4.6-8.4s-3.2-5.8-4.8-8.7h-0.1c-1.4,2.9-3,5.8-4.5,8.7s-3.1,5.8-4.6,8.6
		c-1.5,2.8-3.1,5.7-4.6,8.4c-0.3,0.7-0.8,0.7-1.5,0.7H23.9c-0.3,0-0.5,0.1-0.5-0.2c-0.1-0.3,0-0.5,0.1-0.7l20.9-34.2L24.1,41.2
		c-0.2-0.3-0.3-0.5-0.1-0.7c0.2-0.2,0.4-0.3,0.7-0.3h15.2c0.3,0,0.6,0.1,0.9,0.1c0.3,0.1,0.5,0.4,0.7,0.6c1.3,2.9,2.8,5.8,4.3,8.7
		c1.6,2.9,3.2,5.7,4.8,8.5s3.1,5.6,4.5,8.5h0.1c1.4-3,2.9-5.8,4.4-8.7s3-5.6,4.6-8.4c1.5-2.8,3-5.7,4.5-8.4c0.1-0.3,0.2-0.5,0.4-0.7
		c0.3-0.1,0.6-0.2,0.9-0.1h14.1c0.3-0.1,0.7,0.1,0.7,0.5l0,0C84.9,40.8,84.8,41.1,84.6,41.2L84.6,41.2z"/>
	<path class="st1" d="M115.6,112c-5,0.1-9.9-0.9-14.4-3c-4.2-2-7.7-5.1-10.1-9.1c-2.5-4.1-3.7-9.2-3.7-15.3c-0.1-5,1.2-9.9,3.7-14.1
		c2.5-4.4,6.2-8,10.7-10.4c4.7-2.6,10.3-3.9,17-3.9c0.5,0,0.9,0,1.4,0.1c0.6,0.1,1.3,0.1,2.1,0.1V35.1c0-0.5,0.2-0.7,0.7-0.7h13.6
		c0.3,0,0.6,0.2,0.7,0.5v64c0,1.2,0.1,2.5,0.1,4c0.1,1.4,0.2,2.8,0.3,3.9c0,0.5-0.2,0.9-0.7,1.1c-3.5,1.5-7.2,2.6-10.9,3.2
		C122.5,111.7,119.1,112,115.6,112z M122.2,98.6V69.1c-0.6-0.1-1.2-0.3-1.8-0.3c-0.7-0.1-1.5-0.1-2.2-0.1c-2.6,0-5.2,0.6-7.6,1.7
		c-2.3,1.1-4.3,2.8-5.7,5c-1.6,2.6-2.4,5.5-2.2,8.5c-0.1,2.4,0.3,4.7,1.1,6.9c0.6,1.8,1.7,3.4,3,4.8c1.3,1.2,2.9,2.2,4.6,2.7
		c1.8,0.6,3.7,0.9,5.6,0.9c1,0,1.9-0.1,2.8-0.1C120.6,99,121.4,98.9,122.2,98.6z"/>
</g>
</svg>
