<svg xmlns="http://www.w3.org/2000/svg" width="66.7854mm" height="29.5993mm" viewBox="0 0 189.313 83.9035"><defs><style>.a{fill:#686868;}.b{fill:#242424;}</style></defs><path class="a" d="M358.7177,191.3V170.0964H366.29v-9.2006h-7.5726V149.84H347.0182v11.0938h-5.9444v9.2006h5.9444v19.9914a19.1416,19.1416,0,0,0,16.2809,19.4993l3.4834-9.39A8.8591,8.8591,0,0,1,358.7177,191.3Z" transform="translate(-177.4695 -139.4656)"/><path class="a" d="M299.69,187.93V172.0274c0-.5679-.0378-1.1359-.0757-1.666-1.0223-12.8732-19.31-12.8354-33.4327-7.9132l4.0513,8.254c9.2007-4.3921,14.7286-3.2562,16.66-1.098l.1514.1514v.0379c.9845,1.3252.7573,3.4076.7573,5.0736-12.04,0-24.8757,1.59-24.8757,14.8043,0,10.0336,12.57,16.5081,25.7465,6.9288l1.9689,4.695h11.283C300.8637,195.8051,299.69,191.0723,299.69,187.93Zm-11.8131-.0757c-9.2763,10.3743-17.7575.6058-9.0491-3.6348,2.5746-.8709,6.02-.9087,9.0491-.9087Z" transform="translate(-177.4695 -139.4656)"/><path class="a" d="M317.6747,171.1944c0-3.9377,6.2852-5.7551,16.2052-1.2494l3.4455-8.33c-13.3277-4.0135-31.54-4.3921-31.6532,9.5414-.0378,6.7016,4.2406,10.2986,10.4122,12.57,4.2785,1.59,10.45,2.4232,10.45,5.8309-.0378,4.4678-9.5792,5.1493-18.3255-.8709l-3.5212,9.0113c11.8889,5.9066,33.9628,6.0959,33.8492-8.7462C338.3855,174.2992,317.6747,176.8738,317.6747,171.1944Z" transform="translate(-177.4695 -139.4656)"/><path class="b" d="M214.6506,139.4656l-16.9625,47.0632-8.14-25.4437H177.47l13.5169,34.7579a12.8465,12.8465,0,0,1,0,9.2006c-1.5145,3.862-4.0134,7.1939-10.1471,8.0269v10.2986c11.9267,0,18.4012-7.3454,24.1563-23.437l22.5661-60.4665Z" transform="translate(-177.4695 -139.4656)"/><path class="a" d="M240.0185,159.5327c-14.615,0-20.4458,10.3365-20.4458,21.2788,0,11.3588,5.7172,20.673,20.4458,20.673,14.6528,0,20.4837-10.45,20.4458-20.673C260.4264,168.3547,254.1034,159.5327,240.0185,159.5327Zm0,32.94c-5.9444,0-8.86-4.43-8.86-11.6995s3.1425-12.4568,8.86-12.4568c5.6794,0,8.7841,5.1871,8.7841,12.4568S245.9629,192.4732,240.0185,192.4732Z" transform="translate(-177.4695 -139.4656)"/></svg>