<svg xmlns="http://www.w3.org/2000/svg" width="25.1592mm" height="25.1595mm" viewBox="0 0 71.3173 71.3184"><defs><style>.a{fill:#fff;}.b{fill:#242424;}</style></defs><path class="a" d="M267.0423,212.2526a35.5019,35.5019,0,0,1-17.643-7.8148" transform="translate(-236.4673 -145.7581)"/><path class="a" d="M283.9163,210.6148c-.4033.141-.8062.2827-1.2161.41" transform="translate(-236.4673 -145.7581)"/><path class="b" d="M265.0505,200.153a1.2894,1.2894,0,0,0-.2838-.0311,1.5031,1.5031,0,0,0-1.4636,1.3482.9852.9852,0,0,0,.145.7586.4878.4878,0,0,0,.385.1719.6381.6381,0,0,0,.0863-.0056l.0593-.0073.0323-.0511a2.6181,2.6181,0,0,0,.222-.5213c.1574-.4572.2778-.7366.6362-.7679.2243-.0305.324.1434.4517.4262l.014.03c-.14.0943-.289.188-.4388.2815-.0886.0561-.1773.1118-.2644.1679l-.4431.2845.5239-.0512c.0712-.0069.15-.0082.2331-.01.3648-.007.8652-.0159.9684-.4959a.9251.9251,0,0,0-.0029-.8171,1.3307,1.3307,0,0,0-.8607-.711" transform="translate(-236.4673 -145.7581)"/><path class="b" d="M272.1264,145.7581A35.6586,35.6586,0,0,0,249.4,208.8949c.5509-1.8433,1.2585-3.623,1.9749-5.4145a28.85,28.85,0,0,1,3.8309-7.1514,4.1865,4.1865,0,0,1,2.6741-1.5175,25.0226,25.0226,0,0,1,6.62-.3408,6.7644,6.7644,0,0,1,1.65,2.5608,8.903,8.903,0,0,0,5.33,4.1152c.3608.1142.7395.4743.6259.8729-.8912,3.2057-2.4463,6.1829-3.5848,9.3126-.6184,1.7557-1.007,3.5691-1.4779,5.3774a35.7047,35.7047,0,0,0,15.6577-1.228q.0539-1.5213.1241-3.0441c.057-1.2554.1147-2.5129.1527-3.775a6.6384,6.6384,0,0,0-.7163-4.016,14.0708,14.0708,0,0,0-2.89-3.2128c-.33-.3-.6593-.5995-.9786-.9054a2.2151,2.2151,0,0,1-.5681-.8828.51.51,0,0,1,.397-.7092,2.7725,2.7725,0,0,1,2.1068.8459,25.884,25.884,0,0,1,2.4234,2.3392l.0123-.0168a5.1754,5.1754,0,0,1,1.8938,3.9472,25.12,25.12,0,0,1-.1024,3.2572c-.0262.3009-.0564.6434-.0888,1.0852-.094.6022-.1659,1.3273-.2414,2.0948-.0879.8878-.1819,1.7829-.3083,2.5832a35.66,35.66,0,0,0-11.79-69.3141Zm22.9867,36.3784a6.8072,6.8072,0,0,1-5.1447,1.4745,16.9843,16.9843,0,0,1-6.0147-2.5519,12.4264,12.4264,0,0,1-1.2214,4.2485,25.1265,25.1265,0,0,1-4.4738,7.01,10.7389,10.7389,0,0,1-3.695,2.4946,3.6606,3.6606,0,0,1-1.453.3421,4.3146,4.3146,0,0,1-1.0741-.153,9.0718,9.0718,0,0,1-3.5074-2.1563,8.0563,8.0563,0,0,1-2.3565-6.17.5083.5083,0,0,1,.5048-.4906h.0033a.51.51,0,0,1,.5082.4839,7.8443,7.8443,0,0,0,1.9313,5.007c1.4515,1.476,2.7877,2.175,4.0823,2.1158a7.8465,7.8465,0,0,0,4.315-2.7407,23.074,23.074,0,0,0,3.2911-5.2039,14.7192,14.7192,0,0,0,1.6394-4.9854.7487.7487,0,0,1-.1.0243,16.4108,16.4108,0,0,1-11.0614-4.0611,9.521,9.521,0,0,1-2.837-4.1945,2.0607,2.0607,0,0,1,.1672-1.5464c.1321-.2608.2854-.5552.4389-.85a22.1624,22.1624,0,0,0,2.0249-4.755l.0133-.0753a2.1691,2.1691,0,0,0-.09-1.6867,6.043,6.043,0,0,0-1.1965-1.0239,8.4116,8.4116,0,0,1-1.139-.9273A7.2993,7.2993,0,0,1,265.7763,157c-.1989-2.2911,1.0726-4.3568,2.0456-5.7116a5.6157,5.6157,0,0,1,4.308-2.5454c1.6419,0,3.2566.8387,4.9307,2.564,2.9656,2.8417,5.1045,6.408,7.1727,9.8569l.9625,1.5885a26.1062,26.1062,0,0,0,2.3182,3.3928,38.9106,38.9106,0,0,0,4.8988,4.7846c.8089.7015,1.6455,1.4274,2.44,2.1732l0,0c1.29,1.249,2.67,2.7422,2.7968,4.7388C297.6322,179.3548,296.8018,180.7468,295.1131,182.1365Z" transform="translate(-236.4673 -145.7581)"/><polygon class="b" points="71.317 35.659 71.317 35.659 71.317 35.659 71.317 35.659"/><path class="b" d="M263.449,206.631a.8966.8966,0,0,0-.5082-.1575,1.2186,1.2186,0,0,0-1.1373,1.16l-.0047.1708.165-.0447a5.4959,5.4959,0,0,0,.7-.26c.151-.0642.2944-.1254.4417-.1769a.6567.6567,0,0,1,.3041.3571.311.311,0,0,1-.2639.1029,1.7854,1.7854,0,0,1-.2353-.022,2.0013,2.0013,0,0,0-.26-.0233h-.3669l.3551.2811a1.2174,1.2174,0,0,0,.7.349.5092.5092,0,0,0,.3614-.1455.7424.7424,0,0,0,.3787-.7439,1.0156,1.0156,0,0,0-.63-.8466" transform="translate(-236.4673 -145.7581)"/></svg>