<svg xmlns="http://www.w3.org/2000/svg" width="122.4699mm" height="31.599mm" viewBox="0 0 347.1587 89.5719"><defs><style>.a{fill:#243746;}.b{fill:#fff;}.c{fill:#242424;}.d{fill:#989898;}</style></defs><path class="a" d="M136.6711,207.5418a1.6254,1.6254,0,0,0-.3565-.0392,1.8879,1.8879,0,0,0-1.8382,1.6933,1.2377,1.2377,0,0,0,.1821.9528.6128.6128,0,0,0,.4836.2159.8033.8033,0,0,0,.1084-.0071l.0744-.0092.0406-.0641a3.2922,3.2922,0,0,0,.2788-.6548c.1977-.5742.3489-.9251.7991-.9643.2817-.0383.4069.18.5673.5353l.0175.0378c-.1763.1185-.363.2361-.551.3536-.1114.07-.2227.14-.3322.2108l-.5565.3574.6581-.0643c.0893-.0087.1889-.01.2927-.012.4581-.0087,1.0866-.02,1.2163-.6228a1.1622,1.1622,0,0,0-.0037-1.0262,1.6711,1.6711,0,0,0-1.081-.893" transform="translate(-98.5466 -136.6314)"/><path class="b" d="M136.9471,225.7427a44.5886,44.5886,0,0,1-22.1586-9.815" transform="translate(-98.5466 -136.6314)"/><path class="b" d="M137.7557,209.4609c-.13.6027-.7584.6141-1.2163.6228-.1034.0016-.2036.0033-.2927.012l-.6582.0641.5568-.3572c.1093-.07.2207-.14.3318-.21.1881-.1181.3752-.2355.5512-.3536l-.0171-.0382c-.161-.3552-.286-.5736-.5677-.5353-.45.0392-.6016.39-.7991.9641a3.3159,3.3159,0,0,1-.2786.655l-.0407.0641-.0747.0092a.8181.8181,0,0,1-.1084.0075.6151.6151,0,0,1-.4835-.2159,1.2365,1.2365,0,0,1-.1818-.9534,1.8871,1.8871,0,0,1,1.8379-1.6933,1.6246,1.6246,0,0,1,.3564.0393,1.6715,1.6715,0,0,1,1.0808.893,1.16,1.16,0,0,1,.0039,1.0262m-2.78,8.2143a.6416.6416,0,0,1-.4543.1824,1.5315,1.5315,0,0,1-.8783-.438l-.4463-.3529h.461a2.4948,2.4948,0,0,1,.3263.03,2.3962,2.3962,0,0,0,.2955.0268.3891.3891,0,0,0,.3309-.1286.8182.8182,0,0,0-.3814-.4482c-.185.0648-.3651.1413-.5546.2223a6.8955,6.8955,0,0,1-.88.3261l-.2071.0561.0058-.2145a1.53,1.53,0,0,1,1.4287-1.4561,1.1235,1.1235,0,0,1,.6381.1978,1.2756,1.2756,0,0,1,.7911,1.0625.9331.9331,0,0,1-.4756.9346m8.3305-10.3825c.142-.5-.3332-.953-.7867-1.0963a11.1832,11.1832,0,0,1-6.6937-5.1689c-.5956-1.0963-1.0005-2.454-2.0725-3.2165a31.4379,31.4379,0,0,0-8.3141.4283,5.26,5.26,0,0,0-3.3583,1.9061,36.2448,36.2448,0,0,0-4.8116,8.9813c-.9,2.2507-1.7887,4.4857-2.4808,6.8008a44.589,44.589,0,0,0,22.1587,9.815c.592-2.2707,1.08-4.5491,1.8565-6.7534,1.4294-3.9311,3.3828-7.6705,4.5025-11.6967" transform="translate(-98.5466 -136.6314)"/><path class="b" d="M158.14,223.6857c-.5064.1771-1.0124.355-1.5273.515" transform="translate(-98.5466 -136.6314)"/><path class="b" d="M158.83,217.8108c.0407-.5548.0781-.9851.1111-1.3629a31.4589,31.4589,0,0,0,.1292-4.0909A6.4986,6.4986,0,0,0,156.692,207.4l-.0155.0212a32.45,32.45,0,0,0-3.0437-2.9379,3.4822,3.4822,0,0,0-2.646-1.0625.6413.6413,0,0,0-.4986.8907,2.7826,2.7826,0,0,0,.7136,1.1088c.4009.3843.8145.7607,1.2293,1.1372a17.666,17.666,0,0,1,3.63,4.0351,8.3431,8.3431,0,0,1,.9,5.0438c-.0473,1.5851-.12,3.165-.1918,4.7412q-.0873,1.9141-.1559,3.8232c.5154-.16,1.0206-.337,1.5274-.5141.1587-1.0051.2768-2.1294.3877-3.244.0944-.9643.1844-1.8746.3028-2.6313" transform="translate(-98.5466 -136.6314)"/><path class="c" d="M143.3323,136.6314a44.7852,44.7852,0,0,0-28.5436,79.2962c.692-2.315,1.5807-4.55,2.4806-6.8a36.23,36.23,0,0,1,4.8112-8.9818,5.2587,5.2587,0,0,1,3.3586-1.9058,31.4191,31.4191,0,0,1,8.3138-.4281c1.0723.762,1.4769,2.12,2.0727,3.2163a11.18,11.18,0,0,0,6.6941,5.1684c.4531.1435.9288.5957.7861,1.0963-1.1192,4.0262-3.0724,7.7653-4.5023,11.6961-.7767,2.2051-1.2648,4.4827-1.8562,6.7538A44.8459,44.8459,0,0,0,156.6125,224.2q.0676-1.9107.1559-3.8233c.0716-1.5766.1441-3.156.1917-4.7412a8.3371,8.3371,0,0,0-.9-5.0438,17.6684,17.6684,0,0,0-3.63-4.0351c-.4144-.3764-.8281-.7529-1.229-1.1372a2.78,2.78,0,0,1-.7136-1.1088.6411.6411,0,0,1,.4987-.8907,3.4826,3.4826,0,0,1,2.646,1.0625,32.5242,32.5242,0,0,1,3.0436,2.9379l.0155-.0212a6.5012,6.5012,0,0,1,2.3786,4.9575,31.5854,31.5854,0,0,1-.1287,4.091c-.033.3777-.0709.808-.1116,1.3628-.118.7564-.2083,1.667-.3032,2.631-.11,1.1149-.2284,2.2393-.3871,3.2444a44.787,44.787,0,0,0-14.8075-87.0546Zm28.87,51.2871a8.55,8.55,0,0,1-6.4615,1.852,21.3317,21.3317,0,0,1-7.5541-3.2051,15.6062,15.6062,0,0,1-1.534,5.3359,31.5606,31.5606,0,0,1-5.6188,8.8047,13.4885,13.4885,0,0,1-4.6407,3.133,4.5969,4.5969,0,0,1-1.8249.43,5.415,5.415,0,0,1-1.349-.1921,11.3936,11.3936,0,0,1-4.4052-2.7082,10.1187,10.1187,0,0,1-2.96-7.7487.6385.6385,0,0,1,.634-.6162h.0042a.64.64,0,0,1,.6383.6078,9.8513,9.8513,0,0,0,2.4255,6.2885c1.823,1.8538,3.5012,2.7317,5.1272,2.6574,1.7618-.29,3.5078-1.3855,5.4195-3.4422a28.9858,28.9858,0,0,0,4.1334-6.5358,18.4869,18.4869,0,0,0,2.0589-6.2614.9209.9209,0,0,1-.1257.03,20.6112,20.6112,0,0,1-13.8925-5.1,11.96,11.96,0,0,1-3.5631-5.2682,2.5878,2.5878,0,0,1,.21-1.9422c.1658-.3274.3584-.6972.5511-1.0679a27.8419,27.8419,0,0,0,2.5432-5.972l.0167-.0946a2.7239,2.7239,0,0,0-.1126-2.1184,7.5862,7.5862,0,0,0-1.5027-1.286,10.5734,10.5734,0,0,1-1.43-1.1647c-2.2352-1.9187-3.4369-3.8888-3.6325-5.9856-.25-2.8774,1.347-5.4719,2.5691-7.1734,1.6224-2.1184,3.4895-3.17,5.4106-3.1969,2.0621,0,4.09,1.0534,6.1927,3.22,3.7247,3.5691,6.411,8.0481,9.0085,12.38l1.2089,1.9951a32.77,32.77,0,0,0,2.9114,4.261,48.86,48.86,0,0,0,6.1526,6.0093c1.0161.8811,2.0667,1.7927,3.0645,2.7294l0,0c1.62,1.5687,3.3535,3.4441,3.5127,5.9517C175.3663,184.4248,174.3233,186.1732,172.2024,187.9185Z" transform="translate(-98.5466 -136.6314)"/><polygon class="c" points="89.571 44.786 89.571 44.786 89.571 44.786 89.571 44.786"/><path class="a" d="M134.66,215.6777a1.1274,1.1274,0,0,0-.6383-.1978,1.53,1.53,0,0,0-1.4284,1.4565l-.0059.2145.2072-.0561a6.8866,6.8866,0,0,0,.88-.3265c.19-.0806.37-.1576.5548-.2223a.825.825,0,0,1,.3819.4486.39.39,0,0,1-.3314.1292,2.2514,2.2514,0,0,1-.2955-.0276,2.4956,2.4956,0,0,0-.3265-.0292h-.4608l.4461.3529a1.5286,1.5286,0,0,0,.8788.4384.6392.6392,0,0,0,.4539-.1828.9323.9323,0,0,0,.4757-.9342,1.2754,1.2754,0,0,0-.7912-1.0633" transform="translate(-98.5466 -136.6314)"/><path class="c" d="M431.8719,183.5409a6.5557,6.5557,0,0,1-6.7293-4.7536c-.4274-1.3353-.6411-3.2047-.6411-8.332,0-5.181.2137-6.9967.6411-8.3319a7.1782,7.1782,0,0,1,13.5123,0c.4275,1.3352.6411,3.1509.6411,8.3319,0,5.1273-.2137,6.9967-.6411,8.332a6.5769,6.5769,0,0,1-6.783,4.7536m0,5.661c6.3025,0,11.0032-2.9911,12.8724-8.7588.7474-2.2432.961-4.2726.961-9.9877s-.2136-7.7441-.961-9.9877c-1.8692-5.7684-6.57-8.7594-12.8724-8.7594-6.2483,0-10.9488,2.991-12.8177,8.7593-.7485,2.2436-.9616,4.2731-.9616,9.9877s.2132,7.7445.9616,9.9876c1.8688,5.7678,6.57,8.7588,12.8177,8.7588m-29.909-20.9365h-7.744a.2834.2834,0,0,1-.321-.24.2873.2873,0,0,1,0-.08v-9.667a.2839.2839,0,0,1,.3211-.3205h7.744c3.3115,0,5.5547,2.03,5.5547,5.1805,0,3.0978-2.2431,5.1273-5.5547,5.1273M414.14,188.6146a.4283.4283,0,0,0,.3742-.6942l-7.6378-14.7946a10.332,10.332,0,0,0,6.89-9.9877c0-6.4094-4.9136-10.8419-11.59-10.8419H388.13a.5047.5047,0,0,0-.534.5339v35.25a.5044.5044,0,0,0,.4731.5339.5156.5156,0,0,0,.0609,0h5.2341a.5043.5043,0,0,0,.5337-.4731.5139.5139,0,0,0,0-.0608V174.2473a.2835.2835,0,0,1,.321-.3205h6.2489l6.943,14.1535a.7591.7591,0,0,0,.8016.5339Zm-41.2846,0a.5044.5044,0,0,0,.5339-.4731.476.476,0,0,0,0-.0609V158.2782a.2833.2833,0,0,1,.3206-.3205h9.5071a.5046.5046,0,0,0,.5337-.4736.51.51,0,0,0,0-.0606V152.83a.5045.5045,0,0,0-.5337-.5339H357.26a.5047.5047,0,0,0-.5337.5339v4.5931a.5045.5045,0,0,0,.4731.5342.51.51,0,0,0,.0606,0h9.5071a.2833.2833,0,0,1,.3206.3205V188.08a.5042.5042,0,0,0,.473.5339.4807.4807,0,0,0,.0612,0Zm-31.8848.5874c9.0257,0,13.6729-4.8068,13.6729-11.2688,0-6.2494-3.8457-9.5609-10.8425-10.5225l-1.9225-.2669c-4.9136-.6942-6.6762-2.4031-6.6762-4.9136,0-2.8305,2.0294-4.86,5.7146-4.86a15.33,15.33,0,0,1,8.7056,2.8306.5347.5347,0,0,0,.7411-.15l.0068-.0106,2.5637-3.9521a.4789.4789,0,0,0-.1069-.7479,19.9553,19.9553,0,0,0-11.75-3.6321c-7.4773,0-12.2845,4.38-12.2845,10.9493,0,6.0352,3.9525,9.4,10.9488,10.3615l1.9231.2673c5.02.6937,6.6225,2.4031,6.6225,5.02,0,3.0442-2.51,5.2341-6.8364,5.2341a16.2431,16.2431,0,0,1-9.88-3.8456.4809.4809,0,0,0-.7485.0536l-3.311,3.8452a.5867.5867,0,0,0,.1063.8009c2.831,2.6705,8.0119,4.8068,13.3529,4.8068m-35.5165-13.7793,4.86-14.1h.16l4.807,14.1ZM294.8782,188.08c-.1069.321,0,.5339.3742.5339h5.1807a.6428.6428,0,0,0,.6942-.5339l2.4031-7.05h13.6729l2.4036,7.05a.6429.6429,0,0,0,.6942.5339h5.2341c.3737,0,.4806-.2131.3737-.5339l-12.284-35.25a.6917.6917,0,0,0-.6942-.534h-4.9136a.6916.6916,0,0,0-.6942.534Zm-27.9338-7.6373c1.87,5.7677,6.57,8.7588,12.979,8.7588,6.2483,0,11.0555-3.2579,12.8179-8.9194a29.9067,29.9067,0,0,0,.8543-7.9577v-3.1515a.5041.5041,0,0,0-.4727-.5337.4807.4807,0,0,0-.0612,0H281.0449a.5042.5042,0,0,0-.5339.4726.4791.4791,0,0,0,0,.0611v4.273a.5042.5042,0,0,0,.4728.5337.4982.4982,0,0,0,.0611,0h5.9822a.283.283,0,0,1,.32.32,15.035,15.035,0,0,1-.5873,4.7007c-.9616,2.9373-3.6857,4.54-6.89,4.54a6.5992,6.5992,0,0,1-6.836-4.7535c-.4278-1.3353-.6412-3.2047-.6412-8.332,0-5.181.2134-6.9967.6412-8.332a6.5986,6.5986,0,0,1,6.836-4.753c3.5255,0,5.7152,1.6021,7.3175,4.4861a.5585.5585,0,0,0,.694.2669l4.4867-1.9762a.5911.5911,0,0,0,.2135-.7474c-1.4955-4.0594-5.8754-7.6914-12.6578-7.6914-6.4093,0-11.11,2.991-12.9789,8.7593-.7474,2.2436-.9616,4.2731-.9616,9.9877s.2142,7.7445.9616,9.9876" transform="translate(-98.5466 -136.6314)"/><path class="d" d="M250.2283,169.1732h-7.1568a.2827.2827,0,0,1-.32-.2393.2791.2791,0,0,1,0-.0806V158.2782a.2832.2832,0,0,1,.32-.3205h7.1568c3.7386,0,6.0351,2.2968,6.0351,5.6078,0,3.3652-2.2965,5.6078-6.0351,5.6078m-8.0118,19.4415a.5056.5056,0,0,0,.5348-.534V175.2089a.2833.2833,0,0,1,.32-.321h7.5305c7.05,0,11.9637-4.5394,11.9637-11.3225,0-6.7294-4.9136-11.2693-11.9637-11.2693H236.9827a.5042.5042,0,0,0-.5339.4726.4822.4822,0,0,0,0,.0613v35.25a.5044.5044,0,0,0,.4731.5339.5139.5139,0,0,0,.0608,0Zm-33.9144-.534a.5046.5046,0,0,0,.4732.534.5139.5139,0,0,0,.0608,0h20.4023a.5045.5045,0,0,0,.5339-.4732.5139.5139,0,0,0,0-.0608v-4.2732a.5045.5045,0,0,0-.4732-.534.5122.5122,0,0,0-.0607,0H215.7791v-.1068l10.5751-12.8182a12.88,12.88,0,0,0,3.4182-8.492c0-5.662-3.8986-10.1477-10.6817-10.1477-6.89,0-10.308,4.4326-10.7886,8.7056a.5161.5161,0,0,0,.37.6291.5294.5294,0,0,0,.0571.0115l4.7.9615a.469.469,0,0,0,.5874-.4268c.3742-2.7779,2.0294-4.54,4.9136-4.54a4.54,4.54,0,0,1,4.807,4.8068,8.6128,8.6128,0,0,1-2.35,5.5547l-12.8188,15.9692a.8206.8206,0,0,0-.2669.6947Z" transform="translate(-98.5466 -136.6314)"/><path class="c" d="M445.6415,200.0581h-1.3792V204.72a2.0188,2.0188,0,0,1-.1256.707,1.998,1.998,0,0,1-1.8217,1.2554c-1.257,0-1.6966-.9728-1.6966-2.4174v-4.2071h-1.3792v4.4428c0,2.6679,1.4262,3.3263,2.62,3.3263a2.8589,2.8589,0,0,0,2.5127-1.4114h.0317l.0782,1.2387h1.2227c-.0471-.5968-.0628-1.2872-.0628-2.0719Zm-13.3586.8615c1.6332,0,2.2771,1.6332,2.2771,2.9209,0,1.7117-.9894,2.9523-2.3081,2.9523-1.35,0-2.309-1.256-2.309-2.9209,0-1.4447.707-2.9523,2.34-2.9523m.0314-1.0342a3.7076,3.7076,0,0,0-3.7665,4.0338,3.61,3.61,0,0,0,3.6412,3.9082,3.7112,3.7112,0,0,0,3.7823-4.0339,3.596,3.596,0,0,0-3.6571-3.908m-9.5757-1.6487v1.8214h-1.1773v1.05h1.1773v4.1459a2.8107,2.8107,0,0,0,.5337,1.9773,1.91,1.91,0,0,0,1.49.58,3.3918,3.3918,0,0,0,1.2243-.1881l-.0628-1.0347a3.0725,3.0725,0,0,1-.8.0942c-.7695,0-1.0365-.5336-1.0365-1.4758v-4.099h1.9784v-1.05H424.087v-2.1829Zm-7.3163,2.6828c1.6332,0,2.2774,1.6332,2.2774,2.9209,0,1.7117-.99,2.9524-2.309,2.9524-1.35,0-2.3081-1.256-2.3081-2.921,0-1.4447.7067-2.9523,2.34-2.9523m.0314-1.0341a3.7079,3.7079,0,0,0-3.7665,4.0338,3.61,3.61,0,0,0,3.6412,3.9081,3.711,3.711,0,0,0,3.7824-4.0339,3.5958,3.5958,0,0,0-3.6571-3.908m-13.5,7.7691h1.38V203.086a1.9873,1.9873,0,0,1,.0942-.6436,1.9631,1.9631,0,0,1,1.8531-1.4129c1.304,0,1.76,1.02,1.76,2.2452v4.38h1.38v-4.5368c0-2.6056-1.6312-3.2323-2.6832-3.2323a2.7954,2.7954,0,0,0-2.5131,1.4267h-.0316l-.0782-1.2539h-1.2228c.0471.6277.0624,1.2713.0624,2.056Zm-5.2434-3.1868a2.4015,2.4015,0,0,1-.0628.5968,2.0767,2.0767,0,0,1-2.0258,1.65c-1.4922,0-2.2462-1.2723-2.2462-2.811,0-1.68.848-2.9366,2.2779-2.9366a2.032,2.032,0,0,1,1.9944,1.6021,2.4358,2.4358,0,0,1,.0629.5807Zm0-7.9578v4.5352h-.0314a2.5429,2.5429,0,0,0-2.2932-1.16c-1.8536,0-3.4209,1.5525-3.4056,4.0809,0,2.3085,1.4109,3.8611,3.2486,3.8611a2.8119,2.8119,0,0,0,2.5912-1.49h.0317l.0624,1.3174h1.2386c-.0471-.5182-.0628-1.2872-.0628-1.9625V196.51Zm-12.184,4.41c1.6332,0,2.2774,1.6332,2.2774,2.9209,0,1.7117-.9894,2.9523-2.3085,2.9523-1.3511,0-2.3091-1.256-2.3091-2.9209,0-1.4447.7067-2.9523,2.34-2.9523m.0317-1.0342a3.7077,3.7077,0,0,0-3.767,4.0338,3.61,3.61,0,0,0,3.6413,3.9082,3.7116,3.7116,0,0,0,3.7828-4.0339,3.596,3.596,0,0,0-3.6571-3.908m-13.5,7.7691h1.3791v-4.5839a1.6724,1.6724,0,0,1,.0946-.66,1.9857,1.9857,0,0,1,1.8531-1.3812c1.304,0,1.76,1.0362,1.76,2.261v4.3641h1.3791v-4.521c0-2.6215-1.63-3.2481-2.6515-3.2481a2.8479,2.8479,0,0,0-1.4134.392,2.5546,2.5546,0,0,0-.99.9719h-.0318V196.51h-1.3791Zm-8.762-7.5965h-1.38V204.72a2.0188,2.0188,0,0,1-.1256.707,1.9971,1.9971,0,0,1-1.8217,1.2557c-1.2563,0-1.696-.9728-1.696-2.4174v-4.2071h-1.38v4.4428c0,2.6679,1.4267,3.3263,2.62,3.3263a2.86,2.86,0,0,0,2.5126-1.4116h.0314l.0782,1.2387h1.2233c-.0471-.5968-.0628-1.2872-.0628-2.0719Zm-13.3588.8614c1.6338,0,2.2774,1.6332,2.2774,2.9209,0,1.7117-.9894,2.9523-2.3091,2.9523-1.3506,0-2.3085-1.256-2.3085-2.9209,0-1.4447.707-2.9523,2.34-2.9523m.0314-1.0342a3.7078,3.7078,0,0,0-3.7664,4.0338,3.61,3.61,0,0,0,3.6407,3.9082,3.7112,3.7112,0,0,0,3.7829-4.0339,3.5957,3.5957,0,0,0-3.6572-3.908m-13.5,7.7691h1.38v-4.5686a1.9846,1.9846,0,0,1,.0946-.6436,1.9634,1.9634,0,0,1,1.8536-1.4129c1.3034,0,1.7585,1.02,1.7585,2.2452v4.38h1.38v-4.5369c0-2.6056-1.6312-3.2322-2.6833-3.2322a2.7965,2.7965,0,0,0-2.5135,1.4267h-.0314l-.0782-1.254h-1.2228c.0465.6278.0624,1.2714.0624,2.056Zm-5.1329-2.56a1.4473,1.4473,0,0,1-.0785.4411,1.8916,1.8916,0,0,1-1.8378,1.2724,1.223,1.223,0,0,1-1.304-1.3194c0-1.4768,1.7125-1.7437,3.2205-1.7125Zm1.4579,2.56a10.6674,10.6674,0,0,1-.1256-1.8214v-2.84c0-1.5239-.5644-3.108-2.8873-3.108a4.7167,4.7167,0,0,0-2.4961.6737l.3136.91a3.777,3.777,0,0,1,1.9781-.5658,1.5674,1.5674,0,0,1,1.7278,1.76v.1575c-2.9373-.0154-4.5685.9865-4.5685,2.8238a2.1631,2.1631,0,0,0,2.1378,2.188q.0921.001.184-.0057a2.8351,2.8351,0,0,0,2.3255-1.1287h.0465l.11.9559Zm-10.7048-3.1868a2.402,2.402,0,0,1-.0628.5968,2.0772,2.0772,0,0,1-2.0258,1.65c-1.4925,0-2.2463-1.2723-2.2463-2.811,0-1.68.8481-2.9366,2.2777-2.9366a2.0324,2.0324,0,0,1,1.9944,1.6021,2.44,2.44,0,0,1,.0628.5807Zm0-7.9578v4.5353h-.0314a2.5425,2.5425,0,0,0-2.2928-1.16c-1.8536,0-3.4214,1.5525-3.4058,4.0809,0,2.3085,1.4109,3.8611,3.2486,3.8611a2.8122,2.8122,0,0,0,2.5912-1.49h.0314l.0628,1.3174h1.2378c-.0471-.5182-.0628-1.2872-.0628-1.9625V196.51Zm-9.7344.55a.8409.8409,0,0,0-.8622.819c0,.0146,0,.0293,0,.044a.8547.8547,0,1,0,.8622-.863m.69,2.9988h-1.3792v7.5962h1.3792Zm-5.9339-1.0383,1.4758-2.2431H306.55l-.926,1.49h-.0314l-.9255-1.49h-1.0664l1.5055,2.2431Zm-2.2115,8.6346h1.3637v-4.0507a3.8748,3.8748,0,0,1,.0628-.6431,1.9383,1.9383,0,0,1,1.8526-1.7746,2.084,2.084,0,0,1,.4711.0472v-1.3011a1.4851,1.4851,0,0,0-.3926-.0471,2.2784,2.2784,0,0,0-2.1034,1.6624H305.09l-.0471-1.49h-1.2069c.0471.706.0628,1.4753.0628,2.37ZM294.76,203.26a2.246,2.246,0,0,1,.0942-.5648,2.2051,2.2051,0,0,1,2.0886-1.713c1.4611,0,2.2618,1.3034,2.2618,2.8267,0,1.7426-.848,2.9362-2.309,2.9362a2.132,2.132,0,0,1-2.0729-1.6175,3.1125,3.1125,0,0,1-.0629-.5653Zm-1.3644,7.5024H294.76v-4.1269h.0314a2.6659,2.6659,0,0,0,2.34,1.1916c1.7907,0,3.4529-1.3485,3.4529-4.0808,0-2.3085-1.38-3.8611-3.2167-3.8611a2.9889,2.9889,0,0,0-2.7017,1.4737h-.0314l-.0628-1.3009h-1.2385c.0315.7224.0629,1.507.0629,2.48Zm-13.2179-3.4685a4.3266,4.3266,0,0,0,2.1337.5173c1.806,0,2.8409-.94,2.8409-2.2748,0-1.1307-.6742-1.79-1.9923-2.2928-.99-.3772-1.4459-.66-1.4459-1.2877,0-.5653.4554-1.0364,1.2726-1.0364a2.954,2.954,0,0,1,1.554.44l.345-1.004a3.7946,3.7946,0,0,0-1.8676-.47,2.3415,2.3415,0,0,0-2.6212,2.2278c0,.9108.6429,1.6646,2.0088,2.1511,1.0211.3772,1.4137.7381,1.4137,1.3976,0,.6282-.4711,1.1307-1.4766,1.1307a3.613,3.613,0,0,1-1.82-.55ZM269.7062,199.02l1.4762-2.2431h-1.0208l-.9422,1.49h-.0314l-.9271-1.49h-1.0521l1.508,2.2431Zm-2.5444,4.0992a2.2909,2.2909,0,0,1,2.12-2.2467,1.9683,1.9683,0,0,1,1.9159,2.2467Zm5.322.9872a5.1862,5.1862,0,0,0,.0471-.6421c0-1.3976-.6584-3.5789-3.1387-3.5789-2.2147,0-3.5625,1.804-3.5625,4.0957a3.5262,3.5262,0,0,0,3.7353,3.83,6.147,6.147,0,0,0,2.5268-.47l-.2352-.9882a4.9857,4.9857,0,0,1-2.1032.3926,2.4355,2.4355,0,0,1-2.6074-2.6392Zm-16.3877,3.5482h1.3787V203.086a1.9924,1.9924,0,0,1,.0942-.6436,1.9635,1.9635,0,0,1,1.8536-1.4129c1.3034,0,1.76,1.02,1.76,2.2452v4.38h1.3792v-4.5369c0-2.6056-1.631-3.2323-2.6833-3.2323a2.7954,2.7954,0,0,0-2.5131,1.4268h-.0314l-.0786-1.254h-1.2223c.0472.6277.0629,1.2714.0629,2.056Zm-9.9688-7.5964,2.81,7.0018a1.218,1.218,0,0,1,.0935.3612.995.995,0,0,1-.1094.33A4.1992,4.1992,0,0,1,247.76,209.29a3.6513,3.6513,0,0,1-1.2086.6748l.3455,1.162a3.7451,3.7451,0,0,0,1.6948-.8951c.9416-.8158,1.6164-2.1511,2.6054-4.7567l2.0718-5.4161h-1.46l-1.5064,4.4586c-.1885.5491-.3455,1.13-.4864,1.5858h-.0314c-.1257-.4554-.3141-1.0526-.4869-1.5547l-1.6636-4.49Zm-9.0742,7.5964h1.3792v-4.5839a1.6778,1.6778,0,0,1,.0942-.66A1.9865,1.9865,0,0,1,240.38,201.03c1.3041,0,1.7593,1.0361,1.7593,2.261v4.3641h1.38v-4.521c0-2.6215-1.6308-3.2482-2.6519-3.2482a2.8486,2.8486,0,0,0-1.4133.3921,2.5561,2.5561,0,0,0-.99.9718h-.0314V196.51h-1.3792Zm-3.4245-1.3174a3.9231,3.9231,0,0,1-1.6956.3773,2.8655,2.8655,0,0,1,.0473-5.7162,3.2073,3.2073,0,0,1,1.6013.3609l.3141-1.0664a4.6221,4.6221,0,0,0-1.9152-.392,3.8577,3.8577,0,0,0-4.08,4.0338,3.6075,3.6075,0,0,0,3.7814,3.8769,5.0974,5.0974,0,0,0,2.1825-.4386Zm-9.043-6.2791h-1.38V204.72a2.0234,2.0234,0,0,1-.1256.707,1.9973,1.9973,0,0,1-1.8221,1.2554c-1.2564,0-1.6967-.9728-1.6967-2.4174v-4.2071H218.182v4.4428c0,2.6679,1.4262,3.3263,2.62,3.3263a2.86,2.86,0,0,0,2.5131-1.4114h.0314l.0779,1.2387h1.2228c-.0465-.5968-.0621-1.2872-.0621-2.0719Zm-16.2939,7.5964h1.3636v-4.0338l1.0051-1.1614,3.4853,5.1952h1.6169l-4.1291-6.09,3.8306-4.4894h-1.6954l-3.2341,3.971c-.2669.3455-.55.7218-.8323,1.13h-.0471v-5.1012h-1.3636Z" transform="translate(-98.5466 -136.6314)"/></svg>