<svg xmlns="http://www.w3.org/2000/svg" width="80.1526mm" height="64.3623mm" viewBox="0 0 227.2043 182.4443"><defs><style>.a{fill:#242424;}.b{fill:#686868;}.c{fill:#243746;}.d{fill:#fff;}</style></defs><path class="a" d="M372.49,246.2407a6.2736,6.2736,0,0,1-6.44-4.549c-.409-1.2778-.6135-3.0668-.6135-7.9735,0-4.958.2045-6.6957.6135-7.9734a6.8694,6.8694,0,0,1,12.931,0c.409,1.2778.6135,3.0154.6135,7.9734,0,4.9067-.2045,6.6957-.6135,7.9735a6.294,6.294,0,0,1-6.4912,4.549m0,5.4174c6.0313,0,10.53-2.8623,12.3185-8.3819.7152-2.1466.92-4.0887.92-9.5579s-.2045-7.4109-.92-9.558c-1.7887-5.52-6.2872-8.3825-12.3185-8.3825-5.9795,0-10.4777,2.8623-12.2662,8.3824-.7163,2.1471-.92,4.0892-.92,9.558s.204,7.4113.92,9.5579c1.7884,5.52,6.2868,8.3819,12.2662,8.3819m-28.6221-20.0356H336.457a.2714.2714,0,0,1-.3073-.3063v-9.251a.2716.2716,0,0,1,.2308-.3068.2686.2686,0,0,1,.0765,0h7.4108c3.169,0,5.3157,1.9421,5.3157,4.9575,0,2.9646-2.1466,4.9067-5.3157,4.9067m11.6532,19.4735a.41.41,0,0,0,.3582-.6643l-7.3092-14.158a9.8874,9.8874,0,0,0,6.5934-9.5579c0-6.1336-4.7022-10.3755-11.0911-10.3755H330.63a.4831.4831,0,0,0-.511.4533.4629.4629,0,0,0,0,.0577v33.7333a.4828.4828,0,0,0,.4527.511.5154.5154,0,0,0,.0583,0h5.0089a.4826.4826,0,0,0,.5107-.4528.4709.4709,0,0,0,0-.0582V237.3471a.2716.2716,0,0,1,.3072-.3068h5.98l6.6443,13.5445a.7264.7264,0,0,0,.7671.511Zm-39.5082,0a.4828.4828,0,0,0,.511-.4527.4709.4709,0,0,0,0-.0582v-28.52a.271.271,0,0,1,.23-.3067.2664.2664,0,0,1,.0767,0h9.0981a.4829.4829,0,0,0,.5107-.4533.4677.4677,0,0,0,0-.058v-4.3954a.4835.4835,0,0,0-.5107-.511H301.0878a.4829.4829,0,0,0-.5107.4533.5049.5049,0,0,0,0,.0577v4.3954a.4834.4834,0,0,0,.5107.5113h9.0982a.2711.2711,0,0,1,.3067.3067v28.52a.4828.4828,0,0,0,.4527.511.4758.4758,0,0,0,.0585,0Zm-30.5128.5621c8.6373,0,13.0845-4.6,13.0845-10.7839,0-5.98-3.68-9.15-10.3759-10.07l-1.84-.2554c-4.7021-.6644-6.3889-2.3-6.3889-4.7022,0-2.7087,1.9421-4.6509,5.4688-4.6509a14.6711,14.6711,0,0,1,8.331,2.7088.5117.5117,0,0,0,.7092-.1435l.0065-.01,2.4533-3.7821a.4587.4587,0,0,0-.1022-.7157,19.0969,19.0969,0,0,0-11.2442-3.4757c-7.1556,0-11.756,4.1914-11.756,10.4781,0,5.7755,3.7825,8.9954,10.4777,9.9156l1.84.2559c4.8044.6638,6.3376,2.3,6.3376,4.8044,0,2.9132-2.4021,5.0089-6.5423,5.0089a15.544,15.544,0,0,1-9.4553-3.68.46.46,0,0,0-.7163.0513l-3.1686,3.68a.5615.5615,0,0,0,.1018.7664c2.7092,2.5556,7.6672,4.6,12.7784,4.6m-33.9884-13.1864,4.6506-13.4936h.1533l4.6,13.4936Zm-10.12,12.113c-.1023.3073,0,.511.3581.511h4.9578a.6152.6152,0,0,0,.6643-.511l2.3-6.7465h13.0846l2.3,6.7465a.6152.6152,0,0,0,.6643.511h5.0089c.3577,0,.46-.204.3577-.511l-11.7555-33.7333a.6619.6619,0,0,0-.6643-.5109h-4.7022a.6618.6618,0,0,0-.6644.5109Zm-26.7318-7.3087c1.789,5.52,6.2867,8.382,12.4205,8.382,5.9794,0,10.58-3.1177,12.2664-8.5356a28.6213,28.6213,0,0,0,.8175-7.6153v-3.016a.4824.4824,0,0,0-.4524-.5107.4774.4774,0,0,0-.0586,0h-11.5a.4824.4824,0,0,0-.5109.4523.4948.4948,0,0,0,0,.0584V236.58a.4826.4826,0,0,0,.4526.5107.4947.4947,0,0,0,.0584,0h5.7248a.2711.2711,0,0,1,.3066.3067,14.3887,14.3887,0,0,1-.5621,4.4984c-.92,2.811-3.5272,4.3446-6.5937,4.3446a6.3152,6.3152,0,0,1-6.5418-4.549c-.41-1.2779-.6137-3.0669-.6137-7.9735,0-4.9581.2042-6.6957.6137-7.9735a6.3146,6.3146,0,0,1,6.5418-4.5485,7.405,7.405,0,0,1,7.0026,4.2931.5345.5345,0,0,0,.6641.2554l4.2937-1.8912a.5656.5656,0,0,0,.2043-.7152c-1.4312-3.8847-5.6226-7.3605-12.1131-7.3605-6.1336,0-10.6315,2.8623-12.4205,8.3824-.7152,2.1472-.92,4.0892-.92,9.558s.205,7.4113.92,9.5579" transform="translate(-158.5239 -90.1952)"/><path class="b" d="M198.6619,232.4913h-6.8488a.27.27,0,0,1-.3064-.3062v-10.12a.2709.2709,0,0,1,.23-.3067.2671.2671,0,0,1,.0768,0h6.8488c3.5778,0,5.7755,2.1979,5.7755,5.3665,0,3.22-2.1977,5.3665-5.7755,5.3665m-7.667,18.6049a.4838.4838,0,0,0,.5118-.5109V238.2673a.271.271,0,0,1,.23-.3071.2678.2678,0,0,1,.0769,0H199.02c6.7468,0,11.449-4.3441,11.449-10.8354,0-6.44-4.7022-10.7844-11.449-10.7844H185.9863a.4826.4826,0,0,0-.511.4523.5225.5225,0,0,0,0,.0587v33.7333a.4829.4829,0,0,0,.4529.511.5119.5119,0,0,0,.0581,0Zm-32.4551-.5109a.4827.4827,0,0,0,.4528.5109.4693.4693,0,0,0,.0581,0h19.5245a.4828.4828,0,0,0,.511-.4528.5119.5119,0,0,0,0-.0581v-4.0895a.4828.4828,0,0,0-.4529-.5109.4693.4693,0,0,0-.0581,0h-12.88v-.1023l10.12-12.2666a12.326,12.326,0,0,0,3.2712-8.1266c0-5.4184-3.7309-9.7111-10.2221-9.7111-6.5935,0-9.8645,4.2418-10.3244,8.3311a.4939.4939,0,0,0,.3541.602.4838.4838,0,0,0,.0546.0109l4.4979.92a.4487.4487,0,0,0,.5481-.32.458.458,0,0,0,.0141-.0887c.358-2.6583,1.9421-4.3446,4.7021-4.3446a4.3444,4.3444,0,0,1,4.6,4.6,8.2418,8.2418,0,0,1-2.2486,5.3156l-12.2672,15.2821a.786.786,0,0,0-.2555.6649Z" transform="translate(-158.5239 -90.1952)"/><path class="c" d="M264.1244,175.4113a1.94,1.94,0,0,0-.4283-.047,2.2688,2.2688,0,0,0-2.2092,2.0348,1.4874,1.4874,0,0,0,.219,1.145.7361.7361,0,0,0,.5811.26.9783.9783,0,0,0,.13-.0085l.09-.011.0487-.0771a3.9467,3.9467,0,0,0,.3351-.7869c.2376-.69.4193-1.1117.96-1.1589.3385-.046.489.2165.6817.6433l.0211.0455c-.2119.1424-.4362.2837-.6622.4249-.1338.0846-.2676.1688-.3992.2534l-.6687.4295.7908-.0773c.1074-.0105.227-.0125.3517-.0145.5506-.0105,1.3059-.0239,1.4618-.7484a1.3972,1.3972,0,0,0-.0044-1.2333,2.0082,2.0082,0,0,0-1.2991-1.073" transform="translate(-158.5239 -90.1952)"/><path class="d" d="M264.4561,197.2841a53.584,53.584,0,0,1-26.6289-11.7951" transform="translate(-158.5239 -90.1952)"/><path class="d" d="M265.4279,177.7176c-.1558.7243-.9114.7379-1.4617.7485-.1243.0019-.2446.0039-.3517.0144l-.7911.077.6692-.4292c.1314-.0846.2652-.1688.3987-.2529.2261-.1419.4509-.283.6624-.4249l-.0206-.046c-.1934-.4268-.3436-.6893-.6821-.6433-.541.0472-.723.4689-.96,1.1587a3.9906,3.9906,0,0,1-.3349.7871l-.0489.077-.09.0111a.9765.9765,0,0,1-.13.009.74.74,0,0,1-.5811-.26,1.4859,1.4859,0,0,1-.2184-1.1457,2.2678,2.2678,0,0,1,2.2087-2.0349,1.9473,1.9473,0,0,1,.4283.0473,2.0079,2.0079,0,0,1,1.2988,1.073,1.3946,1.3946,0,0,1,.0047,1.2333m-3.3413,9.8715a.7717.7717,0,0,1-.546.2192,1.8406,1.8406,0,0,1-1.0555-.5264l-.5364-.4241h.554a2.996,2.996,0,0,1,.3922.0357,2.894,2.894,0,0,0,.3551.0323.468.468,0,0,0,.3977-.1546.9833.9833,0,0,0-.4584-.5386c-.2223.0778-.4387.17-.6665.2671a8.263,8.263,0,0,1-1.057.3918l-.2489.0675.007-.2578a1.8385,1.8385,0,0,1,1.7169-1.75,1.3494,1.3494,0,0,1,.7668.2377,1.533,1.533,0,0,1,.9508,1.2769,1.1216,1.1216,0,0,1-.5716,1.1231m10.0111-12.4771c.1707-.6015-.4-1.1452-.9454-1.3175a13.4388,13.4388,0,0,1-8.0441-6.2117c-.7157-1.3174-1.2023-2.9491-2.4906-3.8654a37.7829,37.7829,0,0,0-9.9914.5147,6.3221,6.3221,0,0,0-4.0359,2.2906,43.5628,43.5628,0,0,0-5.7823,10.7932c-1.0811,2.7048-2.1495,5.3908-2.9812,8.1729a53.5847,53.5847,0,0,0,26.6291,11.7951c.7113-2.7288,1.2979-5.4668,2.231-8.1159,1.7178-4.7242,4.0652-9.218,5.4108-14.0563" transform="translate(-158.5239 -90.1952)"/><path class="a" d="M325.95,144.0161a53.82,53.82,0,1,0-88.122,41.4729c.8316-2.7821,1.9-5.4683,2.981-8.1723a43.54,43.54,0,0,1,5.7818-10.7938,6.32,6.32,0,0,1,4.0361-2.29,37.7648,37.7648,0,0,1,9.9912-.5144c1.2886.9158,1.7748,2.5473,2.4908,3.8652a13.4364,13.4364,0,0,0,8.0446,6.2111c.5445.1725,1.1161.7159.9447,1.3175-1.3451,4.8384-3.6923,9.3319-5.4106,14.0556-.9334,2.65-1.52,5.3871-2.2307,8.1164a53.89,53.89,0,0,0,23.6325-1.8535q.0814-2.2961.1873-4.5946c.0861-1.8946.1732-3.7927.23-5.6977.1214-1.8663.1062-4.2144-1.0811-6.0613a21.2274,21.2274,0,0,0-4.3622-4.8491c-.498-.4523-.995-.9049-1.4769-1.3667a3.3415,3.3415,0,0,1-.8576-1.3325.77.77,0,0,1,.5993-1.07,4.1843,4.1843,0,0,1,3.18,1.2768,39.0707,39.0707,0,0,1,3.6577,3.5306l.0186-.0255a7.8125,7.8125,0,0,1,2.8584,5.9577,37.9168,37.9168,0,0,1-.1546,4.9162c-.04.454-.0851.9711-.134,1.6378-.1419.909-.2505,2.0034-.3645,3.1618-.1326,1.34-.2744,2.691-.4652,3.8989a53.8352,53.8352,0,0,0,36.0251-50.7965" transform="translate(-158.5239 -90.1952)"/><path class="d" d="M289.9243,194.8122c-.6086.2128-1.2166.4265-1.8355.6188" transform="translate(-158.5239 -90.1952)"/><path class="d" d="M290.754,187.752c.0489-.6667.0939-1.1838.1335-1.6378a37.8108,37.8108,0,0,0,.1553-4.9162,7.81,7.81,0,0,0-2.8584-5.9577l-.0186.0255a38.9959,38.9959,0,0,0-3.6577-3.5306,4.1841,4.1841,0,0,0-3.18-1.2768.7707.7707,0,0,0-.5993,1.07,3.3436,3.3436,0,0,0,.8576,1.3325c.4819.4619.9789.9142,1.4774,1.3667a21.2309,21.2309,0,0,1,4.3617,4.849c1.1868,1.847,1.202,4.1952,1.0811,6.0614-.0567,1.905-.1443,3.8035-.23,5.6977q-.1048,2.3-.1873,4.5946c.6193-.1918,1.2264-.4051,1.8355-.6179.1907-1.2078.3326-2.559.4658-3.8984.1135-1.1589.2216-2.2528.364-3.1622" transform="translate(-158.5239 -90.1952)"/><path class="d" d="M306.4309,138.1944c-1.199-1.1256-2.4616-2.2211-3.6826-3.28a58.7262,58.7262,0,0,1-7.3939-7.2216,39.3973,39.3973,0,0,1-3.4988-5.1207l-1.4527-2.3976c-3.1216-5.2055-6.35-10.5882-10.826-14.8773-2.5267-2.604-4.9639-3.87-7.4419-3.87-2.3088.0326-4.5525,1.2959-6.5023,3.8417-1.4686,2.0449-3.3877,5.1628-3.0873,8.6207.2351,2.52,1.6792,4.8873,4.3653,7.1932a12.7143,12.7143,0,0,0,1.7191,1.4,9.1194,9.1194,0,0,1,1.8059,1.5454,3.2741,3.2741,0,0,1,.1353,2.5458l-.02.1137a33.4482,33.4482,0,0,1-3.0563,7.1768c-.2316.4454-.463.89-.6623,1.2834a3.11,3.11,0,0,0-.2524,2.334,14.372,14.372,0,0,0,4.2819,6.331,24.7694,24.7694,0,0,0,16.6952,6.1294,1.1238,1.1238,0,0,0,.1511-.0367,22.2177,22.2177,0,0,1-2.4743,7.5246,34.83,34.83,0,0,1-4.9674,7.8544c-2.2973,2.4716-4.3955,3.7885-6.5127,4.1366-1.9541.0893-3.9708-.9657-6.1615-3.1935a11.8387,11.8387,0,0,1-2.915-7.5571.7694.7694,0,0,0-.767-.73h-.005a.7671.7671,0,0,0-.7619.74,12.1592,12.1592,0,0,0,3.5566,9.3119,13.691,13.691,0,0,0,5.2939,3.2547,6.5138,6.5138,0,0,0,1.6212.2309,5.5265,5.5265,0,0,0,2.1931-.5164,16.2105,16.2105,0,0,0,5.5769-3.7651,37.9313,37.9313,0,0,0,6.7524-10.5809,18.7563,18.7563,0,0,0,1.8434-6.4124,25.6367,25.6367,0,0,0,9.0781,3.8517,10.2744,10.2744,0,0,0,7.7651-2.2256c2.5487-2.0975,3.8021-4.1986,3.828-6.4822-.1913-3.0135-2.2743-5.2672-4.2213-7.1524" transform="translate(-158.5239 -90.1952)"/><path class="c" d="M261.7073,185.1886a1.3543,1.3543,0,0,0-.7671-.2377,1.8392,1.8392,0,0,0-1.7166,1.75l-.007.2577.2489-.0674a8.2811,8.2811,0,0,0,1.057-.3924c.228-.0969.4444-.1893.6668-.2671a.9924.9924,0,0,1,.4589.5391.47.47,0,0,1-.3983.1553,2.7085,2.7085,0,0,1-.3551-.0333,3.0157,3.0157,0,0,0-.3923-.0351h-.5538l.536.4242a1.8374,1.8374,0,0,0,1.0562.5268.7685.7685,0,0,0,.5454-.22,1.1206,1.1206,0,0,0,.5717-1.1228,1.5331,1.5331,0,0,0-.9508-1.2778" transform="translate(-158.5239 -90.1952)"/><path class="a" d="M385.667,262.0473h-1.32v4.4614a1.86,1.86,0,0,1-1.8635,1.8781c-1.203,0-1.6237-.931-1.6237-2.3134v-4.0261h-1.32v4.2516c0,2.5531,1.3648,3.1832,2.5076,3.1832a2.736,2.736,0,0,0,2.4045-1.3507h.03l.0749,1.1854h1.17c-.0451-.5711-.06-1.2319-.06-1.9828Zm-12.7838.8244c1.563,0,2.1791,1.5629,2.1791,2.7952,0,1.6381-.9468,2.8253-2.2087,2.8253-1.2925,0-2.21-1.2019-2.21-2.7952,0-1.3826.6766-2.8253,2.24-2.8253m.03-.99a3.548,3.548,0,0,0-3.6044,3.86,3.4543,3.4543,0,0,0,3.4845,3.74,3.5515,3.5515,0,0,0,3.62-3.86,3.4413,3.4413,0,0,0-3.5-3.74m-9.1637-1.5776v1.743h-1.1267v1.0046H363.75V267.02a2.69,2.69,0,0,0,.5107,1.8922,1.8283,1.8283,0,0,0,1.426.5553,3.2465,3.2465,0,0,0,1.1716-.18l-.06-.99a2.944,2.944,0,0,1-.7661.09c-.7363,0-.9918-.5107-.9918-1.4123V263.052h1.8932v-1.0048H365.04v-2.0889Zm-7.0015,2.5673c1.5629,0,2.1794,1.5629,2.1794,2.7952,0,1.6381-.9471,2.8253-2.21,2.8253-1.292,0-2.2087-1.2019-2.2087-2.7952,0-1.3826.6762-2.8253,2.2392-2.8253m.03-.99a3.5484,3.5484,0,0,0-3.6044,3.86,3.4547,3.4547,0,0,0,3.4845,3.74,3.5513,3.5513,0,0,0,3.62-3.86,3.441,3.441,0,0,0-3.5-3.74m-12.9193,7.4348H345.18v-4.372a1.9,1.9,0,0,1,.09-.6159,1.8783,1.8783,0,0,1,1.7733-1.3521c1.2479,0,1.6838.9764,1.6838,2.1485v4.1915h1.32v-4.3416c0-2.4935-1.5611-3.0932-2.5678-3.0932a2.6749,2.6749,0,0,0-2.4049,1.3653h-.03l-.0749-1.2H343.8c.0451.6007.06,1.2166.06,1.9675Zm-5.0177-3.05a2.3,2.3,0,0,1-.06.5711,1.9876,1.9876,0,0,1-1.9386,1.5792c-1.428,0-2.15-1.2177-2.15-2.69,0-1.608.8116-2.81,2.18-2.81a1.9445,1.9445,0,0,1,1.9086,1.5331,2.3356,2.3356,0,0,1,.06.5557Zm0-7.6154v4.34h-.03a2.4337,2.4337,0,0,0-2.1946-1.11c-1.7738,0-3.2737,1.4857-3.259,3.9053,0,2.2092,1.35,3.6949,3.1088,3.6949a2.6908,2.6908,0,0,0,2.48-1.426h.03l.06,1.2607h1.1853c-.0451-.4959-.06-1.2318-.06-1.878v-8.7871Zm-11.66,4.22c1.5629,0,2.1793,1.5629,2.1793,2.7952,0,1.6381-.9468,2.8253-2.2091,2.8253-1.293,0-2.21-1.2019-2.21-2.7952,0-1.3826.6763-2.8253,2.24-2.8253m.03-.99a3.5482,3.5482,0,0,0-3.605,3.86,3.4547,3.4547,0,0,0,3.4846,3.74,3.5518,3.5518,0,0,0,3.62-3.86,3.4414,3.4414,0,0,0-3.5-3.74m-12.9193,7.4349h1.32V264.93a1.5981,1.5981,0,0,1,.0906-.6315,1.9,1.9,0,0,1,1.7733-1.3219c1.2479,0,1.6839.9916,1.6839,2.1638v4.1763h1.32V264.99c0-2.5086-1.56-3.1084-2.5375-3.1084a2.7268,2.7268,0,0,0-1.3525.3752,2.4458,2.4458,0,0,0-.9471.93h-.03v-4.5354h-1.32Zm-8.385-7.27h-1.32v4.4614a1.9334,1.9334,0,0,1-.12.6766,1.9109,1.9109,0,0,1-1.7432,1.2017c-1.2023,0-1.6231-.9309-1.6231-2.3134v-4.0261h-1.32v4.2517c0,2.553,1.3653,3.1832,2.5076,3.1832a2.7373,2.7373,0,0,0,2.4045-1.3509h.03l.0749,1.1854h1.1706c-.0451-.5711-.06-1.2318-.06-1.9828Zm-12.784.8243c1.5635,0,2.1794,1.5629,2.1794,2.7952,0,1.6381-.9468,2.8253-2.21,2.8253-1.2924,0-2.2092-1.2019-2.2092-2.7952,0-1.3826.6766-2.8253,2.24-2.8253m.03-.99a3.5484,3.5484,0,0,0-3.6045,3.86,3.4546,3.4546,0,0,0,3.4841,3.74,3.5514,3.5514,0,0,0,3.62-3.86,3.4411,3.4411,0,0,0-3.5-3.74m-12.9193,7.4349h1.32v-4.372a1.9,1.9,0,0,1,.0905-.6159,1.8788,1.8788,0,0,1,1.7739-1.3521c1.2473,0,1.6828.9764,1.6828,2.1485v4.1915h1.3209v-4.3416c0-2.4935-1.5611-3.0933-2.5679-3.0933a2.6763,2.6763,0,0,0-2.4053,1.3654h-.03l-.0748-1.2h-1.17c.0445.6007.06,1.2166.06,1.9675Zm-4.9121-2.45a1.3831,1.3831,0,0,1-.0751.4222,1.81,1.81,0,0,1-1.7587,1.2176,1.1707,1.1707,0,0,1-1.2479-1.2626c0-1.4133,1.6388-1.6687,3.0819-1.6388Zm1.3952,2.45a10.21,10.21,0,0,1-.12-1.743v-2.7175c0-1.4584-.54-2.9744-2.763-2.9744a4.5142,4.5142,0,0,0-2.3887.6448l.3.8712a3.6137,3.6137,0,0,1,1.8929-.5415,1.5,1.5,0,0,1,1.6535,1.6843v.1507c-2.8109-.0146-4.3719.9442-4.3719,2.7024a2.07,2.07,0,0,0,2.0458,2.0938q.088.0011.1761-.0054a2.7132,2.7132,0,0,0,2.2254-1.08h.0445l.1052.9148Zm-10.2442-3.05a2.3009,2.3009,0,0,1-.06.5711,1.9879,1.9879,0,0,1-1.9386,1.5792c-1.4283,0-2.15-1.2177-2.15-2.69,0-1.608.8115-2.81,2.18-2.81a1.9449,1.9449,0,0,1,1.9086,1.5331,2.3356,2.3356,0,0,1,.06.5557Zm0-7.6154v4.34h-.03a2.4333,2.4333,0,0,0-2.1942-1.11c-1.7738,0-3.2742,1.4857-3.2593,3.9053,0,2.2092,1.35,3.6949,3.1089,3.6949a2.691,2.691,0,0,0,2.48-1.426h.03l.06,1.2607h1.1846c-.0451-.4959-.06-1.2318-.06-1.878v-8.7871Zm-9.3156.526a.8047.8047,0,0,0-.825.7837c0,.0141,0,.0281,0,.0421a.8179.8179,0,1,0,.825-.8258m.66,2.87h-1.32v7.2694h1.32Zm-5.6786-.9936,1.4123-2.1466H252.56l-.8861,1.426h-.03l-.8857-1.426h-1.02l1.4407,2.1466Zm-2.1163,8.2631h1.3049v-3.8764a3.704,3.704,0,0,1,.06-.6154,1.8547,1.8547,0,0,1,1.7728-1.6982,1.998,1.998,0,0,1,.4509.045v-1.245a1.421,1.421,0,0,0-.3757-.0451,2.18,2.18,0,0,0-2.0129,1.5909h-.06l-.0451-1.4255h-1.155c.0451.6756.06,1.4118.06,2.2679Zm-8.7454-4.2052a2.1464,2.1464,0,0,1,.09-.5406,2.11,2.11,0,0,1,1.9988-1.6392c1.3982,0,2.1644,1.2473,2.1644,2.705,0,1.6677-.8115,2.81-2.21,2.81a2.0407,2.0407,0,0,1-1.9837-1.5479,2.9814,2.9814,0,0,1-.06-.541Zm-1.3057,7.18h1.3057v-3.9493h.03a2.5512,2.5512,0,0,0,2.2392,1.14c1.7137,0,3.3043-1.2905,3.3043-3.9053,0-2.2091-1.32-3.6949-3.0782-3.6949a2.86,2.86,0,0,0-2.5855,1.41h-.03l-.06-1.245h-1.1851c.03.6913.06,1.4422.06,2.3736Zm-12.6492-3.3192a4.14,4.14,0,0,0,2.0419.4951c1.7282,0,2.7187-.9,2.7187-2.177,0-1.082-.6453-1.7132-1.9066-2.1941-.9479-.361-1.3837-.6315-1.3837-1.2323,0-.541.4358-.9919,1.2178-.9919a2.8287,2.8287,0,0,1,1.4872.4208l.33-.9608a3.6323,3.6323,0,0,0-1.7873-.45,2.2407,2.2407,0,0,0-2.5084,2.1319c0,.8716.6152,1.593,1.9223,2.0585.9772.3611,1.3529.7064,1.3529,1.3376,0,.6011-.4508,1.082-1.413,1.082a3.4574,3.4574,0,0,1-1.7418-.526Zm-10.0213-7.9182,1.4127-2.1466h-.9769l-.9017,1.426h-.03l-.8872-1.426h-1.0069l1.4432,2.1466Zm-2.435,3.9229a2.1924,2.1924,0,0,1,2.0292-2.15,1.8836,1.8836,0,0,1,1.8335,2.15Zm5.0931.9447a4.9926,4.9926,0,0,0,.0451-.6145c0-1.3375-.63-3.4249-3.0037-3.4249-2.1194,0-3.4092,1.7264-3.4092,3.9195a3.3744,3.3744,0,0,0,3.5745,3.6656,5.8838,5.8838,0,0,0,2.4181-.45l-.225-.9457a4.7715,4.7715,0,0,1-2.0128.3757,2.3306,2.3306,0,0,1-2.4951-2.5256Zm-15.6826,3.3955h1.3194v-4.372a1.9055,1.9055,0,0,1,.09-.6159,1.8793,1.8793,0,0,1,1.7739-1.3522c1.2473,0,1.6838.9765,1.6838,2.1486v4.1915h1.32v-4.3417c0-2.4935-1.5608-3.0932-2.5678-3.0932a2.675,2.675,0,0,0-2.405,1.3654h-.03l-.0751-1.2h-1.17c.0451.6007.06,1.2166.06,1.9675Zm-9.54-7.2695,2.6886,6.7005a1.1652,1.1652,0,0,1,.09.3457.95.95,0,0,1-.1047.3155,4.0162,4.0162,0,0,1-1.1115,1.4725,3.4919,3.4919,0,0,1-1.1566.6458l.3306,1.1121a3.5856,3.5856,0,0,0,1.6219-.8566c.9011-.7808,1.5469-2.0586,2.4933-4.5521l1.9827-5.183h-1.3972l-1.4416,4.2667c-.18.5255-.3306,1.0817-.4655,1.5175h-.03c-.12-.4358-.3006-1.0072-.4659-1.4878l-1.5921-4.2966Zm-8.6838,7.2695h1.32V264.93a1.6031,1.6031,0,0,1,.09-.6315,1.9012,1.9012,0,0,1,1.7739-1.3219c1.2479,0,1.6835.9916,1.6835,2.1638v4.1763h1.32V264.99c0-2.5087-1.56-3.1084-2.5377-3.1084a2.7264,2.7264,0,0,0-1.3526.3752,2.4468,2.4468,0,0,0-.9473.93h-.03v-4.5354h-1.32Zm-3.2772-1.2607a3.7525,3.7525,0,0,1-1.6226.361,2.7422,2.7422,0,0,1,.0452-5.47,3.07,3.07,0,0,1,1.5325.3454l.3005-1.02a4.4224,4.4224,0,0,0-1.8328-.3752,3.6917,3.6917,0,0,0-3.9043,3.86,3.4524,3.4524,0,0,0,3.6186,3.71,4.8793,4.8793,0,0,0,2.0887-.42Zm-8.6539-6.0089H172.802v4.4614a1.9356,1.9356,0,0,1-.12.6766,1.9114,1.9114,0,0,1-1.7437,1.2015c-1.2023,0-1.6237-.931-1.6237-2.3134v-4.0261h-1.32v4.2516c0,2.5531,1.3649,3.1832,2.5076,3.1832a2.7367,2.7367,0,0,0,2.405-1.3507h.03l.0746,1.1854h1.17c-.0444-.5711-.0594-1.2319-.0594-1.9828ZM158.53,269.3168h1.305v-3.86l.9618-1.1114,3.3353,4.9717h1.5474l-3.9515-5.8278,3.6658-4.2962h-1.6224l-3.0949,3.8c-.2555.3306-.526.6907-.7965,1.0815h-.0451v-4.8817H158.53Z" transform="translate(-158.5239 -90.1952)"/></svg>