<svg xmlns="http://www.w3.org/2000/svg" width="28.7729mm" height="28.0681mm" viewBox="0 0 81.561 79.5632"><defs><style>.a{fill:#242424;}.b{fill:#787878;}</style></defs><path class="a" d="M372.1374,179.5547c0-2.1687,3.41-4.2615,6.2806-5.12a39.3684,39.3684,0,0,0-1.07-4.4232c-2.915,3.6622-5.8,7.0318-10.3841,8.8754-.433.1742-.881.3349-1.3362.4825.0517.6768.0864,1.3585.0864,2.0487a26.5295,26.5295,0,1,1-18.6662-25.3645,29.1912,29.1912,0,0,1,5.1419-6.8638c.0917-.0949.1859-.1785.28-.2637a13.9071,13.9071,0,0,1,.2708-5.005,39.7284,39.7284,0,0,0-10.9122-2.285c-.5483,2.9588-2.2329,6.8027-4.5344,6.8027-2.1687,0-4.2592-3.41-5.1181-6.2806a39.51,39.51,0,0,0-10.5992,3.4665c1.0085,2.84,1.4735,7.014-.522,8.1646-1.877,1.0844-5.3886-.8208-7.569-2.8734a39.9714,39.9714,0,0,0-7.4434,8.2951c2.2873,1.9575,4.7741,5.3364,3.6231,7.3319-1.0841,1.8792-5.0848,1.9838-8.0008,1.2932a39.6158,39.6158,0,0,0-2.2872,10.9124c2.9586.548,6.8,2.23,6.8,4.5319.0024,2.1686-3.41,4.2614-6.2785,5.12a39.5016,39.5016,0,0,0,3.4668,10.5968c2.8377-1.0061,7.0113-1.4711,8.1623.5243,1.0842,1.8769-.8187,5.3886-2.8735,7.569a40.0247,40.0247,0,0,0,8.2975,7.4434c1.9575-2.2873,5.3363-4.774,7.33-3.6231,1.8792,1.0844,1.9857,5.0848,1.2932,8.0009a39.6419,39.6419,0,0,0,10.912,2.2872c.5507-2.9587,2.2329-6.8027,4.5345-6.8027,2.1686,0,4.2591,3.41,5.118,6.2809a39.5154,39.5154,0,0,0,10.5992-3.4667c-1.006-2.8378-1.4737-7.0114.5219-8.1647,1.8768-1.0842,5.3887.821,7.5692,2.8758a39.93,39.93,0,0,0,7.4457-8.2974c-2.2873-1.9552-4.7764-5.3364-3.6257-7.332,1.0844-1.8791,5.0873-1.9835,8.0035-1.2931a39.6248,39.6248,0,0,0,2.2872-10.9122C375.979,183.5386,372.1374,181.8563,372.1374,179.5547Z" transform="translate(-299.377 -141.6357)"/><path class="a" d="M360.811,180.1158c.0256.4311.0426.8645.0426,1.3019A21.7053,21.7053,0,1,1,345.837,160.779a7.9035,7.9035,0,0,1,.1543-1.7547,23.411,23.411,0,1,0,16.5766,22.3934c0-.4572-.0165-.91-.0424-1.3612A10.8523,10.8523,0,0,1,360.811,180.1158Z" transform="translate(-299.377 -141.6357)"/><rect class="a" x="38.9916" y="20.1056" width="1.5798" height="5.4875"/><rect class="a" x="20.1772" y="38.9918" width="5.4876" height="1.5798"/><rect class="a" x="38.9916" y="53.7878" width="1.5798" height="5.4875"/><rect class="b" x="331.4138" y="165.7207" width="1.1357" height="17.8139" transform="translate(-325.6222 144.258) rotate(-45)"/><rect class="b" x="345.8104" y="175.693" width="1.0953" height="11.449" transform="translate(228.3986 -306.5764) rotate(90)"/><circle class="b" cx="39.7815" cy="39.7817" r="1.8486"/><path class="b" d="M361.7827,181.14a19.155,19.155,0,1,1,19.1553-19.1552A19.1765,19.1765,0,0,1,361.7827,181.14Zm0-34.31a15.155,15.155,0,1,0,15.1553,15.1548A15.1718,15.1718,0,0,0,361.7827,146.83Z" transform="translate(-299.377 -141.6357)"/><path class="b" d="M367.587,165.6192l2.6549,2.4744a8.3805,8.3805,0,0,1-3.1831,2.3972,10.5227,10.5227,0,0,1-4.24.8245,10.734,10.734,0,0,1-4.1628-.7988,9.0535,9.0535,0,0,1-3.26-2.2682,8.8194,8.8194,0,0,1-1.9332-3.4022H350.55v-2.1652h2.5262a9.3968,9.3968,0,0,1,0-1.3917H350.55V159.124h2.9126a8.8143,8.8143,0,0,1,1.9332-3.4022,9.0584,9.0584,0,0,1,3.26-2.2682,10.7342,10.7342,0,0,1,4.1628-.7992,10.5228,10.5228,0,0,1,4.24.8249,8.4991,8.4991,0,0,1,3.1831,2.3715l-2.6549,2.4743a5.889,5.889,0,0,0-4.562-2.1137,5.9729,5.9729,0,0,0-3.0415.7734,5.2564,5.2564,0,0,0-2.062,2.1392h6.521v2.1652h-7.1654a9.4332,9.4332,0,0,0,0,1.3917h7.1654v2.1652h-6.521a5.2546,5.2546,0,0,0,2.062,2.1392,5.9759,5.9759,0,0,0,3.0415.7734A5.8087,5.8087,0,0,0,367.587,165.6192Z" transform="translate(-299.377 -141.6357)"/></svg>