<svg xmlns="http://www.w3.org/2000/svg" width="184.3581mm" height="28.0681mm" viewBox="0 0 522.5898 79.5632"><defs><style>.a{fill:#242424;}.b{fill:#787878;}</style></defs><path class="a" d="M165.0193,173.5481c0-2.1687,3.41-4.2615,6.2806-5.12a39.3885,39.3885,0,0,0-1.07-4.4231c-2.915,3.6622-5.7995,7.0318-10.3841,8.8754-.4331.1741-.8811.3348-1.3363.4824.0517.6769.0864,1.3586.0864,2.0487A26.5295,26.5295,0,1,1,139.93,150.0466a29.1942,29.1942,0,0,1,5.142-6.8639c.0917-.0949.1858-.1785.28-.2637a13.9086,13.9086,0,0,1,.2707-5.0049,39.724,39.724,0,0,0-10.9122-2.285c-.5482,2.9587-2.2328,6.8027-4.5344,6.8027-2.1686,0-4.2591-3.41-5.1181-6.2807a39.5132,39.5132,0,0,0-10.5991,3.4665c1.0084,2.84,1.4735,7.0141-.522,8.1647-1.877,1.0844-5.3887-.8209-7.569-2.8735a39.9712,39.9712,0,0,0-7.4434,8.2951c2.2873,1.9576,4.774,5.3364,3.6231,7.3319-1.0842,1.8793-5.0848,1.9839-8.0009,1.2932a39.6209,39.6209,0,0,0-2.2871,10.9125c2.9586.548,6.8,2.23,6.8,4.5318.0024,2.1687-3.41,4.2615-6.2786,5.12a39.5009,39.5009,0,0,0,3.4668,10.5967c2.8377-1.0061,7.0114-1.4711,8.1623.5244,1.0843,1.8768-.8186,5.3885-2.8734,7.569a40.0267,40.0267,0,0,0,8.2974,7.4434c1.9575-2.2873,5.3364-4.7741,7.33-3.6231,1.8791,1.0844,1.9857,5.0848,1.2931,8.0008a39.6391,39.6391,0,0,0,10.9121,2.2873c.5506-2.9587,2.2328-6.8027,4.5345-6.8027,2.1686,0,4.259,3.41,5.1179,6.2809a39.5185,39.5185,0,0,0,10.5993-3.4667c-1.006-2.8378-1.4737-7.0114.5218-8.1647,1.8769-1.0842,5.3888.8209,7.5692,2.8758a39.9307,39.9307,0,0,0,7.4457-8.2975c-2.2873-1.9552-4.7763-5.3363-3.6257-7.3319,1.0845-1.8792,5.0874-1.9835,8.0035-1.2932A39.62,39.62,0,0,0,171.822,178.08C168.8609,177.5319,165.0193,175.85,165.0193,173.5481Z" transform="translate(-92.2589 -135.6291)"/><path class="a" d="M153.6929,174.1092c.0256.4311.0425.8644.0425,1.3019a21.7053,21.7053,0,1,1-15.0166-20.6388,7.9155,7.9155,0,0,1,.1543-1.7547A23.4111,23.4111,0,1,0,155.45,175.4111c0-.4572-.0165-.9106-.0424-1.3613A10.8627,10.8627,0,0,1,153.6929,174.1092Z" transform="translate(-92.2589 -135.6291)"/><rect class="a" x="38.9916" y="20.1056" width="1.5798" height="5.4875"/><rect class="a" x="20.1772" y="38.9918" width="5.4876" height="1.5798"/><rect class="a" x="38.9916" y="53.7878" width="1.5798" height="5.4875"/><rect class="b" x="124.2956" y="159.7141" width="1.1357" height="17.8139" transform="translate(-174.9202 2.0507) rotate(-45)"/><rect class="b" x="138.6923" y="169.6863" width="1.0953" height="11.449" transform="translate(222.3919 -99.4582) rotate(90)"/><circle class="b" cx="39.7815" cy="39.7817" r="1.8486"/><path class="b" d="M154.6646,175.1333A19.1551,19.1551,0,1,1,173.82,155.978,19.1765,19.1765,0,0,1,154.6646,175.1333Zm0-34.31A15.1551,15.1551,0,1,0,169.82,155.978,15.1719,15.1719,0,0,0,154.6646,140.8232Z" transform="translate(-92.2589 -135.6291)"/><path class="b" d="M160.4689,159.6126l2.6549,2.4743a8.38,8.38,0,0,1-3.1832,2.3972,10.5205,10.5205,0,0,1-4.24.8246,10.7318,10.7318,0,0,1-4.1628-.7989,9.0545,9.0545,0,0,1-3.26-2.2681,8.82,8.82,0,0,1-1.9333-3.4022h-2.9125v-2.1652h2.5261a9.4346,9.4346,0,0,1,0-1.3918h-2.5261v-2.1652h2.9125a8.8152,8.8152,0,0,1,1.9333-3.4022,9.0582,9.0582,0,0,1,3.26-2.2681,10.732,10.732,0,0,1,4.1628-.7992,10.5206,10.5206,0,0,1,4.24.8249,8.5,8.5,0,0,1,3.1832,2.3714l-2.6549,2.4744a5.8893,5.8893,0,0,0-4.562-2.1137,5.973,5.973,0,0,0-3.0416.7734,5.2559,5.2559,0,0,0-2.0619,2.1391h6.521v2.1652H150.159a9.3981,9.3981,0,0,0,0,1.3918h7.1654V158.84h-6.521a5.2541,5.2541,0,0,0,2.0619,2.1391,5.976,5.976,0,0,0,3.0416.7734A5.8089,5.8089,0,0,0,160.4689,159.6126Z" transform="translate(-92.2589 -135.6291)"/><path class="b" d="M190.5264,177.5708a12.44,12.44,0,0,1-4.877-4.6255,13.4861,13.4861,0,0,1,0-13.375,12.4455,12.4455,0,0,1,4.877-4.626,15.5629,15.5629,0,0,1,12.873-.5195,11.8151,11.8151,0,0,1,4.4282,3.2988l-3.729,3.4424a8.02,8.02,0,0,0-6.311-2.94,8.3813,8.3813,0,0,0-4.16,1.022,7.2618,7.2618,0,0,0-2.8506,2.85,8.9771,8.9771,0,0,0,0,8.3194,7.2627,7.2627,0,0,0,2.8506,2.8506,8.3823,8.3823,0,0,0,4.16,1.0219,7.98,7.98,0,0,0,6.311-2.976l3.729,3.4423a11.62,11.62,0,0,1-4.4463,3.3345,14.7569,14.7569,0,0,1-5.9165,1.1475A14.4131,14.4131,0,0,1,190.5264,177.5708Z" transform="translate(-92.2589 -135.6291)"/><path class="b" d="M216.3076,177.5532a12.51,12.51,0,0,1-4.9126-4.6435,13.3521,13.3521,0,0,1,0-13.3037,12.513,12.513,0,0,1,4.9126-4.6436,15.5362,15.5362,0,0,1,14.0742,0,12.8022,12.8022,0,0,1,0,22.5908,15.5362,15.5362,0,0,1-14.0742,0Zm11.0625-4.2851a7.3341,7.3341,0,0,0,2.8145-2.8506,8.9771,8.9771,0,0,0,0-8.3194,7.3332,7.3332,0,0,0-2.8145-2.85,8.4019,8.4019,0,0,0-8.0322,0,7.3277,7.3277,0,0,0-2.815,2.85,8.9771,8.9771,0,0,0,0,8.3194,7.3286,7.3286,0,0,0,2.815,2.8506,8.4027,8.4027,0,0,0,8.0322,0Z" transform="translate(-92.2589 -135.6291)"/><path class="b" d="M243.9541,178.4316a13.5087,13.5087,0,0,1-4.4644-2.0976l1.9722-4.375a13.3769,13.3769,0,0,0,3.8369,1.9009,14.3967,14.3967,0,0,0,4.4463.7168,7.1035,7.1035,0,0,0,3.6577-.7349,2.2193,2.2193,0,0,0,1.1831-1.9541,1.8679,1.8679,0,0,0-.6992-1.4883,5.3017,5.3017,0,0,0-1.7929-.95q-1.0936-.3582-2.9581-.789a40.7529,40.7529,0,0,1-4.6972-1.3623,7.6292,7.6292,0,0,1-3.1377-2.1875,5.9045,5.9045,0,0,1-1.3091-4.0162,6.9862,6.9862,0,0,1,1.1836-3.9624,7.96,7.96,0,0,1,3.5679-2.8149,14.5624,14.5624,0,0,1,5.8266-1.04,19.3091,19.3091,0,0,1,4.6978.5738,13.8758,13.8758,0,0,1,4.0161,1.6494l-1.793,4.41a14.008,14.008,0,0,0-6.9565-1.9721,6.5236,6.5236,0,0,0-3.6035.789,2.4078,2.4078,0,0,0-1.1656,2.08,2.033,2.033,0,0,0,1.3448,1.9185,21.0915,21.0915,0,0,0,4.1054,1.2373,40.9982,40.9982,0,0,1,4.6978,1.3628,7.781,7.781,0,0,1,3.1372,2.1514,5.769,5.769,0,0,1,1.3091,3.98,6.859,6.859,0,0,1-1.2012,3.9268,8.0763,8.0763,0,0,1-3.604,2.8149,14.6967,14.6967,0,0,1-5.8447,1.04A20.546,20.546,0,0,1,243.9541,178.4316Z" transform="translate(-92.2589 -135.6291)"/><path class="b" d="M267.1182,176.2622q-2.9949-2.9759-2.9942-8.4985V153.7075h5.8091v13.8413q0,6.742,5.5938,6.7412a5.2422,5.2422,0,0,0,4.16-1.6318q1.4334-1.6311,1.4341-5.1094V153.7075h5.7373v14.0562q0,5.5224-2.9941,8.4985t-8.3731,2.9761Q270.1126,179.2383,267.1182,176.2622Z" transform="translate(-92.2589 -135.6291)"/><path class="b" d="M315.4365,178.8081l-.0361-15.06-7.3867,12.4072H305.396L298.0454,164.07v14.7378h-5.4507V153.7075H297.4l9.395,15.5982,9.251-15.5982h4.7695l.0713,25.1006Z" transform="translate(-92.2589 -135.6291)"/><path class="b" d="M343.37,173.4292H331.7158l-2.2231,5.3789H323.54l11.188-25.1006h5.7373L351.69,178.8081h-6.0957Zm-1.8281-4.41-3.9815-9.61-3.98,9.61Z" transform="translate(-92.2589 -135.6291)"/><path class="b" d="M380.9844,173.4292H369.33l-2.2227,5.3789h-5.9521l11.1875-25.1006H378.08l11.2236,25.1006H383.208Zm-1.8291-4.41-3.98-9.61-3.9805,9.61Z" transform="translate(-92.2589 -135.6291)"/><path class="b" d="M394.1621,176.2622q-2.9941-2.9759-2.9941-8.4985V153.7075h5.81v13.8413q0,6.742,5.5938,6.7412a5.2408,5.2408,0,0,0,4.1592-1.6318q1.434-1.6311,1.4345-5.1094V153.7075h5.7373v14.0562q0,5.5224-2.9941,8.4985t-8.373,2.9761Q397.1562,179.2383,394.1621,176.2622Z" transform="translate(-92.2589 -135.6291)"/><path class="b" d="M424.4082,158.4409H416.376v-4.7334h21.873v4.7334h-8.0322v20.3672h-5.8086Z" transform="translate(-92.2589 -135.6291)"/><path class="b" d="M446.12,177.5532a12.5019,12.5019,0,0,1-4.9121-4.6435,13.3489,13.3489,0,0,1,0-13.3037,12.5049,12.5049,0,0,1,4.9121-4.6436,15.5362,15.5362,0,0,1,14.0742,0,12.8017,12.8017,0,0,1,0,22.5908,15.5362,15.5362,0,0,1-14.0742,0Zm11.0625-4.2851a7.3273,7.3273,0,0,0,2.8145-2.8506,8.9732,8.9732,0,0,0,0-8.3194,7.3264,7.3264,0,0,0-2.8145-2.85,8.4019,8.4019,0,0,0-8.0322,0,7.328,7.328,0,0,0-2.8154,2.85,8.98,8.98,0,0,0,0,8.3194,7.3289,7.3289,0,0,0,2.8154,2.8506,8.4027,8.4027,0,0,0,8.0322,0Z" transform="translate(-92.2589 -135.6291)"/><path class="b" d="M494.1162,178.8081l-.0351-15.06-7.3868,12.4072h-2.6181L476.7256,164.07v14.7378h-5.45V153.7075H476.08l9.3945,15.5982,9.252-15.5982h4.7685l.0723,25.1006Z" transform="translate(-92.2589 -135.6291)"/><path class="b" d="M510.6289,177.5532a12.5019,12.5019,0,0,1-4.9121-4.6435,13.3489,13.3489,0,0,1,0-13.3037,12.5049,12.5049,0,0,1,4.9121-4.6436,15.5362,15.5362,0,0,1,14.0742,0,12.8017,12.8017,0,0,1,0,22.5908,15.5362,15.5362,0,0,1-14.0742,0Zm11.0625-4.2851a7.3273,7.3273,0,0,0,2.8145-2.8506,8.9732,8.9732,0,0,0,0-8.3194,7.3264,7.3264,0,0,0-2.8145-2.85,8.4019,8.4019,0,0,0-8.0322,0,7.328,7.328,0,0,0-2.8154,2.85,8.98,8.98,0,0,0,0,8.3194,7.3289,7.3289,0,0,0,2.8154,2.8506,8.4027,8.4027,0,0,0,8.0322,0Z" transform="translate(-92.2589 -135.6291)"/><path class="b" d="M540.624,158.4409h-8.0322v-4.7334h21.873v4.7334h-8.0322v20.3672H540.624Z" transform="translate(-92.2589 -135.6291)"/><path class="b" d="M557.585,153.7075h5.8086v25.1006H557.585Z" transform="translate(-92.2589 -135.6291)"/><path class="b" d="M593.334,153.7075,582.47,178.8081h-5.7373l-10.8291-25.1006h6.2744l7.6377,17.9292,7.7461-17.9292Z" transform="translate(-92.2589 -135.6291)"/><path class="b" d="M614.8486,174.1465v4.6616H595.4141V153.7075h18.9687v4.6616H601.1865v5.45h11.6543v4.5181H601.1865v5.8091Z" transform="translate(-92.2589 -135.6291)"/><path class="a" d="M189.1875,198.2852a4.86,4.86,0,0,1-1.9043-1.8057,5.2672,5.2672,0,0,1,0-5.2227,4.8662,4.8662,0,0,1,1.9043-1.8056,5.6615,5.6615,0,0,1,2.7231-.65,5.7259,5.7259,0,0,1,2.3028.4472,4.6219,4.6219,0,0,1,1.729,1.2881l-1.4561,1.3438a3.1317,3.1317,0,0,0-2.4638-1.1475,3.2745,3.2745,0,0,0-1.6241.3985,2.8417,2.8417,0,0,0-1.1128,1.1132,3.5016,3.5016,0,0,0,0,3.2481,2.8348,2.8348,0,0,0,1.1128,1.1133,3.2755,3.2755,0,0,0,1.6241.3984,3.1151,3.1151,0,0,0,2.4638-1.1611l1.4561,1.3437a4.5405,4.5405,0,0,1-1.7359,1.3018,5.7611,5.7611,0,0,1-2.31.4482A5.622,5.622,0,0,1,189.1875,198.2852Z" transform="translate(-92.2589 -135.6291)"/><path class="a" d="M198.4976,198.3838a3.695,3.695,0,0,1-1.4771-1.38,4.0347,4.0347,0,0,1,0-4.0039,3.7,3.7,0,0,1,1.4771-1.3789,4.8186,4.8186,0,0,1,4.2631,0,3.7152,3.7152,0,0,1,1.47,1.3789,4.0314,4.0314,0,0,1,0,4.0039,3.7106,3.7106,0,0,1-1.47,1.38,4.8273,4.8273,0,0,1-4.2631,0Zm3.5141-1.8623a2.4114,2.4114,0,0,0,0-3.0381,1.8206,1.8206,0,0,0-1.3794-.5674,1.8421,1.8421,0,0,0-1.3857.5674,2.3864,2.3864,0,0,0,0,3.0381,1.8413,1.8413,0,0,0,1.3857.5664A1.82,1.82,0,0,0,202.0117,196.5215Z" transform="translate(-92.2589 -135.6291)"/><path class="a" d="M213.0576,191.9639a3.3346,3.3346,0,0,1,.8609,2.4922v4.3125h-2.1841V194.792a1.9648,1.9648,0,0,0-.3921-1.3369,1.4368,1.4368,0,0,0-1.1338-.44,1.7369,1.7369,0,0,0-1.3159.5108,2.1128,2.1128,0,0,0-.49,1.5185v3.7247h-2.184v-7.5323h2.0864v.8819a2.8829,2.8829,0,0,1,1.0776-.7344,3.7521,3.7521,0,0,1,1.4141-.26A3.1024,3.1024,0,0,1,213.0576,191.9639Z" transform="translate(-92.2589 -135.6291)"/><path class="a" d="M216.5923,198.6494a4.7978,4.7978,0,0,1-1.4282-.581l.728-1.5684a4.5993,4.5993,0,0,0,1.2183.5254,5.089,5.089,0,0,0,1.4.2031q1.3857,0,1.3862-.6865a.4863.4863,0,0,0-.3784-.4619,5.6467,5.6467,0,0,0-1.1617-.2373,11.31,11.31,0,0,1-1.5263-.3223,2.3607,2.3607,0,0,1-1.043-.6445,1.83,1.83,0,0,1-.4409-1.3155,2.0625,2.0625,0,0,1,.4131-1.2675,2.6592,2.6592,0,0,1,1.2041-.86,5.1432,5.1432,0,0,1,1.8691-.3086,7.365,7.365,0,0,1,1.5889.1748,4.4734,4.4734,0,0,1,1.3091.4834l-.7281,1.5537a4.35,4.35,0,0,0-2.17-.56,2.2044,2.2044,0,0,0-1.05.1963.5765.5765,0,0,0-.35.5039.5009.5009,0,0,0,.378.49,6.7538,6.7538,0,0,0,1.2041.2656,12.7637,12.7637,0,0,1,1.5122.3291,2.27,2.27,0,0,1,1.0219.6367,1.8082,1.8082,0,0,1,.4341,1.2881,1.99,1.99,0,0,1-.42,1.2461,2.6772,2.6772,0,0,1-1.2251.8467,5.448,5.448,0,0,1-1.9111.3008A7.3008,7.3008,0,0,1,216.5923,198.6494Z" transform="translate(-92.2589 -135.6291)"/><path class="a" d="M230.9141,191.2363v7.5323h-2.0723v-.8965a2.8971,2.8971,0,0,1-1.0361.749,3.2556,3.2556,0,0,1-1.3018.2588,3.2076,3.2076,0,0,1-2.352-.8535,3.4047,3.4047,0,0,1-.8682-2.5342v-4.2559h2.1841V195.17q0,1.8208,1.5259,1.82a1.64,1.64,0,0,0,1.26-.5107,2.1574,2.1574,0,0,0,.4761-1.5195v-3.7237Z" transform="translate(-92.2589 -135.6291)"/><path class="a" d="M232.9438,188.38h2.1841v10.3887h-2.1841Z" transform="translate(-92.2589 -135.6291)"/><path class="a" d="M242.562,198.4043a2.2519,2.2519,0,0,1-.791.3574,4.0156,4.0156,0,0,1-.9873.1182,2.9338,2.9338,0,0,1-2.0791-.6856,2.6243,2.6243,0,0,1-.7349-2.0156V193.084h-1.1621v-1.68H237.97V189.57h2.1841v1.834h1.876v1.68h-1.876V196.15a1.0284,1.0284,0,0,0,.2451.7353.9063.9063,0,0,0,.6929.2588,1.4043,1.4043,0,0,0,.8818-.28Z" transform="translate(-92.2589 -135.6291)"/><path class="a" d="M243.9058,189.8359a1.1848,1.1848,0,0,1,0-1.7353,1.3849,1.3849,0,0,1,.98-.3506,1.4224,1.4224,0,0,1,.98.3359,1.0786,1.0786,0,0,1,.378.8409,1.1875,1.1875,0,0,1-.378.9023,1.3687,1.3687,0,0,1-.98.3574A1.3849,1.3849,0,0,1,243.9058,189.8359Zm-.1123,1.4h2.184v7.5323h-2.184Z" transform="translate(-92.2589 -135.6291)"/><path class="a" d="M254.8467,191.9639a3.3345,3.3345,0,0,1,.8608,2.4922v4.3125h-2.1841V194.792a1.9643,1.9643,0,0,0-.3921-1.3369,1.4366,1.4366,0,0,0-1.1337-.44,1.7373,1.7373,0,0,0-1.316.5108,2.1132,2.1132,0,0,0-.49,1.5185v3.7247h-2.1841v-7.5323h2.0865v.8819a2.8821,2.8821,0,0,1,1.0776-.7344,3.7519,3.7519,0,0,1,1.414-.26A3.1024,3.1024,0,0,1,254.8467,191.9639Z" transform="translate(-92.2589 -135.6291)"/><path class="a" d="M265.5352,191.2363v6.2725a4.025,4.025,0,0,1-1.0777,3.0791,4.449,4.449,0,0,1-3.15,1.0088,7.86,7.86,0,0,1-2.0717-.2666,4.52,4.52,0,0,1-1.6241-.77l.8682-1.5683a3.5651,3.5651,0,0,0,1.2036.623,4.7829,4.7829,0,0,0,1.4561.2315,2.3612,2.3612,0,0,0,1.6733-.5117,2.0372,2.0372,0,0,0,.5391-1.5469v-.3213a3.0587,3.0587,0,0,1-2.38.9375,3.9925,3.9925,0,0,1-1.897-.4551,3.4632,3.4632,0,0,1-1.3647-1.2812,3.8484,3.8484,0,0,1,0-3.8076,3.4705,3.4705,0,0,1,1.3647-1.2813,4.0042,4.0042,0,0,1,1.897-.4551,2.9894,2.9894,0,0,1,2.4922,1.0781v-.9658Zm-2.709,4.8653a1.8921,1.8921,0,0,0,0-2.6739,2.0111,2.0111,0,0,0-1.4209-.5117,2.0358,2.0358,0,0,0-1.4278.5117,1.8759,1.8759,0,0,0,0,2.6739,2.0352,2.0352,0,0,0,1.4278.5107A2.01,2.01,0,0,0,262.8262,196.1016Z" transform="translate(-92.2589 -135.6291)"/><path class="a" d="M277.8906,191.6074a3.4752,3.4752,0,0,1,1.3511,1.3574,4.4821,4.4821,0,0,1,0,4.0743,3.4719,3.4719,0,0,1-1.3511,1.3584,3.8363,3.8363,0,0,1-1.9111.4824,2.91,2.91,0,0,1-2.2681-.9092v3.5137h-2.1841V191.2363h2.0865v.8682a2.8959,2.8959,0,0,1,2.3657-.9805A3.837,3.837,0,0,1,277.8906,191.6074Zm-.91,4.9141a2.41,2.41,0,0,0,0-3.0381,1.9592,1.9592,0,0,0-2.7578,0,2.41,2.41,0,0,0,0,3.0381,1.9617,1.9617,0,0,0,2.7578,0Z" transform="translate(-92.2589 -135.6291)"/><path class="a" d="M284.33,191.4043a3.9254,3.9254,0,0,1,1.5332-.28v2.0166c-.2427-.0185-.4063-.0283-.49-.0283a1.9986,1.9986,0,0,0-1.47.5254,2.1192,2.1192,0,0,0-.5322,1.5742v3.5567H281.187v-7.5323h2.0864v.9942A2.4213,2.4213,0,0,1,284.33,191.4043Z" transform="translate(-92.2589 -135.6291)"/><path class="a" d="M288.5444,198.3838a3.6954,3.6954,0,0,1-1.477-1.38,4.034,4.034,0,0,1,0-4.0039,3.7,3.7,0,0,1,1.477-1.3789,4.8188,4.8188,0,0,1,4.2632,0,3.7142,3.7142,0,0,1,1.47,1.3789,4.0308,4.0308,0,0,1,0,4.0039,3.71,3.71,0,0,1-1.47,1.38,4.8275,4.8275,0,0,1-4.2632,0Zm3.5142-1.8623a2.4114,2.4114,0,0,0,0-3.0381,1.8206,1.8206,0,0,0-1.3794-.5674,1.8418,1.8418,0,0,0-1.3857.5674,2.3864,2.3864,0,0,0,0,3.0381,1.841,1.841,0,0,0,1.3857.5664A1.82,1.82,0,0,0,292.0586,196.5215Z" transform="translate(-92.2589 -135.6291)"/><path class="a" d="M293.9556,201.1768l.5879-1.5821a1.5681,1.5681,0,0,0,.9238.2657.8263.8263,0,0,0,.6582-.2735,1.2181,1.2181,0,0,0,.2378-.8183v-7.5323h2.1841v7.5176a2.84,2.84,0,0,1-.7491,2.0791,2.7987,2.7987,0,0,1-2.0927.7637A3.0522,3.0522,0,0,1,293.9556,201.1768Zm2.5195-11.3409a1.185,1.185,0,0,1,0-1.7353,1.3863,1.3863,0,0,1,.9805-.3506,1.4232,1.4232,0,0,1,.98.3359,1.0786,1.0786,0,0,1,.378.8409,1.1875,1.1875,0,0,1-.378.9023,1.3694,1.3694,0,0,1-.98.3574A1.3863,1.3863,0,0,1,296.4751,189.8359Z" transform="translate(-92.2589 -135.6291)"/><path class="a" d="M307.8994,195.6182h-5.6982a1.7735,1.7735,0,0,0,.728,1.1064,2.4116,2.4116,0,0,0,1.4277.4053,2.884,2.884,0,0,0,1.0435-.1748,2.5232,2.5232,0,0,0,.8467-.5528l1.1621,1.26a3.9039,3.9039,0,0,1-3.1079,1.2178,4.9178,4.9178,0,0,1-2.2539-.4961,3.64,3.64,0,0,1-1.5122-1.38,3.795,3.795,0,0,1-.5318-2.0019,3.8514,3.8514,0,0,1,.5249-1.9952,3.6885,3.6885,0,0,1,1.4419-1.3857,4.4609,4.4609,0,0,1,4.0527-.0205,3.4776,3.4776,0,0,1,1.4073,1.3642,4.0734,4.0734,0,0,1,.5112,2.0655C307.9414,195.0586,307.9272,195.2539,307.8994,195.6182Zm-5.11-2.4219a1.7879,1.7879,0,0,0-.6158,1.1484h3.71a1.8082,1.8082,0,0,0-.6162-1.1416,1.843,1.843,0,0,0-1.2319-.4267A1.8792,1.8792,0,0,0,302.7891,193.1963Z" transform="translate(-92.2589 -135.6291)"/><path class="a" d="M310.874,198.3838a3.6948,3.6948,0,0,1-2.0366-3.3818,3.6919,3.6919,0,0,1,2.0366-3.3809,4.6337,4.6337,0,0,1,2.1631-.4971,4.1937,4.1937,0,0,1,2.0791.4971,2.9546,2.9546,0,0,1,1.2949,1.4209l-1.6938.91a1.8528,1.8528,0,0,0-1.6944-1.0361,1.9164,1.9164,0,0,0-1.4135.5606,2.3584,2.3584,0,0,0,0,3.0517,1.9157,1.9157,0,0,0,1.4135.56,1.8328,1.8328,0,0,0,1.6944-1.0352l1.6938.9239a3.01,3.01,0,0,1-1.2949,1.3994,4.1455,4.1455,0,0,1-2.0791.5039A4.6344,4.6344,0,0,1,310.874,198.3838Z" transform="translate(-92.2589 -135.6291)"/><path class="a" d="M322.6411,198.4043a2.2519,2.2519,0,0,1-.791.3574,4.0156,4.0156,0,0,1-.9873.1182,2.9338,2.9338,0,0,1-2.0791-.6856,2.6243,2.6243,0,0,1-.7349-2.0156V193.084h-1.1621v-1.68h1.1621V189.57h2.1841v1.834h1.876v1.68h-1.876V196.15a1.0284,1.0284,0,0,0,.2451.7353.9063.9063,0,0,0,.6929.2588,1.4043,1.4043,0,0,0,.8818-.28Z" transform="translate(-92.2589 -135.6291)"/><path class="a" d="M339.7275,191.957a3.3959,3.3959,0,0,1,.833,2.4991v4.3125h-2.184V194.792a2.0432,2.0432,0,0,0-.3706-1.3369,1.3052,1.3052,0,0,0-1.0572-.44,1.5556,1.5556,0,0,0-1.2182.4971,2.14,2.14,0,0,0-.4478,1.4766v3.78h-2.1841V194.792q0-1.7769-1.4277-1.7774a1.5377,1.5377,0,0,0-1.2041.4971,2.14,2.14,0,0,0-.4482,1.4766v3.78h-2.1841v-7.5323h2.0864v.8682a2.752,2.752,0,0,1,1.0288-.7285,3.4623,3.4623,0,0,1,1.3369-.252,3.2369,3.2369,0,0,1,1.4419.3155,2.5532,2.5532,0,0,1,1.0361.9169,3.0887,3.0887,0,0,1,1.169-.91,3.685,3.685,0,0,1,1.5469-.3223A3.0383,3.0383,0,0,1,339.7275,191.957Z" transform="translate(-92.2589 -135.6291)"/><path class="a" d="M348.2471,191.957a3.1906,3.1906,0,0,1,.9375,2.5137v4.2979h-2.043V197.83a2.4352,2.4352,0,0,1-2.2969,1.05,3.5606,3.5606,0,0,1-1.5049-.294,2.2318,2.2318,0,0,1-.9726-.8115,2.1092,2.1092,0,0,1-.336-1.1758,1.9628,1.9628,0,0,1,.7911-1.6523,4.0279,4.0279,0,0,1,2.4423-.6016h1.7364a1.3937,1.3937,0,0,0-.4336-1.1,1.91,1.91,0,0,0-1.3028-.3847,3.8037,3.8037,0,0,0-1.1826.1884,3.1446,3.1446,0,0,0-.9873.5117l-.7842-1.5263a4.7548,4.7548,0,0,1,1.4776-.6719,6.6356,6.6356,0,0,1,1.7715-.2383A3.9223,3.9223,0,0,1,348.2471,191.957Zm-1.8614,5.1944a1.4166,1.4166,0,0,0,.6153-.7627v-.77h-1.4981q-1.3433,0-1.3437.8818a.7838.7838,0,0,0,.3291.665,1.4783,1.4783,0,0,0,.9033.2452A1.901,1.901,0,0,0,346.3857,197.1514Z" transform="translate(-92.2589 -135.6291)"/><path class="a" d="M357.998,191.9639a3.3323,3.3323,0,0,1,.8614,2.4922v4.3125h-2.1836V194.792a1.9622,1.9622,0,0,0-.3926-1.3369,1.4381,1.4381,0,0,0-1.1338-.44,1.7389,1.7389,0,0,0-1.3164.5108,2.117,2.117,0,0,0-.4892,1.5185v3.7247h-2.1846v-7.5323h2.0859v.8819a2.8816,2.8816,0,0,1,1.0781-.7344,3.7521,3.7521,0,0,1,1.4141-.26A3.0988,3.0988,0,0,1,357.998,191.9639Z" transform="translate(-92.2589 -135.6291)"/><path class="a" d="M366.56,191.957a3.1906,3.1906,0,0,1,.9375,2.5137v4.2979h-2.044V197.83a2.4335,2.4335,0,0,1-2.2959,1.05,3.5574,3.5574,0,0,1-1.5049-.294,2.24,2.24,0,0,1-.9736-.8115,2.1171,2.1171,0,0,1-.3359-1.1758,1.9627,1.9627,0,0,1,.791-1.6523,4.0313,4.0313,0,0,1,2.4433-.6016h1.7364a1.3939,1.3939,0,0,0-.4346-1.1,1.9091,1.9091,0,0,0-1.3018-.3847,3.7986,3.7986,0,0,0-1.1826.1884,3.1446,3.1446,0,0,0-.9873.5117l-.7842-1.5263a4.7548,4.7548,0,0,1,1.4776-.6719,6.6283,6.6283,0,0,1,1.7705-.2383A3.925,3.925,0,0,1,366.56,191.957Zm-1.8623,5.1944a1.423,1.423,0,0,0,.6162-.7627v-.77h-1.4981q-1.3448,0-1.3437.8818a.7855.7855,0,0,0,.3281.665,1.4783,1.4783,0,0,0,.9033.2452A1.9014,1.9014,0,0,0,364.6973,197.1514Z" transform="translate(-92.2589 -135.6291)"/><path class="a" d="M377.3252,191.2363v6.2725a4.0236,4.0236,0,0,1-1.0781,3.0791,4.4477,4.4477,0,0,1-3.15,1.0088,7.8672,7.8672,0,0,1-2.0723-.2666,4.524,4.524,0,0,1-1.624-.77l.8682-1.5683a3.5706,3.5706,0,0,0,1.2041.623,4.7823,4.7823,0,0,0,1.456.2315,2.3607,2.3607,0,0,0,1.6729-.5117,2.0357,2.0357,0,0,0,.539-1.5469v-.3213a3.056,3.056,0,0,1-2.38.9375,3.9887,3.9887,0,0,1-1.8964-.4551,3.4615,3.4615,0,0,1-1.3653-1.2812,3.8484,3.8484,0,0,1,0-3.8076,3.4688,3.4688,0,0,1,1.3653-1.2813,4,4,0,0,1,1.8964-.4551,2.99,2.99,0,0,1,2.4922,1.0781v-.9658Zm-2.709,4.8653a1.8934,1.8934,0,0,0,0-2.6739,2.0126,2.0126,0,0,0-1.4209-.5117,2.0371,2.0371,0,0,0-1.4287.5117,1.8769,1.8769,0,0,0,0,2.6739,2.0364,2.0364,0,0,0,1.4287.5107A2.012,2.012,0,0,0,374.6162,196.1016Z" transform="translate(-92.2589 -135.6291)"/><path class="a" d="M386.69,195.6182h-5.6972a1.7728,1.7728,0,0,0,.7275,1.1064,2.4116,2.4116,0,0,0,1.4277.4053,2.8755,2.8755,0,0,0,1.043-.1748,2.5221,2.5221,0,0,0,.8477-.5528l1.1611,1.26a3.9021,3.9021,0,0,1-3.1074,1.2178,4.9193,4.9193,0,0,1-2.2539-.4961,3.6418,3.6418,0,0,1-1.5118-1.38,3.7916,3.7916,0,0,1-.5322-2.0019,3.8558,3.8558,0,0,1,.5244-1.9952,3.6931,3.6931,0,0,1,1.4424-1.3857,4.4611,4.4611,0,0,1,4.0528-.0205,3.4779,3.4779,0,0,1,1.4072,1.3642,4.0732,4.0732,0,0,1,.5107,2.0655C386.7324,195.0586,386.7188,195.2539,386.69,195.6182Zm-5.1093-2.4219a1.7884,1.7884,0,0,0-.6163,1.1484h3.71a1.8105,1.8105,0,0,0-.6162-1.1416,1.8435,1.8435,0,0,0-1.2315-.4267A1.8782,1.8782,0,0,0,381.5811,193.1963Z" transform="translate(-92.2589 -135.6291)"/><path class="a" d="M391.332,191.4043a3.9208,3.9208,0,0,1,1.5323-.28v2.0166c-.2422-.0185-.4053-.0283-.4893-.0283a2,2,0,0,0-1.4707.5254,2.121,2.121,0,0,0-.5313,1.5742v3.5567h-2.1845v-7.5323h2.0859v.9942A2.43,2.43,0,0,1,391.332,191.4043Z" transform="translate(-92.2589 -135.6291)"/><path class="a" d="M400.5791,191.4043h1.9316v1.68h-1.8759v5.6846h-2.1836V193.084h-1.1621v-1.68h1.1621v-.3359a2.7473,2.7473,0,0,1,.7627-2.044,2.921,2.921,0,0,1,2.1484-.7558,4.048,4.048,0,0,1,.9316.1044,2.2783,2.2783,0,0,1,.7344.3008l-.5732,1.5821a1.4968,1.4968,0,0,0-.8819-.2657q-.9945,0-.9941,1.0918Z" transform="translate(-92.2589 -135.6291)"/><path class="a" d="M404.9531,198.3838a3.6934,3.6934,0,0,1-1.4765-1.38,4.0308,4.0308,0,0,1,0-4.0039,3.6979,3.6979,0,0,1,1.4765-1.3789,4.8177,4.8177,0,0,1,4.2627,0A3.72,3.72,0,0,1,410.6865,193a4.0373,4.0373,0,0,1,0,4.0039,3.7156,3.7156,0,0,1-1.4707,1.38,4.8264,4.8264,0,0,1-4.2627,0Zm3.5137-1.8623a2.41,2.41,0,0,0,0-3.0381,1.8189,1.8189,0,0,0-1.3789-.5674,1.8429,1.8429,0,0,0-1.3858.5674,2.3864,2.3864,0,0,0,0,3.0381,1.8421,1.8421,0,0,0,1.3858.5664A1.8181,1.8181,0,0,0,408.4668,196.5215Z" transform="translate(-92.2589 -135.6291)"/><path class="a" d="M415.8184,191.4043a3.92,3.92,0,0,1,1.5322-.28v2.0166c-.2422-.0185-.4053-.0283-.4893-.0283a2,2,0,0,0-1.4707.5254,2.1209,2.1209,0,0,0-.5312,1.5742v3.5567h-2.1846v-7.5323h2.0859v.9942A2.43,2.43,0,0,1,415.8184,191.4043Z" transform="translate(-92.2589 -135.6291)"/><path class="a" d="M428.3965,191.957a3.1906,3.1906,0,0,1,.9375,2.5137v4.2979H427.29V197.83a2.4334,2.4334,0,0,1-2.2959,1.05,3.5569,3.5569,0,0,1-1.5048-.294,2.2407,2.2407,0,0,1-.9737-.8115,2.1171,2.1171,0,0,1-.3359-1.1758,1.9629,1.9629,0,0,1,.791-1.6523,4.0314,4.0314,0,0,1,2.4434-.6016H427.15a1.3939,1.3939,0,0,0-.4346-1.1,1.9086,1.9086,0,0,0-1.3017-.3847,3.7992,3.7992,0,0,0-1.1827.1884,3.1457,3.1457,0,0,0-.9873.5117l-.7841-1.5263a4.7532,4.7532,0,0,1,1.4775-.6719,6.6288,6.6288,0,0,1,1.7705-.2383A3.925,3.925,0,0,1,428.3965,191.957Zm-1.8623,5.1944a1.423,1.423,0,0,0,.6162-.7627v-.77h-1.4981q-1.3446,0-1.3437.8818a.7855.7855,0,0,0,.3281.665,1.4783,1.4783,0,0,0,.9033.2452A1.9014,1.9014,0,0,0,426.5342,197.1514Z" transform="translate(-92.2589 -135.6291)"/><path class="a" d="M438.8955,191.2363v7.5323h-2.0713v-.8965a2.9,2.9,0,0,1-1.0361.749,3.26,3.26,0,0,1-1.3027.2588,3.2058,3.2058,0,0,1-2.3516-.8535,3.4031,3.4031,0,0,1-.8682-2.5342v-4.2559H433.45V195.17q0,1.8208,1.5254,1.82a1.64,1.64,0,0,0,1.26-.5107,2.1579,2.1579,0,0,0,.4765-1.5195v-3.7237Z" transform="translate(-92.2589 -135.6291)"/><path class="a" d="M445.7842,198.4043a2.2527,2.2527,0,0,1-.791.3574,4.0156,4.0156,0,0,1-.9873.1182,2.9346,2.9346,0,0,1-2.0791-.6856,2.6222,2.6222,0,0,1-.7344-2.0156V193.084H440.03v-1.68h1.1621V189.57h2.1836v1.834h1.876v1.68h-1.876V196.15a1.03,1.03,0,0,0,.2451.7353.9073.9073,0,0,0,.6934.2588,1.4065,1.4065,0,0,0,.8818-.28Z" transform="translate(-92.2589 -135.6291)"/><path class="a" d="M448.2275,198.3838a3.694,3.694,0,0,1-1.4765-1.38,4.0314,4.0314,0,0,1,0-4.0039,3.6986,3.6986,0,0,1,1.4765-1.3789,4.8177,4.8177,0,0,1,4.2627,0A3.72,3.72,0,0,1,453.9609,193a4.0373,4.0373,0,0,1,0,4.0039,3.7156,3.7156,0,0,1-1.4707,1.38,4.8264,4.8264,0,0,1-4.2627,0Zm3.5137-1.8623a2.41,2.41,0,0,0,0-3.0381,1.8187,1.8187,0,0,0-1.3789-.5674,1.8425,1.8425,0,0,0-1.3857.5674,2.3864,2.3864,0,0,0,0,3.0381,1.8417,1.8417,0,0,0,1.3857.5664A1.8179,1.8179,0,0,0,451.7412,196.5215Z" transform="translate(-92.2589 -135.6291)"/><path class="a" d="M467.8418,191.957a3.398,3.398,0,0,1,.833,2.4991v4.3125H466.49V194.792a2.0426,2.0426,0,0,0-.3711-1.3369,1.3033,1.3033,0,0,0-1.0566-.44,1.5533,1.5533,0,0,0-1.2178.4971,2.14,2.14,0,0,0-.4482,1.4766v3.78h-2.1836V194.792q0-1.7769-1.4287-1.7774a1.5392,1.5392,0,0,0-1.2041.4971,2.14,2.14,0,0,0-.4473,1.4766v3.78h-2.1846v-7.5323h2.086v.8682a2.757,2.757,0,0,1,1.0293-.7285,3.4634,3.4634,0,0,1,1.3369-.252,3.2406,3.2406,0,0,1,1.4424.3155,2.56,2.56,0,0,1,1.0361.9169,3.08,3.08,0,0,1,1.169-.91,3.68,3.68,0,0,1,1.5468-.3223A3.04,3.04,0,0,1,467.8418,191.957Z" transform="translate(-92.2589 -135.6291)"/><path class="a" d="M472.167,198.3838a3.6937,3.6937,0,0,1-1.4766-1.38,4.0314,4.0314,0,0,1,0-4.0039,3.6982,3.6982,0,0,1,1.4766-1.3789,4.8177,4.8177,0,0,1,4.2627,0A3.7209,3.7209,0,0,1,477.9,193a4.038,4.038,0,0,1,0,4.0039,3.7163,3.7163,0,0,1-1.4707,1.38,4.8264,4.8264,0,0,1-4.2627,0Zm3.5137-1.8623a2.41,2.41,0,0,0,0-3.0381,1.8189,1.8189,0,0,0-1.3789-.5674,1.8429,1.8429,0,0,0-1.3858.5674,2.3864,2.3864,0,0,0,0,3.0381,1.8421,1.8421,0,0,0,1.3858.5664A1.8181,1.8181,0,0,0,475.6807,196.5215Z" transform="translate(-92.2589 -135.6291)"/><path class="a" d="M484.7461,198.4043a2.2527,2.2527,0,0,1-.791.3574,4.0156,4.0156,0,0,1-.9873.1182,2.9346,2.9346,0,0,1-2.0791-.6856,2.6222,2.6222,0,0,1-.7344-2.0156V193.084h-1.1621v-1.68h1.1621V189.57h2.1836v1.834h1.876v1.68h-1.876V196.15a1.03,1.03,0,0,0,.2451.7353.9073.9073,0,0,0,.6934.2588,1.4065,1.4065,0,0,0,.8818-.28Z" transform="translate(-92.2589 -135.6291)"/><path class="a" d="M486.09,189.8359a1.185,1.185,0,0,1,0-1.7353,1.3841,1.3841,0,0,1,.9795-.3506,1.4228,1.4228,0,0,1,.9805.3359,1.0785,1.0785,0,0,1,.3779.8409,1.1874,1.1874,0,0,1-.3779.9023,1.3691,1.3691,0,0,1-.9805.3574A1.3841,1.3841,0,0,1,486.09,189.8359Zm-.1123,1.4h2.1846v7.5323h-2.1846Z" transform="translate(-92.2589 -135.6291)"/><path class="a" d="M497.668,191.2363l-3.1787,7.5323h-2.2539l-3.1641-7.5323h2.2539l2.0859,5.1241,2.1563-5.1241Z" transform="translate(-92.2589 -135.6291)"/><path class="a" d="M505.69,195.6182h-5.6973a1.7728,1.7728,0,0,0,.7275,1.1064,2.4117,2.4117,0,0,0,1.4278.4053,2.8754,2.8754,0,0,0,1.0429-.1748,2.5211,2.5211,0,0,0,.8477-.5528l1.1611,1.26a3.9021,3.9021,0,0,1-3.1074,1.2178,4.9193,4.9193,0,0,1-2.2539-.4961,3.6421,3.6421,0,0,1-1.5117-1.38,3.7907,3.7907,0,0,1-.5323-2.0019,3.8559,3.8559,0,0,1,.5245-1.9952,3.6922,3.6922,0,0,1,1.4423-1.3857,4.4611,4.4611,0,0,1,4.0528-.0205,3.4779,3.4779,0,0,1,1.4072,1.3642,4.0732,4.0732,0,0,1,.5107,2.0655C505.7314,195.0586,505.7178,195.2539,505.69,195.6182Zm-5.1094-2.4219a1.7879,1.7879,0,0,0-.6162,1.1484h3.71a1.81,1.81,0,0,0-.6162-1.1416,1.8435,1.8435,0,0,0-1.2314-.4267A1.8785,1.8785,0,0,0,500.58,193.1963Z" transform="translate(-92.2589 -135.6291)"/><path class="a" d="M511.85,198.6494a4.7908,4.7908,0,0,1-1.4277-.581l.7275-1.5684a4.5971,4.5971,0,0,0,1.2178.5254,5.0984,5.0984,0,0,0,1.4.2031q1.3857,0,1.3857-.6865a.4864.4864,0,0,0-.3779-.4619,5.6533,5.6533,0,0,0-1.1621-.2373,11.3272,11.3272,0,0,1-1.5254-.3223,2.3607,2.3607,0,0,1-1.043-.6445,1.83,1.83,0,0,1-.4414-1.3155,2.0625,2.0625,0,0,1,.4131-1.2675,2.66,2.66,0,0,1,1.2041-.86,5.147,5.147,0,0,1,1.8691-.3086,7.3609,7.3609,0,0,1,1.5889.1748,4.4525,4.4525,0,0,1,1.3086.4834l-.7275,1.5537a4.35,4.35,0,0,0-2.17-.56,2.201,2.201,0,0,0-1.05.1963.577.577,0,0,0-.3505.5039.5008.5008,0,0,0,.3779.49,6.7432,6.7432,0,0,0,1.2041.2656,12.73,12.73,0,0,1,1.5117.3291,2.2674,2.2674,0,0,1,1.0225.6367,1.8084,1.8084,0,0,1,.4336,1.2881,1.9876,1.9876,0,0,1-.42,1.2461,2.6724,2.6724,0,0,1-1.2246.8467,5.448,5.448,0,0,1-1.9111.3008A7.3066,7.3066,0,0,1,511.85,198.6494Z" transform="translate(-92.2589 -135.6291)"/><path class="a" d="M526.1709,191.2363v7.5323H524.1v-.8965a2.9006,2.9006,0,0,1-1.0361.749,3.26,3.26,0,0,1-1.3028.2588,3.2057,3.2057,0,0,1-2.3515-.8535,3.4031,3.4031,0,0,1-.8682-2.5342v-4.2559h2.1846V195.17q0,1.8208,1.5254,1.82a1.64,1.64,0,0,0,1.26-.5107,2.1575,2.1575,0,0,0,.4766-1.5195v-3.7237Z" transform="translate(-92.2589 -135.6291)"/><path class="a" d="M534.5645,191.6074a3.4645,3.4645,0,0,1,1.3505,1.3574,4.4772,4.4772,0,0,1,0,4.0743,3.4612,3.4612,0,0,1-1.3505,1.3584,3.8369,3.8369,0,0,1-1.9112.4824,2.9078,2.9078,0,0,1-2.2676-.9092v3.5137h-2.1845V191.2363h2.0859v.8682a2.8969,2.8969,0,0,1,2.3662-.9805A3.8376,3.8376,0,0,1,534.5645,191.6074Zm-.91,4.9141a2.41,2.41,0,0,0,0-3.0381,1.9592,1.9592,0,0,0-2.7578,0,2.41,2.41,0,0,0,0,3.0381,1.9617,1.9617,0,0,0,2.7578,0Z" transform="translate(-92.2589 -135.6291)"/><path class="a" d="M544.2246,191.6074a3.4654,3.4654,0,0,1,1.3506,1.3574,4.478,4.478,0,0,1,0,4.0743,3.4621,3.4621,0,0,1-1.3506,1.3584,3.8363,3.8363,0,0,1-1.9111.4824,2.9076,2.9076,0,0,1-2.2676-.9092v3.5137h-2.1846V191.2363h2.086v.8682a2.8968,2.8968,0,0,1,2.3662-.9805A3.837,3.837,0,0,1,544.2246,191.6074Zm-.91,4.9141a2.41,2.41,0,0,0,0-3.0381,1.9593,1.9593,0,0,0-2.7579,0,2.41,2.41,0,0,0,0,3.0381,1.9618,1.9618,0,0,0,2.7579,0Z" transform="translate(-92.2589 -135.6291)"/><path class="a" d="M547.5205,188.38h2.1846v10.3887h-2.1846Z" transform="translate(-92.2589 -135.6291)"/><path class="a" d="M551.8467,189.8359a1.185,1.185,0,0,1,0-1.7353,1.3838,1.3838,0,0,1,.9795-.3506,1.4227,1.4227,0,0,1,.98.3359,1.0786,1.0786,0,0,1,.378.8409,1.1875,1.1875,0,0,1-.378.9023,1.369,1.369,0,0,1-.98.3574A1.3838,1.3838,0,0,1,551.8467,189.8359Zm-.1123,1.4h2.1845v7.5323h-2.1845Z" transform="translate(-92.2589 -135.6291)"/><path class="a" d="M563.2852,195.6182h-5.6973a1.7728,1.7728,0,0,0,.7275,1.1064,2.4117,2.4117,0,0,0,1.4278.4053,2.8754,2.8754,0,0,0,1.0429-.1748,2.5211,2.5211,0,0,0,.8477-.5528l1.1611,1.26a3.9021,3.9021,0,0,1-3.1074,1.2178,4.9193,4.9193,0,0,1-2.2539-.4961,3.6421,3.6421,0,0,1-1.5117-1.38,3.7907,3.7907,0,0,1-.5323-2.0019,3.8559,3.8559,0,0,1,.5245-1.9952,3.6922,3.6922,0,0,1,1.4423-1.3857,4.4611,4.4611,0,0,1,4.0528-.0205,3.4779,3.4779,0,0,1,1.4072,1.3642,4.0732,4.0732,0,0,1,.5107,2.0655C563.3271,195.0586,563.3135,195.2539,563.2852,195.6182Zm-5.1094-2.4219a1.7879,1.7879,0,0,0-.6162,1.1484h3.71a1.81,1.81,0,0,0-.6162-1.1416,1.8435,1.8435,0,0,0-1.2314-.4267A1.8785,1.8785,0,0,0,558.1758,193.1963Z" transform="translate(-92.2589 -135.6291)"/><path class="a" d="M567.9258,191.4043a3.9206,3.9206,0,0,1,1.5322-.28v2.0166c-.2422-.0185-.4053-.0283-.4892-.0283a2,2,0,0,0-1.4708.5254,2.1213,2.1213,0,0,0-.5312,1.5742v3.5567h-2.1846v-7.5323h2.086v.9942A2.4291,2.4291,0,0,1,567.9258,191.4043Z" transform="translate(-92.2589 -135.6291)"/><path class="a" d="M571.4893,198.6494a4.79,4.79,0,0,1-1.4278-.581l.7276-1.5684a4.5949,4.5949,0,0,0,1.2177.5254,5.0989,5.0989,0,0,0,1.4.2031q1.3859,0,1.3858-.6865a.4864.4864,0,0,0-.378-.4619,5.65,5.65,0,0,0-1.1621-.2373,11.3306,11.3306,0,0,1-1.5254-.3223,2.36,2.36,0,0,1-1.0429-.6445,1.8293,1.8293,0,0,1-.4414-1.3155,2.063,2.063,0,0,1,.413-1.2675,2.66,2.66,0,0,1,1.2042-.86,5.1466,5.1466,0,0,1,1.8691-.3086,7.3623,7.3623,0,0,1,1.5889.1748,4.4547,4.4547,0,0,1,1.3086.4834l-.7276,1.5537a4.3494,4.3494,0,0,0-2.17-.56,2.2008,2.2008,0,0,0-1.05.1963.5771.5771,0,0,0-.3506.5039.5009.5009,0,0,0,.3779.49,6.7474,6.7474,0,0,0,1.2041.2656,12.7368,12.7368,0,0,1,1.5118.3291,2.2676,2.2676,0,0,1,1.0224.6367,1.808,1.808,0,0,1,.4336,1.2881,1.9875,1.9875,0,0,1-.42,1.2461,2.6729,2.6729,0,0,1-1.2246.8467,5.4486,5.4486,0,0,1-1.9112.3008A7.3052,7.3052,0,0,1,571.4893,198.6494Z" transform="translate(-92.2589 -135.6291)"/></svg>