<svg xmlns="http://www.w3.org/2000/svg" width="90.8384mm" height="26mm" viewBox="0 0 257.4947 73.7008"><defs><style>.a{fill:#fff;}</style></defs><polyline class="a" points="11.119 73.701 64.713 73.701 75.796 62.617 11.083 62.617"/><polyline class="a" points="11.083 62.617 11.083 40.294 35.703 15.674 61.945 41.917 69.783 34.08 35.703 0 0 35.703 0 73.701 11.119 73.701"/><path class="a" d="M309.3167,218.2677V203.1519h6.28a3.88,3.88,0,0,1,1.7778.4045,4.5532,4.5532,0,0,1,1.3839,1.0752,5.1777,5.1777,0,0,1,.9155,1.5008,4.58,4.58,0,0,1,.33,1.7032,5.013,5.013,0,0,1-.4472,2.1078,4.5391,4.5391,0,0,1-1.2454,1.6393,3.6578,3.6578,0,0,1-1.8628.809l3.7683,5.876h-1.2562l-3.6619-5.7056h-4.8966v5.7056Zm1.0857-6.7063h5.3011a2.7978,2.7978,0,0,0,1.7033-.5322,3.5176,3.5176,0,0,0,1.1177-1.3839,4.2582,4.2582,0,0,0,.3939-1.81,3.7514,3.7514,0,0,0-.4577-1.82,3.8889,3.8889,0,0,0-1.2135-1.3625,2.9132,2.9132,0,0,0-1.6926-.5215h-5.1522Z" transform="translate(-211.4101 -144.5669)"/><path class="a" d="M345.9776,217.2883v.9794h-10.07V203.1519h9.8784v.9794h-8.7928v5.94h7.6857v.9367h-7.6857v6.28Z" transform="translate(-211.4101 -144.5669)"/><path class="a" d="M366.4583,203.1519h.9368l6.3869,15.1158h-1.15l-2.06-4.9818h-7.3043L361.2,218.2677h-1.1709Zm3.7438,9.24-3.2753-7.92-3.2873,7.92Z" transform="translate(-211.4101 -144.5669)"/><path class="a" d="M388.8552,218.2677V203.1519h1.0857v14.1364h9.0269v.9794Z" transform="translate(-211.4101 -144.5669)"/><path class="a" d="M413.9985,218.2677V203.1519h1.0856v15.1158Z" transform="translate(-211.4101 -144.5669)"/><path class="a" d="M442.378,204.1313h-5.5354v14.1364h-1.0859V204.1313h-5.5353v-.9794H442.378Z" transform="translate(-211.4101 -144.5669)"/><path class="a" d="M457.11,203.1519l5.28,8.367,5.3011-8.367h1.2135l-5.9612,9.41v5.7056h-1.0858v-5.7483l-5.94-9.3675Z" transform="translate(-211.4101 -144.5669)"/><path class="a" d="M331.5127,184.4833v6.4053h-22.196V159.3071h21.7958v6.4053H316.6116v6.1384h12.4548v5.916H316.6116v6.7165Z" transform="translate(-211.4101 -144.5669)"/><path class="a" d="M344.9906,159.3071l7.4283,23.0411,7.3393-23.0411h7.6953l-11.4762,31.5815h-7.1614l-11.5651-31.5815Z" transform="translate(-211.4101 -144.5669)"/><path class="a" d="M397.0331,184.4833v6.4053h-22.196V159.3071h21.7957v6.4053H382.132v6.1384h12.4548v5.916H382.132v6.7165Z" transform="translate(-211.4101 -144.5669)"/><path class="a" d="M413.224,172.7849v18.1037h-7.2948V159.3071h5.7825L426.3461,177.9V159.3071h7.25v31.5815h-5.916Z" transform="translate(-211.4101 -144.5669)"/><path class="a" d="M468.2022,165.7124h-9.6079v25.1762h-7.2949V165.7124h-9.6525v-6.4053h26.5553Z" transform="translate(-211.4101 -144.5669)"/></svg>