<svg xmlns="http://www.w3.org/2000/svg" width="66.8431mm" height="26.0051mm" viewBox="0 0 189.4765 73.7153"><defs><style>.a{fill:#fff;}</style></defs><path class="a" d="M210.4635,178.2648a9.21,9.21,0,0,1,3.3471.6341v-5.1733a14.19,14.19,0,1,0,0,27.576v-5.1732a9.2459,9.2459,0,1,1-3.3471-17.8636Z" transform="translate(-177.3877 -144.5597)"/><path class="a" d="M213.8105,203.87a16.6935,16.6935,0,1,1,0-32.7119V156.32h-13.07a1.4173,1.4173,0,0,0-1.4159,1.388l-5.3027,3.8947h-5.03a1.4045,1.4045,0,0,0-1.3746-1.7552h-4.9687a1.4046,1.4046,0,0,0-1.3746,1.7552h-2.4672a1.419,1.419,0,0,0-1.4191,1.4189v9.9231h20.0308l-2.0023,2.0024H177.3878v24.25a1.4191,1.4191,0,0,0,1.4189,1.4191H196.71a18.9569,18.9569,0,0,0,17.1008,5.5989Zm-12.0414-46.2108h11.2058a.5547.5547,0,0,1,0,1.1093H201.7691a.5547.5547,0,0,1,0-1.1093Z" transform="translate(-177.3877 -144.5597)"/><rect class="a" x="34.0158" width="5.6322" height="73.7153"/><path class="a" d="M227.0974,162.8583h5.6215v3.9589h-5.6215v11.4416h-4.3552V150.5456h11.5213v3.9589h-7.1656Z" transform="translate(-177.3877 -144.5597)"/><path class="a" d="M238.9711,157.1966c0-4.4339,2.3359-6.9676,6.6118-6.9676s6.6111,2.5337,6.6111,6.9676v14.4112c0,4.4338-2.3359,6.9676-6.6111,6.9676s-6.6118-2.5338-6.6118-6.9676Zm4.3547,14.6882c0,1.98.8712,2.7317,2.2572,2.7317s2.2559-.752,2.2559-2.7317V156.92c0-1.9793-.8707-2.7317-2.2559-2.7317s-2.2572.7524-2.2572,2.7317Z" transform="translate(-177.3877 -144.5597)"/><path class="a" d="M256.7034,150.5456h13.46v3.9589h-4.5522v23.7543h-4.3552V154.5045h-4.5527Z" transform="translate(-177.3877 -144.5597)"/><path class="a" d="M274.674,157.1966c0-4.4339,2.3359-6.9676,6.6119-6.9676s6.612,2.5337,6.612,6.9676v14.4112c0,4.4338-2.3359,6.9676-6.612,6.9676s-6.6119-2.5338-6.6119-6.9676Zm4.3552,14.6882c0,1.98.8716,2.7317,2.2567,2.7317s2.2569-.752,2.2569-2.7317V156.92c0-1.9793-.8707-2.7317-2.2569-2.7317s-2.2567.7524-2.2567,2.7317Z" transform="translate(-177.3877 -144.5597)"/><path class="a" d="M307.1328,162.8583h5.6224v3.9589h-5.6224v11.4416h-4.3544V150.5456h11.52v3.9589h-7.1659Z" transform="translate(-177.3877 -144.5597)"/><path class="a" d="M323.7187,162.2246h5.9787v3.959h-5.9787V174.3h7.5221v3.959H319.3644V150.5456h11.8764v3.9589h-7.5221Z" transform="translate(-177.3877 -144.5597)"/><path class="a" d="M342.7584,150.229c4.2365,0,6.413,2.5337,6.413,6.9676v.8712h-4.1167V156.92c0-1.9793-.7915-2.7317-2.1777-2.7317s-2.1776.7524-2.1776,2.7317c0,5.7012,8.5116,6.77,8.5116,14.6882,0,4.4338-2.2162,6.9676-6.4923,6.9676s-6.4932-2.5338-6.4932-6.9676v-1.7027h4.1179v1.98c0,1.98.8707,2.6921,2.2568,2.6921s2.2568-.7124,2.2568-2.6921c0-5.7012-8.5125-6.77-8.5125-14.6882C336.3444,152.7627,338.5219,150.229,342.7584,150.229Z" transform="translate(-177.3877 -144.5597)"/><path class="a" d="M353.4042,150.5456h13.46v3.9589h-4.5521v23.7543h-4.3552V154.5045h-4.5531Z" transform="translate(-177.3877 -144.5597)"/><path class="a" d="M235.8357,195.5026h-2.01v7.5846l1.8492.0006c1.5545,0,2.3053-.7235,2.3053-2.52v-2.4922C237.98,196.36,237.3634,195.5026,235.8357,195.5026Z" transform="translate(-177.3877 -144.5597)"/><path class="a" d="M222.7422,184.2447V218.26H296.443V184.2447Zm58.8927,5.55,1.4208,1.6084,1.42-1.6084h1.8221l-2.3044,2.7069h-1.8493l-2.3315-2.7069Zm-41.5912,10.64c0,2.9752-1.3936,4.53-4.3689,4.53h-1.85v7.3972h-2.09V193.6h4.1c2.948,0,4.208,1.742,4.208,4.5827Zm11.1745,11.9271h-7.4505V193.6h2.09v16.858h5.3606Zm11.8723-16.885-6.4594,14.9819h6.406v1.9031h-8.523v-1.8762l6.4326-14.9818h-6.1383V193.6h8.2821Zm11.6036.0268h-5.6289v6.4054h4.5831v1.8761h-4.5831v6.6736h5.6289v1.9031h-7.7193V193.6h7.7193ZM287.45,212.3613h-2.17l-4.7981-15.17v15.17h-1.8754V193.6h2.653l4.3411,13.5616V193.6h1.85Z" transform="translate(-177.3877 -144.5597)"/></svg>