<svg xmlns="http://www.w3.org/2000/svg" width="64.464mm" height="18.4963mm" viewBox="0 0 182.7326 52.4304"><defs><style>.a{fill:#fff;}</style></defs><path class="a" d="M327.0913,201.1413c0,1.247-.7382,2.0994-2.5032,2.0994a5.02,5.02,0,0,1-1.951-.3775v-.9844a4.4633,4.4633,0,0,0,1.8889.431c1.1863,0,1.5374-.4831,1.5374-1.1067,0-.7293-.3076-.9049-1.1949-1.0187-1.607-.2019-2.2314-.6329-2.2314-1.8357,0-.9665.5456-1.9063,2.3374-1.9063a4.1821,4.1821,0,0,1,1.7829.3157v.9577a4.3758,4.3758,0,0,0-1.73-.3426c-1.0283,0-1.3794.4222-1.3794.9837,0,.7118.4043.8346,1.2741.9487,1.37.1849,2.1693.4917,2.1693,1.8357" transform="translate(-180.7597 -155.2021)"/><path class="a" d="M335.1391,197.4529v5.6818h-.984v-5.6818h-1.713v-.9052h4.41v.9052Z" transform="translate(-180.7597 -155.2021)"/><path class="a" d="M342.519,196.548h.9837v6.587h-.9837Z" transform="translate(-180.7597 -155.2021)"/><path class="a" d="M352.0653,196.4425a3.7457,3.7457,0,0,1,1.5452.28v.94a3.5537,3.5537,0,0,0-1.4842-.2987c-1.2563,0-1.7651.8524-1.7651,2.4773s.5088,2.4768,1.7651,2.4768a3.5552,3.5552,0,0,0,1.4842-.2986v.939a3.7233,3.7233,0,0,1-1.5452.2815c-1.95,0-2.7142-1.238-2.7142-3.3987s.7639-3.3992,2.7142-3.3992" transform="translate(-180.7597 -155.2021)"/><path class="a" d="M363.0377,200.1753h-2.74v2.0555h3.0213v.9041h-4.005v-6.5871h4.005v.9052h-3.0213v1.8175h2.74Z" transform="translate(-180.7597 -155.2021)"/><path class="a" d="M229.7834,203.1349v-.6587l3.3728-4.9972-3.153.0179v-.9491h4.4792v.659l-3.3724,4.9976,3.5044-.0179v.9484Z" transform="translate(-180.7597 -155.2021)"/><path class="a" d="M241.2137,202.2309h2.8636v.9041H240.23v-6.5871h.9837Z" transform="translate(-180.7597 -155.2021)"/><path class="a" d="M252.1012,197.8037l-.8435,2.9157h1.6866Zm1.0539,3.7246h-2.1079l-.4656,1.6066H249.51l2.09-6.6667h1.0015l2.0905,6.6667H253.62Z" transform="translate(-180.7597 -155.2021)"/><path class="a" d="M261.9649,197.4529v5.6818h-.9841v-5.6818h-1.7126v-.9052h4.4093v.9052Z" transform="translate(-180.7597 -155.2021)"/><path class="a" d="M270.9357,196.1519l.51-.9654h1.1856l-.87.9654ZM273,200.1751h-2.74v2.0559h3.0213v.9037h-4.0054v-6.5871h4.0054v.9052H270.26v1.8179H273Z" transform="translate(-180.7597 -155.2021)"/><path class="a" d="M285.01,196.548h.984v6.587h-.984Z" transform="translate(-180.7597 -155.2021)"/><path class="a" d="M295.7868,203.1349l-2.8633-4.6808.0261,4.6808h-.9751v-6.5871h.8955l2.8629,4.6814-.0257-4.6814h.9748v6.5871Z" transform="translate(-180.7597 -155.2021)"/><path class="a" d="M307.44,196.5478l-2.09,6.6659h-1.0019l-2.09-6.6659h1.071l1.52,5.3576,1.52-5.3576Z" transform="translate(-180.7597 -155.2021)"/><path class="a" d="M316.7367,200.1753h-2.7406v2.0555h3.0225v.9041h-4.0061v-6.5871h4.0061v.9052h-3.0225v1.8175h2.7406Z" transform="translate(-180.7597 -155.2021)"/><path class="a" d="M201.727,207.6325,185.6152,191.52c-.148-.1376-.2957-.2786-.44-.4236a15.0748,15.0748,0,0,1,0-21.32c.0755-.0759.1473-.1484.2261-.22l14.3538-14.3542,3.91,3.9132-14.4881,14.4881.0067.0029-.0163.0168a9.6327,9.6327,0,0,0,0,13.6237l.0029.0026-.0029.0045,12.5694,12.565,10.7624-10.7613-.003-.0078a9.5431,9.5431,0,0,0-.0822-13.4029v-.0029l-4.8982-4.8972-9.6817,9.6828,3.909,3.8956,5.8746-5.873,1.0305,1.0294-.0037.003a4.0691,4.0691,0,0,1-.0194,5.69l.0038.0067-6.8951,6.9028-8.5681-8.5689s-.0822-.0755-.1213-.1145a4.1894,4.1894,0,0,1,0-5.9263l.1015-.1011,14.397-14.3843,8.3045,8.3056c.1581.1476.3124.2953.4668.4459a15.0615,15.0615,0,0,1,.0847,21.2128l.0038.0029L201.727,207.6325" transform="translate(-180.7597 -155.2021)"/><path class="a" d="M229.0035,177.8372c0-7.4744,2.6918-11.14,9.2208-11.14a16.3009,16.3009,0,0,1,6.3283,1.0023v4.4672a14.459,14.459,0,0,0-5.4692-1.174c-4.0953,0-5.4408,1.8327-5.4408,6.8444,0,5.3535,1.46,6.8426,5.4408,6.8426a8.9222,8.9222,0,0,0,1.3173-.0863v-4.3516h-3.0358v-4.0942h7.6172V187.514a14.1426,14.1426,0,0,1-6.9009,1.46c-6.3859,0-9.0777-3.6651-9.0777-11.1369" transform="translate(-180.7597 -155.2021)"/><path class="a" d="M250.52,181.4156c0,2.8636.5731,3.8934,2.1477,3.8934s2.1478-1.03,2.1478-3.8934-.5724-3.8941-2.1478-3.8941-2.1477,1.0309-2.1477,3.8941m-4.5818,0c0-4.4665,1.4318-7.56,6.73-7.56s6.73,3.0931,6.73,7.56-1.4318,7.5585-6.73,7.5585-6.73-3.0924-6.73-7.5585" transform="translate(-180.7597 -155.2021)"/><path class="a" d="M266.2137,188.6867a7.8178,7.8178,0,0,1-1.3172.1153c-2.4627,0-4.41-1.26-4.41-4.0366V167.098H265.04v17.0374c0,.5445.2577.8591,1.174.8591Z" transform="translate(-180.7597 -155.2021)"/><path class="a" d="M275.8212,178.18a3.998,3.998,0,0,0-2.0332-.6014c-2.1187,0-2.5769,1.4032-2.5769,3.8365,0,2.4624.4582,3.8362,2.5769,3.8362a4.0016,4.0016,0,0,0,2.0332-.6006Zm1.8331,10.3923-.7732-1.145a6.624,6.624,0,0,1-4.6391,1.5463c-3.7227,0-5.5558-2.29-5.5558-7.5585s1.8331-7.56,5.5558-7.56a6.76,6.76,0,0,1,3.5792.9168v-7.6749h4.5825v21.4749Z" transform="translate(-180.7597 -155.2021)"/><path class="a" d="M285.897,180.1271h4.0667c.257-1.5747-.0867-2.8347-1.8331-2.8347-1.5467,0-2.2336,1.0309-2.2336,2.8347m0,2.8063c-.1146,1.86.859,2.4047,3.093,2.4047a10.8648,10.8648,0,0,0,4.7819-.9446v3.5777a14.7035,14.7035,0,0,1-5.3832,1.003c-4.7257,0-7.0166-2.4051-7.0166-7.5585s2.263-7.56,6.7012-7.56c6.1274,0,6.5577,4.5822,6.1851,9.0773Z" transform="translate(-180.7597 -155.2021)"/><path class="a" d="M298.2564,174.2569l.5731,1.0313a9.8061,9.8061,0,0,1,4.9831-1.4322c3.8942,0,5.011,2.0622,5.011,4.8109v9.9059h-4.5822v-9.2179c0-1.06-.3719-1.7758-1.6032-1.7758a4.9776,4.9776,0,0,0-2.5483.7445v10.2492h-4.5822V174.2569Z" transform="translate(-180.7597 -155.2021)"/><path class="a" d="M310.159,177.8372c0-7.4744,2.6907-11.14,9.2205-11.14a16.3024,16.3024,0,0,1,6.3283,1.0023v4.4672a14.4546,14.4546,0,0,0-5.4692-1.174c-4.0946,0-5.4405,1.8327-5.4405,6.8444,0,5.3535,1.46,6.8426,5.4405,6.8426a8.9184,8.9184,0,0,0,1.3173-.0863v-4.3516H318.52v-4.0942h7.6179V187.514a14.1459,14.1459,0,0,1-6.9017,1.46c-6.3866,0-9.0773-3.6651-9.0773-11.1369" transform="translate(-180.7597 -155.2021)"/><path class="a" d="M333.11,182.2177c-1.2886.1715-1.8033.8015-1.8033,1.9175a1.5706,1.5706,0,0,0,1.66,1.69,2.9444,2.9444,0,0,0,2.0621-.6869V181.96Zm1.919-3.6654c0-.6579-.4581-1.0015-1.6906-1.0015a14.4211,14.4211,0,0,0-5.1531,1.0878v-3.8373a14.7576,14.7576,0,0,1,5.1531-.9454c5.1556,0,6.1293,2.2054,6.1293,5.4127v9.3041h-2.75l-.63-1.0885a6.266,6.266,0,0,1-4.2095,1.49c-3.6369,0-4.8686-2.4051-4.8686-4.5517,0-3.8651,2.835-4.4378,5.4126-4.6959l2.6059-.2566Z" transform="translate(-180.7597 -155.2021)"/><path class="a" d="M349.9483,188.6867a10.9066,10.9066,0,0,1-2.3482.2871c-4.0094,0-5.5264-1.69-5.5264-5.0675v-5.8406h-2.32V175.03l2.32-.63v-2.9491l4.5818-1.2314v4.0373h3.55v3.8087h-3.55v5.4687c0,1.1165.4291,1.7465,1.89,1.7465a6.2963,6.2963,0,0,0,1.4028-.1715Z" transform="translate(-180.7597 -155.2021)"/><path class="a" d="M355.0335,180.1271H359.1c.2566-1.5747-.0867-2.8347-1.8335-2.8347-1.546,0-2.2333,1.0309-2.2333,2.8347m0,2.8063c-.1145,1.86.8591,2.4047,3.0928,2.4047a10.865,10.865,0,0,0,4.7826-.9446v3.5777a14.7086,14.7086,0,0,1-5.3836,1.003c-4.7258,0-7.0163-2.4051-7.0163-7.5585s2.2627-7.56,6.7-7.56c6.1286,0,6.5577,4.5822,6.1858,9.0773Z" transform="translate(-180.7597 -155.2021)"/></svg>