<svg xmlns="http://www.w3.org/2000/svg" width="76.5321mm" height="14.0123mm" viewBox="0 0 216.9414 39.72"><defs><style>.a,.b{fill:#fff;}.b{fill-rule:evenodd;}</style></defs><path class="a" d="M374.803,166.5711l2.1727.0557v.3343h-.8914v2.4511h-.39v-2.4511h-.8914Zm4.29,2.1727.8913-2.117h.6128l-.0557,2.8412h-.39l.0557-2.34-1.0027,2.34-.2785-.0557-.8914-2.2841-.0557,2.2841h-.39l.0558-2.7855h.557Z" transform="translate(-163.6553 -161.5573)"/><path class="b" d="M176.4264,175.4844s-.1115-9.86-.1672-10.5845c0-.78.1672-3.2311-3.7881-3.2868l-4.9023-.0557a3.4876,3.4876,0,0,0-3.5654,3.2311c-.2785,3.231-.39,30.918-.3342,31.9764.1671,2.8412,3.3425,2.4512,5.9608,2.5069s5.2922.5014,5.7379-2.8411a89.9311,89.9311,0,0,0,.6685-10.306l5.9608-.5014s.1671,8.5234.1114,9.86c0,1.2255-.1114,3.2867,2.4511,3.7881a15.359,15.359,0,0,0,7.075-.1671c1.2256-.39,2.4511-.8356,2.5068-2.9525,0-2.1727-.1671-30.7509-.1671-30.7509a2.4973,2.4973,0,0,0-1.8941-2.73,21.0253,21.0253,0,0,0-7.91-.39,3.69,3.69,0,0,0-2.73,3.2311c0,1.337.1671,9.8046.1671,9.8046Zm194.0314-5.6822c-2.6183-7.3535-11.42-6.5178-12.2-6.4621s-11.42-.2786-12.9243,10.5288c-.8913,6.5179,7.4649,12.033,7.4649,12.033s3.7325,2.5625,4.5681,3.0639c2.1726,1.2256,1.8383,4.011-.1671,2.3955-1.17-.9471-3.6768-2.4512-4.4567-2.9526-1.95-1.2813-7.1306-.5571-7.4092,4.29,0,0-.39,8.579,11.8659,8.579,4.6237,0,12.5343-1.0585,12.7571-9.5261a12.886,12.886,0,0,0-6.9635-11.7544s-3.1754-1.5041-4.8466-2.5626c-1.727-1.0584-1.0027-4.0667,1.6712-2.5626,6.1279,4.401,12.98,2.117,10.64-5.0694" transform="translate(-163.6553 -161.5573)"/><path class="a" d="M245.3373,198.77h-.2785c-1.6713-.0557-7.4092-.557-11.3088-4.7352-2.6182-2.8411-3.8438-6.7963-3.5653-11.7544.6685-13.2028,11.5873-16.8238,15.7654-17.0467h.8913a16.1369,16.1369,0,0,1,11.1974,5.1252,16.6442,16.6442,0,0,1,4.4009,12.8686c-.78,14.9855-14.4284,15.5982-17.1024,15.5425m1.5041-32.9792H245.95a16.7929,16.7929,0,0,0-15.2083,16.49c-.2228,4.7909.8913,8.5791,3.3982,11.3088,3.7324,4.011,9.2475,4.5123,10.8631,4.568h.2785c2.6183.0558,15.7654-.557,16.5453-15.0411a16.4036,16.4036,0,0,0-4.2338-12.423,15.5785,15.5785,0,0,0-10.7517-4.9023" transform="translate(-163.6553 -161.5573)"/><path class="a" d="M245.95,165.5127c-4.4009.2785-14.8183,3.9553-15.4868,16.7681-.7242,14.3727,11.1973,16.044,14.54,16.1554,2.2283.0557,16.3225-.1114,17.1024-15.32C262.774,171.2506,253.0807,165.067,245.95,165.5127Zm-.5014,20.612A5.2949,5.2949,0,1,1,250.9081,181,5.33,5.33,0,0,1,245.4487,186.1247Z" transform="translate(-163.6553 -161.5573)"/><path class="a" d="M245.56,186.4032h-.1115a5.545,5.545,0,0,1,.2786-11.0859h.1114a5.545,5.545,0,0,1-.2785,11.0859m.1114-10.5288a5.0153,5.0153,0,0,0-.2229,10.0275h.1114a5.0153,5.0153,0,0,0,.2229-10.0275Z" transform="translate(-163.6553 -161.5573)"/><path class="a" d="M212.7481,197.7677h-.3343a2.2859,2.2859,0,0,1-.6128-.0557,14.7486,14.7486,0,0,1-11.03-5.8494,17.7019,17.7019,0,0,1-3.3425-11.3644c.2786-6.685,2.2841-11.6987,5.738-14.4841a14.3366,14.3366,0,0,1,9.3032-2.73h.5014a15.24,15.24,0,0,1,10.9745,4.6794c3.7324,4.0667,4.9023,9.86,4.7352,13.9271a15.9469,15.9469,0,0,1-15.9325,15.8768m-.2229-33.9263c-3.7324-.0557-6.7406.8357-8.9133,2.6183-3.2867,2.6183-5.2365,7.632-5.5151,14.0385-.5013,10.64,6.7964,16.1,13.76,16.601a1.8952,1.8952,0,0,1,.5571.0557h.3343c3.7881.0557,14.7626-2.674,15.32-15.32.1671-3.9553-.947-9.5818-4.5681-13.4814a14.5112,14.5112,0,0,0-10.5288-4.5124h-.4457" transform="translate(-163.6553 -161.5573)"/><path class="a" d="M212.9709,163.5629a14.3934,14.3934,0,0,0-9.5818,2.674c-3.5653,2.8411-5.348,8.0777-5.6265,14.2613-.3343,8.0219,4.3452,16.1553,14.0942,16.9352a1.8949,1.8949,0,0,1,.557.0557,15.6655,15.6655,0,0,0,15.9325-15.5982C228.6806,174.983,225.171,163.9528,212.9709,163.5629Zm1.0027,21.3362a5.3658,5.3658,0,0,1-5.1251-5.4594,5.2949,5.2949,0,1,1,5.1251,5.4594Z" transform="translate(-163.6553 -161.5573)"/><path class="a" d="M214.0851,185.1219h-.1115a5.5189,5.5189,0,0,1-5.3479-5.6822,5.5542,5.5542,0,0,1,5.6265-5.348h.1114a5.5169,5.5169,0,0,1-.2785,11.03m.1114-10.5288a5.0423,5.0423,0,0,0-5.0695,4.8466,4.9466,4.9466,0,0,0,4.8466,5.1252h.1115a5.0153,5.0153,0,0,0,.2228-10.0275Z" transform="translate(-163.6553 -161.5573)"/><path class="a" d="M290.1267,167.0725c0-1.2813-.2786-4.1781-3.4539-4.1224-1.8941,0-14.93.1114-18.4951-.2785-.4457-.0557-1.6156.2785-1.95,2.1726-.2786,1.8941.5013,8.8576.5013,8.8576a1.1773,1.1773,0,0,0,1.2813.947l3.7882.0557s.3342,21.949.2785,22.84c0,.947-.0557,2.0054,2.1726,2.4511a17.42,17.42,0,0,0,6.4622,0c1.6712-.3342,2.284-.7242,2.5626-2.34.39-2.4512.2785-22.339.2785-23.3974,2.34-.1115,5.9608.3342,6.295-3.1754.1672-2.1169.2229-2.73.2786-4.011Zm41.5025-3.12a11.8619,11.8619,0,0,1,10.7517,11.9215c-.1671,5.9051-5.5708,9.916-5.5708,9.916,2.9525,3.0083,5.0137,5.1252,6.4064,9.5818,1.6713,5.2923-2.2283,5.2923-5.2365,5.6266-2.9526.39-5.0138-.7242-5.9608-2.5069a29.9215,29.9215,0,0,1-1.56-4.6238,17.4324,17.4324,0,0,0-2.1169-3.8438s-.2229,6.5178-.3343,7.632a3.2359,3.2359,0,0,1-1.3927,2.73c-.8356.39-4.9023.5013-7.0749-.0557s-2.3955-1.727-2.3955-3.0083.0557-27.1855.0557-30.1938c.0557-3.0082,3.2868-3.2311,3.2868-3.2311s3.51-.8356,11.1416.0557Zm-3.9552,11.0859-.0558,5.4594,1.727-.0557s1.8384.1114,1.8384-2.6183a2.5564,2.5564,0,0,0-1.0585-2.4512A8.5274,8.5274,0,0,0,327.674,175.0388ZM313.97,165.4013a2.7792,2.7792,0,0,0-2.6739-2.2284c-1.8941,0-14.2613-.1114-15.2084-.1671-1.0027-.0557-2.5625.1671-3.0082,3.51-1.8941,13.8156-.0557,30.7509-.0557,30.7509a5.0372,5.0372,0,0,0,4.0667,3.2868c3.2311.5571,13.1471,0,13.1471,0a3.1206,3.1206,0,0,0,3.2311-3.0639c.0557-2.34.0557-3.8439.0557-4.6238a2.1263,2.1263,0,0,0-1.8941-1.95c-1.1141,0-7.9105.2785-7.9105.2785l.1671-4.7909a42.0817,42.0817,0,0,0,5.0694-.1114c1.337-.2785,2.1726-.5014,2.4512-1.8941a49.0989,49.0989,0,0,0,.3342-5.4594s-.2785-1.6155-1.6155-1.6712c-1.337,0-5.9608-.3342-5.9608-.3342s-.5013-1.727,0-2.34c.5571-.6128,4.0667-.3342,5.9608-.2785,3.2868.0557,3.8439-1.0585,4.1224-2.674a23.029,23.029,0,0,0-.2785-6.2393Z" transform="translate(-163.6553 -161.5573)"/></svg>