<svg xmlns="http://www.w3.org/2000/svg" width="77.2907mm" height="50.9895mm" viewBox="0 0 219.0918 144.5371"><polygon points="6.331 23.774 0 23.774 0 0 23.775 0 23.775 6.331 6.331 6.331 6.331 23.774"/><polygon points="219.092 144.537 195.318 144.537 195.318 138.206 212.761 138.206 212.761 120.762 219.092 120.762 219.092 144.537"/><polygon points="219.092 23.774 212.761 23.774 212.761 6.331 195.318 6.331 195.318 0 219.092 0 219.092 23.774"/><polygon points="23.775 144.537 0 144.537 0 120.765 6.331 120.765 6.331 138.206 23.775 138.206 23.775 144.537"/><path d="M301.5691,222.598v8.414h-4.0625V208.15c2.708-.11,4.291-.1709,4.748-.1709q5.4215,0,7.9239,1.6631a5.79,5.79,0,0,1,2.5078,5.1953q0,7.8663-9.2754,7.87C302.9519,222.7074,302.3386,222.6654,301.5691,222.598Zm0-10.9326v7.3252c.6855.07,1.2285.1074,1.623.1074a6.9912,6.9912,0,0,0,4.0606-.9287,3.4873,3.4873,0,0,0,1.2812-3.0235q0-3.5625-5.7343-3.56A9.5545,9.5545,0,0,0,301.5691,211.6654Z" transform="translate(-162.1824 -109.3499)"/><path d="M327.7927,231.012l-6.11-9.4462c-.6133-.0127-1.47-.0469-2.5723-.1114v9.5576h-4.2178V208.1341c.2305,0,1.1084-.041,2.6367-.1133q2.3-.1187,3.7051-.1211,8.7129,0,8.71,6.7471a6.1945,6.1945,0,0,1-1.1992,3.7022,6.5363,6.5363,0,0,1-3.0332,2.3584l6.7636,10.3046ZM319.11,211.6654v6.3554c.75.0586,1.3232.0928,1.7158.0928a7.4306,7.4306,0,0,0,3.7266-.7187,3.0135,3.0135,0,0,0,1.1787-2.793,2.4476,2.4476,0,0,0-1.2666-2.3623,8.9073,8.9073,0,0,0-3.98-.67A10.45,10.45,0,0,0,319.11,211.6654Z" transform="translate(-162.1824 -109.3499)"/><path d="M332.7849,219.3783a12.8848,12.8848,0,0,1,2.6836-8.2676,8.656,8.656,0,0,1,7.1572-3.3828q4.9321,0,7.5449,3.0625,2.6016,3.0585,2.6045,8.5879,0,5.5313-2.7255,8.7773a9.5363,9.5363,0,0,1-7.7354,3.2451,8.3612,8.3612,0,0,1-7.0674-3.2187Q332.7829,224.971,332.7849,219.3783Zm4.22,0a11.871,11.871,0,0,0,1.3575,6.2177,4.3613,4.3613,0,0,0,3.9521,2.1983,5.4141,5.4141,0,0,0,4.6436-2.1563,10.3758,10.3758,0,0,0,1.6-6.26q0-8.0406-5.9326-8.042a4.7062,4.7062,0,0,0-4.1679,2.1777A10.4312,10.4312,0,0,0,337.0046,219.3783Z" transform="translate(-162.1824 -109.3499)"/><path d="M190.6814,196.8626V152.87H198.49v43.9926Z" transform="translate(-162.1824 -109.3499)"/><path d="M317.115,156.44l-3.2735,6.2754a15.69,15.69,0,0,0-4.2627-2.4483,13.1678,13.1678,0,0,0-4.9541-1.2119,12.7448,12.7448,0,0,0-10.2392,4.3989q-3.7559,4.3961-3.7568,11.7842,0,7.0277,3.6816,11.231a12.6155,12.6155,0,0,0,10.0127,4.2075,10.3173,10.3173,0,0,0,6.8769-2.2818v-8.6508h-6.0947V173.078h13.9033v19.6987a20.0891,20.0891,0,0,1-7.1953,3.5566,31.3205,31.3205,0,0,1-8.75,1.2793q-9.4629,0-15-6.2031-5.5445-6.2-5.54-16.3809,0-10.1835,6.0361-16.55,6.0353-6.3639,16.2442-6.3632A18.343,18.343,0,0,1,317.115,156.44Z" transform="translate(-162.1824 -109.3499)"/><path d="M332.5037,159.805v10.2988h14.5322v6.6372H332.5037v13.1812h19.9394v6.94H324.696V152.87h28.0791v6.935Z" transform="translate(-162.1824 -109.3499)"/><path d="M266.4851,152.2655H263.06l-15.9219,40.4887L239.0037,152.87h-4.1143l-9.3086,29.6362L216.0622,152.87h-4.1455l-8.8593,44.02h7.54l4.7432-23.7256,8.8584,24.293h2.7949l8.8584-24.293,4.5576,23.6982H254.2l3.0655-8.9218h15.0752l3.2129,8.9218h8.6171Zm-6.998,29.7,5.2841-16.2432,5.2862,16.2432Z" transform="translate(-162.1824 -109.3499)"/></svg>