<svg xmlns="http://www.w3.org/2000/svg" width="77.2908mm" height="50.9894mm" viewBox="0 0 219.092 144.537"><defs><style>.a{fill:#fff;}</style></defs><polygon class="a" points="6.331 23.774 0 23.774 0 0 23.775 0 23.775 6.331 6.331 6.331 6.331 23.774"/><polygon class="a" points="219.092 144.537 195.318 144.537 195.318 138.206 212.761 138.206 212.761 120.762 219.092 120.762 219.092 144.537"/><polygon class="a" points="219.092 23.774 212.761 23.774 212.761 6.331 195.318 6.331 195.318 0 219.092 0 219.092 23.774"/><polygon class="a" points="23.775 144.537 0 144.537 0 120.765 6.331 120.765 6.331 138.206 23.775 138.206 23.775 144.537"/><path class="a" d="M139.3867,113.2481v8.414h-4.0625V98.8c2.708-.11,4.291-.1709,4.748-.1709q5.4214,0,7.9239,1.6631a5.79,5.79,0,0,1,2.5078,5.1953q0,7.8663-9.2754,7.87C140.77,113.3575,140.1562,113.3155,139.3867,113.2481Zm0-10.9326v7.3252c.6855.07,1.2285.1074,1.623.1074a6.99,6.99,0,0,0,4.0606-.9287,3.4874,3.4874,0,0,0,1.2812-3.0235q0-3.5625-5.7343-3.56A9.5518,9.5518,0,0,0,139.3867,102.3155Z" transform="translate(0 0)"/><path class="a" d="M165.61,121.6621l-6.11-9.4462c-.6133-.0127-1.47-.0469-2.5723-.1114v9.5576H152.71V98.7842c.2305,0,1.1084-.041,2.6367-.1133q2.3-.1186,3.7051-.1211,8.7129,0,8.71,6.7471a6.1938,6.1938,0,0,1-1.1992,3.7022,6.5357,6.5357,0,0,1-3.0332,2.3584l6.7636,10.3046Zm-8.6827-19.3466v6.3554c.75.0586,1.3232.0929,1.7158.0929a7.4306,7.4306,0,0,0,3.7266-.7188,3.0138,3.0138,0,0,0,1.1787-2.793,2.4479,2.4479,0,0,0-1.2666-2.3623,8.9082,8.9082,0,0,0-3.98-.67A10.4619,10.4619,0,0,0,156.9276,102.3155Z" transform="translate(0 0)"/><path class="a" d="M170.6025,110.0284a12.8847,12.8847,0,0,1,2.6836-8.2676,8.6562,8.6562,0,0,1,7.1572-3.3828q4.9322,0,7.5449,3.0625,2.6016,3.0585,2.6045,8.5879,0,5.5314-2.7255,8.7773a9.536,9.536,0,0,1-7.7354,3.2451,8.3608,8.3608,0,0,1-7.0674-3.2187Q170.6,115.6212,170.6025,110.0284Zm4.22,0a11.8714,11.8714,0,0,0,1.3575,6.2177,4.3612,4.3612,0,0,0,3.9521,2.1983,5.4138,5.4138,0,0,0,4.6436-2.1563,10.376,10.376,0,0,0,1.6-6.26q0-8.0406-5.9326-8.042a4.7064,4.7064,0,0,0-4.1679,2.1777,10.4312,10.4312,0,0,0-1.453,5.8646Z" transform="translate(0 0)"/><path class="a" d="M28.499,87.5127V43.52h7.8086V87.5127Z" transform="translate(0 0)"/><path class="a" d="M154.9326,47.09l-3.2735,6.2754a15.6922,15.6922,0,0,0-4.2627-2.4483,13.17,13.17,0,0,0-4.9541-1.2119,12.7452,12.7452,0,0,0-10.2392,4.3989q-3.7559,4.3962-3.7568,11.7842,0,7.0278,3.6816,11.231a12.6153,12.6153,0,0,0,10.0127,4.2075,10.3171,10.3171,0,0,0,6.8769-2.2818V70.3943h-6.0947V63.7281h13.9033V83.4268a20.0884,20.0884,0,0,1-7.1953,3.5566,31.3182,31.3182,0,0,1-8.75,1.2793q-9.4629,0-15-6.2031-5.5446-6.2-5.54-16.3809,0-10.1835,6.0361-16.55,6.0352-6.3639,16.2442-6.3632A18.3434,18.3434,0,0,1,154.9326,47.09Z" transform="translate(0 0)"/><path class="a" d="M170.3213,50.4551V60.7539h14.5322v6.6372H170.3213V80.5723h19.9394v6.94H162.5136V43.52h28.0791v6.935Z" transform="translate(0 0)"/><path class="a" d="M104.3027,42.9156h-3.4251L84.9557,83.4043,76.8213,43.52H72.707L63.3984,73.1563,53.88,43.52H49.7343L40.875,87.54h7.54l4.7432-23.7256,8.8584,24.293h2.7949L73.67,63.8145l4.5576,23.6982h13.79l3.0655-8.9218h15.0752l3.2129,8.9218h8.6171Zm-6.998,29.7,5.2841-16.2432,5.2862,16.2432Z" transform="translate(0 0)"/></svg>