<svg xmlns="http://www.w3.org/2000/svg" width="82.7744mm" height="35.143mm" viewBox="0 0 234.6362 99.6179"><defs><style>.a{fill:#fff;}</style></defs><path class="a" d="M277.4487,210.8928l-.0694-12.8258-6.2228,10.44h-3.0422l-6.1881-10.0949v12.48H255.6v-24.2h5.6348L269.739,200.66l8.2972-13.9666h5.6352l.069,24.2Z" transform="translate(-154.8079 -131.6084)"/><path class="a" d="M308.0092,205.6032v5.29H288.58v-24.2H307.56v5.29H295.356v4.079h10.7518v5.1166H295.356v4.4251Z" transform="translate(-154.8079 -131.6084)"/><path class="a" d="M311.812,186.6929h11.4431a16.03,16.03,0,0,1,7.0522,1.4864,11.2058,11.2058,0,0,1,4.7711,4.2178,12.9233,12.9233,0,0,1,0,12.7915,11.195,11.195,0,0,1-4.7711,4.2173,16.0164,16.0164,0,0,1-7.0522,1.4869H311.812Zm11.1664,18.7377a7.0185,7.0185,0,0,0,4.9957-1.7631,7.2483,7.2483,0,0,0,0-9.7493,7.0185,7.0185,0,0,0-4.9957-1.7631H318.657v13.2755Z" transform="translate(-154.8079 -131.6084)"/><path class="a" d="M262.4137,169.9919l-2.5119,2.6185v4.73H255.6V158.6355h4.302v8.7377l8.2836-8.7377h4.81l-7.749,8.3368,8.2031,10.3678h-5.05Z" transform="translate(-154.8079 -131.6084)"/><path class="a" d="M278.5127,176.4048a9.3172,9.3172,0,0,1-3.6605-3.46,9.9474,9.9474,0,0,1,0-9.9134,9.3219,9.3219,0,0,1,3.6605-3.46,11.5757,11.5757,0,0,1,10.4882,0,9.54,9.54,0,0,1,0,16.8341,11.5773,11.5773,0,0,1-10.4882,0Zm8.2437-3.1931a5.4659,5.4659,0,0,0,2.0973-2.1244,6.6888,6.6888,0,0,0,0-6.1991,5.4636,5.4636,0,0,0-2.0973-2.1243,6.2608,6.2608,0,0,0-5.9858,0,5.4619,5.4619,0,0,0-2.0974,2.1243,6.69,6.69,0,0,0,0,6.1991,5.4641,5.4641,0,0,0,2.0974,2.1244,6.2615,6.2615,0,0,0,5.9858,0Z" transform="translate(-154.8079 -131.6084)"/><path class="a" d="M312.2215,173.8129V177.34H295.8681v-2.8058l10.261-12.3717H296.0819v-3.5271h15.7387v2.8057l-10.2341,12.3717Z" transform="translate(-154.8079 -131.6084)"/><path class="a" d="M327.3186,173.332h-8.6844l-1.6566,4.0081h-4.4358l8.3369-18.7046h4.2755l8.3637,18.7046h-4.5426Zm-1.3627-3.2867L322.99,162.884l-2.9661,7.1613Zm-1.7635-16.7808h4.4889l-4.8365,3.8479h-3.26Z" transform="translate(-154.8079 -131.6084)"/><path class="a" d="M338.9822,176.4182a9.2716,9.2716,0,0,1-3.634-3.447,10.0479,10.0479,0,0,1,0-9.9669,9.2716,9.2716,0,0,1,3.634-3.447,11.5948,11.5948,0,0,1,9.5927-.3874,8.8066,8.8066,0,0,1,3.3,2.4583l-2.7787,2.5653a5.9761,5.9761,0,0,0-4.7028-2.1913,6.2436,6.2436,0,0,0-3.1.7617,5.4117,5.4117,0,0,0-2.1242,2.1243,6.6888,6.6888,0,0,0,0,6.1991,5.4139,5.4139,0,0,0,2.1242,2.1244,6.2446,6.2446,0,0,0,3.1.7616,5.9465,5.9465,0,0,0,4.7028-2.2178l2.7787,2.565a8.66,8.66,0,0,1-3.3133,2.4852,11.0011,11.0011,0,0,1-4.4089.8549A10.7412,10.7412,0,0,1,338.9822,176.4182Z" transform="translate(-154.8079 -131.6084)"/><path class="a" d="M361.6008,169.9919l-2.5116,2.6185v4.73h-4.302V158.6355h4.302v8.7377l8.2836-8.7377h4.8093l-7.749,8.3368,8.2035,10.3678h-5.05Z" transform="translate(-154.8079 -131.6084)"/><path class="a" d="M382.176,170.7133V177.34h-4.3288v-6.68l-7.2413-12.0243h4.596l4.9967,8.31,4.9968-8.31h4.2487Zm-.9887-17.4488h4.489l-4.8362,3.8479h-3.26Z" transform="translate(-154.8079 -131.6084)"/><path class="a" d="M189.8158,219.6674c-.0941-.0706-.1571-.0772,0,0Z" transform="translate(-154.8079 -131.6084)"/><path class="a" d="M234.5868,171.4731l-.0017-.0884a1.7622,1.7622,0,0,1-.1928-.1822Z" transform="translate(-154.8079 -131.6084)"/><path class="a" d="M234.7221,160.2514l-.0053-.0267C234.6937,160.2643,234.6648,160.3006,234.7221,160.2514Z" transform="translate(-154.8079 -131.6084)"/><path class="a" d="M235.2369,203.2452c-.0345.0146-.0354.0349-.0263.0583A.0962.0962,0,0,1,235.2369,203.2452Z" transform="translate(-154.8079 -131.6084)"/><path class="a" d="M166.5182,206.6873l.0583.026c-.0367-.0389-.0766-.0746-.1123-.1182Z" transform="translate(-154.8079 -131.6084)"/><path class="a" d="M166.8369,206.72c.25.2094-.1307.05-.26-.007a2.5467,2.5467,0,0,0,.8932.59C167.5267,207.2,166.93,206.8759,166.8369,206.72Z" transform="translate(-154.8079 -131.6084)"/><path class="a" d="M160.42,164.4129l.0477.1453A.6986.6986,0,0,0,160.42,164.4129Z" transform="translate(-154.8079 -131.6084)"/><path class="a" d="M241.0953,204.3913l.028.4153A1.8387,1.8387,0,0,0,241.0953,204.3913Z" transform="translate(-154.8079 -131.6084)"/><path class="a" d="M160.3026,172.0486l.1872.0836A.2249.2249,0,0,0,160.3026,172.0486Z" transform="translate(-154.8079 -131.6084)"/><path class="a" d="M234.3923,171.2025l-.073-.1054A.4876.4876,0,0,0,234.3923,171.2025Z" transform="translate(-154.8079 -131.6084)"/><path class="a" d="M223.3143,153.5251a.2437.2437,0,0,0,.0092-.1591l-.0323-.02Z" transform="translate(-154.8079 -131.6084)"/><path class="a" d="M165.8994,154.1784a.19.19,0,0,0,.0677.0454l.1677-.2507A1.0374,1.0374,0,0,0,165.8994,154.1784Z" transform="translate(-154.8079 -131.6084)"/><path class="a" d="M207.7475,143.6c-.0248.0107-.0727.0061-.0871.025a16.3707,16.3707,0,0,0,1.88,1.1655l.1713-.1666Z" transform="translate(-154.8079 -131.6084)"/><path class="a" d="M189.5556,136.8322l1.9338-.5823c-5.3585,3.3394-8.14,4.41-12.6308,7.4335l.2089-.2363c-.7345.3-.5992,1.4218-8.7558,4.6659l-.0231-.04a2.0821,2.0821,0,0,1-.792.431l1.4419-.5053a22.98,22.98,0,0,1-2.314,1.7615c-.2462.083-.3692.0443-.4277-.0073l-2.5083,1.5375-.93.192c-.6976.59-.0275.931-2.2858,1.8293,1.0038-.0744-.9023.824-.5337.8683-.1322.0138-.4114.0818-.6409.1277a32.1678,32.1678,0,0,0-3.9492,2.74s5.307-2,6.8443-2.3476c-1.8032.9039-.4331.312-.0157.2408l.0615-.1613c1.0983-.5108,1.2364-.2716,1.7969-.5067a.1826.1826,0,0,0-.0687-.0488l-.0482.07c-.0737-.0138-.0615-.06-.0195-.1159-.0423-.0438-.0172-.1119.2755-.2618l-.04.0565a16.5855,16.5855,0,0,1,1.5294-.8566l.1219.196c.5544-.8275,5.54-2.4247,6.5871-3.0124,1.19-.351,2.3042-1.4134,3.6808-2.04,2.1155-1.1356,1.208-.3088,2.3505-.7386,1.3757-.6272-.3982-.0807.1168-.396l1.7217-.6235c-.8934.5478-.3315.3841-.1209.3655,1.3692-.7453,3.7088-1.6076,3.894-2.2459,1.931-.86,2.0277-.7032,2.82-1.1342-.3036.0783-.8607.312-.9117.234.8309-.2451.3235-.2447.0024-.1116,1.0126-.8155,6.1931-2.6065,6.1742-3.1793l.0461.08c.07-.4752-.5274-.5521.1453-1.1806l.6024-.1536.7-.5908c.5846-.1963.3772.039.4.0789.189-.1411.3956-.2812.6158-.4205l.34-.2082.24-.1393c.31-.1739.6425-.3355.961-.4849.3629.2486.707.4921,1.0292.6992a7.0111,7.0111,0,0,0-.9434-1.73l.9125.766.4512.3839.5576.429c.7266.5449,1.3587.9534,1.5709.8852l.6082.75c2.2762,2.0742,1.962.8025,2.9025,1.5746L206.36,142.25l-1.2988-.7574c1.2069.9167,1.6664,1.3237,2.5824,2.1352l.0164-.0022c-.0638-.0549-.101-.097-.0994-.1221l.1865.0971a3.9446,3.9446,0,0,1,1.906.75,27.0163,27.0163,0,0,1,4.3151,2.6917l.7109-.0331,1.4474,1.1-.1529.2648c-1.521-.8994-4.4589-2.4612-6.4334-3.5831l-.1046.1009c1.1665.6729,2.5609,1.3216,3.3162,1.7929.3454.27,1.1476,1.1.3469.876l.87.1569a75.8134,75.8134,0,0,1,7.8321,4.8651l-.2759-.3366c.8509.3872,1.6983.7751,1.7982,1.12a45.6363,45.6363,0,0,1,6.235,4.3276l.5269-.1118c.5052.3147,1.0054,1.232,1.5082.94l1.18.4976a9.3992,9.3992,0,0,1,1.9229,1.1432l0,0,.0039.0034a.1385.1385,0,0,1,.0163.0585l.0142-.0264c.2408.3185.2235-.2186.5124.147l-.0133.041c-.1281.1514-.0137.1289.1224.1536.1361.0169.294.0875.2531.2817l-.0646.0479a.1262.1262,0,0,0-.0646.0736l-.1292.2577-.2583.5155c-.2966,1.86.2217,2.1786.2233,4.8739-.184,1.2943-.625,1.92-1.0164,1.0624a4.695,4.695,0,0,1,.5361,2.1c-.1948.2406-.2362.074-.4113-.2715-.2283,1.3887.1761.8567.1645,1.9038.367.3042.9512.6548.9749.995l.1146-.4055a11.3364,11.3364,0,0,1,.1033,3.6087l-.1845-.0486.0935,1.372-.2361.0863.0732,1.9587.0637-.2686a17.3371,17.3371,0,0,1-.0108,2.8335l-.1311-.0315c-.409,2.4364.1269,4.4449.17,7.298l-.2677-.3746c-.2661.9719.412.2664.279,1.4247l-.3289.0579c.4322,1.02-.0917,1.3182-.2552,2.0206l.4308-.3283-.0908,1.3233c-.1428,1.4573-.5442.8943-.77.6812l.3395.9922-.38.1938c.4423.725-.0712.725.1661,1.996-.1438.1045-.2263-.2168-.2875.2151l.5362,2.0953-.2376-1.2637.5557.1537c.4218,1.3162-.0606,1.7831.0945,2.7232l-.1651-.6476a6.35,6.35,0,0,1-.2246,2.4819c.1032-.2685.2567-.679.3294-.0578a.9484.9484,0,0,1,0,.1423c-.0034.0269-.01.0243-.0189.0348a.183.183,0,0,1-.0753.0273c-.06.012-.1321.0208-.1628.0631a.5326.5326,0,0,1,.3473.2148.6086.6086,0,0,1,.1066.3933.7589.7589,0,0,1-.2333.063.3747.3747,0,0,1-.0929-.1047c-.0079.0737.0221.1666-.1607.1694a2.9282,2.9282,0,0,0-.2377-.338,1.0277,1.0277,0,0,1,.0706.4116.17.17,0,0,0-.0369.0022.1393.1393,0,0,0-.0568.0231c-.0682.0358-.1357.0763-.2016.1188-.1317.0851-.2566.1781-.3667.2566-.22.1569-.3811.2558-.4182.1169l.2388-.233-3.7809,2.0682-.2165-.2551c-.1423.6052-2.1181,1.0242-1.7132,1.4433-.8579.1394-2.6623,1.7886-2.567.9972-2.4758,1.3726-3.4934,2.6685-6.6284,4.12-1.3319.1439-4.1525,1.9749-6.0935,3.0295-3.6256,2.3545-5.94,3.9258-9.6743,6.2822a11.8421,11.8421,0,0,0-3.2878,1.5948q-.4151.2711-.8373.5469l-.419.2794-.2094.14c-.0285.02-.0839.0547-.09.0616l-.0186.02a1.865,1.865,0,0,1-.3541.3019.726.726,0,0,1-.3229-.3118c-.0127.1082-.3927.0043-.647-.0269-1.4047-1.3627-4.2071-2.3058-6.2806-4.0408a10.0347,10.0347,0,0,1-1.0847-.4144.4023.4023,0,0,1,.1829.4078c-.5915-.496-2.0077-1.12-1.7225-1.3948l.187.0628c.2871-.2737-2.0875-1-2.6577-1.71l.1992.5858-1.2131-.78.3731.1251c-5.8712-2.3447-7.6728-4.8785-13.1746-7.1005.8971.0044-1.12-.3768-.9433-.8362-.9773-1.27-2.4433-1.2582-3.5771-1.7246-.012.0206-.0387.0375-.1176.0352l-1.81-1.1122c1.4059.1018-1.5793-.3232-.309-.1936-.8318-.577-1.7275-1.1552-2.6695-1.7359l-1.22-.743c-.15-.0944-.303-.1855-.46-.2761l-.0549-4.8263c-.0184-2.1216-.02-4.2414.0477-6.279l-.1582.2811a34.5458,34.5458,0,0,1,.0909-4.8814c.2521-1.2344-.4013-2.6983-.4264-3.1769-.2723-1.3521.269-2.582.2412-2.0016-.0755-1.4458-.637-2.8053-.396-4.8113.5211-.6856-.5114-5.4732.0758-5.5335l-.05-.0219c.4135-2.5694-.29-4.9932.0844-7.76a.6475.6475,0,0,1,.0826.1465l-1.7817-5.6316-1.9608,1.6039-1.5923,4.8814.3453,13.2287-.6227,10.5582.1285,17.657,10.4154,5.9186,1.81.5343c3.9858,3.1943,10.038,5.6613,14.4729,8.8593l.288-.2735a3.395,3.395,0,0,1,1.4258,1.1463l14.8022,8.3308,7.4262-4.3894q2.9367-1.7363,5.8291-3.4124c3.853-2.2284,7.6326-4.35,11.2967-6.2869,1.1974-.4007,4.3833-2.4111,5.357-2.6659,1.6887-1.2439,3.49-2.4169,5.3235-3.5346.9169-.5588,1.8419-1.1038,2.7652-1.637l3.8-2.17-.2176.174,1.3-.7867L240.99,204.42c.0312-.1439.0765-.1529.1058-.0284q-.0633-.7887-.0967-1.65l-.0279-.5348-.0161-.5019c-.014-.6818,0-1.4113.03-2.1563.0584-1.49.1761-3.0423.2447-4.4l.0415.1585c.0274-6.2651-.0672-12.3527-.1587-18.3959-.04-3.0216-.08-6.0321-.1194-9.0481q-.0143-2.262-.0286-4.53.0039-3.1386.0077-6.2942l-3.589-2.0984L235.3,153.6936q-2.0846-1.2567-4.1766-2.56c-6.0159-4.1907-13.8049-7.6973-20.8048-12.3364a35.5339,35.5339,0,0,0-3.72-2.3562c-.9694-.57-2.06-1.1992-3.1919-1.8446-1.7341-.9861-3.5262-2.0053-5.2554-2.9885l-2.4526,1.4418-1.1794.6952-.5734.3462-2.0538,1.252C190.6769,136.0915,189.8133,136.64,189.5556,136.8322Z" transform="translate(-154.8079 -131.6084)"/><path class="a" d="M168.1968,149.7529l.0556-.0342C168.17,149.5813,168.1156,149.6825,168.1968,149.7529Z" transform="translate(-154.8079 -131.6084)"/><path class="a" d="M199.2351,138.147l-.0549-.0365a1.6915,1.6915,0,0,0,.2053.38C199.3357,138.3762,199.28,138.2584,199.2351,138.147Z" transform="translate(-154.8079 -131.6084)"/><path class="a" d="M181.3578,147.37c.8982-.4606.9193-.5176.7643-.5023A4.0922,4.0922,0,0,0,181.3578,147.37Z" transform="translate(-154.8079 -131.6084)"/><path class="a" d="M161.2177,154.1349c-.4652.254-.2425.2358.08.1728l.7787-.483C161.8,153.94,161.5011,154.0156,161.2177,154.1349Z" transform="translate(-154.8079 -131.6084)"/><path class="a" d="M164.1774,154.9406l-.078.1952C164.3534,154.9524,164.3188,154.9176,164.1774,154.9406Z" transform="translate(-154.8079 -131.6084)"/><path class="a" d="M227.4209,135.6025c.0173-.0906.0333-.183.046-.2719-.1006.08-.143.0744-.1723.0628-.02.056-.0406.1194-.0606.1862A.2782.2782,0,0,0,227.4209,135.6025Zm-47.2594,37.7509c-.1029-.0935-.2182-.1889-.351-.2887-.0053.0508-.0068.1016-.0086.1524.0573.0127.1266.03.2207.0568Zm20.4839-14.2629-.149-.1425a6.3534,6.3534,0,0,1,.9265.3054l.0829-.0445c-.1328-.0485-.1616-.0674.0416-.0223l-.0416.0223c.2726.1.9888.3252,1.111.3982.0592-.03.6213.1019.4174-.0225-.2383-.1427-.8273-.1853-1.077-.3817.3018-.0369.5808.2695.8891.2329l-.0607-.0487.1874.1492c.1519-.0177.8423.2367.77.0733l.4124.2369c-.1368-.1585,1.2716.2428.5175-.1215l.9561.2335c-.446-.4555-1.6824-.3232-2.4812-.7339.0114.1716-.3973-.006-.6557.0258l.1021-.0133a5.0849,5.0849,0,0,0-1.2491-.414l.1-.0114a4.6605,4.6605,0,0,0-1.284-.4076,1.1442,1.1442,0,0,0,.6787.2537c.9582.3387-.5864.061.6128.3753l-.6477-.1548c-.0344-.104-1.0707-.4393-1.0079-.5458-.5049-.0639-.476-.2169-.96-.2846.4429.2.0412.069-.1879.0155a2.4383,2.4383,0,0,0-.1993.3872c.1462.0631.3024.1321.4772.2124C198.7812,158.5441,199.706,158.7408,200.6454,159.0905Zm6.2928-2.4263-.0007.0011.0094.0025Zm21.32-17.2659a.0633.0633,0,0,1,.0333.0283l.019-.0139.0727-.1017.0024-.0072.0077-.007.1011-.1417C228.4131,139.2374,228.3224,139.3393,228.2577,139.3983Zm-.5786-2.1616.0776-.1274.0174-.0045c.235-.374.3366-.1929.5071-.4991a.125.125,0,0,1-.0591-.0142c-.01-.0084-.0262-.0079-.0331-.02a.1042.1042,0,0,0,.0331.02.1242.1242,0,0,0,.0653.0034c.013-.0239.0263-.05.04-.0806.0309-.0222.0614-.0415.092-.06a.4288.4288,0,0,0,.0207-.0992.6454.6454,0,0,1-.0323-.1084c-.0067-.0011-.0148.0016-.02-.0022-.0069-.0067-.0175-.0036-.0226-.0146a.0537.0537,0,0,0,.0226.0146.0524.0524,0,0,0,.02.0009c-.008-.0363-.0147-.0751-.0211-.1142-.1358.1381-.2894.3312-.41.4534.0776-.1173.1225-.2147.1062-.2757-.0264.0244-.0486.0439-.073.0659l-.0208.0494c-.0015-.0108-.0006-.019-.0016-.0293-.3464.31-.5035.3981-.8824.7644a.1238.1238,0,0,0,.1307-.047.0949.0949,0,0,1,.0025.0716c.0624.0214.0589.1.0517.1834.0573-.1064.112-.18.16.0029-.0193.0314-.0154.086-.0348.1163.0506-.0589.0787-.0763.0932-.0676a1.9348,1.9348,0,0,1,.17-.1422c.0183-.0357.0361-.0694.053-.0992ZM227.8532,140c-.0064.0279-.0143.0561-.0223.0842l.1657-.2321A1.5283,1.5283,0,0,0,227.8532,140Zm-47.4271,33.61c-.152-.0409-.2969-.0774-.4166-.0975-.0671.0611.5348.39.9479.6341C180.7607,173.9535,180.5979,173.78,180.4261,173.61Zm-.5213,4.617.8814.5351-.3758-.1635c.52.274.1718.2127.763.4915.2906.0665.4627.1256.5284.0716l.1851.1141-.0678-.1135c.1614.2214.8877.4726.77.524.501.2346.9546.439,1.3914.6308l-2.5742-1.7695a2.2541,2.2541,0,0,0-1.7582-.345c.0373.0307.0367.04-.039.0092q-.1038.0243-.205.0582c.2055.102.4046.1941.5847.2623C180.8809,178.9725,179.8073,178.2744,179.9048,178.2267Zm.3394-3.9759c.22.0774.4181.1435.5855.1969-.1022-.0929-.1919-.1811-.2659-.2619a6.1041,6.1041,0,0,0-.68-.2718,2.2511,2.2511,0,0,0,.0808.2357C180.0586,174.1839,180.1551,174.2194,180.2442,174.2508Zm42.9863-37.293-.0328-.1137C223.145,136.955,223.1754,136.9723,223.2305,136.9578Zm2.1994,4.237c.0105-.02.02-.04.0292-.0614l-.02-.03A.663.663,0,0,0,225.43,141.1948Zm-44.4961,33.237a1.4516,1.4516,0,0,0,.1759.1062q.1262.042.1922.0584c.0518-.01.0369-.0745-.0686-.1863a3.2981,3.2981,0,0,1-.3248-.0922C180.9669,174.3815,180.9855,174.4253,180.9338,174.4318Zm-1.1318-1.0583c.002.0577.0052.1151.0115.1723.0291-.0057.05-.0163.0511-.0385C179.9693,173.51,179.8946,173.4451,179.802,173.3735Zm45.8316-35.8119a1.7443,1.7443,0,0,1,.0608-.1942c-.0566.0428-.1185.0958-.1751.142A.0991.0991,0,0,0,225.6336,137.5616Zm-47.594,48.85c.0638-.0832.0752-.2558.2133-.2164a2.4409,2.4409,0,0,1-.2654-.663,2.2666,2.2666,0,0,0-.4618.0516.9487.9487,0,0,1,.0824.2451c-.352-.322-.29-.045-.0689.2388C177.8773,186.4822,177.9845,186.49,178.04,186.4111Zm51.2574-49.8817a.6853.6853,0,0,0-.0839.1668c.0107.0922.0323.1944.0359.2881a.3084.3084,0,0,0,.0581-.0615l-.1159.271h0a.601.601,0,0,1,.0758-.1458,1.68,1.68,0,0,0,.1028-.3838l-.0435.038.0462-.0877C229.3723,136.5459,229.3521,136.5061,229.297,136.5294Zm.8185-.4414-.0393.0339c.001.02.0016.04.0039.0629.02-.0064.0383-.0106.0567-.0147.0212-.02.0446-.043.0711-.07C230.1774,136.0979,230.1467,136.0939,230.1155,136.088Zm-.2741.8.073-.0581.1031-.1092c-.0123-.0393.0476-.1312.0959-.2063-.0219-.015-.0436-.0312-.0654-.047l-.0342.0242a.2758.2758,0,0,0,.0293-.0279c-.0213-.0156-.0427-.0314-.0639-.0478-.0925.07-.2015.16-.25.1864.0871-.11.1458-.1776.1947-.23-.019-.0154-.0377-.0322-.0565-.0484l-.0564.0584c.02-.0172.0394-.0342.0558-.0511a1.52,1.52,0,0,0-.1922.2538l.0637-.0284c-.0476.0343-.065.0406-.0637.0284l-.099.0449-.1081.1143.2543-.1547c-.3286.4113-.0751.2571-.0175.3278l-.272.3013a1.2656,1.2656,0,0,0,.0163.1341,1.3148,1.3148,0,0,0,.1718-.2074c.1574-.0951-.08.3664.21.0848.0845-.0967.183-.2415.2647-.353l.0379-.2208-.2186.1733C229.8811,136.8643,229.8533,136.8894,229.8414,136.8884Zm-7.5857-2.1829-.0815-.1947c-.1862.1961-.3677.6706-.5313.466-.0058-.1074.1086.007.1371-.273-.1113.1747-.172.0344-.25-.0922l-.2886.4363c.0758.0889.14.1936-.0185.4192A9.4442,9.4442,0,0,0,222.2557,134.7055Zm-.757.3988.1733-.0585-.1969.1061Zm6.9684,3.0575.2153-.0247c-.0775.1178-.373.121-.5629.6236.18-.1444.1625.1832.4268-.1885l-.0772.117c.0428.1506.4142-.4977.3872-.1992.1332-.1868.2008-.3329.13-.325-.0955.0575-.2812.31-.394.3091.17-.3158.0664.1009.36-.43.1459-.2641-.35.0714.0944-.4445l.0432.15a2.21,2.21,0,0,1,.1614-.2042l-.21-.0456C228.8054,137.6825,228.698,137.9531,228.4671,138.1618Zm-.2742.9722c-.087.08-.1738.1642-.2607.2485-.0177.2076-.0551.2565-.1.2725l-.0259.0807c.0781.0422.0746.1453.0486.2585.1474-.1638.2493-.2894.1314-.2377a1.38,1.38,0,0,0,.1276-.1046A3.9444,3.9444,0,0,1,228.1929,139.134Zm-2.7-3.7576c.0066-.0474.0123-.0947.0173-.1412a.4548.4548,0,0,1-.0416-.1152c-.06.0556-.128.1284-.1922.1948a2.6146,2.6146,0,0,1-.0425.3375A1.0838,1.0838,0,0,0,225.4933,135.3764ZM215.7,157.0746l0,0-.0214-.0076Zm11.2219-15.968c-.0271.0018-.0538.0237-.08.0794Zm-.6953-3.5211a.0832.0832,0,0,0,.0337,0,.1489.1489,0,0,1-.0337-.0348.2554.2554,0,0,0,0,.035Zm1.6952-.5434-.2051.208c.0236-.0161.0472-.0338.0706-.0475a.1445.1445,0,0,1,.0441.0488C227.8918,137.1762,227.9526,137.068,227.922,137.0421Zm-2.7841-1.5968c-.0471.036-.082.0479-.0927.0106-.2183.1927.0249.1454-.1466.2883C224.9823,135.7632,225.0583,135.5907,225.1379,135.4453Zm-1.7748-.94c-.0435.0754-.0954.17-.18.3137a.4475.4475,0,0,0,.1421-.0814A2.3406,2.3406,0,0,1,223.3631,134.5052Zm4.8213,2.977a2.4126,2.4126,0,0,1-.0867.4065l.0085-.0037a.8558.8558,0,0,1,.123-.1771,4.1675,4.1675,0,0,1,.1621-.5458,1.7716,1.7716,0,0,0-.1215.8271l.0348-.0577a2.4364,2.4364,0,0,0,.1431-.3685.2971.2971,0,0,1-.0269-.0446l.0582-.1649a.533.533,0,0,1-.0313.2095l.0055.0094a2.7448,2.7448,0,0,1,.103-.2555c.01-.0541.02-.1071.0259-.1541-.0052-.0113-.01-.0184-.0154-.03a.6637.6637,0,0,0-.1385.1078c-.0336.071-.0734.1424-.0734.1424a.3634.3634,0,0,1,.0734-.1424c.0559-.1174.0978-.24-.0624-.0769A1.0262,1.0262,0,0,1,228.1844,137.4822Zm.0046,1.9573.3275-.3685a1.1469,1.1469,0,0,0-.1844.009C228.3232,139.4423,228.2409,139.2513,228.189,139.44Zm1.0021-2.2454-.0017.0041.0018-.0042Zm-.4444-.2353-.0037.0128c.0117-.0189.0214-.0365.0339-.056C228.7667,136.9318,228.7567,136.9448,228.7467,136.9588Zm-.5217-1.0549c.0283-.0313.0557-.06.0824-.0866a.1068.1068,0,0,0-.0455-.044l-.0642.1528C228.2065,135.9193,228.215,135.913,228.225,135.9039Zm-.5536-.0247a.5843.5843,0,0,0-.0992-.1625c-.0414.1053-.0587.1953-.0029.2277A.3645.3645,0,0,1,227.6714,135.8792Zm.4569.0757a.7172.7172,0,0,0,.082-.1837l-.017.0041c-.0272.0334-.0516.0468-.0737.0445l-.0279.0233a.1591.1591,0,0,0,.004.1052Zm-.2752,1.3388a.3072.3072,0,0,1,.0172.0619c.0325-.0668.065-.13.0975-.1885A1.4676,1.4676,0,0,1,227.8531,137.2937Zm-.51-1.9492c.1456-.1369.1135-.0583.1275-.04l.0069-.0545c-.0288-.0628-.059-.071-.09-.04l-.0585.1248.0754-.0531Zm.9276,2.8095.0125-.0138c.0383-.1135.0671-.2237.0993-.3389l-.0778.13c-.0111.0233-.023.0459-.0347.0687C228.27,138.046,228.2707,138.096,228.2706,138.154Zm.3507-.9693.04-.1273a.7265.7265,0,0,1-.0741.0611l-.0054.0443a.3326.3326,0,0,0,.0255.0475Zm-.4592,2.4245.02-.0179.058-.0811.0043-.03-.0747.0545C228.1671,139.5564,228.1645,139.5824,228.1621,139.6092Zm.0427-.5132-.0318.0043a.0336.0336,0,0,0,.0285.0048Zm-.0342.4356.0284-.038.0488-.0356c.0032-.023.0061-.0438.0086-.0586a.1691.1691,0,0,1-.069.0459A.7527.7527,0,0,0,228.1706,139.5316Zm-1.6554-2.1473a1.2983,1.2983,0,0,0-.1626.1413l.0032.0068C226.4094,137.488,226.4638,137.4267,226.5152,137.3843Zm-43.9115,50.8264-.3057-.21a2.2688,2.2688,0,0,1,.136.3649C182.4405,188.3047,182.545,188.2692,182.6037,188.2107Zm-.5426-13.6253c-.0912-.0662-.1835-.1322-.27-.1985l.0967.122ZM202.53,194.9669l.0873.0476c.0187-.0642.0353-.1287.0482-.1938l-.591-.2122c.0753.1008.5009.2079.0934.201a1.3939,1.3939,0,0,1,.1856.0693c.0362.01.0737.02.12.0346C202.4915,194.9317,202.5108,194.949,202.53,194.9669Zm13.9039-39.04-.6305-.08a1.6826,1.6826,0,0,0,.6556.1652l.0518-.0724-.0085-.0045Zm-32.84,18.2153a.9256.9256,0,0,0-.2989-.2907c-.1772-.06-.1735.004-.0845.1151C183.3406,174.027,183.4715,174.0875,183.5931,174.1422Zm-.7356-.5018c-.0676.0072-.0678.0666-.0348.1458.1056.05.21.0987.3109.1455A2.2313,2.2313,0,0,0,182.8575,173.64Zm32.6747-17.4636.0007.046c.0588-.0087.1-.0224.1132-.0441C215.6057,156.1787,215.57,156.1774,215.5322,156.1768Zm-19.9357,40.9651-10.9123-7.501c-.167.0579.07.5419-.149.4229-.2682-.2175.0124-.1035-.11-.264l-.4319-.1758c.2052-.0016.4281,0,.6758.0067l-1.2923-.8883a.4577.4577,0,0,0-.0319.0454c-.0691.11-.0807.2493.1726.4788l.3716.0872c-.2538.2784-.0049.7312.3055,1.1291l-.2343-.1143-.04-.0924-.1869-.0807c.0079.014.0147.0287.0226.0426a.4778.4778,0,0,1-.1148-.0824l-.2212-.0955c-.1478-.2824.06-.0449.2212.0955l.0922.04a10.3459,10.3459,0,0,1-.5894-1.2148c-.0184.07-.0971.0565-.2867-.1171l.2825.1077.0042.0094a1.2489,1.2489,0,0,0-.1065-.4713l-.3964-.2725a.79.79,0,0,0,.028.1112c.0632.2055.1921.4568-.02.3762-.1418-.1648-.2852-.3309-.422-.5l.1034.0707a1.1539,1.1539,0,0,0-.2088-.4155l-2.8384-1.9512a2.2525,2.2525,0,0,0-1.0413-.3855.1592.1592,0,0,1-.1292.0146c.5492.3171.2882.8.6457,1.281.2816.06,1.1333,1.2964.9854.6678.1483.1791.3954.4144.3864.5681-.4258-.3826-.4332-.221-.408-.02.0306.1975.0992.4288-.2248.1969.8864.8849.4518.9469,1.1152,1.5933.62.5376-.0716.2419.15.5344-.27-.3032-.4648-.2711-.4525-.3179-.0487-.2031.1556-.1458-.03-.5236-.1763-.13-.7378-.7357-.38-.2147l.0948.0527c-.0584.04-.1119.08-.1656.123l-.2323-.2852c-.2663-.2117-.311-.08-.2332.0282.1809.1325.8326.8519.6313.44.44.7166-.6689-.3042-.54.098l-.4274-.4449c-.1063.0366-.21.1051-.1243.2422-.569-.5972-.3316-.5373-.1191-.503.2127.03.3929.0444-.2471-.72-.1053-.0271-.2849-.1621-.221-.0261-.0653-.1472-.1221-.298-.1783-.4471-.0755.0272-.2219.0009-.2649.07.019.07.0237.1292.0352.1916a2.3316,2.3316,0,0,0,.2534.3662l.1939.0749c-.0139.06.06.1963-.1215.0641a.9327.9327,0,0,1-.3258-.5052c-.0511-.0991-.0564-.1576-.0352-.1916a.82.82,0,0,0-.134-.2658,3.3048,3.3048,0,0,1-.9593-1.2171c-.0709-.1441-.1316-.2922-.19-.4415a2.2642,2.2642,0,0,0-.4512.4848l-.1858.27a2.2626,2.2626,0,0,0,.5829,3.1463l11.6108,7.9812-.09-.1336.151.1755.894.6144.0979.0153c-.3124-.3476-.4558-.4208-.5632-.7387a4.7681,4.7681,0,0,0,.881.8279c-.0274.0447.099.1862.21.3256l3.1219,2.1459a2.2626,2.2626,0,0,0,3.1463-.5828l.1859-.27A2.2626,2.2626,0,0,0,195.5965,197.1419Zm-15.5092-9.7283c-.0043.0877-.0111.1757-.01.2629-.1285-.0391-.3146-.3271-.4245-.5317.1108.0132.3376.234.4341.2688.0026-.0541.0006-.1078.0059-.1623C180.1537,187.3988,180.1386,187.4321,180.0873,187.4136Zm2.6378,2.3146-.0647.1643-.2-.1237Zm-1.8589,1.0327-.02.1313-.416-.4463Zm-1.3525-.4376-.349-.4857a2.2158,2.2158,0,0,0,.3564.2173l-.257-.3166.2653.2011C179.961,190.3758,179.6872,190.38,179.5137,190.3233Zm.5727-.1766c.4052.5362.0719.153-.1173.1731A1.9277,1.9277,0,0,1,180.0864,190.1467Zm.8525,1.9175c-.1539-.2315.1828-.0083.0315-.2056a1.9929,1.9929,0,0,0-.1392-.1562c-.0852-.0419-.1676-.08-.0795.0229-1.045-.9071-.11-.4223-.45-.9109.4316.3908.1756.5006.699.9994.1678.1105-.0059-.1535.25.06-.0412.01-.04.0621-.0478.1-.008.0394-.0264.0628-.1143.0049l.5121.4254C181.7854,192.6726,181.011,191.9758,180.9389,192.0642Zm.183-1.0851c-.4133-.4408.1208-.1047.2242-.1042a6.4144,6.4144,0,0,1,.6874,1.0117C181.4273,191.5,181.6641,191.2069,181.1219,190.9791Zm.7287,1.57.6151.7294-.4054-.24Zm1.6352,2.0957a1.7887,1.7887,0,0,0-.7365-.5509l.2114.0223c-.3429-.2968-.2228-.4738-.63-.741l.004.0325c-.2471-.17-.0887-.1012-.1777-.2032.3464.34.5572.274.8313.6714C183.4792,194.2741,183.6033,194.56,183.4858,194.6451Zm5.6177-.4268c-.083.1436.1984.5994.7556,1.1088-.26-.1606.0465.1937-.3975-.1344.3028.2188.2463.37.6073.497-.5583-.2126.2947.4174.1946.5271-.1563-.0093-.6937-.5217-.4669-.2l-.2821-.2991a1.42,1.42,0,0,0-.5435-.373.3146.3146,0,0,1-.0214.0313c-.02-.03-.0067-.0367.0214-.0313.1465-.2.0647-.5633.1411-.5772l.0448.0624c.0944.0535.3279.22.3327.151a1.5878,1.5878,0,0,0-.5595-.4655C189.1654,194.4827,188.6166,193.9937,189.1035,194.2183Zm.9757,2.186-.1743.0268C189.9751,196.3727,189.6878,196.18,190.0792,196.4043Zm-.67-.4341-.0412.0329-.0311.0266-.3094-.1873.0444.0146Zm-1.2009-.06-.046.1125-.216-.1623Zm.0535.3375c-.3291-.0677.2374.42.1464.4791-.1326-.1731-.2179-.1345-.2928-.1647-.3507-.3346.4547.1585-.0284-.2946l-.2325-.0981.1543.065a1.4605,1.4605,0,0,1-.4838-.4317C187.9772,196.188,187.7312,195.8008,188.2621,196.2481Zm-4.1925-2.03a.7765.7765,0,0,1,.3934.2544c.002.0586.0023.059-.073.0279l.4083.4586Zm2.092-3.3893c.2471.1395.4732.6176.3591.6329C186.2152,191.2591,185.8678,190.7882,186.1616,190.8291Zm.6063,4.1352c-.3015-.2309-.2835-.2728-.1838-.2706C186.7136,194.8481,186.8549,194.9822,186.7679,194.9643Zm1.48,2.3385v-.0265l.2883.2587c-.3541-.2281-.4016-.0552-.8539-.535a.0853.0853,0,0,0-.0025.0228l-.004-.0292.0065.0064c.0073-.0448.0354-.0828-.0906-.2-.0652.0594-.5892-.4916-.739-.55.1435-.0531.3706.2241.6615.36a.2729.2729,0,0,0,.041-.3388,1.2985,1.2985,0,0,0-.2466-.2559.8531.8531,0,0,1,.2466.2559,1.5889,1.5889,0,0,0,.6167.536c.0712.0275-.07-.1018-.1394-.1789.0783-.0188.2942.1405.5087.296-.2988-.1165-.2272.0661-.7328-.307C188.6666,197.2994,187.4459,196.6971,188.2475,197.3028Zm.7714.3718c-.0693-.0495-.2133-.1517-.2107-.1251.066-.0527-.4278-.5087.0026-.3C189.2293,197.6,188.9442,197.5186,189.0189,197.6746Zm1.35-.2094c-.3459-.4053-.3034-.1231-.7106-.4136.024-.2356-.6373-.8013-.5693-1.0234-.0392.1762.4321.2986.6953.5133-.1872-.0475.0843.2324.3336.494S190.603,197.538,190.3684,197.4652Zm2.0887,3.0946.4891.5319C192.6612,200.9977,192.3549,200.5942,192.4571,200.56Zm1.3724-2.1813c-.0105-.0476-.02-.094-.0265-.1406l.1192.0826C193.8761,198.3254,194.1378,198.5347,193.83,198.3785Zm1.1983,1.5655-.4638-.341.3539.1278c-.1271-.2591-.2336-.2-.5632-.5573.5284.2639.3652.4008.832.6676C195.3718,200.061,194.82,199.7253,195.0278,199.944ZM223.4421,136.92l-.1628.1982C223.3617,137.0244,223.4117,136.9625,223.4421,136.92Zm3.396,4.2767a.5518.5518,0,0,0-.0224.0573l.0114-.0476c-.0286.026-.0591.0545-.0923.0865l.094-.0935c.01-.045.0176-.0912.0233-.1372a2.5641,2.5641,0,0,0-.2615.2158c.06-.0638.1156-.1035.208-.2107.1964-.2823-.2757.1794-.1723.0051l.1125-.0816c.12-.1265.0721-.1319.0484-.1349a.26.26,0,0,0-.0448.0283c.0021.0172.0044.0341.0058.0526l-.0172-.0441a1.8119,1.8119,0,0,0-.4209.448l.0484-.1348c-.0277.0291-.0556.0627-.0813.0947-.0207.0286-.0445.06-.0753.0981.0173-.0234.0446-.06.0753-.0981.1861-.2572.0138-.18.3718-.5764-.0093-.0152-.0186-.03-.0283-.0429-.1037.1659-.2061.333-.31.4983-.01.0162-.02.0267-.03.0406.0168-.01.008.0063-.0621.0873-.0377.0272-.0611.043-.0709.0382-.25.1269-.4253-.3821-.63-.2458a.4408.4408,0,0,0,.02.1484l-.0693-.1026a.4019.4019,0,0,0-.0376.0491l-.0009.0329a1.0524,1.0524,0,0,1,.0047.1246c-.0021-.0294-.0049-.0752-.0047-.1246-.0274-.2828-.1735-.1993-.1611-.5336a.8855.8855,0,0,0-.1241-.1652c-.0811.4743-.2925.3586-.2836.1716q.0178-.1493.0334-.2964c-.1333-.0013-.2792.0974-.4278.3554l.2909-.57c-.299.2381-.4351.173-.6983.5447a1.207,1.207,0,0,0,.13-.27c-.0413-.3669-.3688.2246-.4412-.0031l.134-.1028c.0643-.1626-.0708-.1725-.1387-.1779-.1014.0223-.4022.3626-.2958.6218l-.1391-.1779a.4553.4553,0,0,0-.0264.1221.7082.7082,0,0,1-.0042.1272,1.0984,1.0984,0,0,1,.0042-.1272c-.0191-.3394-.3306-.2357-.1526-.7756.2014-.2651.2658-.54.5014-.6072-.0573.8329.4731.09.7118.3.162-.2952.16-.4074.36-.45-.19.5458-.4649.3036-.4526.9193.1055.2043.3765.2191.5986-.3554-.4857.0568.3753-1.1618-.1326-1.0028a.09.09,0,0,1-.0544.0176c.022-.01.0362-.0105.0544-.0176.1222-.0751.2644-.3855.4368-.4277.2033.2286-.664.8162-.13.88a4.9687,4.9687,0,0,1,.133-.68c.2382-.5849.4552-.0687.6106-.2607.0068-.0184.0155-.035.0225-.0531a.9732.9732,0,0,1,.0156-.4142c-.0168-.0028-.0347-.008-.0522-.0123l-.17.1417a.5.5,0,0,0,.0784-.1676c-.2048-.0652-.44-.1632-.65.0015l.0675.06c-.2656-.0727-.2572.5431-.4563.5287l.22-.7931a.49.49,0,0,1-.4271.1663c.2009-.7244.3859-.4109.6156-.2871.0457-.0431.0813-.08.1138-.1167a1.4926,1.4926,0,0,1-.1138.1167.3175.3175,0,0,0,.1252.04l-.0058-.0035.324-.2993c-.0034-.1394-.269.2308-.0435-.1517l.13.0646a1.4194,1.4194,0,0,1-.3645.3893c.0918-.01.1911-.0811.3009-.2731.0007.0476-.0009.0968,0,.143.0663-.06.14-.044.2586-.13a.28.28,0,0,1,.1416-.134c.0253-.0291.0516-.0611.08-.1-.0474-.292-.3366-.2619-.6688.0055a.5915.5915,0,0,1-.1129.2648c.0779-.1212-.0119-.1387-.0474-.1691l-.1973.2234a.8581.8581,0,0,1,.3449-.4888c-.0271-.089-.4291.3239-.2447-.07.31-.2164.262.13.4441-.0136-.3847.0867.3035-.89-.1871-.7789a1.8049,1.8049,0,0,1,.1161-.1449l-.01-.0018c.01-.0431.0212-.0993.0329-.1619a.3262.3262,0,0,0-.2254.4279.1066.1066,0,0,0-.0594-.0681,2.3976,2.3976,0,0,1-.2346.3145c.201-.0827.14.0958-.0213.44l-.1647.1785a.6651.6651,0,0,1-.121.132l.121-.132c.0685-.1046.0132-.1528.0654-.2633l-.2991.3883c.321-.4369.4658-.8414.2737-.7294a3.6723,3.6723,0,0,1-.4988.8607c-.445.4015.2147-.5527-.2631-.1324.11-.1356.2886-.168.2771-.34-.06-.0717-.2956.279-.4235.3534.3181-.3275.499-.6108.8705-1.0042.1633.0466.0492.0423.2908-.0274l.0184-.0623c-.1365-.0086-.3162.0162-.4016-.1093a.5589.5589,0,0,1-.2483.1834l.1421-.1535c.1173-.2459-.1136-.0045-.1853,0-.13.0758-.8581,1.3163-1.0813,1.1948l-.3323.4046c-.3446-.0179-.3029-.26-.5275-.3849a.3259.3259,0,0,1,.1447-.1533c-.1986-.0323-.3193-.3227-.6368-.11a.49.49,0,0,1,.1641-.4789c-.0632.0393-.1285.0747-.14.0358.1594-.2316.1054-.0228.2428-.2072-.007-.0223.0044-.0551-.0126-.0428.1841-.2029.5058-.7558.6468-.6322-.3252.5741-.1557-.0191-.5465.5909.05.0426.21-.1879.2662-.2557.0579.0622-.0511.2078-.1523.3385.1585-.1625.06.1518.2961-.0974.1647.05-.3272.4338-.2362.49l.4808-.5565.0616.2156c.3574-.0587.7141-1.0461,1.191-1.2116a2.26,2.26,0,0,0-.5168,1.08c-.0812-.0257-.4822.2729-.44.0351-.2168.5518-.2052-.0641-.5287.5128.2419-.2083.3651-.1706.3441.0214l-.0649.0363c.0368.1228.5467-.4536.4886-.1342.07.0207-.0617.1815-.1714.3134.1116-.0555.2375-.1418.1432-.01l1.1916-1.455c-.01-.1289-.0039-.2863-.0015-.4343-.092.18-.18.3889-.2514.571l-.1017-.2543a2.22,2.22,0,0,0,.2492-.782.0837.0837,0,0,0-.0287,0c-.0542.0846-.0734.2128-.1516.1356l.01-.0463c-.0241.022-.0489.0456-.0774.0768l-.2506.24c-.02.0437-.0439.0756-.0762.0738l.0762-.0738c.0218-.0447.0388-.0993.0555-.14a.3134.3134,0,0,1-.1441-.2427.5053.5053,0,0,1-.1764.0963c-.0335.1705.0246.4351.0807.2854-.0465.3125-.1684.4474-.2341.4326.0727-.75-.3419-.1125-.2865-.6614q-1.1805,1.0905-2.3733,2.1649c-.5141.4568-.1766-.483-.569-.1287.2361-.2345.4291-.6253.2555-.5687a.7216.7216,0,0,0-.153.2614.9929.9929,0,0,0,.0173-.3071l-5.5536,8.3934.2258.5162c.0543.9288-.1845-.6188-.2509-.3823q.0057.0961.01.191c.1918.56.3076,1.5557.4782,1.5929-.1772.31.176,1.4072.1466,2.1084l.0289-.0976a2.765,2.765,0,0,1,.0008,1.9014l-.1178-.7393c-.0591.1025.001.6048-.0587.4486a6.3086,6.3086,0,0,1,.0048-.6729c-.1234.0791-.1324-.7876-.2986-1.3026-.1476-.9043.146-.74-.03-1.5459-.0007.0825-.03.0087-.0287.1816-.06-.4149,0-1.2081-.1775-1.3266.0609.04.0651-.2345.0521-.548-.008-.0234-.016-.0475-.0243-.0693a.5473.5473,0,0,1,.0148-.1217l-.0056-.0876-.3626.5481.002.0368-.0048-.0325-.3087.4664.1077.4907-.1182.1232.1486.475c.0786.5172-.1031.2127-.0759.5674l-.0715-.6075-.0305.0086c.0838-.028-.01-.52-.04-.9371l-6.1674,9.3211c.1551.0411.31.0812.4724.1217.4391.1069.8983.2106,1.3288.3006.4152.0687.7976.1179,1.1072.1512.019.1311.4417.1971.8761.2535.4253.04.8687.08.936.21.9727-.137.616.2159,2.02.1427l-.8709-.1848c.23.0469.6862.1172,1.08.1526-.0013-.0223-.0036-.0453-.0071-.0686a7.0947,7.0947,0,0,1-.7792-.1391,9.7162,9.7162,0,0,0-1.2486-.1982l.4589.0372a5.2774,5.2774,0,0,0-1.405-.2566c-.2849-.0236-.5843-.0661-.8522-.1148a4.5459,4.5459,0,0,1-.6689-.155c1.6664.2451,3.1843.4082,4.6672.4853l0-.0008a1.9227,1.9227,0,0,0,.049-.8668c-.119-.0932-.1133.0231-.0972.1809.0106.1516.0254.3361-.0589.405l-.048-.3682c-.1355-.1187-.0226.4566-.1242.1887-.0035.0146-.0054.0345-.0092.0477l-.0285-.1548c.0154.0466.0272.08.0377.1071a5.704,5.704,0,0,0,.0664-.97c.007-.1959.0063-.3992.0291-.5548a.7757.7757,0,0,1,.1018-.4014c-.1913-.5015-.2051-1.8794-.3956-1.9413-.0026.04-.0147.0531-.046.0075a.05.05,0,0,1,.046-.0075c.01-.15-.12-.7053.0426-.2782-.0588-.24-.1179-.8271-.1765-.72a16.3924,16.3924,0,0,1-.149-2.6952l-.002-.0089c-.02.1109-.0591.1688-.07.2581l.0141.18a.4827.4827,0,0,1-.0141-.18l-.045-.58c-.02-.0527-.0394-.0269-.0588,0a1.0293,1.0293,0,0,0,.03-.3334l.1433.6555.0032-.0124-.0012.0213.2083.9529a3.083,3.083,0,0,0,.0878-.464c-.0592-.2392-.06-.1563-.0882-.1431.0291-.5262.0882.1431.1468-.2211a20.3718,20.3718,0,0,1,.5,3.9829c.03-.2671.0892.15.147.1281.059.4146.0811.9684.129,1.59a12.6207,12.6207,0,0,0,.149,1.5319c.0877-.365-.0294.3494.1095.2071-.0128.1115-.0414.32-.072.4857.0614.0022.1238.0071.1851.0091l.3153.0079.2449-.0031a.4939.4939,0,0,0,.1093-.005.2785.2785,0,0,0,.0367-.0044c.0171-.0034.0317-.0051.0287-.0072l.0007.0035.7156-1.0022c-.0019-.0559-.0005-.1084-.0039-.1657l.0823.0494-.001.0078,9.6614-13.5321a.2685.2685,0,0,0-.1-.08C226.9126,141.1317,226.8777,141.1613,226.8381,141.1969Zm-1.8866-2.9154,0,.0569-.1967.1544-.0005-.0576Zm-10.2422,16.7446.014.1128c-.0178.1153-.0425.22-.0621.3286C214.6777,155.3241,214.7013,155.1866,214.7093,155.0261Zm.0548-8.4342A7.6074,7.6074,0,0,1,215,148.2432,3.8325,3.8325,0,0,1,214.7641,146.5919Zm1,1.2363-.1765-1.7594c.1174.3077.0007.7783.1767.81Zm1.0594,3.8936a.9593.9593,0,0,0-.0589-.4116l0,.7738a6.4278,6.4278,0,0,1-.1177-1.5152C216.6468,150.9146,217.0875,151.8107,216.8232,151.7218Zm.2056,1.5737.03-.0947-.03-.0792.1475.214a.8027.8027,0,0,1-.0609.0966c.0578.7146.1246-.1036.2071.5982C217.341,155.0042,217.0585,153.77,217.0288,153.2955Zm.3233-.0181-.2059-1.23c.059.2413.147.3.0888-.1112l.1764,1.24.0582.0644Zm5.0967-13.2446a10.3873,10.3873,0,0,1,.6693-2.0682c.4225-.512.7013.0748.9573-.0692a1.2787,1.2787,0,0,1,.14-.1643.3768.3768,0,0,1-.14.1643,5.6443,5.6443,0,0,1-.553.8212c-.0969.4656-.0655.2165-.2651.5382-.0023-.3346.0994-.188.1982-.4872-.1015-.2021-.3692.17-.4351.4989.2722.2433-.167.2379-.0961.6323C222.7587,140.4188,222.4152,140.2249,222.4488,140.0328Zm.6893.7194c-.0678.0517-.1016.0764-.1705.0143C223.036,140.7732,223.2022,140.4777,223.1381,140.7522Zm2.2012.51c-.04.0641-.06.0951-.1067.0486C225.276,141.3033,225.3637,140.9816,225.3393,141.2622Zm-27.2008,63.7644a.8541.8541,0,0,1-.3675-.35.8591.8591,0,0,0-.263-.2551c-.1406.2471-.2729.4923-.392.7335.21.1482.3986.2976.5765.4486A4.3113,4.3113,0,0,1,198.1385,205.0266Zm-12.1776-36.0953c.059.02.109.034.1034.0117-.0379-.0386-.0764-.0765-.1149-.1145C185.952,168.8629,185.9567,168.897,185.9609,168.9313Zm29.5763-12.5277a.6594.6594,0,0,0,.0264.2c-.0582-.0795-.128.0249-.1707.1026-.02.0428-.039.0694-.0526.0676-.012.0017-.0143-.0088-.0149-.0941-.0711.0727-.0617.0856-.0479.1109a.0627.0627,0,0,1-.0268.1l.1093.015c-.0716.0118-.0664.0348-.0569.0394l.0167.0045a.0366.0366,0,0,0-.0073-.0014l.0045.0013.0432.0123-.0327-.01-.0059-.0017.0034.0009.0025.0008.0363.01.0919.0278,0,0c.0978.03.1219.0415.1706.0571l.0212.0081.02.0068.0327.0125.4558-.6385-.3632-.0162C215.7081,156.4155,215.6226,156.4083,215.5372,156.4036ZM215,156.1488c-.0011.0231-.0033.0448-.0054.0669.0373.0031.0733.0057.109.0081-.006-.02-.0141-.0453-.0209-.0678C215.0547,156.1537,215.0267,156.1514,215,156.1488Zm.3038.7962-.0007,0-.0109-.0029Zm.0016.0012-.0011-.0008-.0623-.0173-.0173-.0047h0l-.0359-.0094-.065-.0222q-.1952-.0658-.3957-.12l-.0255-.0071-.1934-.0491-.0264-.0061-.05-.0115-.0028.0008c-.0039-.0017-.0031.0109-.0078-.0018l-.0007-.0015-.0082-.0019c-.0028.0051-.0074.0073-.0162-.0014.0019,0-.0155-.0053.002-.0019l.0142.0033a.0235.0235,0,0,0,.0019-.0131l.0063.015.0113.0025,0,0,.05.0116.0225.0051.0039.001.0093.0022.1653.0417.0188.0052.0134.0034.0121.0037c.1581.0431.2956.0866.3957.12l.0043.0013.0922.0272-.0011-.0007a.0689.0689,0,0,1-.0039-.0236l-.1179-.0186c.0351-.0086.09.0071.1318-.0509-.04-.1777-.04-.2647-.0841-.4468-.0633-.0044-.1268-.0069-.19-.0116a.093.093,0,0,1-.07.0552.2887.2887,0,0,0,.0341-.0576c-.1655-.0126-.3276-.0276-.491-.0418a1.3582,1.3582,0,0,1-.0264.2148c.0015-.0848-.0377-.1459.0105-.2162-.1127-.01-.2275-.0186-.3386-.0288-.5588-.0512-1.1075-.1352-1.5959-.199l-.69-.0967-.6045-.1183a2.0527,2.0527,0,0,0-1.2236-.3235c1.2264.3221.5433.2544-.0975.182-.6353-.0977-1.2086-.1749-.0436.1937-.5785-.1633-1.6486-.3337-1.3951-.43a2.2785,2.2785,0,0,1-.3234-.0273l-.336-.0571-.0713.1076.0319.013.4109.1045c.0025-.0212.1413.0069.61.1264l-.4956-.0972-.1145-.0292c-.0008.0058.0067.0145.0226.0269.0751.0583.2706.1586.1492.1577-.9268-.2768-.4945-.1762-.4172-.23-.0741-.0222-.1407-.0416-.2055-.06l-.0835.1263c.0442.0139.089.0279.1364.042l-.1378-.04-.5834.8817c.0636.0119.1291.0246.1921.037.2631.1.5066.1787.7583.268-.2789-.0743-.5294-.1176-.8317-.2172-.0912.0171.2652.1848.01.1371,0,0-.1243-.0438-.2231-.0817l-.3207.4846c.1223.0557.2226.105.2893.1442-.1017-.0348-.2077-.0728-.3121-.11l-.2123.3209.4963.2136c.5609.18,1.2469.3514,1.028.3949a9.1525,9.1525,0,0,1-1.2972-.2756c.2224.0356.5379.0695.9042.1541l-.635-.2734a3.7393,3.7393,0,0,1-.51-.1937l-.4569.6906.0486.01c.1723.0645.0891.058-.0759.0309l-.0861.13a3.6342,3.6342,0,0,0-.517,1.1332l-3.1888-2.1918a2.4262,2.4262,0,0,0-3.2359.4439c.24.0737.4914.1507.7562.233l-.37-.2292c.1886.0593.5037.1439.8684.228.3582.0852.7607.1725,1.1382.2349-.5128-.1.541.271.4882.2805l.1648-.023c1.302.5213-.1533.1925.8492.5252a14.6824,14.6824,0,0,0,1.9884.54c.7881.1741,1.6881.36,2.5043.57-.12-.0431.4873.03.4074-.0573,1.3485.3452,1.7483.6227,2.8087.8472-.214.1393-.7667-.1635-1.0718-.2348a3.646,3.646,0,0,0,1.01.36,2.0835,2.0835,0,0,1-1.4922-.1179,10.0485,10.0485,0,0,1-2.084-.3941,13.4026,13.4026,0,0,0-2.0185-.4489c-.019.0407-.0357.0814-.05.1214-.3582-.2995-1.1529-.1971-1.8956-.569l.076.1033c-.8772-.2419-1.5163-.41-2.5885-.7632a1.0486,1.0486,0,0,0,.4169.2287c.41.2378-1.2607-.2873-1.2714-.3347l-.0218-.0416c-.2524-.0528-.7151-.2052-1.04-.3047-.0117.0333-.0245.0664-.0348.1.7558.3646,1.4408.5053,2.111.8347l-.0641-.0441.9057.3676c.6882.3069-.4135-.1433-.082.06.2058.0546.4087.1446.6138.194-.102-.0055-.3525-.0683-.6322-.0921-.552-.2249-1.1094-.4636-1.6757-.705-.3992-.1973-.8009-.3716-1.1969-.5352a2.4242,2.4242,0,0,0-.083.6121c.1507.0714.3194.15.5362.2465-.17-.0722-.352-.1464-.5351-.2217a2.4227,2.4227,0,0,0,1.0507,1.9849l1.7485,1.2019c-.0232-.1211.5365.1326.7988.2206l-.2814-.1588c.2067.0626.412.1247.6143.1938.2635.1071-.2391.0285.0395.1758-.1523-.0017.8039.3389,1.3294.6252a8.0831,8.0831,0,0,1,1.4476.3306l.391.2326c.2312.1076.682.3223.5364.2221a3.7767,3.7767,0,0,0-.3845-.18l.0013-.0165c.7683.3269.8288.51,1.4132.7713l-.07-.0447.5.261,0,.0326a2.17,2.17,0,0,0,.3505.1673l-.1341-.03c.4863.2884.4069.14.8849.4158l-.2608-.0632.1348.071-.528-.231c-.4228-.2377.2088.11-.0134-.0384-.3526-.201-.8126-.3644-1.3912-.64l.1348.0437a16.2631,16.2631,0,0,0-2.0182-.8658,4.9024,4.9024,0,0,0,.472.2081c.252.1377-.1659.03-.1958.0846-.3672-.108-.7693-.389-1.4148-.5912l.4032.2526a6.0706,6.0706,0,0,1-1.0874-.4976.8331.8331,0,0,1-.2209.0448l2.7953,1.9214a2.2687,2.2687,0,0,1,.629.1687l-.1864-.0785a.9449.9449,0,0,0,.534-.0451c.1373-.0127.3321.0451.88.3686.0781-.0225.5888.2083.207-.0215.56.1857,1.3735.6114,1.7868.767l-.0672-.0344a.9453.9453,0,0,1,.2321.1038c.4521.2638-.0835.0084-.0614.0628l.1951.0982c-.3777-.182-.0632.0256-.4681-.1717a3.7191,3.7191,0,0,0-.837-.3935c-.0255.0052.1309.0939.2527.1668.0535.0187.1009.0324.1572.0537l-.0767-.0045c-.0224-.0144-.0507-.0314-.0805-.0492a1.8,1.8,0,0,0-1.1072-.1572,2.0482,2.0482,0,0,0,.5055.1605l-.2221-.1326a4.4667,4.4667,0,0,1,.7409.3761c.0513.0051.2194.0416-.0246-.07a3.1677,3.1677,0,0,1,.8361.3758c.398.158.86.3267.639.1347l.9593.5039c-.0671-.1027.6365.2451.8831.3366.7986.4457-.3084-.1229.0822.1387-.3827-.2-.3575-.1452-.3368-.0936.0153.0512.0281.096-.51-.1624l.3968.2176a6.4508,6.4508,0,0,0-1.3168-.3643c.5359.354-.1531.1486-.2243.2724l-.2937-.2141c.113.1389-.7718-.2239-.1715.1229a2.5961,2.5961,0,0,0,.4563.14l.0124-.0014c.08.02.0561.017-.0124.0014-.2314.014-.3026.094-.5129.0881l2.1638,1.4873a2.44,2.44,0,0,0,.41.2264c-.0662-.0411-.1011-.08-.0757-.1052.2325.0934.3206.0924.3335.0534s-.046-.12-.1253-.1866a1.1651,1.1651,0,0,0-.4336-.0906c.0469-.1622.5713.0876.9361.1807.1134.0934-.0314.1545-.007.2309a.1226.1226,0,0,0,.0659.0671.0339.0339,0,0,1-.018.0327,2.4261,2.4261,0,0,0,1.6631-4.4084l-3.1888-2.192a3.6293,3.6293,0,0,0,.873-.8886l.6582-.9219c-.034-.0055-.0682-.0111-.1-.0159-.102-.01-.2172-.0226-.3287-.04a2.0776,2.0776,0,0,1-.8824-.1256c.47-.0046-.4642-.1934-.0644-.19.3685.0645.7325.1164,1.0942.1638.4589.2092-.4063.0059-.431.0854a1.6578,1.6578,0,0,0,.2836.0667c.09.0077.1988.0208.3287.04l.1038.01,3.2431-4.5424c-.0755-.0286-.15-.0557-.2252-.0794l-.0715-.0218c-.0272-.0084-.0577-.0171-.0858-.0254l-.0054-.0015Zm-15.0271.5213-.6007-.198c.2337.0208.9517.2012.702.0621C201.0431,157.58,200.0883,157.32,200.2783,157.4675Zm.0365-.3024c.3056.0115-.126-.2182.634.0288A1,1,0,0,1,200.3148,157.1651Zm6.3632,1.484-.7006-.1839c-.0022-.09,1.1364.2683.4909-.0388C207.3683,158.7186,206.3155,158.4519,206.678,158.6491Zm2.2364-1.2765.2633.0631-.0816-.11c.1688.0792.3231.1409.48.2074C209.366,157.4927,209.1407,157.4333,208.9144,157.3726Zm-8.5689,3.9923c-.1461-.125.1094.024.2389.0419-.2093-.0917-.5551-.2659-.702-.3233-.02-.0026-.0409-.0061-.0651-.0108l-.0012.0032.1607.1085-.38-.1691a1.8907,1.8907,0,0,0,.22.0574c-.0046-.0119.0186-.0074.0651.0108.1434.0192.1848-.0047.3042.0589l-.1235-.0242.672.2943C201.2637,161.6863,200.64,161.4708,200.3455,161.3649Zm6.2431,3.6633.2266.1389-.7565-.41Zm.5968.4485c-.3877-.22-1.1108-.5258-.9965-.5893l.0349.0559c.3959.2084.5193.1693.9246.4179a.3063.3063,0,0,0-.1717-.0418c.1464.1336.4331.2161.6382.37C207.6732,165.7617,207.3323,165.5485,207.1854,165.4767Zm.6207-3.9381.0426.0049c-.2344-.097-.58-.19-.8748-.2871.12-.0036.3841.06.6065.0894a1.8444,1.8444,0,0,1,.7207.25c-.1522-.015-.3021-.034-.4524-.0524l.0128.0049c-.0191-.0027-.0366-.0069-.0554-.01-.2759-.034-.55-.07-.8223-.104-.4124-.0983-.9653-.27-.6321-.2384l-.676-.171C206.4526,161.092,207.0244,161.4191,207.8061,161.5386Zm-1.9428.0927-.4318-.1414-.0923-.0727Zm-4.6114.177c.0052-.0084.1192.0128-.061-.0723l.5567.2464c-.25-.1425.3165.1031-.2317-.1531.21.0717.728.3446,1.1673.5551A5.3974,5.3974,0,0,1,201.2519,161.8083Zm1.8338,1.4222-.4335-.1893c-.28-.2153.4293.1491.5909.2093C203.2451,163.2623,202.9947,163.1651,203.0857,163.2305Zm.0544-1.5625c-.6044-.2736-.1127-.0963.1255-.02-.0239-.0221-.0161-.0263.1075.03a.71.71,0,0,1-.1075-.03C203.3134,161.6917,203.49,161.8083,203.14,161.668Zm.2025-1.4424c.2073.0335,1.4745.5232,1.1087.2177l1.0478.3852A8.712,8.712,0,0,1,203.3426,160.2256Zm1.0841,2.26a.5683.5683,0,0,1-.2605-.08c-.0587-.0384-.3472-.1625-.2929-.1619Zm.9349,1.1567c-.2759-.1075-.86-.3868-1.2028-.5512a5.8176,5.8176,0,0,0,.6994.3837l-.0694-.0447.3084.1658c-.8-.4149-.4473-.1015-1.354-.5415a4.4949,4.4949,0,0,1,.8428.3094,3.1074,3.1074,0,0,1-.6736-.3978l1.5565.71c.09.0352.0117-.0042-.0538-.0474a5.557,5.557,0,0,1,.703.4132C205.6782,163.864,205.8074,163.8264,205.3616,163.6426Zm1.7306-.4218-.2468-.2231c-.2643-.0829-.3124-.0547-.2748.0059l.0147.0091-.01-.0027a.6037.6037,0,0,0,.1221.1168c-.3013-.1441-.5471-.2065-.8351-.3164.2358.0724.4752.1328.713.2l-.005-.0064-.4019-.2484c.3183.185.5828.172,1.0544.3752C206.528,162.9417,207.6137,163.3408,207.0922,163.2208Zm.8179.6647c.563.0551.42.2455.961.3771C208.3777,164.1679,208.1493,163.8954,207.91,163.8855Zm1.1847-1.4478c.3808.0791.0991.1.4709.1084a3.1883,3.1883,0,0,0-.7448-.1966c-.7125-.1761-.5269-.0725-.2541.0431.1131.0417.2329.0889.365.1457.0516.02.0756.0291.0432.018l-.0432-.018c-.0808-.031-.2319-.0894-.365-.1457a12.1139,12.1139,0,0,0-1.6524-.4188c-.4709-.1653-.262-.1738-.1935-.2121-.5717-.1989-.359-.0293-.6821-.2046.7816.2465.34-.0424.2529-.1106a3.011,3.011,0,0,0,.8464.2321l.1981.1742c.2629.0244.9771.2412.625.08.6558.22,1.4488.4533,2.1889.6315l-.4125-.0333c.3886.0724.7684.2851.3655.2528C209.98,162.6567,209.1963,162.5405,209.0948,162.4377Zm.2358,3.949c.0009.0062.01.0163.03.0316-.0555-.0317-.0564-.0378-.03-.0316-.0061-.0436.39.103.228.0162a3.4127,3.4127,0,0,0,.9855.3862l-.1793-.1018a1.9443,1.9443,0,0,1,.2988.1626c-.2617-.0645-.2333.0777-.7031-.15-.0157-.0407.0438-.0179-.2084-.1688C209.6691,166.512,209.3992,166.4029,209.3306,166.3867Zm2.1427,2.9436.1615-.0211c-.3207-.1047-.6458-.2039-.97-.3a1.6136,1.6136,0,0,1-.1878-.0583c.0627.0183.1251.04.1878.0583.235.0547.0176-.1248.1713-.139l-.3872-.181c.06-.1926.6663.1713,1.0265.2462a.6059.6059,0,0,0-.1228.243l.3964.1789Zm.5172-.9878a.9409.9409,0,0,1-.2413-.116l.149.0428.4131.2688Zm2.0352,1.1729a.1064.1064,0,0,0,.0006.0438c-.2174-.1093-.444-.2713-.6741-.4043l-.0249-.0088c-.2242-.161.0579-.0069.3268.15.15.087.2963.1745.3716.2193v-.0026C214.1022,169.5606,214.0871,169.5519,214.0257,169.5154Zm-.0569-.1559a1.06,1.06,0,0,1-.2085-.09c-.06-.0494-.1458-.1091-.215-.1542Zm-1.152-1.9954.45.2255c-.1146-.0366-.23-.0738-.2143-.0176C212.9232,167.4788,212.7638,167.406,212.8168,167.3641Zm.0166,1.2729c-.0066-.0233.1938.0773-.027-.0643.1639.0989.1724.1289.2883.2005a1.0885,1.0885,0,0,1-.2613-.1362c.0007.0024.0014.0048.0075.0105-.02-.0155-.0409-.0291-.0613-.0436-.1043-.064-.2034-.1262-.2423-.1453.1664.1352-.2651-.1311.1511.1371a9.0166,9.0166,0,0,1-.7739-.4792l.1165.047c.1.1118.4442.2251.7486.44Zm-.5148-.44a7.3306,7.3306,0,0,1-.686-.371c.3052.1893.2334.17.5271.3461l-.4483-.2294.07.0449a10.3556,10.3556,0,0,0-1.1818-.5643l.0424.016-.7925-.44.0946.0354c-.0913-.09-.1572-.0689-.4118-.23a14.8324,14.8324,0,0,1,1.4946.7284,1.225,1.225,0,0,0-.1868-.1087c.5627.2688.4667.1879.9965.4621C211.7756,167.8906,212.145,168.0853,212.3186,168.1966Zm-1.3031-.9819c.0815.1169-.3845-.1479-.6072-.2347C210.1872,166.7989,210.6673,167.0128,211.0155,167.2147Zm-.2082-7.9778a3.0594,3.0594,0,0,1-.3367-.1718c1.0824.2157.0837.06.3367.1718.06.0234.1324.0483.2268.0755A1.9536,1.9536,0,0,1,210.8073,159.2369Zm.19-.2727c-.376-.1119-.7461-.2109-1.14-.3382.2395.0539.46.0811.6909.1229.0578-.0323-.1356-.1285-.5208-.1964.702.1014,1.7464.2411,2.37.3641C210.8647,158.78,211.6245,158.9988,210.9971,158.9642Zm1.6927-1.0866a2.4319,2.4319,0,0,0,.5844.04l-.1523-.0876c.0772.0322.19.0722.1523.0876l.3335.1917c-.4325-.0324-.8541-.0459-1.2906-.0929a3.4984,3.4984,0,0,1-1.9754-.6452c.914.1887-.2227-.0069.61.2335a2.51,2.51,0,0,1,.83.0036l.62.0546c.1971.0077.38.0123.523.0081l-.1282-.0281,1.1411.1951-1.3389-.1238ZM188.781,183.6169l-1.076-.74-.4177-.2152c-.26-.1316-.5211-.26-.7674-.3757a7.4385,7.4385,0,0,0-1.1179-.4564c.4618.3807.69.2967,1.2352.7011l-.1619-.0241c.58.4066.6428.2563,1.1214.5419.1993.2455-.8566-.3424-.3861.05.9593.4692.2932.2,1.1727.6653l-.4283-.338,1.3082.86C188.9087,183.9619,188.3879,183.5073,188.781,183.6169Zm21.2126-3.126-3.4258-2.355-.1486-.03,0-.0724-1.2769-.8777a.5455.5455,0,0,1-.2245-.0373c-.0163-.0391-.1115-.13.0259-.0991L189.672,166.522a2.2544,2.2544,0,0,0-1.71-.3565c.1238.1477.2886.3053.2885.4536a1.4856,1.4856,0,0,0-.5153-.397,2.2593,2.2593,0,0,0-.558.2541c.0173.0252.0314.047.0519.0756a.752.752,0,0,0-.0837-.0538,2.2466,2.2466,0,0,0-.3931.3311l.13.0724c.0235.124.0428.2568.0778.3764-.09-.13-.1658-.2722-.2439-.41a2.247,2.247,0,0,0-.19.2371l-.1859.27c-.0338.0491-.0633.1-.0927.15.0006.011.0029.022.0026.033.0064.1021-.07.1986.1037.3306a.9649.9649,0,0,0,.1592.0868.4128.4128,0,0,0,.095-.0185c.0194.0475-.0276.0428-.0936.0192l-.0014-.0007-.013.0018a.0411.0411,0,0,0-.0161.0491c.0133.0484.09.1374.3506.3224l.0422.0031c.03.0491.0583.1007.0906.1469l.5326.3525a5.2678,5.2678,0,0,1-1.3872-1.0557,2.2522,2.2522,0,0,0-.1631,1.0321c.0793.0646.111.0985.115.1146.0454.0462.09.0932.1378.1371-.4342-.2542.9661.8961.5257.69l-.48-.3513c.131.0522.4794.3031.48.2538a7.3671,7.3671,0,0,1-.73-.5277,2.2516,2.2516,0,0,0,.9252,1.3764L207.2443,184.49a2.2608,2.2608,0,0,0,2.2883.1611,3.4963,3.4963,0,0,1-1.0137-.4584c.3538.1322.7822.3175,1.0495.4407a2.2519,2.2519,0,0,0,.8222-.7263l.1859-.27A2.2626,2.2626,0,0,0,209.9936,180.4909Zm-22.908-10.5257.3605.1939c.046.0011-.2693-.1915-.3155-.24l.3148.1923C187.4463,170.1588,187.5829,170.3521,187.0856,169.9652Zm18.55,7.6084a3.558,3.558,0,0,1-1.0007-.3844C204.9485,177.3048,205.3556,177.4388,205.6354,177.5736Zm.1161.2354c-.2639-.0018-1.183-.4552-1.0091-.4693C205.5035,177.5723,205.0051,177.6278,205.7515,177.809Zm-3.23-.9335c-.1565-.0392-.1624-.002-.2781-.0073l-.2031-.1716C202.2532,176.7661,202.3741,176.8291,202.5212,176.8755Zm-3.2851-2.882c-.0193.0442.1989.1727.36.19.057-.01.017-.0451-.0567-.1123.3906.2239.7957.4341,1.2049.6544-.0629.2286-.8934-.3825-1.323-.3907.1211-.0164-.4658-.2164-.7923-.3736Zm1.72,2.25a1.534,1.534,0,0,1-.7689-.214A5.42,5.42,0,0,1,200.9563,176.2437Zm-2.8295-1.6445.5151.2739-.5641-.22A.2333.2333,0,0,1,198.1268,174.5992Zm-.6111-1.414c.0308.0336.1023.1051-.0677.082l-.3754-.2346Zm-.8391-.5786c.0129-.0733.4654.2705.0576.1475C196.26,172.558,196.5071,172.581,196.6766,172.6066Zm-.98.8764a.389.389,0,0,0-.05.0482l-.0173.046-.6107-.3291C195.21,173.3151,195.4845,173.4179,195.6964,173.483Zm-6.415-6.7853a4.0451,4.0451,0,0,0,1.1218.5472l.0027.2386c.7066.2416.7308.37.7711.5021.0364.1322.08.2787.7757.51-.6973-.2275.6548.556.5068.68a18.0534,18.0534,0,0,1,2.4193,1.434c-.4139.0247.5148.5345-.3605.2707a25.4036,25.4036,0,0,1-3.2388-2.0377c.3706.3379.04.4348.7542.9-.2294-.1213-.4561-.25-.6816-.3809a.1911.1911,0,0,1-.0752.0231l-.028-.0808c.0341.02.069.0378.1032.0577.1232-.0765-.2392-.2985-.69-.5672a5.9392,5.9392,0,0,1-1.2736-.8749c.7372.3764.4879.0576.573-.0114-.2593-.2051-.5153-.4149-.7622-.636C190.0179,167.5482,189.2644,166.961,189.2814,166.6977Zm2.3142,3.6829c.0329-.08.5135.1739.6851.1811-.0645.0386.25.2761.0883.2729C192.4537,170.7237,191.7516,170.5051,191.5956,170.3806Zm7.8227,7.0384,1.03.5456C199.8482,177.832,199.1563,177.3726,199.4183,177.419Zm.6-.363c.15.0137.1334.0868.24.1148-.0437.0146.0241.0573-.1864.0031.0071-.074-.8151-.3733-.1818-.2037a7.13,7.13,0,0,0-1.2523-.4159c.0643.0423.2378.1162.3.1591l-.7167-.2778.3588.0775c-.2584-.05-1.3838-.7466-1.6422-.68l.2279-.0547a6.92,6.92,0,0,1-1.1441-.57c.2845.2119-.4577-.1214-.6078-.1464-.2956-.2589-1.6281-.8073-2.19-1.1378-.4935-.1338.3179.2585.4267.3469-.6184-.3707-1.0689-.4594-1.6223-.8479l-.019-.006.0248.0564c-.14-.0776-.1072-.0849-.0248-.0564l-.0378-.0863c-.35-.1873-.6873-.4391-.9121-.5379l-.1691-.043a.38.38,0,0,1,.1691.043l.1194.03c.0409-.0545-.3959-.2557-.59-.3857l-.2375-.033c-.3-.3113,1.3526.6176.4729.0174l-.5263-.2066c-.81-.3833-.3444-.3075-1.0051-.7107.5565.22,1.05.661,1.4261.7309.0007-.0445-.3347-.2131-.3388-.26.1923.0835.53.2512.5273.2044l-.4829-.2525c.7163.3373,1.5007.7916,2.14,1.0619-1.1367-.6511.3686-.08-.47-.6049-.15-.0334-1.6942-.8613-1.2678-.7942.4762.3046.9726.5815,1.46.8714a7.3334,7.3334,0,0,0-1.1462-1.0568c-.4863-.2869-.8118-.4743-1.4265-.8193l.0871-.0435c-.75-.5455-.1817-.0014-.8311-.4125.0653-.0418-.2754-.3021-.5838-.5722-.1558-.1329-.3068-.2635-.4-.3631a.4476.4476,0,0,1-.0863-.1281c-.0068-.0316.0713-.0449.1512-.0448-.1829.02-.3788-.18-.5772-.3666a.3182.3182,0,0,1-.2079-.18,2.45,2.45,0,0,1,.2079.18c.1978.0582.4181-.0555.3176-.0027.3983.29-.0584.2628.8483.674.2027.0511.2624.0212.0865-.1693.1381.1143.2833.2191.427.3264l.3361-.1864c.26.1827.0649.2935.5725.4477l-.044-.0849a10.3215,10.3215,0,0,1,1.1546.7053l-.5362-.06c1.1811.6946-.5681.0284.4246.6289l.2331-.0216a.3065.3065,0,0,1,.1465-.0137l-.1465.0137c-.117.0518.1176.2394.4068.4194a3.9433,3.9433,0,0,1,.6653.4277l.0558-.0015c1.0123.4452,1.2136.6326,1.3545.7992a1.1764,1.1764,0,0,0,.2953.2685,4.58,4.58,0,0,0,.7054.4022,8.55,8.55,0,0,0,1.9094.7871,10.56,10.56,0,0,0,2.2872,1.0787l-.5091-.1375a3.28,3.28,0,0,0,.94.3644c-.0125-.0118-.0193-.022-.012-.0285l.0581.0382c-.01-.0011-.03-.0063-.0461-.01.1278.1206,1.1909.4917,1.1769.5932-.639-.2975-1.1245-.3275-1.4619-.5579-.2449-.0416-.4734.0109-.1122.132-.26-.0951-.8059-.1686-1.4811-.435a.7236.7236,0,0,1-.2684-.2281c-.0046-.0049-.0116-.0091-.0155-.0142-.0015-.016.0009-.0082.0155.0142.1462.16.615.2224,1.0838.4588-.4948-.2944.0614-.1653-.58-.5231-.76-.2383.2721.1873-.23.045-.03-.1366-1.0981-.57-1.2134-.691.1039.0748-.244-.0106.2221.198l-.651-.18c-.4117-.2208.1472.0267.0872-.0585a2.1226,2.1226,0,0,0-.8216-.4414c-.0943.0114-.3885-.0435.1156.1667l-.7454-.2274a3.2227,3.2227,0,0,0,.7843.5511l.1944.0187c.4172.1913.1874.1785.3564.2764l-.4979-.2552c-.5541-.2523-.6468-.1967-.5357-.067.702.2358.5269.3077.6412.44.3584.1573.7224.3093,1.0889.4585,1.0677.56.632.4949,1.5168.9508.1442.016-.0769-.0936-.1941-.1775a26.8626,26.8626,0,0,1,2.5755,1.1955l-.0213-.056a3.4042,3.4042,0,0,0,1.109.5108C202.15,177.94,199.4281,176.5457,200.0179,177.056Zm-9.79-5.3051-.374-.0316-.3284-.2676Zm-.4036-.811c.1581.1027.3125.21.4733.309l-.3267-.1275Zm.733.8456.6287.3783-.2878-.1219Zm6.2951,2.71-.2332.0409-.26-.1471Zm8.5531,6.626c-1.089-.3807-1.5652-.8674-2.8694-1.28.5606.0539.9044.37,1.7594.5468-.4.0788,1.4136.5712,1.8335.8752A5.9141,5.9141,0,0,0,205.4057,181.1211Zm.765-.8727.7286.341-.3273-.0747Zm.5059,1.3531.0836-.0988.21.08Zm.8128-1.984.098-.0934c-.7174-.3553-2.6574-.9686-3.5516-1.4418a3.3268,3.3268,0,0,1-1.2414-.2837c.5162.1215.73.087.6664-.0326-.7385-.3012-.7194-.1662-.8312-.1125.0467-.0954-.6781-.3433-.68-.473-.2078-.05-.58-.1663-.1821.0072a14.2725,14.2725,0,0,1-2.892-1.453l.859.3706s.0474-.0112-.014-.0519c1.1634.5659,2.025.8789,3.49,1.4717-.0568-.1179-.5128-.3234-.2529-.3663.8424.2888,1.218.6857,1.9279.9234.1315.0013.0342-.1006-.2964-.2249.3671.1074,1.7533.56,1.57.6874.042.0635-1.4114-.5471-.9-.1922a13.2629,13.2629,0,0,0-1.5851-.617c.0957.1-.2174.1095.3977.3286a4.9966,4.9966,0,0,1,1.0615.37.9529.9529,0,0,0-.6211-.137c1.0008.3292,1.14.4148,1.7957.6123.4072.284,1.3013.475,1.6054.7712Zm-6.8941,22.5108-.2125-.0233c.0353-.0518-.1908-.0941-.3065-.1635-.084-.0155-.0259.02-.0476.0213a5.8663,5.8663,0,0,0-.6606-.2686q.042-.0157.087-.028l-.1311-.0385c-.0821-.1055.3467.1169.4353.1142.3992.1685.4137.1827.6449.297l.0456,0c.0119.0131-.1366.0333.1448.0873a21.196,21.196,0,0,1-.7838-3.43s-.2524,1.255-.5751,2.3582a4.1655,4.1655,0,0,0,.3319.2583c-.1048-.0383-.18-.02-.2648-.084l-.0175-.0191c.0312-.0094-.0009-.0459-.0662-.0988-.02.068-.04.1356-.0611.2019a14.0385,14.0385,0,0,1-1.3486,2.5909,2.0771,2.0771,0,0,1,.8751.6947l.0347-.0911c.0127.1625.3382.3337.4371.4763l.007.003,0,.0081a.09.09,0,0,1-.0077.1258l.0077-.1258-.0065-.0111-.3369-.1489.03.1461-.0992-.2253c-.0707.0805-.36-.0856-.347.0256a.4.4,0,0,1-.0377-.0755l-.0638.0077.0611-.1095a2.3674,2.3674,0,0,1-.6088-.607c-.0306.0519-.06.1037-.0908.1556a3.1666,3.1666,0,0,0,.4147.466c-.014-.033.0177-.0465.0027-.0794l.3571.3919-.0448-.0186c.16.1865.0594.2319-.1136.1747a.8666.8666,0,0,1-.0986-.0426,4.28,4.28,0,0,0-.3.7193c.2826.2506.5508.5086.8544.7825l-.0967-.0406c-.0192.0239-.0687.0026-.0147.0879-.3056-.3137-.2511-.1687-.3806-.44L197.8993,206c0,.06.3.2571.1517.1907l-.2289-.2088a4.5231,4.5231,0,0,0-.1327.8688.7656.7656,0,0,1,.3162.163l-.2089-.0363.3792.4822-.2991-.0566c.1851.0539.0467-.1406-.0524-.2822a.2673.2673,0,0,0-.1386-.0819c0,.0352-.0013.0706-.001.1053l.0209.0174a.1084.1084,0,0,1-.0211-.0026,5.3662,5.3662,0,0,0,.4644,2.1122,2.5848,2.5848,0,0,1-.952-2.4793c-.0552-.0335-.0805-.0184-.0486.0977l-.0969-.365c.0658.0648.12.1153.1692.16a3.3371,3.3371,0,0,1,.37-.9138l-.2672-.2436.0169.1557c-.0889-.1657-.1689-.325-.2455-.484a4.4377,4.4377,0,0,0-.4852,1.4922c-.0624.7291.0593,3.8373,2.6371,3.7333a3.026,3.026,0,0,0,2.9769-2.33c-.0618-.0569-.0966-.0973-.0874-.112l-1.5909-1.2249a4.0636,4.0636,0,0,0-.4341-.3727c-.0635-.0467-.1316-.0945-.1829-.1273l-.09-.0433a.4165.4165,0,0,1-.26-.2583c-.1228-.0427-.1434-.02-.2281-.05l-.18-.2689c.0925-.0792.5122.3247.572.1966-.063.0669-.0428.1031-.1426.1.1365.1915.2947.243.3489.1692.0255.0308.0381.0522.0593.0815a1.066,1.066,0,0,1,.08.1032c.0364.0553.0421.0849.0336.0978.6168.5155.677.1216,1.3068.77l.2182.2553c.191.1426.27.1393.2974.1248l0-.0036c.0134-.0208.0185-.0061,0,.0036.019.1062-.0237.2069.2951.5019.05-.1733.0869-.3364.1149-.4841a2.87,2.87,0,0,1-.96-.6294l-.6336-.535-.3145-.26-.1539-.1183a.8817.8817,0,0,0-.1206-.0824l.1109-.1469.0229.0281.0494.0538c.0325.0363.06.07.0839.1021.0482.0639.0831.1206.1191.1755a1.1532,1.1532,0,0,0,.3433.3528c-.0789-.1792-.3412-.5019-.133-.3861l-.548-.4563.1073-.03c-.1194-.1973-.3655-.4578-.4027-.5491.0354.0111.1565.07.1659.0191l-.3713-.2934a1.7633,1.7633,0,0,1,.4856.3231l.23.2.11.0917.1912.15c.0133-.0176.055-.02.022-.0744l-.0938-.1056a.5585.5585,0,0,1,.0938.1056l.5082.5719-.7076-.5858c-.0056.0148.06.09.0975.1407l.1287.1671.2579.3342.407.25c.8266.7445-.609-.2425.0993.354a.1012.1012,0,0,1,.0521.0045l-.0162.026-.0359-.03c-.08.0177.0092.2055.3306.4655.069.0349.0855.0092.0318-.0541l.4475.398c.0184-.0992.0341-.1929.0459-.2738l-.007-.0059.0072.0044.0007-.0042c.1293-.8927-.706-2.7868-1.4607-4.2746A6.8521,6.8521,0,0,1,200.5953,202.1283Zm-.7708-1.2677c-.1276-.0607.1676.1469-.12-.018C200.0777,201.0521,199.0788,200.4107,199.8245,200.8606Zm-1.1044,2.4153c-.0429-.0587-.2063-.165-.0446-.143C198.7557,203.1842,198.7169,203.2326,198.72,203.2759Zm.1722,2.0834c.01.089-.0932.021-.1447.0573-.3614-.3679.2418.0656.0168-.2468l.1883.2408C199.027,205.3533,198.9628,205.5,198.8923,205.3593Zm.1711-1.7993a.767.767,0,0,0-.1274-.1009.0852.0852,0,0,0-.087-.0041c.0191-.0231.05-.017.087.0041a.5633.5633,0,0,1,.1274.1009,3.0752,3.0752,0,0,0,.2314.2065A1.5527,1.5527,0,0,1,199.0634,203.56Zm1.4692-1.2906-.3136-.0166c-.1695-.0743.088-.0238.1464-.0336.0416-.0469-.2842-.0753-.3036-.0934l.213.0276.1841.0894c.1173.003-.2005-.1257.0322-.0769.0463.0638.0061.0921.1649.1758C200.5652,202.3214,200.5844,202.2979,200.5326,202.2694Zm1.6655,4.25c-.0479.0788-.31.0443.0154.4248-.41-.3905-.2374-.3684-.72-.7967Zm-.4707-14.0027-2.8221-1.94a3.8021,3.8021,0,0,1-.4767-.1589c.2443.077.241.0347.2559.0072l-.7237-.4975c-.3954-.1662-.8872-.3961-1.3718-.6261a17.585,17.585,0,0,1-1.66-.9121l.9909.3395c-.0452.0034.2657.2568.5081.38a4.8931,4.8931,0,0,0,1.0255.4693l-7.9144-5.44c.1272.1668-.0638.19.188.3347-.0122.2346-.6514-.072-1.3121-.4041-.6209-.32-1.27-.664-1.2538-.5038-.4492-.3085-.8738-.5964-1.2975-.863s-.8137-.4989-1.2386-.716c-.1169-.1671.1539-.0772.4368.0176s.6162.2114.551.0676c-.0228-.0026-.4112-.2129-.6953-.3489-.268-.1287-.4384-.1886-.069.0917-.3494-.1741-.8356-.47-1.2192-.7-.379-.2285-.6754-.4-.6842-.3528l.095.0621-.9631-.6066c.052.0543.1052.1087-.0245.0451a3.345,3.345,0,0,0-1.12-.8385l.1006.1041-.4573-.3287c.34.1739-.0144-.048.3164.0779a5.7483,5.7483,0,0,0-.6561-.3888c-.3706-.169-.22-.0182-.2066.0292a5.4074,5.4074,0,0,0-.92-.5267,2.2444,2.2444,0,0,0-.5785.4168,11.034,11.034,0,0,0,1.0516.521l-.612-.3746.7234.3621c-.1277-.0631-.16-.036.2418.2354-.5205-.2959-.2279.02-.6816-.3268l.0464.09c.0254.02.0336.0311.0135.0262l-.0135-.0262a4.8641,4.8641,0,0,0-.8179-.4561l-.0173.0185a2.9741,2.9741,0,0,0,.8129.4892,8.4748,8.4748,0,0,1-.8193-.39l.1261.0286c-.0492-.04-.0956-.0724-.1418-.1045a2.275,2.275,0,0,0-.1841.23l-.0156.0226.05.0285a2.399,2.399,0,0,1,.22.1361c-.0663-.0436-.1417-.09-.22-.1361-.0193-.01-.0352-.0172-.052-.025l-.0946.1377c.5365.3061.9656.5984,1.5376.9142-.4065-.296.0477-.04-.2265-.2395a6.9166,6.9166,0,0,1,.5958.4157,11.2482,11.2482,0,0,1,1.8245,1.09l-.124-.014.735.4773c-.5637-.4176.1773.0644.0686-.07.1854.1272.3307.2422.6012.4032-.0131-.07-.3269-.2444-.3359-.28.4135.2726.9328.6577.488.4327.3731.2637.8016.5856,1.1692.82-.3863-.3112.6446.4042.911.5344.0266.009.0115-.0116-.0362-.0484-.0354-.0245-.07-.0486-.1127-.0766a1.2366,1.2366,0,0,1,.1127.0766c.3524.244.4012.3415,1.1159.7908l.0289.125c.3647.2041.9205.5466.814.4284l.2556.246c.9216.5394,2.4093,1.5937,3.2095,2.02-.1954-.1931-.1493-.1829-.347-.377a13.62,13.62,0,0,0,1.3489.8563,12.99,12.99,0,0,1,1.4431.95l-.7313-.3786a2.18,2.18,0,0,0,.3109.2322c-.3454-.2172-.8532-.5154-1.3531-.799a13.4166,13.4166,0,0,1-1.2851-.8239c.1925.2272.0478.0574.0417.1332a4.4829,4.4829,0,0,0-1.0282-.7226.8825.8825,0,0,0,.2387.2348l-.653-.4454.7459.5888c.04.0885-.4353-.0657-1.0768-.552-.1482.0285.2155.2666.971.784-.1248-.041.0132.0808-.5457-.2542a9.6305,9.6305,0,0,1,1.315,1.119,12.1013,12.1013,0,0,1,1.4981.8558,11.8753,11.8753,0,0,0,1.6.8993c-.4341-.4179.1257.0769.2983.0369l.008.1161c.4586.2553,1.0307.61,1.53.9242a8.4342,8.4342,0,0,1,1.0979.7549c-.3082-.1321-.0088.1125-.77-.3655l-.1.0979.6118.3352c.3359.2459-.2986-.1279-.0087.1121-.3326-.2181-.6691-.4446-1.0074-.6837l.2723.3228-.7126-.4515c-.5609-.3818-.7378-.2767-1.3678-.6924l.0784.019a4.4912,4.4912,0,0,0-.6382-.4356c-.2383-.1385-.2721-.1063-.1488.004l-.4768-.3584c-.1389-.0929-.306-.23-.4994-.3756l.4994.3756a1.2949,1.2949,0,0,0,.1111.0681,13.8141,13.8141,0,0,0-1.6718-1.1788,10.3786,10.3786,0,0,1-1.023-.6131l.2436.2368c-.684-.3953-.4814-.3864-.988-.6931l.3985.1909c-.9082-.6785-.4369-.1561-1.105-.6832.1408.1717-.2075-.0954.1135.166-.3155-.1146-1.2188-.9414-1.0021-.65l-.5862-.5712c.5179.4567.5805.2763,1.1485.79-.34-.296-.189-.255-.2377-.3541a.4591.4591,0,0,1-.1243-.1477.6086.6086,0,0,1,.1243.1477c.3348.3,1.237.8042,1.6084,1.1573a1.3227,1.3227,0,0,0-.1369-.1487,4.8,4.8,0,0,0,.6805.4294,27.8035,27.8035,0,0,0-2.3571-1.6963l.1052.0308c-.334-.27-.7635-.4813-.4922-.2268a19.6006,19.6006,0,0,0-1.6058-1.1567l.79.6721c-.631-.4409-.15.0195-.85-.5335-.2832-.1607.1369.1832.4479.3976l-.4268-.2347a3.7489,3.7489,0,0,0,.3088.2548c-.3957-.2992-1.0362-.6712-1.3888-.9733.2391.2-.6656-.3022-1.1431-.5805-.3088-.4115,1.3008.8378.9783.4445a6.6574,6.6574,0,0,0-1.1489-.6536c-.4879-.2871.0766-.1275-.7787-.633a6.022,6.022,0,0,1,.9287.5768c-.0054-.0638-.0064-.1276-.0061-.1861a21.5409,21.5409,0,0,1,2.2879,1.4489c-.3388-.42,1.1171.7552,1.1186.5755a5.158,5.158,0,0,1-.8714-.6047c-.1851-.1879.1791.0514.0958-.0607a25.8178,25.8178,0,0,0-2.21-1.5377,6.9092,6.9092,0,0,0,.9665.7778l-1.1414-.8221c-.21-.0989-.6489-.29-.1065.0811-.8845-.5971-.4063-.2466-.9085-.4889.2355.09-.2186-.2642-.1533-.2555a9.0392,9.0392,0,0,0-1.3712-.8855,11.7862,11.7862,0,0,1-1.2077-.6682c.0213.0161.0414.0293.0633.0466l-.2217-.1482c.0561.0368.1067.0686.1584.1016a11.1583,11.1583,0,0,0-1.4889-.8035,2.2626,2.2626,0,0,0,.7927,2.7664l11.6966,8.04c-.3852-.281-.7752-.57-1.1752-.875.2526.13.5031.2642.75.4052l-.0346-.0357a.6716.6716,0,0,1-.1757-.1816l.1757.1816a8.6185,8.6185,0,0,1,.7944.604c.0585.0421-.0469.0567.13.2208l8.16,5.6095a2.2618,2.2618,0,0,0,2.5489.008,2.0221,2.0221,0,0,1-.3019-.1567l.16-.0075c.079-.0059-.1137-.0991-.1647-.1341l.4682.1789.0182-.0159c-.0856-.0718-.0156-.1052.1087-.0948a2.263,2.263,0,0,0,.309-.3609l.1858-.27a2.2539,2.2539,0,0,0,.3008-.6255c-.0285-.0224-.0557-.0456-.0815-.07-.0556-.0305-.1139-.06-.1765-.0881-.678-.1846.2415.3581-.6167-.0152-.2338.13.4862.2538.57.4135-.8309-.1734-.5163-.4152-1.414-.6075l.1248.0724a5.9929,5.9929,0,0,1-.8224-.3541l.3029.0149a7.0892,7.0892,0,0,0-.9427-.5894c-.2717-.0565.4712.2825.1161.1517-.0834.0316-.2506-.2366-.5074-.3689-.0263.1137-.3873.0148-.1933.2089.0261.0126.0471.0219.078.0379l.17.16a2.0431,2.0431,0,0,1-.2482-.1977c-.0494-.024-.0913-.043-.1247-.0561l.0215.0064a11.3944,11.3944,0,0,0-1.813-.9757c.0983.09-.1881.0125-.2412.0459l-.64-.4349c.1027-.0683.7693.2184.7826.1076-.6812-.2933-.18-.2164-.8856-.5953a9.9878,9.9878,0,0,1,1.7249.8886,10.3552,10.3552,0,0,0-1.0652-.5165,3.3459,3.3459,0,0,0,1.179.7162l.1646.2825a2.763,2.763,0,0,1,.7719.2575c.1992.018-.0271-.1489-.12-.2318.3.1117.5984.2322.9031.3376l-.1716-.1557c.32.0163,1.1857.3152,1.7537.44l-.0691-.082c-.09-.0585-.14-.1068-.1142-.135l.1142.135c.3439.2252,1.2941.61.97.6689a4.1726,4.1726,0,0,1,.5706.2012A2.26,2.26,0,0,0,201.7274,192.5162ZM178.8715,179.62l-.2678-.22.5846.4012Zm-.1781-.25c-.2686-.22.5321.2366.57.1822C179.4044,179.6853,178.6934,179.37,178.6934,179.37Zm12.1173,6.5123-.7391-.5013.0567.0092.7461.5049Zm.9444.3291c-.0432-.06.2586.0492.0427-.0952l.5463.3642A1.1128,1.1128,0,0,1,191.7551,186.2109Zm-8.3873-3.095.4343.3516c-.0989-.0747-.2977-.1654-.4658-.304C183.2657,183.0956,183.2989,183.1021,183.3678,183.1159Zm-3.2573-1.9326a7.09,7.09,0,0,1,1.4307.9048,2.7744,2.7744,0,0,1-.921-.5536c-.1578-.1126-.33-.2349-.51-.3512-.3174-.1634-.6232-.307-.8506-.4028A2.8528,2.8528,0,0,1,180.1105,181.1833Zm1.2051,1.2479c-.32-.2141-.6517-.4128-.9824-.6212A4.6993,4.6993,0,0,1,181.3156,182.4312Zm-.6094,1.0763-.0582.0746-.763-.3947Zm.0492.344-.3194-.1769.6618.315Zm1.3208.2715c-.3666-.1212-1.225-.6-1.7821-.87.0167-.0251.18.0108.2325.0027a2.5478,2.5478,0,0,1-.2432-.1687c.2538.1256.2861.162.2432.1687a9.7061,9.7061,0,0,0,1.0915.55C182.0465,184.0054,182.3212,184.1488,182.0762,184.123Zm-.6754-1.7694.2633.1389.5109.4228Zm4.3149,2.9568a1.3517,1.3517,0,0,0-.2751-.2595C185.6308,185.1967,185.8,185.3237,185.7157,185.31Zm2.6453,2.675c-.2028-.1024-.4052-.2008-.6045-.2949l.1489.1156-.1667-.1243.0178.0087-.76-.59c-.7081-.51-.1593.0529-.8375-.4691.4745.3083.2172.0223.4675.1344.4123.2515,1.14.9065,1.1715.7529l.229.2674c.084.04.235.141.3342.2.0306.0155.0607.0288.0915.0446A.3115.3115,0,0,1,188.361,187.9854Zm6.7248,3.3991.4519.3169-.4623-.28C195,191.3683,194.9658,191.3229,195.0858,191.3845Zm.7761.7221-.3189-.0517c-.14-.1412-.06-.1288-.1979-.27Zm-4.7044-2.7512.15.1656-.2948-.1952Zm.0652.31c-.066-.0733-.326-.3051-.1377-.1868l.2841.2864-.1464-.1c.044.0489.0025.028-.3188-.2168Zm-.6454.0322.4227.3608-.7915-.53C190.1554,189.3984,191.105,190.1839,190.5773,189.6977Zm.5564.6126c-.0666-.0568-.1093-.0961-.139-.1255-.2053-.1625-.488-.328-.3415-.2945.4389.2936.1839.1385.3415.2945A1.07,1.07,0,0,1,191.1337,190.31Zm.7686,1.0689c-.1695-.1324-.5953-.4111-.5554-.3451-.0788-.0579-.1493-.1094-.2177-.1592l-.0084-.0025-.028-.0241a10.6371,10.6371,0,0,1-1.09-.843,7.6763,7.6763,0,0,1,1.09.843l.0364.0266a2.7712,2.7712,0,0,1,.7731.5043.4835.4835,0,0,1,.0673.0585C191.9478,191.4177,191.9248,191.3987,191.9023,191.3792Zm2.5379,1.3474c-.0287-.0195-.0671-.0479-.122-.0916l.122.0916c.1773.12-.054-.14.4332.218C194.9333,193.0816,194.7734,192.9757,194.44,192.7266Zm-.6162-.8108a.7515.7515,0,0,1,.2776.3515,18.9763,18.9763,0,0,0-1.7763-1.221,2.0288,2.0288,0,0,1-.6339-.5771c.5424.5186.8506.5828,1.3581,1.0291a2.2619,2.2619,0,0,0-.577-.5032c.7977.5174.7114.5656,1.3986,1.0078l-.2045-.2106c.2254.1037.556.3378.8026.49l-.3721-.305.2594.1653.1221.1455c.1936.1187.3343.1854.3176.0842l.1186.2369C194.5029,192.3266,194.25,192.24,193.824,191.9158Zm4.45,3.7918c-.112-.1278-.2752-.2534-.1525-.2192.1856.1236.3019.29.4488.2739C198.6547,195.8872,198.3724,195.745,198.2745,195.7076Zm2.392.2091-.286-.2111.4728.1691C200.8781,195.9459,200.6362,195.8441,200.6665,195.9167Zm-.2394-1.3043c-.0376.0333-.4959-.0539-.1211.1751a.51.51,0,0,0,.2989.0452,1.8011,1.8011,0,0,1,.7271.6106c-.3762-.14-.1269-.1-.4943-.356-.1052-.0382-.32-.1148-.248-.0409-.2538-.1553-.6247-.3576-.9422-.524l.0113.0237a1.3181,1.3181,0,0,1-.3623-.2043c.1.05.2213.1126.351.1806l-.1143-.2407-.7943-.2688A6.0152,6.0152,0,0,1,200.4271,194.6124Zm-1.68-.8927c-.0837-.0066.0241.1059.1552.1886a2.7463,2.7463,0,0,1-.4487-.2589A2.3583,2.3583,0,0,1,198.7475,193.72Zm-1.7047,1.0543a.2253.2253,0,0,0-.0716-.083c-.0515-.0342-.0987-.0649-.1305-.0832a.6715.6715,0,0,1,.1305.0832c.1919.1272.4458.3035.2039.0735a4.688,4.688,0,0,1,.9541.5845c-.0879-.0212-.171-.0487-.2547-.0717l.0549.0425c-.2835-.1811-.577-.3551-.8659-.549a1.5754,1.5754,0,0,0,.3516.3137c-.2812-.2193-.1621.02-.5709-.231-.3863-.38-.5884-.2845-.955-.5593-.71-.5148-.4539-.5235-.29-.4248.5789.3177.4705.4437.961.7551.3861.2468-.0171-.1419-.1063-.1938A3.2313,3.2313,0,0,1,197.0428,194.774Zm-1.3932-1.6971.4508.3424-.3014-.1526Zm.6368-.4715a12.4813,12.4813,0,0,1-1.4791-.7463c-.0721-.0132-.2091-.0753-.1006.0248.1726.0734.9845.5634.8086.5371a3.6366,3.6366,0,0,0-.9669-.5166,5.9905,5.9905,0,0,0-.84-.6939,6.9038,6.9038,0,0,0,1.1672.6188l-.2177-.16c.3955.2774.7948.496,1.1177.7028.2228.0725-.2755-.2824.1269-.0611A1.6248,1.6248,0,0,0,196.2864,192.6054Zm3.4874.0524c-.38-.1769-1.0386-.2551-1.1855-.4587A5.6013,5.6013,0,0,1,199.7738,192.6578Zm-6.21-4.3577c.3.0464.2441.039.641.3072Zm1.449.7913c.1305.12.0079.1012-.016.1481-.5972-.3431-.56-.4433-.4416-.5055.085-.0463.2132-.0724.1394-.1754-.0606-.05-.12-.0994-.1754-.15a.6958.6958,0,0,1,.1754.15,3.17,3.17,0,0,0,.9047.5271l-.0364-.0551a19.5181,19.5181,0,0,0,2.4708,1.4043c-.0527.0306-.65-.1426-.0528.1607A30.0334,30.0334,0,0,1,195.0125,189.0914Zm3.8459,4.1839a1.6,1.6,0,0,0-.4058-.2231l.3811.0742-.6431-.2854c.23.06.4833.16.4411.0829-.2837-.1667-.5763-.3251-.8652-.5058-.1028-.0145.1713.1348.1417.167-.2168-.1184-.4375-.2344-.6587-.3517l-.016-.002-.0279-.0215c-.2679-.1423-.5371-.287-.8051-.4415.1265.06.049.0081.0211-.0342a3.126,3.126,0,0,1,.784.4757l.0439.0235a7.3489,7.3489,0,0,1,1.49.5947c.29.1767-.0469.2119.54.4909Zm.1228-.5975.0542.1141c-.4977-.1685-1.1025-.6039-1.23-.4772l-.2422-.256c.2033.1146,1.2873.5629.9437.3078-.3277-.2213-1.0416-.4634-.8591-.5113a9.16,9.16,0,0,0,1.6358.7513c.1113.1186-.3084-.1725-.3929-.1179a3.191,3.191,0,0,0,1.6249.5607c.0234.0732-.6763-.0688.0751.2135A13.4866,13.4866,0,0,1,198.9812,192.6778Zm14.0713-17.2373.0067-.03c-.0247-.0015-.05-.0031-.0718-.0027C213.0069,175.4205,213.0319,175.4287,213.0525,175.4405Zm-5.1939,12.45-24.33-16.7243a2.2616,2.2616,0,0,0-2.5972.0262l.338.27a.2865.2865,0,0,1,.1672.1724,4.3061,4.3061,0,0,1-.5263-.4274c-.0216.0159-.0442.03-.0654.0468.1824.1808.3711.3665.5242.5282.2134.2113.365.3808.3487.4436a1.9548,1.9548,0,0,0,.8161.5562c-.2327-.104.1354.363.5571.64l.1385.0473.38.6808.0386.0177-.0377-.0161.0286.0512c-.0174-.0208-.0314-.04-.0446-.0581l-.3694-.158a3.1684,3.1684,0,0,0,.6237.5213,2.1483,2.1483,0,0,1-.6968-.5525l-.3135-.1341a1.5329,1.5329,0,0,0,.1792.2636l-.6173-.4509-.0654-.028c-.4317-.1826-.9016-.3959-1.2442-.5072-.9222-.3746-.5887-.39-.8663-.5345l.692.3187c.3782.16.8679.4078,1.3077.6191-.675-.6389-.37-.7281-1.1577-1.3557l.4992.2785c-.6243-.6864-.6548-.4036-1.0746-.819-.0376.0463-.0749.0929-.1092.1428l-.1858.27a2.2667,2.2667,0,0,0-.2294.4264l.1533.0706c-.042-.0176-.0966-.038-.1572-.06-.01.0237-.0175.0477-.0262.0716a5.102,5.102,0,0,0,1.0746,1.0051,7.5523,7.5523,0,0,1,1.5948,1.445c-.126-.0913-.2554-.1826-.3834-.274l-.0626.0172.03-.04-.0447-.0329-.59-.2857.3284.1451c-.2908-.2411-.6879-.5706-1.0034-.8323-.192-.1607-.3529-.295-.4557-.3675l-.1184-.0535c.01-.0146.0525.007.1184.0535l.4859.2194c-.2382-.2362-.6161-.5463-1.0113-.8979a2.229,2.229,0,0,0-.0694.3045q.321.3039.6639.6106l.2835.1623c-.0493-.0135-.0992-.0274-.149-.0412.5413.4762,1.1266.9507,1.75,1.4139.067.0334.1333.0656.2009.1-.0165-.014-.0346-.0279-.0509-.0418a.5378.5378,0,0,1,.081.0573c.138.07.2764.1427.413.216.4362.2445.8591.5,1.2121.7321a2.3677,2.3677,0,0,1,.4385.3032c-.1239-.0928-.276-.1962-.4385-.3032-.3484-.2019-.8165-.4282-1.244-.63.1007.0793.2019.1586.3055.2381l-.6392-.3375c.56.4294.94.7039,1.2891.9248a11.4432,11.4432,0,0,0,1.1864.6045c-.1594-.0452-.1884.0394.1716.2829.1673.0457.0168-.0887.33.0883.362.2938.7991.6079,1.2514.9059.4673.2984.9143.58,1.2269.8136a15.2133,15.2133,0,0,1,1.756.6728,6.3687,6.3687,0,0,0,.5584.3334,4.1624,4.1624,0,0,0,.8476.3856c.214.1324.4505.2914.72.45s.5378.3207.7639.4631c.4519.2846.7323.4919.48.4357l-.735-.38c-1.0566-.2141,1.2066.6447,1.2515.7645l-.64-.1769-1.1606-.6865c-.4037-.1112-.6085-.1672-.76-.2016l.3379.2258c-.1412-.0784-.285-.161-.4282-.2448-.1079-.0213-.2025-.0339-.3556-.0539.1767.0139-.1035-.1586-.541-.3978l.1425.1261c-.8972-.4883-1.654-.8717-2.3877-1.2909-.3574-.2039-.6948-.3964-1.0167-.58-.3115-.1785-.6188-.3646-.9277-.5637.355.1269.0384-.0751.3291.0567-.66-.44-1.3708-.8459-1.4723-1.1228l-.8562-.4588c-.9832-.6178-.2131-.2913-1.0261-.8648a.8978.8978,0,0,1-.0926-.0085,1.2616,1.2616,0,0,1-.3251-.1981c-.0742-.0393-.1444-.0735-.1578-.034-.2012-.1494-.6576-.4848-1.1057-.8359-.2552-.1108-.5132-.2138-.75-.298l-.49-.1762a2.2512,2.2512,0,0,0,.708.7906l17.0989,11.7536c.16.067.3944.1688.3106.0835-.03-.0251-.06-.05-.087-.0727a.7152.7152,0,0,1,.087.0727c.1292.1075.2485.2151.0228.1456l.6059.4165-.0166-.0431.29.1574.28.1312.5571.2606c.1036.1016-.5251-.2031-.78-.2792l.4221.29c.1.0288.1575.03.0968-.0216.0943.06.3722.1787.11.1159.453.1048,1.07.3439,1.6119.5173a3.0723,3.0723,0,0,0,1.2.192l-.5462-.2013c.7515.2168,1.51.4514,2.2742.605l-.11-.0465c.383.09.8025.2069,1.23.3321.1069.03.2137.0656.3218.0924l.3134.0805.4369.1126c.2871.0725.5628.1392.81.1832a3.327,3.327,0,0,0,.4723.0366c-.0383-.027-.02-.0378.1719-.0017-.051.0052-.1135.002-.1719.0017.083.0584.43.1928-.1453.095a5.1607,5.1607,0,0,0,1.091.2563A2.2632,2.2632,0,0,0,207.8586,187.89ZM180.8878,172.67l.1822.2432c-.2356-.1952-.4527-.3926-.67-.59Zm1.6271,3.4059-.4334-.1731-.3788-.1388c-.0489-.06-.532-.32-.3912-.3106l.6018.3241c.2353.0391.5213.1093.7825.1627.3033.099.4671.3957.0867.2835l1.369.7983C183.47,176.7054,182.0244,176.0025,182.5149,176.0754Zm2.3256,1.71c-.0738-.0294-.15-.0605-.2107-.0814a2.5243,2.5243,0,0,1-.6224-.3241c-.0416-.1407.082-.0545.307.094.1125.0743.25.1643.4061.2493.0364.02.08.0413.12.0622.0344.0137.061.0219.0983.038.1135.0476.233.1013.3642.17A3.5512,3.5512,0,0,1,184.8405,177.7853Zm6.803,4.8225.2669.0193.4744.3495c.5182.2821-.0186-.1726.6136.1555.1466.0975.0968.16.162.267C192.5146,183.19,193.0142,183.3009,191.6435,182.6078Zm14.6,5.4663c.0147.008-.0048.009.0481.0252l.0525.0189.0082.0089.0163.0176c.0257.04.1247.1061-.3655.0084l-1.6036-.531c.3078.047.7727.1661,1.1744.2675.201.0495.3857.1.5288.125l.1425.0234.0071-.0026.02-.0014.0894.0138a.3774.3774,0,0,1,.0461-.0019.0529.0529,0,0,1-.0219.0085l-.0162.0023c-.0087,0,.0021.0041-.0584-.0079l-.0658-.0108c-.014.0038-.02.01-.0156.0186A.0636.0636,0,0,0,206.2432,188.0741Zm-2.4623-1.5531,1.0464.3291-.13-.0207Zm-.5242-.4814-.2923-.1083c-.0475-.23,2.37.9152,3.4,1.4023l-.305-.0877c-.8891-.3738-.4831-.1022-.64-.1465-.1231-.1268-1.8024-.7182-2.6865-1.1086C203.0529,186.0773,203.8363,186.32,203.2567,186.04Zm-4.0649-3.3226-1.27-.5607c-.4227-.1863-.8433-.3724-1.2388-.5636l.1371.0418A17.6606,17.6606,0,0,1,199.1918,182.717Zm-2.7971-1.8449c.35.1666.5936.2711.2859.207-.3232-.1406-.6659-.2782-.9715-.4216C196.9377,181.1648,195.19,180.3505,196.3947,180.8721Zm-.31.0786-.0974.1557c-.1185-.0974-.2448-.1929-.3538-.29Zm-2.11-1.8852c.6549.4021-1.0629-.1514-1.6615-.65C192.2386,178.1751,193.364,178.9246,193.9746,179.0655Zm-3.1148-.8014c.3028.1907.5982.3931.8957.5888-.5491-.3273-1.1062-.6357-1.66-.9469Zm-1.639-2.3788c.2339.1565.45.2483.4653.313-.0243.0045.1392.1249.2627.2288.1263.1038.2213.1912.0277.1283C189.8176,176.3737,189.0645,175.8464,189.2208,175.8853Zm-5.248-1.6621.0482-.0049c.1758.1305.3725.26.56.3889l.0066.0658C184.3831,174.523,184.1644,174.3741,183.9728,174.2232Zm.6795.7915c.36.2236,1.0089.5448,1.7416.9091l1.1323.57.2829.1471.2968.1764.0475.0292a.1036.1036,0,0,1,.1056-.0221c-.08-.044-.1513-.0821-.1992-.1045l.7564.3522c-.33-.2232-.7029-.4592-1.09-.6974-.3768-.2224-.7413-.4061-1.1089-.6041-.7289-.3863-1.4126-.7446-1.8707-1.0289a.8848.8848,0,0,0,.4623.0884l1.517.8413.7553.4188.8058.4967-.0363-.0558c1.9039,1.2276-.2257.0388,1.0809.9238.103.0678.2031.1349.2753.1836-.106-.07-.1961-.13-.2753-.1836a4.668,4.668,0,0,0-.4377-.2665l-.0017.1575a5.654,5.654,0,0,0-.5758-.3593,1.8815,1.8815,0,0,0,.5748.3836,3.1725,3.1725,0,0,1-1.1053-.6753c-.2274-.12-.4695-.2432-.7123-.3567A24.066,24.066,0,0,1,184.6523,175.0147Zm2.086,2.4575.746.2685.6655.4174Zm1.0871,1.22.0407.04a.1837.1837,0,0,1-.0407-.04l-.2469-.2442.5807.3781C188.0512,178.7791,187.8,178.6489,187.8254,178.6918Zm2.1089.5669-.4861-.2924c-.237-.1344-.479-.2758-.6668-.3656-.1387-.0711-.2617-.1339-.3595-.1821l.0931.1353c-.4416-.29-.3779-.2759-.0931-.1353l-.0274-.04c.178.089.42.2121.6976.3733l.3561.2142c.0924.0524.1839.1037.2713.1505a7.7148,7.7148,0,0,0,.766.3847C190.7928,179.7569,190.4488,179.5654,189.9343,179.2587Zm2.2364,1.19-1.0315-.6965c.4847.2943.9683.5868,1.4446.8886Zm.252-.8417.7761.3977-.5034-.5143a1.8383,1.8383,0,0,0-.6435-.2876.8212.8212,0,0,1-.3915-.0889c-.43-.3168-.7271-.489-.5968-.53l.42.3092c.17-.0582,1.0088.473,1.225.3916-.2869-.1491-.5388-.3-.8094-.45-.4261-.3992,1.475.7563.7486.1853.5033.2276,1.0054.4924,1.4432.7444.4343.2521.8795.4841,1.22.6432a2.8986,2.8986,0,0,1-.9269-.3542c-.37-.19-.73-.4112-1.0207-.5409.419.3282-.7079-.307-.4192-.0255a3.0464,3.0464,0,0,0,.7819.3986c-.0134-.0165-.0126-.0278.0163-.0288.03.0294.0192.0363-.0163.0288.1106.1362,1.4362.7115.2848.2772a5.1506,5.1506,0,0,0-1.17-.53c.2419.1537.5045.3.7752.4409s.5766.274.8641.4063c.5805.2644,1.1433.5194,1.6551.7919a7.6313,7.6313,0,0,1-.9639-.2995c-.3209-.1252-.6486-.27-.9734-.4234C193.5322,180.2438,192.95,179.8991,192.4227,179.607Zm2.9188,2.9149c-.3107-.197-.6942-.4341-1.17-.6913.04-.128.5894.3117,1.0064.5079.0239-.1691-1.3618-.785-1.9178-1.2305,1.0857.6548,2.0417,1.0462,2.3853,1.32a6.7,6.7,0,0,1,1.444.9319c.3369.1482.6763.296,1.0278.4407.0272-.0224.18.02-.0772-.1123l.5554.2487-.2982-.116.4149.3921c1.0962.5245.5421.0635.9249.2919-.0636.0742-.1213.118.5986.4375a13.2057,13.2057,0,0,1-2.6734-1.2084l.3208.0914c.1136.0752.2966.17.4271.2405a7.944,7.944,0,0,0-1.1485-.619,1.5576,1.5576,0,0,0,.6095.553,10.1827,10.1827,0,0,1-1.6443-.9625C195.8907,182.8764,195.6436,182.7075,195.3415,182.5219Zm5.1256,3.0388a8.3715,8.3715,0,0,1-1.23-.5255,11.6586,11.6586,0,0,1-1.1967-.645c.3047.1634.571.2416.8579.364l.85.3388A6.8041,6.8041,0,0,0,200.4671,185.5607Zm-1.2607,2.0489-.15-.146.3519.1948.6242.1566Zm1.6471.691.1-.0082-.5725-.2845a6.0916,6.0916,0,0,1,1.244.6C201.3715,188.5232,201.1135,188.4164,200.8535,188.3006Zm5.3994.4468.4524.0065a1.3134,1.3134,0,0,0-.4334-.1585s-.0051.0292.0649.0614c-.4048-.08-.8625-.2153-1.29-.3271l.1276.2748a8.6936,8.6936,0,0,0-1.3273-.4751c-.2792-.0748-.551-.1658-.7579-.2263-.2069-.0581-.3488-.0833-.3709-.0545.0006.0316.1323.1264.3668.2406-1.051-.3855-1.9955-.655-2.9716-1.0852-.4869-.2038-.9627-.3839-1.475-.63-.5229-.2711-1.0625-.561-1.64-.8893a5.3623,5.3623,0,0,1-.8548-.6087c.5614.33,1.0588.5857,1.5388.8188l.7059.33c.1156.0513.2333.1078.3463.153l.3319.117c.4435.1556.8935.3121,1.3718.494l.739.2879c.25.0838.5085.1758.7779.2783-.4742-.1708-.3908-.2737-.9927-.49l-.0986.0389c-.6129-.2807-2.4209-1.01-1.6477-.8592l1.5009.7148a8.1855,8.1855,0,0,0-1.5323-.7719,3.8241,3.8241,0,0,1-1.3158-.7552c.2467.089,2.5016,1.1217,3.3449,1.3561-.2166.0213.679.4847,1.4022.7394.0629-.0052.0107-.0458-.048-.0867-.0745-.0349-.1165-.063-.0982-.0782.0048.0158.0533.0471.0982.0782.317.1485,1.23.4212.6644.3514.96.2938,1.6252.4682,2.2276.678.2985.1.5923.2056.8817.2868l.592.2c.0046-.0513-.1065-.1331-.2426-.2066-.1123-.0472-.224-.0939-.3242-.138a1.8005,1.8005,0,0,1,.3242.138,3.3921,3.3921,0,0,1,.6818.3367C207.14,188.9765,206.7843,188.7553,206.2529,188.7474Zm6.8185-14.1516c-.0823-.0325-.1876-.0739-.3784-.1551a1.2673,1.2673,0,0,0,.3552.0382,2.2526,2.2526,0,0,0-.9258-1.3784l-3.7892-2.6047L207.9,170.35c.0763-.022.1056-.0487.1063-.0787l-.6257-.43c-.318-.0344.0847.1709-.0284.2472-.5506-.0714-.5123-.2457-1.0606-.2752.8133.37.3016.368.42.5528.067.0562.1351.1112.205.1638a.6114.6114,0,0,1-.205-.1638l-.0271-.0217c-.2557-.0007.0366.2942.147.4261l.0952.0086q-.1341.0495-.26.1054l-.3018-.1574c-.1533.0345-.5257.0022-.5223.0909.6782.2644-.5224.2484.2285.6025.0246.0081.05.0129.0746.02.0935.125-.4537.06-.4537.06l-.0962-.1487a1.2038,1.2038,0,0,0,.4461.12c-.1524-.18-.5488-.2334-.942-.3274.1071.1173-.57.0962.0207.3248a.247.247,0,0,0,.0656-.024c-.0234-.0707.009-.1236.0888-.1416-.0149.03.0045.0985-.0888.1416.03.0912.16.2125.4133.3319a.4813.4813,0,0,1,.1424.0632c-.0531-.0208-.0975-.042-.1424-.0632a14.9617,14.9617,0,0,1-1.6268-.374c-.1168.1906.0471.2811.5219.5763l-.5391-.0329a2.0135,2.0135,0,0,1,.6782.3847,1.14,1.14,0,0,0,.71.2483c-.0641-.0164-.171.098.0442.2176a.5352.5352,0,0,1,.2072.084.9831.9831,0,0,1-.2072-.084c-.1428-.0311-.282-.0281-.3593-.1011-.1321.0353.2709.2882.4895.3128l-.0355-.0692.2354.1928c.1277-.0141.0255-.0768.0815-.1062l.6089.14c-.0364-.0677.1314-.151.5678-.053l-.0165-.0169-.1731-.1352a.6152.6152,0,0,1,.1731.1352l.0234.0183-.0069-.0014a.7946.7946,0,0,0,.5307.2714,1.3668,1.3668,0,0,0,.3388.0836l.1374-.0246c.0455-.0289.07-.0725.1426-.0938.0656.0107.0736.1489.44.2419-.1184-.096.0977-.1568-.1305-.25-.0178-.0411.1827-.01.2408-.02-.0511.03-.0676.1228.2185.2026l.1017-.043c.24.2259-.5218-.0566-.3387.1633-.33-.1467-.4788-.0717-.56-.2214l-.1144.02a.2193.2193,0,0,1-.1374.0246l-.2075.0372a2.0408,2.0408,0,0,1,.5245.3235c.7932.1757,1,.5711,1.3762.4558-.1989-.09-.4713-.192-.6984-.2877a1.1207,1.1207,0,0,0,.2884.0714c.1653-.0185.1962-.0546.1647-.0984l.4061.1513-.4385-.0356c.1269.16.6227.2628.7861.3863l.3837-.0809c-.0052.0621-.2985.1126.1427.2261-.003-.0641.1007-.0739.2817-.0555-.0053.056-.0082.113-.0087.1707.0619.0069.2507.0913.2672.05l-.025-.0249.309.0963L211,174.836c.4425.1767.04.3621.3766.4216.404.2269.3782.3942.3618.5623-.16-.0909-.6017-.1907-.288-.2019a7.6269,7.6269,0,0,0-1.7837-.5416c-.0567-.0526-.044-.0952-.0973-.1469l-2.2817-.7238.0463.05c-.4527-.2223-.08-.1607.0348-.2459-.371-.3122-.9047-.0879-1.3822-.369a1.8774,1.8774,0,0,0-.82-.5176l.2222.0263a15.404,15.404,0,0,0-1.3526-.815l-.2244-.0125c-.0175-.1622-.3271-.3214-.568-.4579-.2347-.1422-.3911-.2685-.0257-.3412a1.7436,1.7436,0,0,0-.4626-.28,1.9528,1.9528,0,0,0,.3143.052,1.7234,1.7234,0,0,1-.795-.5989.3838.3838,0,0,1-.1765-.1477,1.3062,1.3062,0,0,1,.1765.1477,3.1317,3.1317,0,0,0,.5251.2109c-.4683-.226.2241-.1182-.4019-.4012,0,0-.0914-.008-.1015.0131-.06-.0572-.1169-.1185-.1745-.1778l-.04-.0235c-.2369-.0357-.1064.0622-.2056.0757-.0776-.2566-.9288-.53-1.1792-.8334a.7122.7122,0,0,0-.1125-.0231c.0247.0211.049.0421.082.0682-.1161-.0491-.14-.0739-.082-.0682-.508-.4364.6513.1243.313-.2677-.4022-.0581-.262-.24-.3081-.3177.4487.1557.5432.3034.6222.4319a.5625.5625,0,0,0,.466.298c-.2467.0425-.2014.1381-.2525.2268.1322.0822.3683.24.6567.4095l.0194.0024.0206.0211a5.733,5.733,0,0,0,1.2194.5542c.2239-.0926-.4544-.2241-.2355-.2934-.3561-.0453-.1695-.2079-.6334-.2478-.1152-.1575-.6667-.7-.4142-.4664a4.3555,4.3555,0,0,0,.9569.3881c-.4058-.15-.1979-.2513-.2686-.3213-.026-.0128-.0464-.024-.0759-.0378a.1614.1614,0,0,1,.0759.0378c.478.235.3926.3123.3125.383-.0877.0721-.178.1586.3679.372.1309-.0756.209-.1833.7321.0325-.46-.1733-.2488.1017-.5627,0-.1469.0941-.45.1851-.003.462.1657.0513.9327.3151,1.055.1762.4215-.0051-.1478-.2826-.0067-.3713l-.086-.005c.0671-.1128-.3969-.3963-.0247-.3681a.6318.6318,0,0,1-.4006-.2084l-.0143-.0036-.0136-.0266a.25.25,0,0,1-.0611-.12c.019.0406.04.0806.0611.12.0078.01.0186.02.0279.03l.4808.1192c.2652-.17-.1158-.4636-.54-.7984-.4163-.3315-.8647-.7174-.5838-.896-.657-.2868-.6462-.6723-1.2034-1.1251.2863.0344.203-.1547.0853-.402-.1235-.2448-.26-.5549-.1827-.6842l-.2373-.0746a.7127.7127,0,0,1-.0452-.442c.0037-.013.0106-.0245.0151-.0372l-3.7318-2.5652-.0281-.011a.2386.2386,0,0,1-.1756-.0253.4226.4226,0,0,1,.1756.0253l.0082-.0026-2.358-1.6209a2.2626,2.2626,0,0,0-3.1463.5828l-.1859.27a2.2627,2.2627,0,0,0,.5829,3.1464L209.3732,177.1a2.2563,2.2563,0,0,0,2.0153.2732c-.2928-.1525-.8652-.3419-.7241-.4031a3.98,3.98,0,0,0,.8612.3522,2.2508,2.2508,0,0,0,.9939-.8051l.1859-.27a2.2563,2.2563,0,0,0,.24-.4548c-.1059-.0317-.208-.064-.3033-.0977-.2629-.0988.2738-.1221-.1812-.2119.3924.0344.1453-.25.5006-.1006-.0006-.0483-.1352-.0833-.1879-.1334l.2979-.0017c-.4448-.15.1671-.13-.0277-.2811l.0587.0428A2.2773,2.2773,0,0,0,213.0714,174.5958Zm-6.3061-3.041c-.2037.0382-.23.175-.5024.1355-.045-.0892.2372-.1359-.1176-.25a3.1328,3.1328,0,0,0,.62.1146.85.85,0,0,1,.3108.01A2.567,2.567,0,0,1,206.7653,171.5548Zm.0477-.3888c.2239.1394.4925.0581.6614.2367C207.26,171.27,206.6,171.2823,206.813,171.166Zm1.6169,2.603c.2513.0355.2166.1445.41.2281A1.2057,1.2057,0,0,1,208.43,173.769Zm.4347-2.1371a1.1234,1.1234,0,0,1,.0539-.1068l.1577.138Zm-5.1541-.53-.0659-.0659.4739.1463Zm-9.132-9.0372.1889-.027a2.8591,2.8591,0,0,0,.0546.3876C194.7357,162.3019,194.65,162.178,194.5785,162.0642Zm1.0524,2.4565c.3131-.0141.3112-.2671.3375-.5521.0275-.365.1112-.7548.5712-.7494l-.1037-.0153c.3682-.3954.299.2109.8463.1852-.6332.0386-.4913.5319-.4775.8832a.3937.3937,0,0,1-.0664.2719c.2355.078.2468-.106.3795-.1581.1311.1241.255.246.3925.3678-.2341.4188-.3507.28-.522.108-.1577-.17-.3584-.3742-.6356-.0258a.9159.9159,0,0,0,.3174.2308c-.29.1748-.1842-.0988-.4966-.0172a2.7423,2.7423,0,0,1-.0033-.3142C195.9315,164.66,195.7771,164.7523,195.6309,164.5207Zm.6254,1.5378c-.3-.2592-.2612-.0317-.4574-.1159a2.9021,2.9021,0,0,1-.0228-.9685,4.2466,4.2466,0,0,1,.6662.6838l.8657-.03c-.1272.0792-.2262.1479-.1831.3037.0307.0284.0607.0555.0938.0883-.0258-.0079-.0443-.0123-.0661-.0182a.861.861,0,0,0,.0732.1278c.3565.1987.3485.0865.3425-.0469-.01-.1325-.0171-.287.27-.148.0991.1134.1977.226.3031.3346-.3812-.0691-.1964-.0848-.2672-.252-.3165-.1233-.2745.2928-.1181.5253-.15-.1166-.3028-.233-.4486-.3551-.4069.0745.5738.62-.2343.1828.4682.0921-.5549-.5416.0795-.3685a.4823.4823,0,0,1-.0277-.07.5622.5622,0,0,0-.45-.2077c.113.2563-.5357.3071.2523.6438C196.7014,166.3117,196.0766,166.086,196.2563,166.0585Zm.7568,1.5077c-.0728-.2306.6846.0816.2335-.2925a1.0021,1.0021,0,0,1-.5639-.2452,2.2235,2.2235,0,0,1,.942.266c.0922.1756.203.4879-.1515.4815l.4944.1533c-.0686.1666.1517.3717.3628.5753.2237.1932.4442.3808.431.5159C198.2274,168.5825,197.808,168.1569,197.0131,167.5662Zm2.3418-2.3679a.5444.5444,0,0,1-.2464.0472.435.435,0,0,1-.0937-.1708c-.0727-.26.1584-.5047-.3208-.6816-.2316.0483-.4412.1149-.5495-.16a6.27,6.27,0,0,1,1.0219.2034c-.17.0834-.0594.2439.0622.3963C199.3418,164.9829,199.477,165.128,199.3549,165.1983Zm1.63,5.4412.171.0614c.0784.0714.1618.1364.2433.2055C201.26,170.8188,201.12,170.7331,200.9847,170.64Zm1.5867.5732c.0008-.0073.0372-.0012.0892.01A.7836.7836,0,0,0,202.5714,171.2127Zm4.3158,2.768c.01.0155-.0089.0238-.1.0149.0251-.0055.067-.0084.1-.0149-.02-.0316-.1709-.0952-.1458-.1192l.1853.0743C206.9491,173.9617,206.9237,173.9735,206.8872,173.9807Zm.9818,1.196.0848-.0328c-.054.06.1569.1854-.2208.1248l-.3875-.3333C207.83,175.0348,207.4691,175.0444,207.869,175.1767Zm-.2543.2425c-.0344-.0065-.0494-.01-.0226-.0114l.0226.0114c.1149.0221.4761.0774.4677.1836A1.23,1.23,0,0,1,207.6147,175.4192Zm.6393-.0213.5162.0778.1757.1434A4.6885,4.6885,0,0,1,208.254,175.3979Zm1.925.7371-.4364-.16c.0247-.0707-.5416-.3418-.0473-.2719-.1768-.049-.66-.305-.6014-.1563l-.1226-.2031a1.6256,1.6256,0,0,1,1.0491.6214c.2433.0108.2069.0286.4614.1382Zm1.106-3.1017.1686-.0319c.1071.1066-.2225.0277-.3944-.0066-.0018.0317-.0583.0757.0583.104.4.1567.3822-.0631.5558-.0773l.1065.1223c-.4417-.1049-.2057.1169-.714.0168-.0073-.0674-.238-.208-.0571-.2534Zm-1.4648-.69c-.078.02-.2517-.0415-.2817.019a2.48,2.48,0,0,1-.1477-.2241Zm.2886,1.628c-.1072.0061-.3078-.1246-.4423-.0756l.0642.0307-.0772-.0291.013-.0016-.272-.13c.3191.041-.0764-.1257.1472-.153.2143.0648.4738.1157.2708.1675.1687.1753.4241.03.5569.0648Zm.6067-1.0484q-.31-.2076-.5782-.417a3.12,3.12,0,0,1,.8625.1787C210.9156,172.7528,210.7754,172.8646,210.7155,172.9234Zm.359.7863c-.1922.0564.1565.09-.18.0763-.0691-.121-.18-.258.1461-.28-.0129.1074.4871.2455.7806.3989-.1093-.0083-.3328-.027-.1859.0425C211.38,173.9644,211.2146,173.7789,211.0745,173.71Zm.392.6818c-.0478-.0179-.0949-.0355-.1461-.0542a.4229.4229,0,0,1,.1461.0542,1.69,1.69,0,0,0,.5483.1506C211.8619,174.642,211.6386,174.4815,211.4665,174.3915Zm.4,1.4927a.5436.5436,0,0,0,.2117-.0011l.3585.2155C212.1191,175.963,212.0691,176.0556,211.8664,175.8842Zm.1528-.7242.33.2648c-1.3305-.3152.0532-.25-.1127-.3595l.21.1093Zm.6823-.0344-.2976-.2053c0,.1278-.3611.0215-.6007-.0112a.5136.5136,0,0,1-.1464-.0078.6034.6034,0,0,1,.1464.0078,1.9325,1.9325,0,0,1,.514.0273l-.0194-.1027C212.3683,174.9316,212.8844,175.0366,212.7015,175.1256Zm-3.9256-7.2768.0384.0265.0051-.0006Zm-1.3233,23.9238c-.3861-.1521.4092-.1842-.53-.3365-.1973-.0207-.6842-.1337-1.2-.2468-.6414-.1435-1.3284-.3408-1.71-.3895l-.0092-.13a3.4627,3.4627,0,0,1-.6224-.1581,6.9644,6.9644,0,0,1-.6364-.2893c-.1-.0517-.1972-.1042-.2881-.1559l2.1793,1.498c.2855.0718.6564.1438,1.0079.2a2.3657,2.3657,0,0,1,1.0657.3456c.7172.016-.5368-.3222-.6016-.4791.4372.1441.895.2769,1.3579.3845a2.2386,2.2386,0,0,0,.319-.2066l-.2494-.0972Zm-1.017-.2261c.0079-.0937.3981-.0174.63.0752A1.506,1.506,0,0,1,206.4356,191.5465Zm.3216-21.8284c.1527-.0646.0506-.2109-.09-.3676l-1.2833-.8822c-.0639-.0023-.1326-.0076-.1958-.01.0967.1556.7156.4436.453.5614.3328.0754.191.2749.6666.3063C205.9007,169.2789,206.4031,169.6194,206.7572,169.7181Zm-18.48,7.2047.3916.24.2245.0254c-.233-.1358-.4617-.2688-.6344-.3638A.5758.5758,0,0,0,188.2775,176.9228Zm37.4066-38.38a3.6449,3.6449,0,0,1-.2229.6563l-.0041.0565a.3144.3144,0,0,1,.193.3916,4.816,4.816,0,0,0,.554-.6082l-.01.0051.0165-.0141.0382-.0489c.0674-.1245.1371-.401.2358-.4665a.1821.1821,0,0,1,.0224.1279l.0859-.1151.0012-.0081.0039.0013c.093-.1251.1857-.25.2779-.371a1.1738,1.1738,0,0,1-.011-.1325c-.0437.0488-.089.1044-.136.1685l.1362-.1917a.6857.6857,0,0,1,.0105-.1111.8733.8733,0,0,1-.2015.0912.5018.5018,0,0,0-.0257.1266.2888.2888,0,0,1,.0224.0875.1282.1282,0,0,1-.0224-.0875c-.066-.1593-.2363.0183-.3293,0-.077.1531-.0744.52-.175.5408l.0521-.4465a.6576.6576,0,0,1-.4613.3265c-.0051.0165-.0077.0287-.0137.0437A.27.27,0,0,0,225.6841,138.5432Zm.6683-.0559.0036.0554-.1177.19-.0037-.0562Zm-.3828.617-.1963.1583-.0016-.0544Zm-.2342-.5828a.89.89,0,0,0,.0521-.2671.2691.2691,0,0,1-.0221.0327c-.03.0817-.0555.1661-.08.2513Zm-19.4182,51.9914-.41-.0816-.2777-.0612c-.0942-.0211-.1859-.0473-.2742-.0728a5.07,5.07,0,0,1-.6128-.21l-.0392-.0085c.0632.0583.0453.0914-.0307-.0066.0134.0036.019.0037.0307.0066a.3517.3517,0,0,0-.0319-.0256c.0221.0113.0455.0226.0711.0341.279.0562-.0805-.1782-.1778-.22-1.055-.2577-.0927.1817-.9252-.0149-.4171-.1458-.9654-.3582-1.5226-.5319l-.8268-.2562c-.2019-.0717-.3915-.1353-.5718-.1934l.5527.38a11.7009,11.7009,0,0,1,1.4385.6786,7.4066,7.4066,0,0,0,.7431.3518,7.696,7.696,0,0,0,1.0344.2807l1.7023.4414,1.4008.3886c.1655.0474.328.0915.4906.1357a2.2755,2.2755,0,0,0,.1754-.221l.1126-.1639a8.5894,8.5894,0,0,0-1.7051-.36C207.18,190.7021,206.8345,190.6167,206.3172,190.5129Zm-3.2609-.552a.5735.5735,0,0,0-.0651-.0412l-.0356-.008-.05-.0388c-.2044-.1081-.5007-.2519-.2782-.2147l.2782.2147c.0318.0169.0607.0325.0858.0468.189.04.3784.0916.57.12C203.3913,190.0246,203.2234,189.9865,203.0563,189.9609Z" transform="translate(-154.8079 -131.6084)"/></svg>