<svg xmlns="http://www.w3.org/2000/svg" width="30.5037mm" height="35.143mm" viewBox="0 0 86.4673 99.6179"><defs><style>.a{fill:#fff;}</style></defs><path class="a" d="M263.9,219.6674c-.0942-.0706-.1572-.0772,0,0Z" transform="translate(-228.8923 -131.6084)"/><path class="a" d="M308.6712,171.4731l-.0016-.0884a1.7531,1.7531,0,0,1-.1928-.1822Z" transform="translate(-228.8923 -131.6084)"/><path class="a" d="M308.8065,160.2514l-.0052-.0267C308.7782,160.2643,308.7493,160.3006,308.8065,160.2514Z" transform="translate(-228.8923 -131.6084)"/><path class="a" d="M309.3214,203.2452c-.0345.0146-.0355.0349-.0263.0583A.0951.0951,0,0,1,309.3214,203.2452Z" transform="translate(-228.8923 -131.6084)"/><path class="a" d="M240.6026,206.6873l.0584.026c-.0367-.0389-.0766-.0746-.1124-.1182Z" transform="translate(-228.8923 -131.6084)"/><path class="a" d="M240.9213,206.72c.25.2094-.1307.05-.26-.007a2.5472,2.5472,0,0,0,.8931.59C241.6111,207.2,241.0149,206.8759,240.9213,206.72Z" transform="translate(-228.8923 -131.6084)"/><path class="a" d="M234.5046,164.4129l.0476.1453A.6931.6931,0,0,0,234.5046,164.4129Z" transform="translate(-228.8923 -131.6084)"/><path class="a" d="M315.18,204.3913l.028.4153A1.8387,1.8387,0,0,0,315.18,204.3913Z" transform="translate(-228.8923 -131.6084)"/><path class="a" d="M234.387,172.0486l.1873.0836A.2252.2252,0,0,0,234.387,172.0486Z" transform="translate(-228.8923 -131.6084)"/><path class="a" d="M308.4768,171.2025l-.0731-.1054A.4883.4883,0,0,0,308.4768,171.2025Z" transform="translate(-228.8923 -131.6084)"/><path class="a" d="M297.3988,153.5251a.2437.2437,0,0,0,.0092-.1591l-.0323-.02Z" transform="translate(-228.8923 -131.6084)"/><path class="a" d="M239.9838,154.1784a.1909.1909,0,0,0,.0677.0454l.1678-.2507A1.0361,1.0361,0,0,0,239.9838,154.1784Z" transform="translate(-228.8923 -131.6084)"/><path class="a" d="M281.8319,143.6c-.0248.0107-.0726.0061-.087.025a16.3757,16.3757,0,0,0,1.88,1.1655l.1713-.1666Z" transform="translate(-228.8923 -131.6084)"/><path class="a" d="M263.64,136.8322l1.9338-.5823c-5.3585,3.3394-8.14,4.41-12.6309,7.4335l.2089-.2363c-.7345.3-.5992,1.4218-8.7557,4.6659l-.0231-.04a2.0828,2.0828,0,0,1-.7921.431l1.4419-.5053a22.9774,22.9774,0,0,1-2.3139,1.7615c-.2462.083-.3692.0443-.4278-.0073l-2.5083,1.5375-.93.192c-.6976.59-.0276.931-2.2859,1.8293,1.0038-.0744-.9022.824-.5337.8683-.1322.0138-.4113.0818-.6408.1277a32.17,32.17,0,0,0-3.9493,2.74s5.307-2,6.8443-2.3476c-1.8032.9039-.4331.312-.0157.2408l.0616-.1613c1.0982-.5108,1.2363-.2716,1.7968-.5067a.1818.1818,0,0,0-.0687-.0488l-.0482.07c-.0737-.0138-.0615-.06-.0195-.1159-.0422-.0438-.0172-.1119.2755-.2618l-.04.0565a16.5978,16.5978,0,0,1,1.5293-.8566l.1219.196c.5545-.8275,5.54-2.4247,6.5871-3.0124,1.19-.351,2.3042-1.4134,3.6809-2.04,2.1154-1.1356,1.2079-.3088,2.3505-.7386,1.3757-.6272-.3982-.0807.1167-.396l1.7218-.6235c-.8935.5478-.3316.3841-.1209.3655,1.3691-.7453,3.7088-1.6076,3.8939-2.2459,1.9311-.86,2.0277-.7032,2.82-1.1342-.3036.0783-.8607.312-.9116.234.8308-.2451.3235-.2447.0024-.1116,1.0126-.8155,6.193-2.6065,6.1741-3.1793l.0461.08c.07-.4752-.5274-.5521.1454-1.1806l.6024-.1536.7-.5908c.5846-.1963.3773.039.4.0789.189-.1411.3956-.2812.6158-.4205l.34-.2082.24-.1393c.31-.1739.6426-.3355.961-.4849.3629.2486.707.4921,1.0292.6992a7.0078,7.0078,0,0,0-.9434-1.73l.9126.766.4512.3839.5576.429c.7266.5449,1.3586.9534,1.5708.8852l.6082.75c2.2763,2.0742,1.962.8025,2.9025,1.5746l1.1208,1.0807-1.2988-.7574c1.2068.9167,1.6663,1.3237,2.5823,2.1352l.0165-.0022c-.0639-.0549-.1011-.097-.0995-.1221l.1865.0971a3.9444,3.9444,0,0,1,1.9061.75,27.0252,27.0252,0,0,1,4.3151,2.6917l.7108-.0331,1.4474,1.1-.1528.2648c-1.521-.8994-4.459-2.4612-6.4335-3.5831l-.1046.1009c1.1666.6729,2.561,1.3216,3.3163,1.7929.3453.27,1.1475,1.1.3468.876l.87.1569a75.8229,75.8229,0,0,1,7.832,4.8651l-.2759-.3366c.8509.3872,1.6984.7751,1.7983,1.12a45.6489,45.6489,0,0,1,6.235,4.3276l.5268-.1118c.5052.3147,1.0054,1.232,1.5083.94l1.18.4976a9.4013,9.4013,0,0,1,1.9228,1.1432l0,0,.004.0034a.1415.1415,0,0,1,.0163.0585l.0142-.0264c.2408.3185.2234-.2186.5123.147l-.0133.041c-.128.1514-.0137.1289.1224.1536.1361.0169.294.0875.2532.2817l-.0646.0479a.1256.1256,0,0,0-.0646.0736l-.1292.2577-.2584.5155c-.2965,1.86.2217,2.1786.2234,4.8739-.1841,1.2943-.625,1.92-1.0165,1.0624a4.695,4.695,0,0,1,.5361,2.1c-.1948.2406-.2361.074-.4112-.2715-.2283,1.3887.176.8567.1645,1.9038.367.3042.9512.6548.9749.995l.1145-.4055a11.3392,11.3392,0,0,1,.1034,3.6087l-.1846-.0486.0935,1.372-.236.0863.0732,1.9587.0636-.2686a17.3371,17.3371,0,0,1-.0108,2.8335l-.1311-.0315c-.409,2.4364.1269,4.4449.17,7.298l-.2677-.3746c-.266.9719.412.2664.279,1.4247l-.3288.0579c.4321,1.02-.0918,1.3182-.2552,2.0206l.4307-.3283-.0908,1.3233c-.1428,1.4573-.5442.8943-.77.6812l.3395.9922-.38.1938c.4424.725-.0712.725.1662,1.996-.1438.1045-.2263-.2168-.2876.2151l.5363,2.0953-.2377-1.2637.5558.1537c.4217,1.3162-.0606,1.7831.0944,2.7232l-.1651-.6476a6.3457,6.3457,0,0,1-.2246,2.4819c.1033-.2685.2567-.679.3294-.0578a.9223.9223,0,0,1,0,.1423c-.0034.0269-.01.0243-.0188.0348a.1841.1841,0,0,1-.0753.0273c-.06.012-.1322.0208-.1629.0631a.5326.5326,0,0,1,.3473.2148.6075.6075,0,0,1,.1066.3933.7591.7591,0,0,1-.2332.063.373.373,0,0,1-.0929-.1047c-.0079.0737.0221.1666-.1608.1694a2.9273,2.9273,0,0,0-.2376-.338,1.0312,1.0312,0,0,1,.0706.4116.1714.1714,0,0,0-.037.0022.1392.1392,0,0,0-.0567.0231c-.0682.0358-.1358.0763-.2016.1188-.1317.0851-.2567.1781-.3668.2566-.22.1569-.3811.2558-.4182.1169l.2388-.233-3.7808,2.0682-.2165-.2551c-.1423.6052-2.1182,1.0242-1.7132,1.4433-.858.1394-2.6623,1.7886-2.567.9972-2.4758,1.3726-3.4934,2.6685-6.6285,4.12-1.3318.1439-4.1524,1.9749-6.0935,3.0295-3.6256,2.3545-5.94,3.9258-9.6742,6.2822a11.8408,11.8408,0,0,0-3.2878,1.5948l-.8374.5469-.4189.2794-.2094.14c-.0286.02-.084.0547-.0905.0616l-.0185.02a1.8625,1.8625,0,0,1-.3542.3019.727.727,0,0,1-.3229-.3118c-.0126.1082-.3927.0043-.6469-.0269-1.4047-1.3627-4.2071-2.3058-6.2806-4.0408a10.0253,10.0253,0,0,1-1.0847-.4144.4023.4023,0,0,1,.1829.4078c-.5915-.496-2.0077-1.12-1.7225-1.3948l.1869.0628c.2871-.2737-2.0875-1-2.6577-1.71l.1992.5858-1.2131-.78.3732.1251c-5.8712-2.3447-7.6728-4.8785-13.1747-7.1005.8972.0044-1.12-.3768-.9433-.8362-.9773-1.27-2.4432-1.2582-3.5771-1.7246-.012.0206-.0387.0375-.1176.0352l-1.81-1.1122c1.406.1018-1.5792-.3232-.309-.1936-.8318-.577-1.7274-1.1552-2.6694-1.7359l-1.22-.743c-.15-.0944-.303-.1855-.46-.2761l-.0549-4.8263c-.0184-2.1216-.02-4.2414.0476-6.279l-.1581.2811a34.5158,34.5158,0,0,1,.0909-4.8814c.252-1.2344-.4014-2.6983-.4265-3.1769-.2723-1.3521.269-2.582.2412-2.0016-.0754-1.4458-.6369-2.8053-.396-4.8113.5212-.6856-.5114-5.4732.0758-5.5335l-.0494-.0219c.4135-2.5694-.29-4.9932.0844-7.76a.6475.6475,0,0,1,.0826.1465l-1.7817-5.6316-1.9609,1.6039-1.5923,4.8814.3453,13.2287-.6227,10.5582.1286,17.657,10.4153,5.9186,1.81.5343c3.9858,3.1943,10.0379,5.6613,14.4728,8.8593l.288-.2735a3.3941,3.3941,0,0,1,1.4258,1.1463l14.8022,8.3308,7.4262-4.3894q2.9368-1.7363,5.8292-3.4124c3.8529-2.2284,7.6325-4.35,11.2966-6.2869,1.1975-.4007,4.3833-2.4111,5.357-2.6659,1.6887-1.2439,3.49-2.4169,5.3236-3.5346.9169-.5588,1.8419-1.1038,2.7651-1.637l3.8-2.17-.2176.174,1.3-.7867-.0423-2.0981c.0312-.1439.0764-.1529.1057-.0284q-.0632-.7887-.0967-1.65l-.0279-.5348-.016-.5019c-.014-.6818,0-1.4113.0295-2.1563.0584-1.49.1761-3.0423.2447-4.4l.0415.1585c.0274-6.2651-.0672-12.3527-.1587-18.3959-.04-3.0216-.0795-6.0321-.1193-9.0481q-.0144-2.262-.0286-4.53.0038-3.1386.0077-6.2942l-3.589-2.0984-2.0828-1.2462q-2.0844-1.2567-4.1766-2.56c-6.0158-4.1907-13.8048-7.6973-20.8048-12.3364a35.5339,35.5339,0,0,0-3.72-2.3562c-.9693-.57-2.06-1.1992-3.1919-1.8446-1.734-.9861-3.5262-2.0053-5.2554-2.9885l-2.4526,1.4418-1.1794.6952-.5733.3462-2.0539,1.252C264.7614,136.0915,263.8977,136.64,263.64,136.8322Z" transform="translate(-228.8923 -131.6084)"/><path class="a" d="M242.2812,149.7529l.0557-.0342C242.2541,149.5813,242.2,149.6825,242.2812,149.7529Z" transform="translate(-228.8923 -131.6084)"/><path class="a" d="M273.32,138.147l-.055-.0365a1.6915,1.6915,0,0,0,.2053.38C273.42,138.3762,273.3643,138.2584,273.32,138.147Z" transform="translate(-228.8923 -131.6084)"/><path class="a" d="M255.4423,147.37c.8981-.4606.9192-.5176.7643-.5023A4.0889,4.0889,0,0,0,255.4423,147.37Z" transform="translate(-228.8923 -131.6084)"/><path class="a" d="M235.3021,154.1349c-.4652.254-.2425.2358.08.1728l.7786-.483C235.8849,153.94,235.5855,154.0156,235.3021,154.1349Z" transform="translate(-228.8923 -131.6084)"/><path class="a" d="M238.2618,154.9406l-.078.1952C238.4378,154.9524,238.4032,154.9176,238.2618,154.9406Z" transform="translate(-228.8923 -131.6084)"/><path class="a" d="M301.5054,135.6025c.0172-.0906.0332-.183.0459-.2719-.1005.08-.143.0744-.1723.0628-.02.056-.0405.1194-.0605.1862A.2781.2781,0,0,0,301.5054,135.6025ZM254.246,173.3534c-.1029-.0935-.2182-.1889-.3511-.2887-.0053.0508-.0068.1016-.0086.1524.0573.0127.1267.03.2207.0568ZM274.73,159.0905l-.149-.1425a6.3453,6.3453,0,0,1,.9265.3054l.0829-.0445c-.1327-.0485-.1616-.0674.0416-.0223l-.0416.0223c.2726.1.9888.3252,1.111.3982.0592-.03.6214.1019.4174-.0225-.2382-.1427-.8273-.1853-1.077-.3817.3019-.0369.5809.2695.8891.2329l-.0607-.0487.1874.1492c.152-.0177.8423.2367.7705.0733l.4124.2369c-.1369-.1585,1.2716.2428.5174-.1215l.9561.2335c-.446-.4555-1.6823-.3232-2.4812-.7339.0115.1716-.3972-.006-.6557.0258l.1022-.0133a5.0864,5.0864,0,0,0-1.2491-.414l.1-.0114a4.66,4.66,0,0,0-1.2839-.4076,1.1442,1.1442,0,0,0,.6786.2537c.9582.3387-.5864.061.6128.3753l-.6476-.1548c-.0344-.104-1.0707-.4393-1.0079-.5458-.505-.0639-.476-.2169-.9606-.2846.4429.2.0413.069-.1879.0155a2.4294,2.4294,0,0,0-.1992.3872c.1461.0631.3023.1321.4771.2124C272.8657,158.5441,273.7905,158.7408,274.73,159.0905Zm6.2928-2.4263-.0007.0011.01.0025Zm21.32-17.2659a.0633.0633,0,0,1,.0333.0283l.0191-.0139.0726-.1017.0024-.0072.0078-.007.1011-.1417C302.4976,139.2374,302.4069,139.3393,302.3421,139.3983Zm-.5786-2.1616.0776-.1274.0175-.0045c.235-.374.3366-.1929.507-.4991a.1256.1256,0,0,1-.0591-.0142c-.01-.0084-.0261-.0079-.033-.02a.1037.1037,0,0,0,.033.02.1246.1246,0,0,0,.0654.0034c.0129-.0239.0262-.05.04-.0806.0309-.0222.0615-.0415.092-.06a.4337.4337,0,0,0,.0208-.0992.6546.6546,0,0,1-.0324-.1084c-.0067-.0011-.0148.0016-.02-.0022-.0069-.0067-.0174-.0036-.0226-.0146a.0543.0543,0,0,0,.0226.0146.0524.0524,0,0,0,.02.0009c-.008-.0363-.0146-.0751-.021-.1142-.1359.1381-.2894.3312-.41.4534.0775-.1173.1224-.2147.1062-.2757-.0265.0244-.0487.0439-.073.0659l-.0208.0494c-.0015-.0108-.0006-.019-.0016-.0293-.3465.31-.5036.3981-.8825.7644a.1239.1239,0,0,0,.1308-.047.0954.0954,0,0,1,.0024.0716c.0625.0214.0589.1.0518.1834.0573-.1064.1119-.18.16.0029-.0193.0314-.0154.086-.0348.1163.0507-.0589.0788-.0763.0933-.0676a1.92,1.92,0,0,1,.17-.1422c.0182-.0357.036-.0694.0529-.0992ZM301.9377,140c-.0065.0279-.0144.0561-.0224.0842l.1658-.2321A1.5047,1.5047,0,0,0,301.9377,140Zm-47.4271,33.61c-.152-.0409-.297-.0774-.4166-.0975-.0672.0611.5347.39.9478.6341C254.8452,173.9535,254.6823,173.78,254.5106,173.61Zm-.5213,4.617.8814.5351-.3758-.1635c.52.274.1718.2127.7629.4915.2906.0665.4628.1256.5285.0716l.185.1141-.0678-.1135c.1614.2214.8877.4726.77.524.501.2346.9546.439,1.3914.6308l-2.5742-1.7695a2.2538,2.2538,0,0,0-1.7581-.345c.0372.0307.0366.04-.039.0092q-.1038.0243-.2051.0582c.2056.102.4046.1941.5847.2623C254.9654,178.9725,253.8917,178.2744,253.9893,178.2267Zm.3393-3.9759c.22.0774.4181.1435.5856.1969-.1022-.0929-.1919-.1811-.2659-.2619a6.1055,6.1055,0,0,0-.68-.2718,2.2751,2.2751,0,0,0,.0809.2357C254.1431,174.1839,254.24,174.2194,254.3286,174.2508Zm42.9864-37.293-.0329-.1137C297.2294,136.955,297.26,136.9723,297.315,136.9578Zm2.1994,4.237c.01-.02.02-.04.0291-.0614l-.02-.03A.6334.6334,0,0,0,299.5144,141.1948Zm-44.4962,33.237a1.4593,1.4593,0,0,0,.1759.1062q.1263.042.1922.0584c.0519-.01.037-.0745-.0686-.1863a3.2906,3.2906,0,0,1-.3247-.0922C255.0513,174.3815,255.07,174.4253,255.0182,174.4318Zm-1.1317-1.0583c.0019.0577.0052.1151.0115.1723.029-.0057.05-.0163.0511-.0385C254.0538,173.51,253.979,173.4451,253.8865,173.3735Zm45.8315-35.8119a1.7219,1.7219,0,0,1,.0609-.1942c-.0567.0428-.1186.0958-.1752.142A.0992.0992,0,0,0,299.718,137.5616Zm-47.594,48.85c.0638-.0832.0752-.2558.2134-.2164a2.4384,2.4384,0,0,1-.2655-.663,2.2657,2.2657,0,0,0-.4617.0516.9563.9563,0,0,1,.0824.2451c-.3521-.322-.29-.045-.069.2388C251.9617,186.4822,252.069,186.49,252.124,186.4111Zm51.2574-49.8817a.689.689,0,0,0-.0839.1668c.0107.0922.0324.1944.036.2881a.3084.3084,0,0,0,.0581-.0615l-.1159.271h0a.6081.6081,0,0,1,.0758-.1458,1.6851,1.6851,0,0,0,.1029-.3838l-.0436.038.0462-.0877C303.4568,136.5459,303.4366,136.5061,303.3814,136.5294Zm.8186-.4414-.0394.0339c.0011.02.0017.04.004.0629.02-.0064.0383-.0106.0567-.0147.0212-.02.0445-.043.071-.07C304.2618,136.0979,304.2311,136.0939,304.2,136.088Zm-.2741.8.073-.0581.103-.1092c-.0122-.0393.0477-.1312.096-.2063-.022-.015-.0437-.0312-.0655-.047l-.0342.0242a.286.286,0,0,0,.0294-.0279c-.0214-.0156-.0427-.0314-.0639-.0478-.0926.07-.2015.16-.25.1864.0872-.11.1458-.1776.1947-.23-.0189-.0154-.0377-.0322-.0565-.0484l-.0563.0584c.02-.0172.0393-.0342.0557-.0511a1.5108,1.5108,0,0,0-.1921.2538l.0636-.0284c-.0476.0343-.065.0406-.0636.0284l-.099.0449-.1082.1143.2543-.1547c-.3286.4113-.075.2571-.0174.3278l-.272.3013a1.2644,1.2644,0,0,0,.0162.1341,1.3143,1.3143,0,0,0,.1719-.2074c.1574-.0951-.08.3664.21.0848.0845-.0967.1829-.2415.2646-.353l.0379-.2208-.2185.1733C303.9656,136.8643,303.9377,136.8894,303.9259,136.8884Zm-7.5858-2.1829-.0815-.1947c-.1862.1961-.3677.6706-.5313.466-.0057-.1074.1087.007.1372-.273-.1113.1747-.1721.0344-.25-.0922l-.2886.4363c.0758.0889.14.1936-.0185.4192A9.4347,9.4347,0,0,0,296.34,134.7055Zm-.7569.3988.1732-.0585-.1968.1061Zm6.9684,3.0575.2152-.0247c-.0774.1178-.373.121-.5629.6236.1805-.1444.1626.1832.4268-.1885l-.0771.117c.0428.1506.4142-.4977.3872-.1992.1331-.1868.2007-.3329.13-.325-.0955.0575-.2811.31-.394.3091.17-.3158.0664.1009.36-.43.146-.2641-.35.0714.0945-.4445l.0431.15a2.1908,2.1908,0,0,1,.1615-.2042l-.21-.0456C302.89,137.6825,302.7825,137.9531,302.5516,138.1618Zm-.2742.9722c-.087.08-.1739.1642-.2608.2485-.0177.2076-.0551.2565-.1.2725l-.0258.0807c.0781.0422.0745.1453.0486.2585.1473-.1638.2492-.2894.1314-.2377a1.3811,1.3811,0,0,0,.1275-.1046A3.9438,3.9438,0,0,1,302.2774,139.134Zm-2.7-3.7576c.0065-.0474.0122-.0947.0172-.1412a.4548.4548,0,0,1-.0416-.1152c-.06.0556-.128.1284-.1921.1948a2.6108,2.6108,0,0,1-.0426.3375A1.0822,1.0822,0,0,0,299.5778,135.3764Zm-9.7932,21.6982,0,0-.0214-.0076Zm11.222-15.968c-.0272.0018-.0538.0237-.08.0794Zm-.6953-3.5211a.0832.0832,0,0,0,.0337,0,.1493.1493,0,0,1-.0338-.0348.2408.2408,0,0,0,0,.035Zm1.6951-.5434-.205.208c.0235-.0161.0471-.0338.07-.0475a.1458.1458,0,0,1,.0442.0488C301.9762,137.1762,302.037,137.068,302.0064,137.0421Zm-2.784-1.5968c-.0472.036-.0821.0479-.0928.0106-.2183.1927.0249.1454-.1466.2883C299.0668,135.7632,299.1428,135.5907,299.2224,135.4453Zm-1.7749-.94c-.0435.0754-.0953.17-.18.3137a.4465.4465,0,0,0,.1421-.0814C297.4165,134.6754,297.4279,134.6008,297.4475,134.5052Zm4.8213,2.977a2.4027,2.4027,0,0,1-.0867.4065l.0085-.0037a.8558.8558,0,0,1,.123-.1771,4.1684,4.1684,0,0,1,.1622-.5458,1.7731,1.7731,0,0,0-.1216.8271l.0348-.0577a2.4378,2.4378,0,0,0,.1432-.3685.289.289,0,0,1-.0269-.0446l.0581-.1649a.5325.5325,0,0,1-.0312.2095l.0054.0094a2.72,2.72,0,0,1,.1031-.2555c.01-.0541.02-.1071.0258-.1541-.0052-.0113-.01-.0184-.0154-.03a.663.663,0,0,0-.1384.1078c-.0337.071-.0734.1424-.0734.1424a.3634.3634,0,0,1,.0734-.1424c.0559-.1174.0977-.24-.0625-.0769A1.0241,1.0241,0,0,1,302.2688,137.4822Zm.0047,1.9573.3275-.3685a1.1475,1.1475,0,0,0-.1845.009C302.4076,139.4423,302.3254,139.2513,302.2735,139.44Zm1.0021-2.2454-.0018.0041.0018-.0042Zm-.4445-.2353-.0037.0128c.0117-.0189.0215-.0365.0339-.056C302.8512,136.9318,302.8412,136.9448,302.8311,136.9588Zm-.5217-1.0549c.0283-.0313.0557-.06.0824-.0866a.1063.1063,0,0,0-.0455-.044l-.0642.1528C302.2909,135.9193,302.2994,135.913,302.3094,135.9039Zm-.5536-.0247a.582.582,0,0,0-.0992-.1625c-.0413.1053-.0587.1953-.0029.2277A.366.366,0,0,1,301.7558,135.8792Zm.4569.0757a.71.71,0,0,0,.082-.1837l-.017.0041c-.0272.0334-.0516.0468-.0737.0445l-.0278.0233a.1593.1593,0,0,0,.0039.1052Zm-.2751,1.3388a.314.314,0,0,1,.0171.0619c.0325-.0668.0651-.13.0976-.1885A1.5052,1.5052,0,0,1,301.9376,137.2937Zm-.51-1.9492c.1455-.1369.1135-.0583.1275-.04l.0068-.0545c-.0287-.0628-.059-.071-.09-.04l-.0585.1248.0755-.0531Zm.9275,2.8095.0126-.0138c.0382-.1135.067-.2237.0992-.3389l-.0778.13c-.0111.0233-.023.0459-.0347.0687C302.3548,138.046,302.3552,138.096,302.355,138.154Zm.3508-.9693.04-.1273a.7054.7054,0,0,1-.0741.0611l-.0054.0443a.3221.3221,0,0,0,.0256.0475Zm-.4593,2.4245.02-.0179.0579-.0811.0043-.03-.0747.0545C302.2516,139.5564,302.249,139.5824,302.2465,139.6092Zm.0427-.5132-.0317.0043a.0336.0336,0,0,0,.0285.0048Zm-.0341.4356.0284-.038.0488-.0356c.0031-.023.006-.0438.0085-.0586a.169.169,0,0,1-.0689.0459A.7316.7316,0,0,0,302.2551,139.5316ZM300.6,137.3843a1.3056,1.3056,0,0,0-.1626.1413l.0032.0068C300.4938,137.488,300.5483,137.4267,300.6,137.3843Zm-43.9114,50.8264-.3057-.21a2.2785,2.2785,0,0,1,.136.3649C256.5249,188.3047,256.6294,188.2692,256.6882,188.2107Zm-.5426-13.6253c-.0912-.0662-.1836-.1322-.27-.1985l.0967.122Zm20.4684,20.3815.0873.0476c.0188-.0642.0354-.1287.0483-.1938l-.5911-.2122c.0753.1008.5009.2079.0934.201a1.3955,1.3955,0,0,1,.1857.0693c.0362.01.0737.02.12.0346C276.5759,194.9317,276.5952,194.949,276.614,194.9669Zm13.904-39.04-.6306-.08a1.6827,1.6827,0,0,0,.6557.1652l.0517-.0724-.0085-.0045Zm-32.84,18.2153a.9256.9256,0,0,0-.2989-.2907c-.1771-.06-.1734.004-.0844.1151C257.425,174.027,257.556,174.0875,257.6775,174.1422Zm-.7356-.5018c-.0676.0072-.0678.0666-.0348.1458.1056.05.21.0987.3109.1455A2.2172,2.2172,0,0,0,256.9419,173.64Zm32.6748-17.4636.0007.046c.0588-.0087.1005-.0224.1131-.0441C289.69,156.1787,289.6548,156.1774,289.6167,156.1768Zm-19.9358,40.9651-10.9122-7.501c-.167.0579.07.5419-.1491.4229-.2682-.2175.0124-.1035-.11-.264l-.4319-.1758c.2052-.0016.4281,0,.6759.0067l-1.2924-.8883a.4567.4567,0,0,0-.0318.0454c-.0691.11-.0807.2493.1725.4788l.3716.0872c-.2538.2784-.0049.7312.3055,1.1291l-.2342-.1143-.04-.0924-.1869-.0807c.0078.014.0146.0287.0225.0426a.48.48,0,0,1-.1147-.0824l-.2213-.0955c-.1478-.2824.06-.0449.2213.0955l.0922.04a10.3624,10.3624,0,0,1-.5895-1.2148c-.0184.07-.097.0565-.2867-.1171l.2825.1077.0042.0094a1.245,1.245,0,0,0-.1065-.4713l-.3963-.2725a.7746.7746,0,0,0,.0279.1112c.0632.2055.1921.4568-.0205.3762-.1418-.1648-.2852-.3309-.422-.5l.1034.0707a1.1523,1.1523,0,0,0-.2087-.4155l-2.8385-1.9512a2.2521,2.2521,0,0,0-1.0413-.3855.1591.1591,0,0,1-.1292.0146c.5492.3171.2882.8.6457,1.281.2816.06,1.1334,1.2964.9854.6678.1483.1791.3955.4144.3865.5681-.4259-.3826-.4333-.221-.408-.02.0305.1975.0992.4288-.2248.1969.8863.8849.4518.9469,1.1152,1.5933.62.5376-.0716.2419.15.5344-.27-.3032-.4648-.2711-.4525-.3179-.0487-.2031.1556-.1458-.03-.5236-.1764-.13-.7379-.7357-.3805-.2147l.0948.0527c-.0584.04-.1119.08-.1656.123l-.2323-.2852c-.2662-.2117-.311-.08-.2332.0282.181.1325.8326.8519.6313.44.44.7166-.6689-.3042-.54.098l-.4274-.4449c-.1063.0366-.21.1051-.1242.2422-.569-.5972-.3317-.5373-.1192-.503.2128.03.3929.0444-.247-.72-.1053-.0271-.285-.1621-.2211-.0261-.0652-.1472-.1221-.298-.1782-.4471-.0755.0272-.222.0009-.265.07.019.07.0237.1292.0352.1916a2.3339,2.3339,0,0,0,.2535.3662l.1938.0749c-.0139.06.06.1963-.1215.0641a.9333.9333,0,0,1-.3258-.5052c-.051-.0991-.0564-.1576-.0352-.1916a.8178.8178,0,0,0-.134-.2658,3.3034,3.3034,0,0,1-.9592-1.2171c-.071-.1441-.1317-.2922-.19-.4415a2.2637,2.2637,0,0,0-.4511.4848l-.1859.27a2.2626,2.2626,0,0,0,.5829,3.1463l11.6108,7.9812-.09-.1336.151.1755.894.6144.098.0153c-.3125-.3476-.4558-.4208-.5633-.7387a4.7713,4.7713,0,0,0,.881.8279c-.0273.0447.0991.1862.21.3256l3.1219,2.1459a2.2628,2.2628,0,0,0,3.1464-.5828l.1858-.27A2.2625,2.2625,0,0,0,269.6809,197.1419Zm-15.5092-9.7283c-.0042.0877-.011.1757-.01.2629-.1284-.0391-.3146-.3271-.4244-.5317.1107.0132.3375.234.434.2688.0026-.0541.0006-.1078.0059-.1623C254.2381,187.3988,254.2231,187.4321,254.1717,187.4136Zm2.6379,2.3146-.0648.1643-.2-.1237Zm-1.859,1.0327-.02.1313-.4159-.4463Zm-1.3524-.4376-.3491-.4857a2.22,2.22,0,0,0,.3564.2173l-.257-.3166.2653.2011C254.0455,190.3758,253.7717,190.38,253.5982,190.3233Zm.5727-.1766c.4052.5362.0719.153-.1174.1731A1.95,1.95,0,0,1,254.1709,190.1467Zm.8524,1.9175c-.1539-.2315.1829-.0083.0315-.2056a2.0072,2.0072,0,0,0-.1391-.1562c-.0853-.0419-.1676-.08-.0795.0229-1.0451-.9071-.11-.4223-.45-.9109.4317.3908.1756.5006.6991.9994.1677.1105-.0059-.1535.25.06-.0413.01-.04.0621-.0478.1-.008.0394-.0264.0628-.1143.0049l.512.4254C255.87,192.6726,255.0955,191.9758,255.0233,192.0642Zm.183-1.0851c-.4133-.4408.1208-.1047.2242-.1042a6.4076,6.4076,0,0,1,.6874,1.0117C255.5118,191.5,255.7485,191.2069,255.2063,190.9791Zm.7288,1.57.615.7294-.4054-.24Zm1.6351,2.0957a1.7884,1.7884,0,0,0-.7364-.5509l.2113.0223c-.3428-.2968-.2227-.4738-.63-.741l.004.0325c-.2471-.17-.0887-.1012-.1776-.2032.3463.34.5572.274.8313.6714C257.5637,194.2741,257.6877,194.56,257.57,194.6451Zm5.6177-.4268c-.083.1436.1984.5994.7556,1.1088-.26-.1606.0466.1937-.3975-.1344.3028.2188.2463.37.6074.497-.5584-.2126.2946.4174.1945.5271-.1562-.0093-.6937-.5217-.4669-.2l-.2821-.2991a1.4194,1.4194,0,0,0-.5434-.373.3326.3326,0,0,1-.0214.0313c-.02-.03-.0068-.0367.0214-.0313.1464-.2.0646-.5633.141-.5772l.0448.0624c.0944.0535.328.22.3327.151a1.5875,1.5875,0,0,0-.5594-.4655C263.25,194.4827,262.7011,193.9937,263.1879,194.2183Zm.9758,2.186-.1744.0268C264.06,196.3727,263.7722,196.18,264.1637,196.4043Zm-.67-.4341-.0413.0329-.0311.0266-.3094-.1873.0444.0146Zm-1.2009-.06-.0461.1125-.2159-.1623Zm.0535.3375c-.3292-.0677.2374.42.1463.4791-.1325-.1731-.2178-.1345-.2927-.1647-.3508-.3346.4546.1585-.0285-.2946l-.2325-.0981.1543.065a1.4627,1.4627,0,0,1-.4838-.4317C262.0616,196.188,261.8156,195.8008,262.3466,196.2481Zm-4.1926-2.03a.7767.7767,0,0,1,.3935.2544c.002.0586.0023.059-.0731.0279l.4084.4586Zm2.0921-3.3893c.247.1395.4731.6176.359.6329C260.3,191.2591,259.9523,190.7882,260.2461,190.8291Zm.6062,4.1352c-.3015-.2309-.2834-.2728-.1837-.2706C260.7981,194.8481,260.9393,194.9822,260.8523,194.9643Zm1.48,2.3385v-.0265l.2883.2587c-.3541-.2281-.4015-.0552-.8539-.535a.0853.0853,0,0,0-.0025.0228l-.0039-.0292.0064.0064c.0074-.0448.0355-.0828-.0906-.2-.0652.0594-.5891-.4916-.7389-.55.1435-.0531.37.2241.6614.36a.2727.2727,0,0,0,.041-.3388,1.3008,1.3008,0,0,0-.2465-.2559.8512.8512,0,0,1,.2465.2559,1.59,1.59,0,0,0,.6167.536c.0712.0275-.07-.1018-.1393-.1789.0782-.0188.2941.1405.5086.296-.2988-.1165-.2272.0661-.7327-.307C262.7511,197.2994,261.53,196.6971,262.3319,197.3028Zm.7715.3718c-.0694-.0495-.2133-.1517-.2107-.1251.0659-.0527-.4278-.5087.0026-.3C263.3138,197.6,263.0287,197.5186,263.1034,197.6746Zm1.3494-.2094c-.3458-.4053-.3033-.1231-.7106-.4136.0241-.2356-.6373-.8013-.5692-1.0234-.0393.1762.432.2986.6952.5133-.1872-.0475.0843.2324.3336.494S264.6875,197.538,264.4528,197.4652Zm2.0887,3.0946.4891.5319C266.7457,200.9977,266.4393,200.5942,266.5415,200.56Zm1.3724-2.1813c-.0105-.0476-.02-.094-.0264-.1406l.1191.0826C267.9606,198.3254,268.2222,198.5347,267.9139,198.3785Zm1.1983,1.5655-.4638-.341.3539.1278c-.127-.2591-.2336-.2-.5631-.5573.5283.2639.3652.4008.832.6676C269.4562,200.061,268.9041,199.7253,269.1122,199.944ZM297.5265,136.92l-.1628.1982C297.4462,137.0244,297.4961,136.9625,297.5265,136.92Zm3.396,4.2767a.5518.5518,0,0,0-.0224.0573l.0114-.0476c-.0286.026-.0591.0545-.0923.0865l.094-.0935c.01-.045.0177-.0912.0233-.1372a2.5658,2.5658,0,0,0-.2614.2158c.06-.0638.1155-.1035.2079-.2107.1965-.2823-.2757.1794-.1722.0051l.1124-.0816c.12-.1265.0721-.1319.0484-.1349a.264.264,0,0,0-.0448.0283c.0021.0172.0044.0341.0058.0526l-.0171-.0441a1.81,1.81,0,0,0-.4209.448l.0483-.1348c-.0276.0291-.0556.0627-.0812.0947-.0207.0286-.0445.06-.0754.0981.0174-.0234.0446-.06.0754-.0981.186-.2572.0137-.18.3718-.5764-.0093-.0152-.0187-.03-.0284-.0429-.1037.1659-.2061.333-.31.4983-.01.0162-.02.0267-.03.0406.0168-.01.0079.0063-.0622.0873-.0377.0272-.061.043-.0709.0382-.25.1269-.4253-.3821-.63-.2458a.4383.4383,0,0,0,.02.1484l-.0694-.1026a.4019.4019,0,0,0-.0375.0491l-.0009.0329a1.0524,1.0524,0,0,1,.0047.1246c-.0021-.0294-.0049-.0752-.0047-.1246-.0274-.2828-.1735-.1993-.1611-.5336a.89.89,0,0,0-.1242-.1652c-.0811.4743-.2924.3586-.2836.1716.012-.1.0229-.1983.0334-.2964-.1333-.0013-.2792.0974-.4278.3554l.291-.57c-.299.2381-.4352.173-.6984.5447a1.2026,1.2026,0,0,0,.1295-.27c-.0412-.3669-.3687.2246-.4412-.0031l.1341-.1028c.0643-.1626-.0709-.1725-.1388-.1779-.1013.0223-.4022.3626-.2958.6218l-.139-.1779a.4515.4515,0,0,0-.0264.1221.7091.7091,0,0,1-.0043.1272,1.08,1.08,0,0,1,.0043-.1272c-.0192-.3394-.3306-.2357-.1527-.7756.2015-.2651.2658-.54.5014-.6072-.0573.8329.4731.09.7118.3.1621-.2952.16-.4074.36-.45-.19.5458-.4649.3036-.4526.9193.1056.2043.3766.2191.5987-.3554-.4857.0568.3753-1.1618-.1327-1.0028a.09.09,0,0,1-.0544.0176c.0221-.01.0362-.0105.0544-.0176.1223-.0751.2644-.3855.4369-.4277.2033.2286-.664.8162-.13.88a4.9694,4.9694,0,0,1,.1329-.68c.2382-.5849.4552-.0687.6106-.2607.0068-.0184.0155-.035.0226-.0531a.97.97,0,0,1,.0156-.4142c-.0168-.0028-.0347-.008-.0522-.0123l-.1705.1417a.5045.5045,0,0,0,.0784-.1676c-.2048-.0652-.44-.1632-.65.0015l.0674.06c-.2656-.0727-.2572.5431-.4562.5287l.22-.7931a.49.49,0,0,1-.4271.1663c.2008-.7244.3859-.4109.6155-.2871.0458-.0431.0813-.08.1138-.1167a1.4926,1.4926,0,0,1-.1138.1167.3184.3184,0,0,0,.1253.04l-.0059-.0035.3241-.2993c-.0035-.1394-.2691.2308-.0436-.1517l.13.0646a1.4205,1.4205,0,0,1-.3644.3893c.0917-.01.191-.0811.3009-.2731.0007.0476-.001.0968,0,.143.0664-.06.14-.044.2587-.13a.28.28,0,0,1,.1415-.134c.0253-.0291.0517-.0611.08-.1-.0474-.292-.3365-.2619-.6688.0055a.5915.5915,0,0,1-.1129.2648c.0779-.1212-.0119-.1387-.0474-.1691l-.1973.2234a.8578.8578,0,0,1,.345-.4888c-.0272-.089-.4292.3239-.2448-.07.31-.2164.262.13.4442-.0136-.3847.0867.3035-.89-.1872-.7789a1.808,1.808,0,0,1,.1162-.1449l-.01-.0018c.01-.0431.0213-.0993.0329-.1619a1.2733,1.2733,0,0,0-.2448.3c.0036.0368.01.078.0194.1279a.1066.1066,0,0,0-.0594-.0681,2.38,2.38,0,0,1-.2346.3145c.201-.0827.14.0958-.0213.44l-.1647.1785a.6588.6588,0,0,1-.121.132l.121-.132c.0685-.1046.0132-.1528.0654-.2633l-.2991.3883c.321-.4369.4659-.8414.2737-.7294a3.6675,3.6675,0,0,1-.4987.8607c-.4451.4015.2146-.5527-.2632-.1324.11-.1356.2887-.168.2771-.34-.06-.0717-.2956.279-.4234.3534.3181-.3275.499-.6108.87-1.0042.1633.0466.0492.0423.2908-.0274l.0183-.0623c-.1365-.0086-.3162.0162-.4015-.1093a.56.56,0,0,1-.2483.1834l.142-.1535c.1174-.2459-.1135-.0045-.1852,0-.13.0758-.8582,1.3163-1.0814,1.1948l-.3323.4046c-.3445-.0179-.3029-.26-.5274-.3849a.3249.3249,0,0,1,.1447-.1533c-.1986-.0323-.3193-.3227-.6368-.11a.4892.4892,0,0,1,.1641-.4789c-.0632.0393-.1286.0747-.14.0358.1594-.2316.1053-.0228.2427-.2072-.0069-.0223.0045-.0551-.0125-.0428.184-.2029.5058-.7558.6467-.6322-.3252.5741-.1556-.0191-.5464.5909.05.0426.2095-.1879.2661-.2557.058.0622-.0511.2078-.1522.3385.1585-.1625.06.1518.2961-.0974.1647.05-.3272.4338-.2362.49l.4808-.5565.0615.2156c.3574-.0587.7142-1.0461,1.191-1.2116a2.26,2.26,0,0,0-.5168,1.08c-.0811-.0257-.4822.2729-.44.0351-.2167.5518-.2051-.0641-.5287.5128.242-.2083.3651-.1706.3441.0214l-.0648.0363c.0367.1228.5467-.4536.4886-.1342.07.0207-.0617.1815-.1715.3134.1116-.0555.2376-.1418.1432-.01l1.1917-1.455c-.01-.1289-.004-.2863-.0016-.4343-.0919.18-.18.3889-.2513.571l-.1017-.2543a2.2182,2.2182,0,0,0,.2491-.782.0837.0837,0,0,0-.0287,0c-.0542.0846-.0734.2128-.1516.1356l.01-.0463c-.024.022-.0489.0456-.0773.0768l-.2507.24c-.02.0437-.0438.0756-.0761.0738l.0761-.0738c.0219-.0447.0389-.0993.0555-.14a.3133.3133,0,0,1-.144-.2427.5071.5071,0,0,1-.1764.0963c-.0335.1705.0245.4351.0807.2854-.0465.3125-.1685.4474-.2341.4326.0726-.75-.3419-.1125-.2866-.6614q-1.18,1.0905-2.3732,2.1649c-.5141.4568-.1766-.483-.5691-.1287.2362-.2345.4291-.6253.2556-.5687a.72.72,0,0,0-.153.2614.996.996,0,0,0,.0173-.3071l-5.5536,8.3934.2257.5162c.0543.9288-.1844-.6188-.2508-.3823q.0055.0961.01.191c.1918.56.3076,1.5557.4781,1.5929-.1772.31.176,1.4072.1467,2.1084l.0288-.0976a2.7654,2.7654,0,0,1,.0009,1.9014l-.1179-.7393c-.059.1025.0011.6048-.0587.4486a6.3623,6.3623,0,0,1,.0048-.6729c-.1234.0791-.1324-.7876-.2986-1.3026-.1476-.9043.1461-.74-.03-1.5459-.0008.0825-.03.0087-.0287.1816-.06-.4149,0-1.2081-.1776-1.3266.061.04.0651-.2345.0522-.548-.0081-.0234-.016-.0475-.0244-.0693a.5516.5516,0,0,1,.0149-.1217l-.0057-.0876-.3626.5481.002.0368-.0047-.0325-.3088.4664.1077.4907-.1182.1232.1486.475c.0786.5172-.1031.2127-.0758.5674l-.0716-.6075-.03.0086c.0837-.028-.01-.52-.04-.9371l-6.1675,9.3211c.1552.0411.31.0812.4725.1217.439.1069.8983.2106,1.3287.3006.4152.0687.7976.1179,1.1072.1512.0191.1311.4418.1971.8762.2535.4253.04.8686.08.9359.21.9727-.137.6161.2159,2.02.1427l-.871-.1848c.23.0469.6862.1172,1.08.1526-.0014-.0223-.0037-.0453-.0071-.0686a7.086,7.086,0,0,1-.7792-.1391,9.7192,9.7192,0,0,0-1.2486-.1982l.4588.0372a5.2773,5.2773,0,0,0-1.4049-.2566c-.285-.0236-.5843-.0661-.8523-.1148a4.5442,4.5442,0,0,1-.6688-.155c1.6664.2451,3.1843.4082,4.6672.4853l0-.0008a1.9227,1.9227,0,0,0,.049-.8668c-.119-.0932-.1133.0231-.0973.1809.0107.1516.0254.3361-.0589.405l-.048-.3682c-.1355-.1187-.0225.4566-.1242.1887-.0034.0146-.0053.0345-.0091.0477l-.0285-.1548c.0154.0466.0272.08.0376.1071a5.6937,5.6937,0,0,0,.0664-.97c.007-.1959.0063-.3992.0291-.5548a.7746.7746,0,0,1,.1019-.4014c-.1914-.5015-.2052-1.8794-.3957-1.9413-.0026.04-.0147.0531-.0459.0075a.05.05,0,0,1,.0459-.0075c.01-.15-.12-.7053.0426-.2782-.0587-.24-.1178-.8271-.1765-.72a16.4036,16.4036,0,0,1-.149-2.6952l-.0019-.0089c-.02.1109-.0592.1688-.07.2581l.014.18a.48.48,0,0,1-.014-.18l-.045-.58c-.02-.0527-.0395-.0269-.0589,0a1.0264,1.0264,0,0,0,.03-.3334l.1434.6555.0032-.0124-.0013.0213.2084.9529a3.0821,3.0821,0,0,0,.0877-.464c-.0592-.2392-.06-.1563-.0882-.1431.0291-.5262.0882.1431.1469-.2211a20.3721,20.3721,0,0,1,.5,3.9829c.03-.2671.0893.15.147.1281.059.4146.0811.9684.129,1.59a12.6,12.6,0,0,0,.1491,1.5319c.0876-.365-.0294.3494.1094.2071-.0127.1115-.0413.32-.0719.4857.0614.0022.1237.0071.1851.0091l.3152.0079.2449-.0031a.4917.4917,0,0,0,.1093-.005.2785.2785,0,0,0,.0367-.0044c.0171-.0034.0317-.0051.0287-.0072l.0008.0035.7155-1.0022c-.0019-.0559,0-.1084-.0038-.1657l.0823.0494-.0011.0078,9.6614-13.5321a.2677.2677,0,0,0-.1-.08C300.997,141.1317,300.9621,141.1613,300.9225,141.1969Zm-1.8866-2.9154.0006.0569-.1967.1544-.0005-.0576Zm-10.2421,16.7446.0139.1128c-.0177.1153-.0425.22-.0621.3286C288.7621,155.3241,288.7857,155.1866,288.7938,155.0261Zm.0547-8.4342a7.6075,7.6075,0,0,1,.2357,1.6513A3.8334,3.8334,0,0,1,288.8485,146.5919Zm1,1.2363-.1766-1.7594c.1175.3077.0007.7783.1767.81Zm1.0593,3.8936a.9562.9562,0,0,0-.0589-.4116l0,.7738a6.4224,6.4224,0,0,1-.1178-1.5152C290.7312,150.9146,291.172,151.8107,290.9076,151.7218Zm.2057,1.5737.03-.0947-.03-.0792.1474.214a.79.79,0,0,1-.0609.0966c.0579.7146.1246-.1036.2071.5982C291.4254,155.0042,291.1429,153.77,291.1133,153.2955Zm.3233-.0181-.206-1.23c.059.2413.147.3.0889-.1112l.1764,1.24.0581.0644Zm5.0967-13.2446a10.3877,10.3877,0,0,1,.6692-2.0682c.4226-.512.7014.0748.9574-.0692a1.2708,1.2708,0,0,1,.14-.1643.3774.3774,0,0,1-.14.1643,5.637,5.637,0,0,1-.5531.8212c-.0969.4656-.0655.2165-.2651.5382-.0022-.3346.0994-.188.1982-.4872-.1015-.2021-.3691.17-.4351.4989.2723.2433-.167.2379-.0961.6323C296.8431,140.4188,296.5,140.2249,296.5333,140.0328Zm.6893.7194c-.0679.0517-.1016.0764-.1705.0143C297.12,140.7732,297.2866,140.4777,297.2226,140.7522Zm2.2012.51c-.04.0641-.06.0951-.1068.0486C299.36,141.3033,299.4481,140.9816,299.4238,141.2622ZM272.223,205.0266a.8536.8536,0,0,1-.3675-.35.8583.8583,0,0,0-.2631-.2551c-.1406.2471-.2728.4923-.392.7335.21.1482.3987.2976.5766.4486A4.2946,4.2946,0,0,1,272.223,205.0266Zm-12.1777-36.0953c.059.02.1091.034.1034.0117-.0379-.0386-.0764-.0765-.1149-.1145C260.0365,168.8629,260.0412,168.897,260.0453,168.9313Zm29.5763-12.5277a.6625.6625,0,0,0,.0264.2c-.0582-.0795-.128.0249-.1706.1026-.02.0428-.0391.0694-.0527.0676-.0119.0017-.0142-.0088-.0148-.0941-.0711.0727-.0618.0856-.048.1109a.0626.0626,0,0,1-.0268.1l.1094.015c-.0717.0118-.0664.0348-.0569.0394l.0167.0045a.0383.0383,0,0,0-.0074-.0014l.0045.0013.0432.0123-.0326-.01-.0059-.0017.0034.0009.0025.0008.0362.01.092.0278,0,0c.0979.03.122.0415.1706.0571l.0213.0081.02.0068.0327.0125.4558-.6385-.3633-.0162C289.7925,156.4155,289.707,156.4083,289.6216,156.4036Zm-.5372-.2548c-.001.0231-.0032.0448-.0053.0669.0373.0031.0733.0057.109.0081-.006-.02-.0141-.0453-.021-.0678C289.1391,156.1537,289.1111,156.1514,289.0844,156.1488Zm.3038.7962-.0006,0-.011-.0029Zm.0016.0012-.0011-.0008-.0622-.0173-.0174-.0047h0l-.0359-.0094-.065-.0222q-.195-.0658-.3957-.12l-.0254-.0071-.1934-.0491-.0265-.0061-.05-.0115-.0028.0008c-.004-.0017-.0031.0109-.0079-.0018l-.0007-.0015-.0082-.0019c-.0028.0051-.0073.0073-.0162-.0014.0019,0-.0154-.0053.0021-.0019l.0141.0033a.0219.0219,0,0,0,.0019-.0131l.0063.015.0114.0025,0,0,.05.0116.0225.0051.004.001.0093.0022.1652.0417.0189.0052.0133.0034.0121.0037c.1581.0431.2956.0866.3957.12l.0044.0013.0921.0272-.0011-.0007a.0664.0664,0,0,1-.0038-.0236l-.118-.0186c.0351-.0086.09.0071.1319-.0509-.04-.1777-.04-.2647-.0841-.4468-.0634-.0044-.1269-.0069-.19-.0116a.0932.0932,0,0,1-.07.0552.2894.2894,0,0,0,.0342-.0576c-.1656-.0126-.3276-.0276-.4911-.0418a1.3582,1.3582,0,0,1-.0264.2148c.0016-.0848-.0376-.1459.01-.2162-.1126-.01-.2275-.0186-.3385-.0288-.5589-.0512-1.1076-.1352-1.596-.199l-.69-.0967-.6046-.1183a2.0524,2.0524,0,0,0-1.2236-.3235c1.2265.3221.5434.2544-.0975.182-.6352-.0977-1.2086-.1749-.0435.1937-.5785-.1633-1.6487-.3337-1.3951-.43a2.2786,2.2786,0,0,1-.3235-.0273l-.336-.0571-.0712.1076.0319.013.4108.1045c.0025-.0212.1414.0069.61.1264l-.4956-.0972-.1146-.0292c-.0007.0058.0067.0145.0227.0269.0751.0583.2705.1586.1491.1577-.9268-.2768-.4945-.1762-.4171-.23-.0741-.0222-.1408-.0416-.2055-.06l-.0836.1263c.0443.0139.089.0279.1365.042l-.1378-.04-.5834.8817c.0635.0119.1291.0246.192.037.2632.1.5066.1787.7584.268-.279-.0743-.5294-.1176-.8317-.2172-.0913.0171.2652.1848.01.1371,0,0-.1244-.0438-.2231-.0817l-.3208.4846c.1223.0557.2227.105.2893.1442-.1016-.0348-.2077-.0728-.3121-.11l-.2123.3209.4963.2136c.5609.18,1.247.3514,1.028.3949a9.1517,9.1517,0,0,1-1.2971-.2756c.2224.0356.5378.0695.9041.1541l-.635-.2734a3.7372,3.7372,0,0,1-.51-.1937l-.4569.6906.0486.01c.1722.0645.0891.058-.076.0309l-.0861.13a3.6316,3.6316,0,0,0-.5169,1.1332l-3.1888-2.1918a2.4262,2.4262,0,0,0-3.2359.4439c.24.0737.4913.1507.7561.233l-.37-.2292c.1886.0593.5036.1439.8684.228.3582.0852.7607.1725,1.1381.2349-.5128-.1.541.271.4882.2805l.1649-.023c1.3019.5213-.1533.1925.8491.5252a14.6865,14.6865,0,0,0,1.9884.54c.7881.1741,1.6882.36,2.5043.57-.12-.0431.4874.03.4074-.0573,1.3486.3452,1.7484.6227,2.8087.8472-.214.1393-.7667-.1635-1.0718-.2348a3.6474,3.6474,0,0,0,1.0105.36,2.0835,2.0835,0,0,1-1.4922-.1179,10.051,10.051,0,0,1-2.084-.3941,13.4,13.4,0,0,0-2.0185-.4489c-.019.0407-.0357.0814-.05.1214-.3582-.2995-1.1529-.1971-1.8955-.569l.0759.1033c-.8772-.2419-1.5162-.41-2.5885-.7632a1.05,1.05,0,0,0,.4169.2287c.41.2378-1.2606-.2873-1.2713-.3347l-.0219-.0416c-.2524-.0528-.7151-.2052-1.04-.3047-.0117.0333-.0246.0664-.0348.1.7557.3646,1.4407.5053,2.111.8347l-.0642-.0441.9057.3676c.6882.3069-.4135-.1433-.082.06.2059.0546.4088.1446.6139.194-.102-.0055-.3525-.0683-.6322-.0921-.5521-.2249-1.1095-.4636-1.6758-.705-.3992-.1973-.8008-.3716-1.1969-.5352a2.42,2.42,0,0,0-.0829.6121c.1506.0714.3194.15.5361.2465-.17-.0722-.352-.1464-.5351-.2217a2.4227,2.4227,0,0,0,1.0507,1.9849l1.7485,1.2019c-.0232-.1211.5366.1326.7988.2206l-.2813-.1588c.2066.0626.412.1247.6142.1938.2636.1071-.2391.0285.04.1758-.1523-.0017.804.3389,1.3295.6252a8.087,8.087,0,0,1,1.4476.3306l.391.2326c.2311.1076.682.3223.5363.2221a3.7667,3.7667,0,0,0-.3845-.18l.0013-.0165c.7684.3269.8288.51,1.4132.7713l-.07-.0447.4995.261,0,.0326a2.1729,2.1729,0,0,0,.3506.1673l-.1341-.03c.4862.2884.4068.14.8849.4158l-.2609-.0632.1349.071-.528-.231c-.4228-.2377.2087.11-.0135-.0384-.3526-.201-.8125-.3644-1.3911-.64l.1348.0437a16.2647,16.2647,0,0,0-2.0183-.8658,4.9247,4.9247,0,0,0,.472.2081c.2521.1377-.1659.03-.1958.0846-.3672-.108-.7692-.389-1.4147-.5912l.4031.2526a6.0771,6.0771,0,0,1-1.0874-.4976.8324.8324,0,0,1-.2209.0448l2.7953,1.9214a2.2679,2.2679,0,0,1,.629.1687l-.1863-.0785a.9449.9449,0,0,0,.534-.0451c.1372-.0127.3321.0451.88.3686.0781-.0225.5889.2083.207-.0215.56.1857,1.3735.6114,1.7869.767l-.0673-.0344a.9469.9469,0,0,1,.2322.1038c.452.2638-.0836.0084-.0615.0628l.1952.0982c-.3777-.182-.0633.0256-.4681-.1717a3.718,3.718,0,0,0-.8371-.3935c-.0255.0052.1309.0939.2528.1668.0534.0187.1008.0324.1571.0537l-.0767-.0045c-.0224-.0144-.0506-.0314-.08-.0492a1.8,1.8,0,0,0-1.1072-.1572,2.0456,2.0456,0,0,0,.5055.1605l-.2221-.1326a4.4649,4.4649,0,0,1,.7408.3761c.0513.0051.2195.0416-.0245-.07a3.1685,3.1685,0,0,1,.836.3758c.398.158.86.3267.6391.1347l.9592.5039c-.0671-.1027.6366.2451.8832.3366.7985.4457-.3085-.1229.0822.1387-.3827-.2-.3575-.1452-.3369-.0936.0153.0512.0281.096-.51-.1624l.3968.2176a6.4508,6.4508,0,0,0-1.3168-.3643c.5359.354-.1531.1486-.2243.2724l-.2936-.2141c.113.1389-.7719-.2239-.1716.1229a2.5987,2.5987,0,0,0,.4563.14l.0124-.0014c.08.02.0561.017-.0124.0014-.2314.014-.3026.094-.5129.0881l2.1639,1.4873a2.4352,2.4352,0,0,0,.41.2264c-.0662-.0411-.1011-.08-.0757-.1052.2325.0934.3207.0924.3336.0534s-.0461-.12-.1254-.1866a1.1642,1.1642,0,0,0-.4335-.0906c.0469-.1622.5713.0876.936.1807.1134.0934-.0314.1545-.007.2309a.1225.1225,0,0,0,.066.0671.0341.0341,0,0,1-.0181.0327,2.4261,2.4261,0,0,0,1.6632-4.4084l-3.1888-2.192a3.6307,3.6307,0,0,0,.8729-.8886l.6582-.9219c-.0339-.0055-.0682-.0111-.1-.0159-.102-.01-.2173-.0226-.3288-.04a2.0771,2.0771,0,0,1-.8823-.1256c.47-.0046-.4642-.1934-.0645-.19.3686.0645.7325.1164,1.0943.1638.4589.2092-.4064.0059-.431.0854a1.6543,1.6543,0,0,0,.2835.0667c.09.0077.1988.0208.3288.04l.1037.01,3.2431-4.5424c-.0755-.0286-.15-.0557-.2252-.0794l-.0714-.0218c-.0273-.0084-.0577-.0171-.0859-.0254l-.0054-.0015Zm-15.027.5213-.6008-.198c.2337.0208.9517.2012.702.0621C275.1275,157.58,274.1728,157.32,274.3628,157.4675Zm.0365-.3024c.3055.0115-.126-.2182.634.0288A1,1,0,0,1,274.3993,157.1651Zm6.3631,1.484-.7005-.1839c-.0022-.09,1.1363.2683.4908-.0388C281.4528,158.7186,280.4,158.4519,280.7624,158.6491Zm2.2364-1.2765.2633.0631-.0815-.11c.1687.0792.3231.1409.48.2074C283.4505,157.4927,283.2252,157.4333,282.9988,157.3726Zm-8.5688,3.9923c-.1462-.125.1094.024.2389.0419-.2094-.0917-.5551-.2659-.702-.3233-.02-.0026-.041-.0061-.0652-.0108l-.0012.0032.1607.1085-.38-.1691a1.89,1.89,0,0,0,.22.0574c-.0045-.0119.0186-.0074.0652.0108.1434.0192.1848-.0047.3042.0589l-.1236-.0242.6721.2943C275.3481,161.6863,274.7245,161.4708,274.43,161.3649Zm6.2431,3.6633.2265.1389-.7565-.41Zm.5967.4485c-.3877-.22-1.1108-.5258-.9965-.5893l.0349.0559c.3959.2084.5193.1693.9246.4179a.3061.3061,0,0,0-.1717-.0418c.1464.1336.4332.2161.6383.37C281.7577,165.7617,281.4167,165.5485,281.27,165.4767Zm.6207-3.9381.0427.0049c-.2345-.097-.58-.19-.8749-.2871.12-.0036.3841.06.6066.0894a1.8437,1.8437,0,0,1,.7206.25c-.1522-.015-.302-.034-.4523-.0524l.0128.0049c-.0191-.0027-.0366-.0069-.0555-.01-.2759-.034-.55-.07-.8223-.104-.4124-.0983-.9653-.27-.6321-.2384l-.676-.171C280.5371,161.092,281.1089,161.4191,281.8905,161.5386Zm-1.9427.0927-.4319-.1414-.0922-.0727Zm-4.6115.177c.0053-.0084.1192.0128-.061-.0723l.5567.2464c-.25-.1425.3166.1031-.2316-.1531.21.0717.7279.3446,1.1672.5551A5.3987,5.3987,0,0,1,275.3363,161.8083Zm1.8339,1.4222-.4335-.1893c-.28-.2153.4292.1491.5909.2093C277.33,163.2623,277.0791,163.1651,277.17,163.2305Zm.0543-1.5625c-.6043-.2736-.1127-.0963.1255-.02-.0238-.0221-.0161-.0263.1075.03a.7129.7129,0,0,1-.1075-.03C277.3978,161.6917,277.5745,161.8083,277.2245,161.668Zm.2025-1.4424c.2073.0335,1.4745.5232,1.1087.2177l1.0478.3852A8.7131,8.7131,0,0,1,277.427,160.2256Zm1.0841,2.26a.5681.5681,0,0,1-.26-.08c-.0587-.0384-.3473-.1625-.2929-.1619Zm.9349,1.1567c-.2759-.1075-.86-.3868-1.2028-.5512a5.8254,5.8254,0,0,0,.6994.3837l-.0694-.0447.3084.1658c-.8-.4149-.4472-.1015-1.354-.5415a4.4949,4.4949,0,0,1,.8428.3094,3.1029,3.1029,0,0,1-.6735-.3978l1.5565.71c.09.0352.0116-.0042-.0539-.0474a5.543,5.543,0,0,1,.703.4132C279.7627,163.864,279.8919,163.8264,279.446,163.6426Zm1.7306-.4218-.2468-.2231c-.2642-.0829-.3124-.0547-.2748.0059l.0147.0091-.01-.0027a.6046.6046,0,0,0,.1222.1168c-.3014-.1441-.5471-.2065-.8351-.3164.2357.0724.4752.1328.7129.2l-.005-.0064-.4018-.2484c.3182.185.5828.172,1.0543.3752C280.6124,162.9417,281.6981,163.3408,281.1766,163.2208Zm.818.6647c.563.0551.42.2455.9609.3771C282.4622,164.1679,282.2337,163.8954,281.9946,163.8855Zm1.1846-1.4478c.3808.0791.0992.1.471.1084a3.1887,3.1887,0,0,0-.7449-.1966c-.7125-.1761-.5269-.0725-.254.0431.113.0417.2328.0889.3649.1457.0517.02.0757.0291.0433.018l-.0433-.018c-.0808-.031-.2319-.0894-.3649-.1457a12.1214,12.1214,0,0,0-1.6524-.4188c-.471-.1653-.2621-.1738-.1936-.2121-.5717-.1989-.359-.0293-.682-.2046.7815.2465.3405-.0424.2529-.1106a3.01,3.01,0,0,0,.8463.2321l.1982.1742c.2628.0244.977.2412.625.08.6558.22,1.4488.4533,2.1888.6315l-.4125-.0333c.3886.0724.7685.2851.3656.2528C284.0645,162.6567,283.2807,162.5405,283.1792,162.4377Zm.2359,3.949c.0009.0062.01.0163.03.0316-.0555-.0317-.0563-.0378-.03-.0316-.0062-.0436.39.103.228.0162a3.4105,3.4105,0,0,0,.9855.3862l-.1794-.1018a1.94,1.94,0,0,1,.2988.1626c-.2616-.0645-.2333.0777-.7031-.15-.0156-.0407.0438-.0179-.2084-.1688C283.7535,166.512,283.4836,166.4029,283.4151,166.3867Zm2.1426,2.9436.1615-.0211c-.3207-.1047-.6457-.2039-.97-.3a1.6136,1.6136,0,0,1-.1878-.0583c.0626.0183.125.04.1878.0583.2349.0547.0175-.1248.1712-.139l-.3872-.181c.06-.1926.6664.1713,1.0266.2462a.606.606,0,0,0-.1229.243l.3965.1789Zm.5173-.9878a.9372.9372,0,0,1-.2413-.116l.149.0428.413.2688Zm2.0352,1.1729a.1031.1031,0,0,0,.0006.0438c-.2174-.1093-.4441-.2713-.6742-.4043l-.0248-.0088c-.2242-.161.0578-.0069.3268.15.15.087.2962.1745.3716.2193l0-.0026C288.1867,169.5606,288.1715,169.5519,288.11,169.5154Zm-.0569-.1559a1.0548,1.0548,0,0,1-.2085-.09c-.06-.0494-.1459-.1091-.2151-.1542Zm-1.152-1.9954.45.2255c-.1146-.0366-.23-.0738-.2144-.0176C287.0077,167.4788,286.8482,167.406,286.9013,167.3641Zm.0166,1.2729c-.0067-.0233.1938.0773-.027-.0643.1638.0989.1724.1289.2882.2005a1.0886,1.0886,0,0,1-.2612-.1362c.0006.0024.0014.0048.0075.0105-.02-.0155-.041-.0291-.0614-.0436-.1043-.064-.2034-.1262-.2423-.1453.1665.1352-.265-.1311.1511.1371a9.0322,9.0322,0,0,1-.7739-.4792l.1165.047c.1.1118.4442.2251.7486.44Zm-.5148-.44a7.3178,7.3178,0,0,1-.686-.371c.3052.1893.2334.17.527.3461l-.4482-.2294.07.0449a10.3658,10.3658,0,0,0-1.1817-.5643l.0424.016-.7926-.44.0946.0354c-.0913-.09-.1571-.0689-.4117-.23a14.8533,14.8533,0,0,1,1.4946.7284,1.235,1.235,0,0,0-.1868-.1087c.5626.2688.4667.1879.9965.4621C285.86,167.8906,286.2294,168.0853,286.4031,168.1966Zm-1.3031-.9819c.0814.1169-.3846-.1479-.6072-.2347C284.2716,166.7989,284.7517,167.0128,285.1,167.2147Zm-.2082-7.9778a3.0623,3.0623,0,0,1-.3368-.1718c1.0824.2157.0838.06.3368.1718.06.0234.1324.0483.2268.0755A1.94,1.94,0,0,1,284.8918,159.2369Zm.19-.2727c-.3761-.1119-.7461-.2109-1.14-.3382.2395.0539.46.0811.691.1229.0577-.0323-.1357-.1285-.5208-.1964.702.1014,1.7464.2411,2.37.3641C284.9491,158.78,285.709,158.9988,285.0816,158.9642Zm1.6926-1.0866a2.432,2.432,0,0,0,.5844.04l-.1523-.0876c.0773.0322.19.0722.1523.0876l.3336.1917c-.4325-.0324-.8541-.0459-1.2906-.0929a3.5,3.5,0,0,1-1.9755-.6452c.914.1887-.2227-.0069.61.2335a2.51,2.51,0,0,1,.83.0036l.62.0546c.1971.0077.38.0123.5231.0081l-.1282-.0281,1.141.1951-1.3388-.1238Zm-23.9088,25.7393-1.076-.74-.4176-.2152c-.26-.1316-.5211-.26-.7674-.3757a7.4384,7.4384,0,0,0-1.118-.4564c.4619.3807.69.2967,1.2353.7011l-.162-.0241c.58.4066.6428.2563,1.1214.5419.1994.2455-.8565-.3424-.386.05.9592.4692.2932.2,1.1726.6653l-.4283-.338,1.3083.86C262.9931,183.9619,262.4724,183.5073,262.8654,183.6169Zm21.2126-3.126-3.4258-2.355-.1486-.03,0-.0724-1.2768-.8777a.5453.5453,0,0,1-.2245-.0373c-.0163-.0391-.1115-.13.0259-.0991L263.7565,166.522a2.2545,2.2545,0,0,0-1.71-.3565c.1237.1477.2886.3053.2884.4536a1.4856,1.4856,0,0,0-.5153-.397,2.2593,2.2593,0,0,0-.558.2541c.0173.0252.0315.047.0519.0756a.75.75,0,0,0-.0836-.0538,2.2393,2.2393,0,0,0-.3931.3311l.13.0724c.0236.124.0429.2568.0779.3764-.0895-.13-.1658-.2722-.2439-.41a2.2606,2.2606,0,0,0-.19.2371l-.1859.27c-.0338.0491-.0633.1-.0927.15.0007.011.003.022.0026.033.0064.1021-.07.1986.1038.3306a.96.96,0,0,0,.1591.0868.4116.4116,0,0,0,.095-.0185c.0194.0475-.0276.0428-.0935.0192l-.0015-.0007-.0129.0018a.0409.0409,0,0,0-.0161.0491c.0132.0484.09.1374.3506.3224l.0421.0031c.03.0491.0584.1007.0907.1469l.5325.3525a5.2678,5.2678,0,0,1-1.3872-1.0557,2.2521,2.2521,0,0,0-.163,1.0321c.0793.0646.1109.0985.1149.1146.0454.0462.09.0932.1378.1371-.4341-.2542.9661.8961.5258.69l-.48-.3513c.131.0522.4793.3031.48.2538a7.3671,7.3671,0,0,1-.73-.5277,2.2524,2.2524,0,0,0,.9252,1.3764L281.3288,184.49a2.2606,2.2606,0,0,0,2.2882.1611,3.4955,3.4955,0,0,1-1.0136-.4584c.3537.1322.7822.3175,1.0494.4407a2.2522,2.2522,0,0,0,.8223-.7263l.1859-.27A2.2627,2.2627,0,0,0,284.078,180.4909ZM261.17,169.9652l.3606.1939c.0459.0011-.2694-.1915-.3155-.24l.3148.1923C261.5308,170.1588,261.6673,170.3521,261.17,169.9652Zm18.55,7.6084a3.5559,3.5559,0,0,1-1.0006-.3844C279.0329,177.3048,279.44,177.4388,279.72,177.5736Zm.1162.2354c-.264-.0018-1.183-.4552-1.0092-.4693C279.588,177.5723,279.09,177.6278,279.836,177.809Zm-3.23-.9335c-.1564-.0392-.1624-.002-.278-.0073l-.2032-.1716C276.3377,176.7661,276.4585,176.8291,276.6056,176.8755Zm-3.285-2.882c-.0194.0442.1989.1727.36.19.0569-.01.0169-.0451-.0568-.1123.3907.2239.7957.4341,1.2049.6544-.0629.2286-.8933-.3825-1.323-.3907.1212-.0164-.4658-.2164-.7922-.3736Zm1.72,2.25a1.5338,1.5338,0,0,1-.7689-.214A5.4236,5.4236,0,0,1,275.0408,176.2437Zm-2.83-1.6445.5151.2739-.564-.22A.2326.2326,0,0,1,272.2112,174.5992Zm-.6111-1.414c.0308.0336.1024.1051-.0676.082l-.3755-.2346Zm-.8391-.5786c.013-.0733.4654.2705.0577.1475C270.3444,172.558,270.5916,172.581,270.761,172.6066Zm-.98.8764a.39.39,0,0,0-.05.0482l-.0173.046-.6107-.3291C269.2944,173.3151,269.5689,173.4179,269.7809,173.483Zm-6.4151-6.7853a4.0464,4.0464,0,0,0,1.1218.5472l.0028.2386c.7066.2416.7308.37.771.5021.0365.1322.08.2787.7757.51-.6972-.2275.6549.556.5069.68a18.0662,18.0662,0,0,1,2.4193,1.434c-.414.0247.5148.5345-.3605.2707a25.398,25.398,0,0,1-3.2389-2.0377c.3707.3379.0405.4348.7542.9-.2293-.1213-.4561-.25-.6816-.3809a.1905.1905,0,0,1-.0752.0231l-.0279-.0808c.0341.02.0689.0378.1031.0577.1232-.0765-.2391-.2985-.69-.5672a5.9392,5.9392,0,0,1-1.2736-.8749c.7373.3764.4879.0576.5731-.0114-.2594-.2051-.5154-.4149-.7622-.636C264.1024,167.5482,263.3489,166.961,263.3658,166.6977Zm2.3143,3.6829c.0328-.08.5134.1739.685.1811-.0644.0386.25.2761.0884.2729C266.5382,170.7237,265.8361,170.5051,265.68,170.3806Zm7.8227,7.0384,1.03.5456C273.9326,177.832,273.2407,177.3726,273.5028,177.419Zm.6-.363c.15.0137.1334.0868.24.1148-.0437.0146.0242.0573-.1864.0031.0071-.074-.815-.3733-.1818-.2037a7.13,7.13,0,0,0-1.2523-.4159c.0644.0423.2379.1162.3.1591l-.7168-.2778.3588.0775c-.2584-.05-1.3837-.7466-1.6421-.68l.2278-.0547a6.9235,6.9235,0,0,1-1.1441-.57c.2846.2119-.4577-.1214-.6077-.1464-.2956-.2589-1.6282-.8073-2.19-1.1378-.4936-.1338.3179.2585.4266.3469-.6183-.3707-1.0689-.4594-1.6222-.8479l-.019-.006.0248.0564c-.14-.0776-.1072-.0849-.0248-.0564l-.0379-.0863c-.3495-.1873-.6873-.4391-.9121-.5379l-.1691-.043a.38.38,0,0,1,.1691.043l.12.03c.0409-.0545-.3959-.2557-.59-.3857l-.2376-.033c-.3-.3113,1.3526.6176.4729.0174l-.5262-.2066c-.81-.3833-.3445-.3075-1.0052-.7107.5566.22,1.05.661,1.4262.7309.0006-.0445-.3347-.2131-.3389-.26.1924.0835.53.2512.5273.2044l-.4829-.2525c.7163.3373,1.5007.7916,2.14,1.0619-1.1366-.6511.3686-.08-.47-.6049-.15-.0334-1.6942-.8613-1.2677-.7942.4761.3046.9726.5815,1.46.8714a7.3314,7.3314,0,0,0-1.1461-1.0568c-.4863-.2869-.8118-.4743-1.4266-.8193l.0872-.0435c-.75-.5455-.1817-.0014-.8311-.4125.0652-.0418-.2755-.3021-.5838-.5722-.1558-.1329-.3069-.2635-.4-.3631a.4519.4519,0,0,1-.0863-.1281c-.0067-.0316.0713-.0449.1512-.0448-.1829.02-.3788-.18-.5771-.3666a.3177.3177,0,0,1-.2079-.18,2.45,2.45,0,0,1,.2079.18c.1977.0582.418-.0555.3176-.0027.3982.29-.0585.2628.8482.674.2027.0511.2624.0212.0865-.1693.1382.1143.2833.2191.427.3264l.3361-.1864c.26.1827.065.2935.5726.4477l-.044-.0849a10.3311,10.3311,0,0,1,1.1546.7053l-.5362-.06c1.1811.6946-.5682.0284.4245.6289l.2331-.0216a.3067.3067,0,0,1,.1465-.0137l-.1465.0137c-.117.0518.1176.2394.4068.4194a3.9519,3.9519,0,0,1,.6654.4277l.0558-.0015c1.0123.4452,1.2136.6326,1.3545.7992a1.1746,1.1746,0,0,0,.2953.2685,4.57,4.57,0,0,0,.7054.4022,8.548,8.548,0,0,0,1.9094.7871,10.56,10.56,0,0,0,2.2872,1.0787l-.5092-.1375a3.2809,3.2809,0,0,0,.94.3644c-.0125-.0118-.0192-.022-.0119-.0285l.058.0382c-.01-.0011-.03-.0063-.0461-.01.1278.1206,1.191.4917,1.1769.5932-.6389-.2975-1.1244-.3275-1.4619-.5579-.2448-.0416-.4733.0109-.1122.132-.26-.0951-.8058-.1686-1.4811-.435a.7246.7246,0,0,1-.2684-.2281c-.0045-.0049-.0115-.0091-.0154-.0142-.0016-.016.0008-.0082.0154.0142.1462.16.615.2224,1.0838.4588-.4947-.2944.0615-.1653-.58-.5231-.76-.2383.2721.1873-.23.045-.03-.1366-1.0981-.57-1.2134-.691.104.0748-.2439-.0106.2222.198l-.6511-.18c-.4117-.2208.1472.0267.0872-.0585a2.1218,2.1218,0,0,0-.8216-.4414c-.0942.0114-.3884-.0435.1156.1667l-.7454-.2274a3.2227,3.2227,0,0,0,.7843.5511l.1944.0187c.4173.1913.1874.1785.3564.2764l-.4979-.2552c-.5541-.2523-.6468-.1967-.5357-.067.702.2358.527.3077.6413.44.3583.1573.7223.3093,1.0889.4585,1.0676.56.632.4949,1.5167.9508.1443.016-.0769-.0936-.194-.1775a26.8492,26.8492,0,0,1,2.5754,1.1955l-.0212-.056a3.4024,3.4024,0,0,0,1.1089.5108C276.2339,177.94,273.5125,176.5457,274.1024,177.056Zm-9.79-5.3051-.3739-.0316-.3285-.2676Zm-.4036-.811c.1581.1027.3125.21.4734.309l-.3267-.1275Zm.733.8456.6288.3783-.2878-.1219Zm6.2952,2.71-.2333.0409-.26-.1471Zm8.553,6.626c-1.089-.3807-1.5651-.8674-2.8693-1.28.5606.0539.9043.37,1.7594.5468-.4.0788,1.4136.5712,1.8335.8752A5.9116,5.9116,0,0,0,279.49,181.1211Zm.7651-.8727.7285.341-.3273-.0747Zm.5059,1.3531.0835-.0988.21.08Zm.8128-1.984.098-.0934c-.7174-.3553-2.6575-.9686-3.5516-1.4418a3.3264,3.3264,0,0,1-1.2414-.2837c.5162.1215.73.087.6663-.0326-.7385-.3012-.7194-.1662-.8311-.1125.0466-.0954-.6782-.3433-.68-.473-.2077-.05-.58-.1663-.1821.0072a14.2709,14.2709,0,0,1-2.8919-1.453l.859.3706s.0474-.0112-.0141-.0519c1.1635.5659,2.025.8789,3.49,1.4717-.0568-.1179-.5128-.3234-.2529-.3663.8424.2888,1.2181.6857,1.928.9234.1315.0013.0342-.1006-.2965-.2249.3672.1074,1.7533.56,1.57.6874.0419.0635-1.4115-.5471-.9-.1922a13.2563,13.2563,0,0,0-1.5851-.617c.0958.1-.2174.1095.3978.3286a4.9972,4.9972,0,0,1,1.0614.37.9529.9529,0,0,0-.6211-.137c1.0009.3292,1.14.4148,1.7958.6123.4072.284,1.3013.475,1.6054.7712ZM274.68,202.1283l-.2125-.0233c.0354-.0518-.1908-.0941-.3065-.1635-.0839-.0155-.0259.02-.0475.0213a5.8705,5.8705,0,0,0-.6607-.2686q.0421-.0157.0871-.028l-.1311-.0385c-.0821-.1055.3467.1169.4353.1142.3992.1685.4137.1827.6448.297l.0456,0c.0119.0131-.1365.0333.1449.0873a21.184,21.184,0,0,1-.7838-3.43s-.2524,1.255-.5752,2.3582a4.1681,4.1681,0,0,0,.332.2583c-.1048-.0383-.18-.02-.2648-.084l-.0176-.0191c.0312-.0094-.0008-.0459-.0661-.0988-.02.068-.04.1356-.0611.2019a14.04,14.04,0,0,1-1.3487,2.5909,2.0774,2.0774,0,0,1,.8752.6947l.0346-.0911c.0127.1625.3382.3337.4372.4763l.0069.003,0,.0081a.09.09,0,0,1-.0076.1258l.0076-.1258-.0064-.0111-.337-.1489.03.1461-.0992-.2253c-.0707.0805-.36-.0856-.3469.0256a.4.4,0,0,1-.0378-.0755l-.0637.0077.0611-.1095a2.3642,2.3642,0,0,1-.6088-.607c-.0307.0519-.06.1037-.0908.1556a3.1609,3.1609,0,0,0,.4147.466c-.0141-.033.0176-.0465.0026-.0794l.3572.3919-.0449-.0186c.16.1865.06.2319-.1136.1747a.8579.8579,0,0,1-.0985-.0426,4.2728,4.2728,0,0,0-.3.7193c.2827.2506.5508.5086.8544.7825l-.0967-.0406c-.0191.0239-.0687.0026-.0146.0879-.3056-.3137-.2511-.1687-.3806-.44L271.9838,206c0,.06.3.2571.1517.1907l-.229-.2088a4.5231,4.5231,0,0,0-.1327.8688.7651.7651,0,0,1,.3162.163l-.2089-.0363.3792.4822-.299-.0566c.185.0539.0466-.1406-.0524-.2822a.2677.2677,0,0,0-.1386-.0819c0,.0352-.0013.0706-.001.1053l.0209.0174a.1075.1075,0,0,1-.0211-.0026,5.3651,5.3651,0,0,0,.4643,2.1122,2.585,2.585,0,0,1-.952-2.4793c-.0552-.0335-.0805-.0184-.0485.0977l-.097-.365c.0658.0648.12.1153.1692.16a3.34,3.34,0,0,1,.37-.9138l-.2672-.2436.0169.1557c-.0889-.1657-.1688-.325-.2454-.484a4.4377,4.4377,0,0,0-.4852,1.4922c-.0625.7291.0592,3.8373,2.637,3.7333a3.0261,3.0261,0,0,0,2.977-2.33c-.0618-.0569-.0966-.0973-.0875-.112l-1.5909-1.2249a4.0636,4.0636,0,0,0-.4341-.3727c-.0635-.0467-.1315-.0945-.1828-.1273l-.09-.0433a.4166.4166,0,0,1-.26-.2583c-.1227-.0427-.1433-.02-.2281-.05l-.18-.2689c.0924-.0792.5121.3247.5719.1966-.063.0669-.0427.1031-.1425.1.1364.1915.2946.243.3488.1692.0255.0308.0382.0522.0594.0815a1.0624,1.0624,0,0,1,.08.1032c.0364.0553.0421.0849.0336.0978.6169.5155.677.1216,1.3069.77l.2181.2553c.1911.1426.2706.1393.2974.1248l0-.0036c.0135-.0208.0186-.0061,0,.0036.019.1062-.0237.2069.2951.5019.05-.1733.087-.3364.1149-.4841a2.8693,2.8693,0,0,1-.96-.6294l-.6336-.535-.3145-.26-.1539-.1183a.8882.8882,0,0,0-.1206-.0824l.1108-.1469.0229.0281.05.0538c.0324.0363.06.07.0839.1021.0481.0639.0831.1206.119.1755a1.1526,1.1526,0,0,0,.3434.3528c-.0789-.1792-.3412-.5019-.1331-.3861l-.548-.4563.1074-.03c-.1194-.1973-.3656-.4578-.4028-.5491.0354.0111.1566.07.166.0191l-.3713-.2934a1.7648,1.7648,0,0,1,.4856.3231l.2294.2.11.0917.1912.15c.0132-.0176.0549-.02.022-.0744l-.0939-.1056a.564.564,0,0,1,.0939.1056l.5081.5719-.7076-.5858c-.0055.0148.06.09.0975.1407l.1288.1671.2578.3342.407.25c.8266.7445-.6089-.2425.0993.354a.1012.1012,0,0,1,.0521.0045l-.0162.026-.0359-.03c-.08.0177.0093.2055.3307.4655.0689.0349.0854.0092.0317-.0541l.4476.398c.0184-.0992.0341-.1929.0459-.2738l-.007-.0059.0072.0044.0007-.0042c.1293-.8927-.7061-2.7868-1.4608-4.2746A6.8675,6.8675,0,0,1,274.68,202.1283Zm-.7707-1.2677c-.1277-.0607.1675.1469-.12-.018C274.1621,201.0521,273.1632,200.4107,273.909,200.8606Zm-1.1045,2.4153c-.0428-.0587-.2063-.165-.0446-.143C272.84,203.1842,272.8013,203.2326,272.8045,203.2759Zm.1722,2.0834c.01.089-.0932.021-.1447.0573-.3614-.3679.2418.0656.0169-.2468l.1882.2408C273.1114,205.3533,273.0473,205.5,272.9767,205.3593Zm.1712-1.7993a.7672.7672,0,0,0-.1275-.1009.0852.0852,0,0,0-.087-.0041c.0191-.0231.05-.017.087.0041a.5658.5658,0,0,1,.1275.1009,3.0942,3.0942,0,0,0,.2313.2065A1.5522,1.5522,0,0,1,273.1479,203.56Zm1.4691-1.2906-.3136-.0166c-.17-.0743.0881-.0238.1464-.0336.0417-.0469-.2841-.0753-.3035-.0934l.2129.0276.1841.0894c.1173.003-.2-.1257.0323-.0769.0463.0638.0061.0921.1648.1758C274.65,202.3214,274.6689,202.2979,274.617,202.2694Zm1.6656,4.25c-.0479.0788-.31.0443.0154.4248-.41-.3905-.2375-.3684-.72-.7967Zm-.4707-14.0027-2.8221-1.94a3.8077,3.8077,0,0,1-.4768-.1589c.2443.077.2411.0347.256.0072l-.7237-.4975c-.3954-.1662-.8872-.3961-1.3719-.6261a17.5942,17.5942,0,0,1-1.66-.9121l.9909.3395c-.0453.0034.2657.2568.5081.38a4.89,4.89,0,0,0,1.0254.4693l-7.9143-5.44c.1271.1668-.0639.19.1879.3347-.0121.2346-.6513-.072-1.3121-.4041-.6209-.32-1.27-.664-1.2537-.5038-.4492-.3085-.8738-.5964-1.2975-.863s-.8137-.4989-1.2386-.716c-.1169-.1671.1538-.0772.4368.0176s.6161.2114.5509.0676c-.0227-.0026-.4111-.2129-.6953-.3489-.268-.1287-.4384-.1886-.069.0917-.3493-.1741-.8356-.47-1.2192-.7-.379-.2285-.6754-.4-.6842-.3528l.095.0621-.963-.6066c.0519.0543.1052.1087-.0245.0451a3.3447,3.3447,0,0,0-1.12-.8385l.1007.1041-.4574-.3287c.34.1739-.0143-.048.3164.0779a5.7551,5.7551,0,0,0-.656-.3888c-.3706-.169-.22-.0182-.2066.0292a5.4074,5.4074,0,0,0-.92-.5267,2.2465,2.2465,0,0,0-.5786.4168,11.0577,11.0577,0,0,0,1.0516.521l-.6119-.3746.7234.3621c-.1278-.0631-.16-.036.2417.2354-.52-.2959-.2278.02-.6815-.3268l.0464.09c.0254.02.0335.0311.0134.0262l-.0134-.0262a4.8681,4.8681,0,0,0-.8179-.4561l-.0174.0185a2.9757,2.9757,0,0,0,.8129.4892,8.4863,8.4863,0,0,1-.8193-.39l.1261.0286c-.0492-.04-.0956-.0724-.1418-.1045a2.275,2.275,0,0,0-.1841.23l-.0155.0226.05.0285a2.4265,2.4265,0,0,1,.22.1361c-.0664-.0436-.1418-.09-.22-.1361-.0193-.01-.0353-.0172-.0521-.025l-.0945.1377c.5364.3061.9655.5984,1.5376.9142-.4065-.296.0476-.04-.2265-.2395a6.9333,6.9333,0,0,1,.5958.4157,11.2524,11.2524,0,0,1,1.8244,1.09l-.124-.014.735.4773c-.5636-.4176.1774.0644.0687-.07.1853.1272.3306.2422.6011.4032-.0131-.07-.3269-.2444-.3359-.28.4135.2726.9328.6577.488.4327.3732.2637.8016.5856,1.1692.82-.3862-.3112.6446.4042.911.5344.0267.009.0115-.0116-.0362-.0484-.0353-.0245-.07-.0486-.1126-.0766a1.2324,1.2324,0,0,1,.1126.0766c.3524.244.4013.3415,1.116.7908l.0288.125c.3648.2041.9206.5466.8141.4284l.2555.246c.9217.5394,2.4094,1.5937,3.21,2.02-.1954-.1931-.1494-.1829-.3471-.377a13.6324,13.6324,0,0,0,1.3489.8563,12.981,12.981,0,0,1,1.4431.95l-.7313-.3786a2.187,2.187,0,0,0,.311.2322c-.3455-.2172-.8532-.5154-1.3532-.799a13.4293,13.4293,0,0,1-1.2851-.8239c.1926.2272.0479.0574.0417.1332a4.4829,4.4829,0,0,0-1.0282-.7226.8825.8825,0,0,0,.2387.2348l-.653-.4454.7459.5888c.04.0885-.4353-.0657-1.0767-.552-.1483.0285.2154.2666.9709.784-.1247-.041.0133.0808-.5457-.2542a9.6316,9.6316,0,0,1,1.3151,1.119,12.0939,12.0939,0,0,1,1.498.8558,11.8814,11.8814,0,0,0,1.6.8993c-.4341-.4179.1258.0769.2984.0369l.008.1161c.4585.2553,1.0306.61,1.53.9242a8.4414,8.4414,0,0,1,1.0979.7549c-.3083-.1321-.0089.1125-.77-.3655l-.1.0979.6118.3352c.3359.2459-.2985-.1279-.0087.1121-.3325-.2181-.669-.4446-1.0074-.6837l.2723.3228-.7125-.4515c-.5609-.3818-.7379-.2767-1.3678-.6924l.0784.019a4.498,4.498,0,0,0-.6383-.4356c-.2383-.1385-.2721-.1063-.1488.004l-.4767-.3584c-.1389-.0929-.3061-.23-.4994-.3756l.4994.3756a1.28,1.28,0,0,0,.1111.0681,13.8165,13.8165,0,0,0-1.6719-1.1788,10.3786,10.3786,0,0,1-1.023-.6131l.2436.2368c-.6839-.3953-.4813-.3864-.988-.6931l.3985.1909c-.9082-.6785-.4369-.1561-1.1049-.6832.1407.1717-.2076-.0954.1135.166-.3156-.1146-1.2189-.9414-1.0021-.65l-.5862-.5712c.5178.4567.58.2763,1.1485.79-.34-.296-.1891-.255-.2378-.3541a.4585.4585,0,0,1-.1242-.1477.6048.6048,0,0,1,.1242.1477c.3348.3,1.237.8042,1.6085,1.1573a1.3227,1.3227,0,0,0-.1369-.1487,4.7946,4.7946,0,0,0,.68.4294,27.8223,27.8223,0,0,0-2.3572-1.6963l.1052.0308c-.334-.27-.7634-.4813-.4922-.2268a19.5974,19.5974,0,0,0-1.6057-1.1567l.79.6721c-.6309-.4409-.15.0195-.8494-.5335-.2833-.1607.1368.1832.4478.3976l-.4268-.2347a3.7489,3.7489,0,0,0,.3088.2548c-.3957-.2992-1.0361-.6712-1.3888-.9733.2391.2-.6655-.3022-1.143-.5805-.3088-.4115,1.3007.8378.9782.4445a6.6574,6.6574,0,0,0-1.1489-.6536c-.4879-.2871.0767-.1275-.7787-.633a6.0216,6.0216,0,0,1,.9288.5768c-.0055-.0638-.0065-.1276-.0061-.1861a21.5409,21.5409,0,0,1,2.2879,1.4489c-.3388-.42,1.1171.7552,1.1186.5755a5.1541,5.1541,0,0,1-.8715-.6047c-.185-.1879.1791.0514.0959-.0607a25.8193,25.8193,0,0,0-2.21-1.5377,6.9108,6.9108,0,0,0,.9666.7778l-1.1415-.8221c-.21-.0989-.6489-.29-.1065.0811-.8845-.5971-.4063-.2466-.9084-.4889.2354.09-.2186-.2642-.1534-.2555a9.0392,9.0392,0,0,0-1.3712-.8855,11.7969,11.7969,0,0,1-1.2077-.6682c.0214.0161.0414.0293.0633.0466l-.2217-.1482c.0562.0368.1067.0686.1584.1016a11.1583,11.1583,0,0,0-1.4889-.8035,2.2626,2.2626,0,0,0,.7928,2.7664l11.6965,8.04c-.3851-.281-.7751-.57-1.1751-.875.2525.13.503.2642.75.4052l-.0346-.0357a.6694.6694,0,0,1-.1756-.1816l.1756.1816a8.6054,8.6054,0,0,1,.7945.604c.0585.0421-.047.0567.13.2208l8.16,5.6095a2.2617,2.2617,0,0,0,2.5488.008,2.0158,2.0158,0,0,1-.3018-.1567l.16-.0075c.0789-.0059-.1137-.0991-.1648-.1341l.4682.1789.0182-.0159c-.0855-.0718-.0156-.1052.1088-.0948a2.2624,2.2624,0,0,0,.3089-.3609l.1859-.27a2.2564,2.2564,0,0,0,.3007-.6255c-.0284-.0224-.0556-.0456-.0815-.07-.0556-.0305-.1138-.06-.1764-.0881-.678-.1846.2415.3581-.6167-.0152-.2339.13.4862.2538.57.4135-.8309-.1734-.5163-.4152-1.414-.6075l.1248.0724a5.9929,5.9929,0,0,1-.8224-.3541l.3029.0149a7.0756,7.0756,0,0,0-.9427-.5894c-.2716-.0565.4712.2825.1162.1517-.0834.0316-.2507-.2366-.5074-.3689-.0264.1137-.3873.0148-.1934.2089.0261.0126.0471.0219.078.0379l.17.16a2.0431,2.0431,0,0,1-.2482-.1977c-.0493-.024-.0913-.043-.1247-.0561l.0215.0064a11.3934,11.3934,0,0,0-1.8129-.9757c.0983.09-.1882.0125-.2413.0459l-.64-.4349c.1028-.0683.7693.2184.7826.1076-.6812-.2933-.18-.2164-.8855-.5953a9.99,9.99,0,0,1,1.7248.8886,10.3552,10.3552,0,0,0-1.0652-.5165,3.3459,3.3459,0,0,0,1.179.7162l.1646.2825a2.762,2.762,0,0,1,.7719.2575c.1992.018-.027-.1489-.12-.2318.3.1117.5983.2322.903.3376l-.1716-.1557c.32.0163,1.1857.3152,1.7537.44l-.0691-.082c-.09-.0585-.14-.1068-.1142-.135l.1142.135c.344.2252,1.2942.61.97.6689a4.18,4.18,0,0,1,.5707.2012A2.26,2.26,0,0,0,275.8119,192.5162ZM252.9559,179.62l-.2678-.22.5847.4012Zm-.1781-.25c-.2686-.22.5321.2366.57.1822C253.4888,179.6853,252.7778,179.37,252.7778,179.37Zm12.1173,6.5123-.7391-.5013.0567.0092.7462.5049Zm.9445.3291c-.0433-.06.2586.0492.0426-.0952l.5463.3642A1.1125,1.1125,0,0,1,265.84,186.2109Zm-8.3873-3.095.4342.3516c-.0989-.0747-.2976-.1654-.4658-.304C257.35,183.0956,257.3834,183.1021,257.4523,183.1159Zm-3.2574-1.9326a7.0868,7.0868,0,0,1,1.4307.9048,2.7753,2.7753,0,0,1-.921-.5536c-.1578-.1126-.33-.2349-.51-.3512-.3174-.1634-.6231-.307-.8506-.4028A2.85,2.85,0,0,1,254.1949,181.1833Zm1.2051,1.2479c-.32-.2141-.6517-.4128-.9823-.6212A4.6983,4.6983,0,0,1,255.4,182.4312Zm-.6094,1.0763-.0582.0746-.763-.3947Zm.0492.344-.3193-.1769.6618.315Zm1.3208.2715c-.3666-.1212-1.2249-.6-1.7821-.87.0167-.0251.18.0108.2325.0027a2.5331,2.5331,0,0,1-.2431-.1687c.2537.1256.286.162.2431.1687a9.7231,9.7231,0,0,0,1.0915.55C256.131,184.0054,256.4056,184.1488,256.1606,184.123Zm-.6754-1.7694.2633.1389.5109.4228ZM259.8,185.31a1.3554,1.3554,0,0,0-.2752-.2595C259.7152,185.1967,259.884,185.3237,259.8,185.31Zm2.6452,2.675c-.2027-.1024-.4051-.2008-.6044-.2949l.1489.1156-.1668-.1243.0179.0087-.76-.59c-.7082-.51-.1593.0529-.8375-.4691.4744.3083.2171.0223.4675.1344.4123.2515,1.14.9065,1.1714.7529l.2291.2674c.084.04.2349.141.3341.2.0307.0155.0607.0288.0915.0446A.3127.3127,0,0,1,262.4454,187.9854Zm6.7249,3.3991.4519.3169-.4624-.28C269.0839,191.3683,269.05,191.3229,269.17,191.3845Zm.7761.7221-.319-.0517c-.1395-.1412-.06-.1288-.1978-.27Zm-4.7045-2.7512.15.1656-.2947-.1952Zm.0652.31c-.066-.0733-.326-.3051-.1376-.1868l.284.2864-.1464-.1c.044.0489.0025.028-.3188-.2168Zm-.6453.0322.4227.3608-.7915-.53C264.24,189.3984,265.19,190.1839,264.6618,189.6977Zm.5564.6126c-.0667-.0568-.1093-.0961-.1391-.1255-.2053-.1625-.488-.328-.3414-.2945.4388.2936.1839.1385.3414.2945A1.0781,1.0781,0,0,1,265.2182,190.31Zm.7685,1.0689c-.1695-.1324-.5953-.4111-.5554-.3451-.0788-.0579-.1493-.1094-.2177-.1592l-.0084-.0025-.028-.0241a10.66,10.66,0,0,1-1.09-.843,7.6763,7.6763,0,0,1,1.09.843l.0364.0266a2.7684,2.7684,0,0,1,.7731.5043.4926.4926,0,0,1,.0674.0585C266.0322,191.4177,266.0093,191.3987,265.9867,191.3792Zm2.5379,1.3474c-.0286-.0195-.067-.0479-.122-.0916l.122.0916c.1773.12-.0539-.14.4332.218C269.0177,193.0816,268.8578,192.9757,268.5246,192.7266Zm-.6161-.8108a.7509.7509,0,0,1,.2775.3515,18.9763,18.9763,0,0,0-1.7763-1.221,2.0268,2.0268,0,0,1-.6338-.5771c.5423.5186.8505.5828,1.3581,1.0291a2.2637,2.2637,0,0,0-.577-.5032c.7976.5174.7113.5656,1.3986,1.0078l-.2046-.2106c.2254.1037.556.3378.8026.49l-.372-.305.2593.1653.1222.1455c.1935.1187.3342.1854.3176.0842l.1186.2369C268.5874,192.3266,268.3347,192.24,267.9085,191.9158Zm4.45,3.7918c-.1121-.1278-.2752-.2534-.1525-.2192.1855.1236.3018.29.4487.2739C272.7391,195.8872,272.4568,195.745,272.359,195.7076Zm2.3919.2091-.286-.2111.4728.1691C274.9626,195.9459,274.7206,195.8441,274.7509,195.9167Zm-.2394-1.3043c-.0376.0333-.4958-.0539-.121.1751a.51.51,0,0,0,.2989.0452,1.8006,1.8006,0,0,1,.727.6106c-.3762-.14-.1269-.1-.4942-.356-.1052-.0382-.32-.1148-.2481-.0409-.2538-.1553-.6246-.3576-.9422-.524l.0113.0237a1.32,1.32,0,0,1-.3623-.2043c.1.05.2214.1126.351.1806l-.1142-.2407-.7944-.2688A6.013,6.013,0,0,1,274.5115,194.6124Zm-1.68-.8927c-.0837-.0066.0241.1059.1552.1886a2.7547,2.7547,0,0,1-.4487-.2589A2.3583,2.3583,0,0,1,272.8319,193.72Zm-1.7046,1.0543a.2273.2273,0,0,0-.0716-.083c-.0516-.0342-.0988-.0649-.1306-.0832a.6753.6753,0,0,1,.1306.0832c.1919.1272.4458.3035.2039.0735a4.6871,4.6871,0,0,1,.954.5845c-.0878-.0212-.1709-.0487-.2546-.0717l.0549.0425c-.2835-.1811-.577-.3551-.866-.549a1.5754,1.5754,0,0,0,.3516.3137c-.2811-.2193-.1621.02-.5709-.231-.3862-.38-.5883-.2845-.955-.5593-.71-.5148-.4539-.5235-.29-.4248.5789.3177.4706.4437.9611.7551.386.2468-.0172-.1419-.1063-.1938A3.2381,3.2381,0,0,1,271.1273,194.774Zm-1.3933-1.6971.4509.3424-.3015-.1526Zm.6368-.4715a12.4889,12.4889,0,0,1-1.4791-.7463c-.072-.0132-.2091-.0753-.1006.0248.1727.0734.9846.5634.8087.5371a3.64,3.64,0,0,0-.9669-.5166,6.0022,6.0022,0,0,0-.84-.6939,6.9,6.9,0,0,0,1.1671.6188l-.2176-.16c.3954.2774.7947.496,1.1177.7028.2227.0725-.2756-.2824.1268-.0611A1.6282,1.6282,0,0,0,270.3708,192.6054Zm3.4874.0524c-.38-.1769-1.0386-.2551-1.1854-.4587A5.6007,5.6007,0,0,1,273.8582,192.6578Zm-6.21-4.3577c.3.0464.2441.039.641.3072Zm1.4489.7913c.13.12.008.1012-.0159.1481-.5973-.3431-.5606-.4433-.4417-.5055.0851-.0463.2133-.0724.1394-.1754-.06-.05-.12-.0994-.1754-.15a.692.692,0,0,1,.1754.15,3.17,3.17,0,0,0,.9048.5271l-.0365-.0551a19.52,19.52,0,0,0,2.4709,1.4043c-.0528.0306-.65-.1426-.0529.1607A30.0446,30.0446,0,0,1,269.0969,189.0914Zm3.8459,4.1839a1.5987,1.5987,0,0,0-.4058-.2231l.3811.0742-.643-.2854c.23.06.4833.16.441.0829-.2836-.1667-.5762-.3251-.8651-.5058-.1029-.0145.1713.1348.1416.167-.2168-.1184-.4375-.2344-.6587-.3517l-.0159-.002-.028-.0215c-.2679-.1423-.537-.287-.8051-.4415.1266.06.0491.0081.0211-.0342a3.1242,3.1242,0,0,1,.784.4757l.0439.0235a7.3469,7.3469,0,0,1,1.49.5947c.29.1767-.0469.2119.54.4909Zm.1228-.5975.0543.1141c-.4978-.1685-1.1025-.6039-1.23-.4772l-.2423-.256c.2033.1146,1.2873.5629.9437.3078-.3277-.2213-1.0415-.4634-.8591-.5113a9.1578,9.1578,0,0,0,1.6359.7513c.1113.1186-.3084-.1725-.3929-.1179a3.1907,3.1907,0,0,0,1.6249.5607c.0234.0732-.6763-.0688.0751.2135A13.4816,13.4816,0,0,1,273.0656,192.6778Zm14.0713-17.2373.0068-.03c-.0247-.0015-.05-.0031-.0719-.0027C287.0913,175.4205,287.1164,175.4287,287.1369,175.4405Zm-5.1938,12.45-24.33-16.7243a2.2614,2.2614,0,0,0-2.5971.0262l.3379.27a.2865.2865,0,0,1,.1672.1724,4.3055,4.3055,0,0,1-.5262-.4274c-.0217.0159-.0443.03-.0654.0468.1824.1808.3711.3665.5241.5282.2134.2113.3651.3808.3488.4436a1.9547,1.9547,0,0,0,.816.5562c-.2327-.104.1354.363.5572.64l.1384.0473.38.6808.0386.0177-.0378-.0161.0286.0512c-.0174-.0208-.0314-.04-.0446-.0581l-.3693-.158a3.1655,3.1655,0,0,0,.6237.5213,2.1493,2.1493,0,0,1-.6969-.5525l-.3135-.1341a1.5337,1.5337,0,0,0,.1793.2636l-.6173-.4509-.0654-.028c-.4318-.1826-.9017-.3959-1.2442-.5072-.9222-.3746-.5888-.39-.8663-.5345l.6919.3187c.3783.16.8679.4078,1.3078.6191-.6751-.6389-.37-.7281-1.1578-1.3557l.4992.2785c-.6242-.6864-.6548-.4036-1.0746-.819-.0375.0463-.0748.0929-.1091.1428l-.1859.27a2.2725,2.2725,0,0,0-.2294.4264l.1533.0706c-.042-.0176-.0966-.038-.1572-.06-.01.0237-.0175.0477-.0262.0716a5.1031,5.1031,0,0,0,1.0747,1.0051,7.554,7.554,0,0,1,1.5947,1.445c-.126-.0913-.2553-.1826-.3834-.274l-.0626.0172.03-.04-.0447-.0329-.59-.2857.3284.1451c-.2908-.2411-.6878-.5706-1.0034-.8323-.192-.1607-.3529-.295-.4557-.3675l-.1183-.0535c.01-.0146.0525.007.1183.0535l.4859.2194c-.2382-.2362-.6161-.5463-1.0113-.8979a2.2439,2.2439,0,0,0-.0694.3045c.2141.2026.4347.4063.664.6106l.2835.1623c-.0494-.0135-.0993-.0274-.149-.0412.5413.4762,1.1265.9507,1.75,1.4139.0671.0334.1333.0656.2009.1-.0165-.014-.0345-.0279-.0508-.0418a.5429.5429,0,0,1,.081.0573c.1379.07.2763.1427.413.216.4361.2445.8591.5,1.212.7321a2.369,2.369,0,0,1,.4386.3032c-.1239-.0928-.276-.1962-.4386-.3032-.3483-.2019-.8165-.4282-1.244-.63.1008.0793.2019.1586.3056.2381l-.6392-.3375c.56.4294.94.7039,1.289.9248a11.4533,11.4533,0,0,0,1.1864.6045c-.1594-.0452-.1883.0394.1717.2829.1672.0457.0167-.0887.3295.0883.362.2938.7991.6079,1.2514.9059.4674.2984.9143.58,1.2269.8136a15.2186,15.2186,0,0,1,1.7561.6728,6.3687,6.3687,0,0,0,.5584.3334,4.1621,4.1621,0,0,0,.8475.3856c.2141.1324.45.2914.72.45s.5379.3207.764.4631c.4519.2846.7322.4919.48.4357l-.735-.38c-1.0567-.2141,1.2065.6447,1.2514.7645l-.64-.1769-1.1606-.6865c-.4037-.1112-.6084-.1672-.76-.2016l.3379.2258c-.1411-.0784-.285-.161-.4282-.2448-.1079-.0213-.2025-.0339-.3555-.0539.1766.0139-.1036-.1586-.5411-.3978l.1425.1261c-.8971-.4883-1.654-.8717-2.3877-1.2909l-1.0166-.58c-.3115-.1785-.6188-.3646-.9278-.5637.355.1269.0384-.0751.3292.0567-.66-.44-1.3708-.8459-1.4724-1.1228l-.8561-.4588c-.9832-.6178-.2131-.2913-1.0261-.8648a.897.897,0,0,1-.0927-.0085,1.2655,1.2655,0,0,1-.3251-.1981c-.0742-.0393-.1443-.0735-.1578-.034-.2011-.1494-.6576-.4848-1.1057-.8359-.2551-.1108-.5131-.2138-.75-.298l-.49-.1762a2.2505,2.2505,0,0,0,.7081.7906l17.0989,11.7536c.16.067.3944.1688.3106.0835-.03-.0251-.06-.05-.087-.0727a.7235.7235,0,0,1,.087.0727c.1292.1075.2484.2151.0227.1456l.6059.4165-.0166-.0431.29.1574.28.1312.5571.2606c.1036.1016-.5251-.2031-.78-.2792l.4222.29c.1.0288.1574.03.0967-.0216.0943.06.3722.1787.11.1159.453.1048,1.07.3439,1.6119.5173a3.0725,3.0725,0,0,0,1.2.192l-.5463-.2013c.7516.2168,1.51.4514,2.2743.605l-.11-.0465c.383.09.8025.2069,1.23.3321.1069.03.2138.0656.3219.0924l.3134.0805.4369.1126c.287.0725.5627.1392.81.1832a3.3284,3.3284,0,0,0,.4724.0366c-.0384-.027-.02-.0378.1718-.0017-.051.0052-.1134.002-.1718.0017.0829.0584.43.1928-.1454.095a5.1617,5.1617,0,0,0,1.0911.2563A2.2635,2.2635,0,0,0,281.9431,187.89ZM254.9723,172.67l.1821.2432c-.2356-.1952-.4526-.3926-.67-.59Zm1.627,3.4059-.4334-.1731-.3788-.1388c-.0489-.06-.5319-.32-.3912-.3106l.6018.3241c.2354.0391.5214.1093.7826.1627.3033.099.467.3957.0867.2835l1.369.7983C257.554,176.7054,256.1089,176.0025,256.5993,176.0754Zm2.3256,1.71c-.0737-.0294-.15-.0605-.2106-.0814a2.5247,2.5247,0,0,1-.6225-.3241c-.0415-.1407.0821-.0545.307.094.1125.0743.25.1643.4062.2493.0364.02.08.0413.12.0622.0344.0137.061.0219.0983.038.1135.0476.2331.1013.3643.17A3.5466,3.5466,0,0,1,258.9249,177.7853Zm6.803,4.8225.2669.0193.4744.3495c.5182.2821-.0186-.1726.6137.1555.1465.0975.0967.16.162.267C266.5991,183.19,267.0987,183.3009,265.7279,182.6078Zm14.6,5.4663c.0147.008-.0049.009.0481.0252l.0525.0189.0081.0089.0164.0176c.0256.04.1246.1061-.3656.0084l-1.6035-.531c.3078.047.7726.1661,1.1743.2675.201.0495.3858.1.5288.125l.1426.0234.007-.0026.02-.0014.0893.0138a.3783.3783,0,0,1,.0461-.0019.0518.0518,0,0,1-.0219.0085l-.0162.0023c-.0086,0,.0022.0041-.0584-.0079l-.0657-.0108c-.014.0038-.02.01-.0157.0186A.0623.0623,0,0,0,280.3277,188.0741Zm-2.4624-1.5531,1.0464.3291-.1294-.0207Zm-.5242-.4814-.2923-.1083c-.0474-.23,2.37.9152,3.4,1.4023l-.3051-.0877c-.8891-.3738-.483-.1022-.64-.1465-.1231-.1268-1.8024-.7182-2.6865-1.1086C277.1374,186.0773,277.9207,186.32,277.3411,186.04Zm-4.0648-3.3226-1.27-.5607c-.4227-.1863-.8434-.3724-1.2389-.5636l.1372.0418A17.6606,17.6606,0,0,1,273.2763,182.717Zm-2.7971-1.8449c.35.1666.5935.2711.2858.207-.3231-.1406-.6659-.2782-.9715-.4216C271.0222,181.1648,269.2744,180.3505,270.4792,180.8721Zm-.31.0786-.0974.1557c-.1185-.0974-.2447-.1929-.3537-.29Zm-2.11-1.8852c.655.4021-1.0628-.1514-1.6615-.65C266.3231,178.1751,267.4485,178.9246,268.059,179.0655Zm-3.1147-.8014c.3027.1907.5981.3931.8957.5888-.5492-.3273-1.1063-.6357-1.66-.9469Zm-1.639-2.3788c.2339.1565.45.2483.4652.313-.0243.0045.1393.1249.2628.2288.1262.1038.2213.1912.0277.1283C263.902,176.3737,263.1489,175.8464,263.3053,175.8853Zm-5.2481-1.6621.0482-.0049c.1759.1305.3725.26.56.3889l.0065.0658C258.4676,174.523,258.2488,174.3741,258.0572,174.2232Zm.68.7915c.36.2236,1.0089.5448,1.7415.9091l1.1323.57.2829.1471.2969.1764.0475.0292a.1035.1035,0,0,1,.1055-.0221c-.08-.044-.1513-.0821-.1992-.1045l.7564.3522c-.33-.2232-.7029-.4592-1.09-.6974-.3769-.2224-.7414-.4061-1.109-.6041-.7288-.3863-1.4126-.7446-1.8707-1.0289a.885.885,0,0,0,.4623.0884l1.517.8413.7554.4188.8057.4967-.0363-.0558c1.9039,1.2276-.2257.0388,1.081.9238.103.0678.2031.1349.2752.1836-.106-.07-.1961-.13-.2752-.1836a4.6811,4.6811,0,0,0-.4377-.2665l-.0018.1575a5.6477,5.6477,0,0,0-.5757-.3593,1.8819,1.8819,0,0,0,.5747.3836,3.1718,3.1718,0,0,1-1.1052-.6753c-.2275-.12-.47-.2432-.7124-.3567A24.0524,24.0524,0,0,1,258.7368,175.0147Zm2.086,2.4575.746.2685.6654.4174Zm1.087,1.22.0407.04a.1863.1863,0,0,1-.0407-.04l-.2468-.2442.5806.3781C262.1357,178.7791,261.8847,178.6489,261.91,178.6918Zm2.109.5669-.4861-.2924c-.2371-.1344-.4791-.2758-.6668-.3656-.1387-.0711-.2618-.1339-.36-.1821l.0931.1353c-.4417-.29-.378-.2759-.0931-.1353l-.0274-.04c.178.089.42.2121.6976.3733l.3561.2142c.0924.0524.1839.1037.2712.1505a7.725,7.725,0,0,0,.7661.3847C264.8773,179.7569,264.5333,179.5654,264.0188,179.2587Zm2.2363,1.19-1.0314-.6965c.4847.2943.9682.5868,1.4446.8886Zm.2521-.8417.7761.3977-.5035-.5143a1.8375,1.8375,0,0,0-.6435-.2876.8209.8209,0,0,1-.3914-.0889c-.43-.3168-.7272-.489-.5969-.53l.42.3092c.17-.0582,1.0088.473,1.225.3916-.2868-.1491-.5387-.3-.8094-.45-.426-.3992,1.475.7563.7487.1853.5032.2276,1.0053.4924,1.4432.7444.4342.2521.88.4841,1.22.6432a2.8983,2.8983,0,0,1-.9268-.3542c-.37-.19-.73-.4112-1.0207-.5409.419.3282-.708-.307-.4193-.0255a3.0481,3.0481,0,0,0,.7819.3986c-.0134-.0165-.0125-.0278.0164-.0288.03.0294.0192.0363-.0164.0288.1106.1362,1.4362.7115.2849.2772a5.1525,5.1525,0,0,0-1.17-.53c.2419.1537.5044.3.7752.4409s.5766.274.8641.4063c.5805.2644,1.1432.5194,1.655.7919a7.6414,7.6414,0,0,1-.9639-.2995c-.3209-.1252-.6486-.27-.9734-.4234C267.6167,180.2438,267.034,179.8991,266.5072,179.607Zm2.9187,2.9149c-.3106-.197-.6942-.4341-1.17-.6913.04-.128.5894.3117,1.0064.5079.0238-.1691-1.3619-.785-1.9178-1.2305,1.0856.6548,2.0416,1.0462,2.3853,1.32a6.7034,6.7034,0,0,1,1.444.9319c.3369.1482.6762.296,1.0277.4407.0273-.0224.18.02-.0772-.1123l.5555.2487-.2983-.116.415.3921c1.0962.5245.542.0635.9249.2919-.0637.0742-.1214.118.5985.4375a13.2057,13.2057,0,0,1-2.6734-1.2084l.3208.0914c.1136.0752.2967.17.4272.2405a7.944,7.944,0,0,0-1.1485-.619,1.556,1.556,0,0,0,.6094.553,10.1915,10.1915,0,0,1-1.6443-.9625C269.9751,182.8764,269.728,182.7075,269.4259,182.5219Zm5.1257,3.0388a8.3762,8.3762,0,0,1-1.23-.5255,11.68,11.68,0,0,1-1.1967-.645c.3047.1634.571.2416.858.364l.85.3388A6.8041,6.8041,0,0,0,274.5516,185.5607Zm-1.2608,2.0489-.15-.146.352.1948.6242.1566Zm1.6471.691.1-.0082-.5725-.2845a6.095,6.095,0,0,1,1.2441.6C275.456,188.5232,275.198,188.4164,274.9379,188.3006Zm5.3995.4468.4524.0065a1.3149,1.3149,0,0,0-.4335-.1585s-.0051.0292.065.0614c-.4049-.08-.8626-.2153-1.29-.3271l.1276.2748a8.6872,8.6872,0,0,0-1.3272-.4751c-.2792-.0748-.551-.1658-.758-.2263-.2069-.0581-.3487-.0833-.3708-.0545.0005.0316.1322.1264.3668.2406-1.0511-.3855-1.9955-.655-2.9716-1.0852-.4869-.2038-.9628-.3839-1.4751-.63-.5228-.2711-1.0625-.561-1.64-.8893a5.36,5.36,0,0,1-.8547-.6087c.5614.33,1.0587.5857,1.5388.8188l.7058.33c.1156.0513.2333.1078.3463.153l.332.117c.4435.1556.8935.3121,1.3718.494l.7389.2879c.25.0838.5085.1758.778.2783-.4742-.1708-.3909-.2737-.9927-.49l-.0987.0389c-.6129-.2807-2.4209-1.01-1.6476-.8592l1.5008.7148a8.1855,8.1855,0,0,0-1.5323-.7719,3.8252,3.8252,0,0,1-1.3158-.7552c.2468.089,2.5016,1.1217,3.345,1.3561-.2167.0213.679.4847,1.4022.7394.0628-.0052.0107-.0458-.0481-.0867-.0745-.0349-.1165-.063-.0981-.0782.0047.0158.0533.0471.0981.0782.3171.1485,1.23.4212.6644.3514.96.2938,1.6253.4682,2.2277.678.2985.1.5923.2056.8816.2868l.5921.2c.0045-.0513-.1065-.1331-.2427-.2066-.1122-.0472-.2239-.0939-.3242-.138a1.8005,1.8005,0,0,1,.3242.138,3.3921,3.3921,0,0,1,.6818.3367C281.2245,188.9765,280.8687,188.7553,280.3374,188.7474Zm6.8184-14.1516c-.0822-.0325-.1875-.0739-.3783-.1551a1.267,1.267,0,0,0,.3551.0382,2.252,2.252,0,0,0-.9257-1.3784l-3.7893-2.6047-.4334-.1462c.0762-.022.1056-.0487.1063-.0787l-.6258-.43c-.318-.0344.0847.1709-.0284.2472-.5506-.0714-.5122-.2457-1.06-.2752.8132.37.3015.368.42.5528.067.0562.135.1112.2049.1638a.6106.6106,0,0,1-.2049-.1638l-.0271-.0217c-.2558-.0007.0366.2942.1469.4261l.0952.0086q-.1341.0495-.26.1054l-.3018-.1574c-.1533.0345-.5258.0022-.5224.0909.6782.2644-.5224.2484.2286.6025.0246.0081.05.0129.0745.02.0935.125-.4536.06-.4536.06l-.0962-.1487a1.2028,1.2028,0,0,0,.446.12c-.1523-.18-.5487-.2334-.9419-.3274.1071.1173-.57.0962.0206.3248a.247.247,0,0,0,.0656-.024c-.0233-.0707.009-.1236.0889-.1416-.0149.03.0044.0985-.0889.1416.03.0912.16.2125.4133.3319a.4833.4833,0,0,1,.1425.0632c-.0531-.0208-.0975-.042-.1425-.0632a14.9617,14.9617,0,0,1-1.6268-.374c-.1168.1906.0471.2811.522.5763l-.5392-.0329a2.0142,2.0142,0,0,1,.6783.3847,1.14,1.14,0,0,0,.71.2483c-.0641-.0164-.1711.098.0441.2176a.535.535,0,0,1,.2073.084.9843.9843,0,0,1-.2073-.084c-.1428-.0311-.2819-.0281-.3593-.1011-.1321.0353.2709.2882.49.3128l-.0355-.0692.2353.1928c.1277-.0141.0255-.0768.0815-.1062l.609.14c-.0364-.0677.1313-.151.5678-.053l-.0166-.0169-.1731-.1352a.6137.6137,0,0,1,.1731.1352l.0234.0183-.0068-.0014a.7943.7943,0,0,0,.5306.2714,1.3678,1.3678,0,0,0,.3388.0836l.1374-.0246c.0455-.0289.07-.0725.1427-.0938.0655.0107.0736.1489.44.2419-.1185-.096.0976-.1568-.1306-.25-.0178-.0411.1827-.01.2408-.02-.0511.03-.0675.1228.2185.2026l.1018-.043c.24.2259-.5219-.0566-.3387.1633-.33-.1467-.4789-.0717-.56-.2214l-.1144.02a.2193.2193,0,0,1-.1374.0246l-.2074.0372a2.0415,2.0415,0,0,1,.5244.3235c.7933.1757,1,.5711,1.3763.4558-.199-.09-.4714-.192-.6985-.2877a1.1206,1.1206,0,0,0,.2885.0714c.1652-.0185.1962-.0546.1647-.0984l.406.1513-.4385-.0356c.1269.16.6228.2628.7862.3863l.3837-.0809c-.0053.0621-.2985.1126.1427.2261-.0031-.0641.1006-.0739.2816-.0555-.0052.056-.0081.113-.0086.1707.0618.0069.2506.0913.2671.05l-.025-.0249.309.0963-.3982-.0182c.4425.1767.04.3621.3767.4216.4039.2269.3782.3942.3617.5623-.16-.0909-.6016-.1907-.2879-.2019a7.6277,7.6277,0,0,0-1.7838-.5416c-.0566-.0526-.044-.0952-.0973-.1469l-2.2817-.7238.0464.05c-.4528-.2223-.08-.1607.0347-.2459-.371-.3122-.9046-.0879-1.3822-.369a1.8762,1.8762,0,0,0-.82-.5176l.2221.0263a15.3888,15.3888,0,0,0-1.3526-.815l-.2243-.0125c-.0175-.1622-.3272-.3214-.5681-.4579-.2346-.1422-.391-.2685-.0257-.3412a1.7436,1.7436,0,0,0-.4626-.28,1.9564,1.9564,0,0,0,.3143.052,1.724,1.724,0,0,1-.795-.5989.384.384,0,0,1-.1764-.1477,1.3113,1.3113,0,0,1,.1764.1477,3.1351,3.1351,0,0,0,.5251.2109c-.4682-.226.2242-.1182-.4019-.4012,0,0-.0914-.008-.1014.0131-.06-.0572-.117-.1185-.1745-.1778l-.04-.0235c-.237-.0357-.1065.0622-.2056.0757-.0777-.2566-.9288-.53-1.1793-.8334a.7078.7078,0,0,0-.1125-.0231c.0247.0211.0491.0421.082.0682-.1161-.0491-.1395-.0739-.082-.0682-.5079-.4364.6514.1243.3131-.2677-.4022-.0581-.2621-.24-.3081-.3177.4486.1557.5431.3034.6222.4319a.5623.5623,0,0,0,.4659.298c-.2466.0425-.2013.1381-.2525.2268.1323.0822.3684.24.6568.4095l.0193.0024.0207.0211a5.73,5.73,0,0,0,1.2193.5542c.2239-.0926-.4544-.2241-.2355-.2934-.3561-.0453-.1694-.2079-.6333-.2478-.1152-.1575-.6667-.7-.4143-.4664a4.3545,4.3545,0,0,0,.957.3881c-.4058-.15-.198-.2513-.2687-.3213-.026-.0128-.0464-.024-.0758-.0378a.1609.1609,0,0,1,.0758.0378c.4781.235.3927.3123.3125.383-.0877.0721-.178.1586.3679.372.1309-.0756.209-.1833.7321.0325-.46-.1733-.2487.1017-.5627,0-.1469.0941-.45.1851-.0029.462.1656.0513.9327.3151,1.0549.1762.4216-.0051-.1478-.2826-.0066-.3713l-.0861-.005c.0671-.1128-.3969-.3963-.0246-.3681a.6318.6318,0,0,1-.4007-.2084l-.0142-.0036-.0136-.0266a.2478.2478,0,0,1-.0611-.12c.019.0406.04.0806.0611.12.0078.01.0186.02.0278.03l.4809.1192c.2652-.17-.1159-.4636-.54-.7984-.4164-.3315-.8648-.7174-.5838-.896-.657-.2868-.6463-.6723-1.2035-1.1251.2864.0344.2031-.1547.0853-.402-.1234-.2448-.26-.5549-.1826-.6842l-.2373-.0746a.712.712,0,0,1-.0452-.442c.0036-.013.0106-.0245.015-.0372l-3.7318-2.5652-.0281-.011a.2383.2383,0,0,1-.1755-.0253.4221.4221,0,0,1,.1755.0253l.0083-.0026-2.358-1.6209a2.2628,2.2628,0,0,0-3.1464.5828l-.1858.27a2.2627,2.2627,0,0,0,.5828,3.1464L283.4577,177.1a2.2563,2.2563,0,0,0,2.0153.2732c-.2928-.1525-.8653-.3419-.7241-.4031a3.9808,3.9808,0,0,0,.8611.3522,2.25,2.25,0,0,0,.9939-.8051l.1859-.27a2.2618,2.2618,0,0,0,.24-.4548c-.1059-.0317-.208-.064-.3033-.0977-.2629-.0988.2738-.1221-.1812-.2119.3923.0344.1453-.25.5006-.1006-.0006-.0483-.1352-.0833-.1879-.1334l.2978-.0017c-.4447-.15.1671-.13-.0277-.2811l.0587.0428A2.2683,2.2683,0,0,0,287.1558,174.5958Zm-6.3061-3.041c-.2037.0382-.23.175-.5024.1355-.045-.0892.2372-.1359-.1175-.25a3.1319,3.1319,0,0,0,.62.1146.85.85,0,0,1,.3108.01A2.5676,2.5676,0,0,1,280.85,171.5548Zm.0477-.3888c.224.1394.4925.0581.6614.2367C281.3443,171.27,280.6841,171.2823,280.8974,171.166Zm1.6169,2.603c.2514.0355.2167.1445.41.2281A1.2068,1.2068,0,0,1,282.5143,173.769Zm.4347-2.1371a1.1483,1.1483,0,0,1,.054-.1068l.1576.138Zm-5.1541-.53-.0659-.0659.474.1463Zm-9.132-9.0372.189-.027a2.8434,2.8434,0,0,0,.0546.3876C268.82,162.3019,268.7348,162.178,268.6629,162.0642Zm1.0524,2.4565c.3132-.0141.3113-.2671.3376-.5521.0274-.365.1111-.7548.5711-.7494l-.1037-.0153c.3682-.3954.2991.2109.8463.1852-.6332.0386-.4913.5319-.4774.8832a.3943.3943,0,0,1-.0664.2719c.2354.078.2467-.106.38-.1581.131.1241.255.246.3925.3678-.2341.4188-.3508.28-.5221.108-.1576-.17-.3584-.3742-.6356-.0258a.9169.9169,0,0,0,.3174.2308c-.2894.1748-.1842-.0988-.4965-.0172a2.72,2.72,0,0,1-.0034-.3142C270.0159,164.66,269.8616,164.7523,269.7153,164.5207Zm.6254,1.5378c-.3-.2592-.2612-.0317-.4574-.1159a2.9,2.9,0,0,1-.0227-.9685,4.2508,4.2508,0,0,1,.6662.6838l.8656-.03c-.1271.0792-.2261.1479-.183.3037.0306.0284.0607.0555.0938.0883-.0259-.0079-.0443-.0123-.0661-.0182a.8685.8685,0,0,0,.0731.1278c.3565.1987.3485.0865.3426-.0469-.01-.1325-.0172-.287.27-.148.099.1134.1976.226.303.3346-.3812-.0691-.1964-.0848-.2672-.252-.3164-.1233-.2744.2928-.118.5253-.15-.1166-.3029-.233-.4487-.3551-.4069.0745.5738.62-.2342.1828.4682.0921-.5549-.5416.0795-.3685a.4711.4711,0,0,1-.0277-.07.5623.5623,0,0,0-.45-.2077c.1129.2563-.5357.3071.2523.6438C270.7858,166.3117,270.161,166.086,270.3407,166.0585Zm.7568,1.5077c-.0728-.2306.6846.0816.2336-.2925a1.0021,1.0021,0,0,1-.5639-.2452,2.2231,2.2231,0,0,1,.9419.266c.0922.1756.203.4879-.1515.4815l.4944.1533c-.0686.1666.1517.3717.3629.5753.2236.1932.4442.3808.431.5159C272.3118,168.5825,271.8924,168.1569,271.0975,167.5662Zm2.3419-2.3679a.5453.5453,0,0,1-.2465.0472.4363.4363,0,0,1-.0937-.1708c-.0726-.26.1585-.5047-.3207-.6816-.2316.0483-.4413.1149-.55-.16a6.2715,6.2715,0,0,1,1.022.2034c-.17.0834-.06.2439.0622.3963C273.4263,164.9829,273.5614,165.128,273.4394,165.1983Zm1.63,5.4412.1711.0614c.0784.0714.1618.1364.2432.2055C275.3446,170.8188,275.2043,170.7331,275.0691,170.64Zm1.5868.5732c.0008-.0073.0372-.0012.0891.01A.7818.7818,0,0,0,276.6559,171.2127Zm4.3158,2.768c.01.0155-.009.0238-.1.0149.0252-.0055.0671-.0084.1-.0149-.02-.0316-.171-.0952-.1458-.1192l.1852.0743C281.0336,173.9617,281.0082,173.9735,280.9717,173.9807Zm.9818,1.196.0847-.0328c-.0539.06.1569.1854-.2207.1248l-.3876-.3333C281.9143,175.0348,281.5535,175.0444,281.9535,175.1767Zm-.2544.2425c-.0343-.0065-.0493-.01-.0225-.0114l.0225.0114c.1149.0221.4761.0774.4678.1836A1.231,1.231,0,0,1,281.6991,175.4192Zm.6393-.0213.5163.0778.1756.1434A4.6927,4.6927,0,0,1,282.3384,175.3979Zm1.925.7371-.4363-.16c.0246-.0707-.5416-.3418-.0473-.2719-.1769-.049-.66-.305-.6014-.1563l-.1226-.2031a1.6262,1.6262,0,0,1,1.0491.6214c.2432.0108.2069.0286.4614.1382Zm1.1061-3.1017.1685-.0319c.1071.1066-.2225.0277-.3944-.0066-.0017.0317-.0582.0757.0584.104.4.1567.3822-.0631.5557-.0773l.1066.1223c-.4418-.1049-.2058.1169-.7141.0168-.0073-.0674-.2379-.208-.0571-.2534Zm-1.4649-.69c-.0779.02-.2517-.0415-.2816.019a2.4812,2.4812,0,0,1-.1478-.2241Zm.2886,1.628c-.1071.0061-.3077-.1246-.4423-.0756l.0642.0307-.0772-.0291.013-.0016-.2719-.13c.319.041-.0764-.1257.1471-.153.2143.0648.4739.1157.2709.1675.1686.1753.4241.03.5569.0648Zm.6067-1.0484q-.31-.2076-.5782-.417a3.12,3.12,0,0,1,.8626.1787C285,172.7528,284.86,172.8646,284.8,172.9234Zm.359.7863c-.1922.0564.1566.09-.18.0763-.0691-.121-.18-.258.1462-.28-.013.1074.487.2455.78.3989-.1092-.0083-.3328-.027-.1859.0425C285.4648,173.9644,285.2991,173.7789,285.1589,173.71Zm.3921.6818c-.0478-.0179-.0949-.0355-.1462-.0542a.424.424,0,0,1,.1462.0542,1.689,1.689,0,0,0,.5483.1506C285.9464,174.642,285.723,174.4815,285.551,174.3915Zm.4,1.4927a.5441.5441,0,0,0,.2118-.0011l.3585.2155C286.2035,175.963,286.1536,176.0556,285.9508,175.8842Zm.1529-.7242.33.2648c-1.3306-.3152.0532-.25-.1128-.3595l.21.1093Zm.6823-.0344-.2976-.2053c0,.1278-.3611.0215-.6008-.0112a.5128.5128,0,0,1-.1463-.0078.6026.6026,0,0,1,.1463.0078,1.9334,1.9334,0,0,1,.5141.0273l-.0194-.1027C286.4527,174.9316,286.9689,175.0366,286.786,175.1256Zm-3.9256-7.2768.0384.0265.0051-.0006Zm-1.3234,23.9238c-.3861-.1521.4092-.1842-.53-.3365-.1972-.0207-.6842-.1337-1.2-.2468-.6415-.1435-1.3285-.3408-1.71-.3895l-.0092-.13a3.4648,3.4648,0,0,1-.6224-.1581,6.9626,6.9626,0,0,1-.6363-.2893c-.1005-.0517-.1973-.1042-.2881-.1559l2.1792,1.498c.2855.0718.6564.1438,1.0079.2a2.3648,2.3648,0,0,1,1.0657.3456c.7172.016-.5368-.3222-.6015-.4791.4372.1441.895.2769,1.3579.3845a2.2443,2.2443,0,0,0,.319-.2066l-.25-.0972Zm-1.017-.2261c.008-.0937.3981-.0174.63.0752A1.506,1.506,0,0,1,280.52,191.5465Zm.3217-21.8284c.1527-.0646.05-.2109-.09-.3676l-1.2834-.8822c-.0639-.0023-.1325-.0076-.1957-.01.0966.1556.7155.4436.4529.5614.3329.0754.1911.2749.6667.3063C279.9852,169.2789,280.4875,169.6194,280.8417,169.7181Zm-18.48,7.2047.3915.24.2246.0254c-.2331-.1358-.4618-.2688-.6344-.3638A.5758.5758,0,0,0,262.362,176.9228Zm37.4066-38.38a3.6373,3.6373,0,0,1-.223.6563l-.004.0565a.3145.3145,0,0,1,.193.3916,4.8082,4.8082,0,0,0,.5539-.6082l-.0094.0051.0165-.0141.0381-.0489c.0674-.1245.1372-.401.2358-.4665a.1821.1821,0,0,1,.0225.1279l.0859-.1151.0012-.0081.0038.0013c.093-.1251.1858-.25.2779-.371a1.1738,1.1738,0,0,1-.011-.1325c-.0436.0488-.0889.1044-.136.1685l.1362-.1917a.6971.6971,0,0,1,.0105-.1111.8728.8728,0,0,1-.2014.0912.5018.5018,0,0,0-.0257.1266.2892.2892,0,0,1,.0223.0875.1277.1277,0,0,1-.0223-.0875c-.066-.1593-.2364.0183-.3293,0-.0771.1531-.0745.52-.175.5408l.0521-.4465a.6577.6577,0,0,1-.4614.3265c-.005.0165-.0076.0287-.0136.0437A.2756.2756,0,0,0,299.7686,138.5432Zm.6682-.0559.0037.0554-.1178.19-.0036-.0562Zm-.3828.617-.1963.1583-.0016-.0544Zm-.2342-.5828a.89.89,0,0,0,.0521-.2671.2479.2479,0,0,1-.0221.0327c-.03.0817-.0555.1661-.08.2513Zm-19.4182,51.9914-.41-.0816-.2778-.0612c-.0941-.0211-.1858-.0473-.2741-.0728a5.0635,5.0635,0,0,1-.6128-.21l-.0393-.0085c.0632.0583.0454.0914-.0306-.0066.0134.0036.0189.0037.0306.0066a.3493.3493,0,0,0-.0318-.0256c.022.0113.0454.0226.0711.0341.2789.0562-.0806-.1782-.1779-.22-1.055-.2577-.0926.1817-.9251-.0149-.4171-.1458-.9655-.3582-1.5226-.5319l-.8269-.2562c-.2019-.0717-.3915-.1353-.5718-.1934l.5528.38a11.7009,11.7009,0,0,1,1.4385.6786,7.4149,7.4149,0,0,0,.743.3518,7.7,7.7,0,0,0,1.0344.2807l1.7023.4414,1.4008.3886c.1656.0474.328.0915.4907.1357a2.2755,2.2755,0,0,0,.1754-.221l.1126-.1639a8.5925,8.5925,0,0,0-1.7051-.36C281.264,190.7021,280.919,190.6167,280.4016,190.5129Zm-3.2608-.552a.5735.5735,0,0,0-.0651-.0412l-.0356-.008-.05-.0388c-.2044-.1081-.5007-.2519-.2782-.2147l.2782.2147c.0319.0169.0608.0325.0859.0468.1889.04.3784.0916.57.12C277.4757,190.0246,277.3079,189.9865,277.1408,189.9609Z" transform="translate(-228.8923 -131.6084)"/></svg>