<?xml version="1.0" encoding="utf-8"?>
<!-- Generator: Adobe Illustrator 25.2.3, SVG Export Plug-In . SVG Version: 6.00 Build 0)  -->
<svg version="1.1" id="Layer_1" xmlns="http://www.w3.org/2000/svg" xmlns:xlink="http://www.w3.org/1999/xlink" x="0px" y="0px"
	 viewBox="0 0 37.5 43.2" style="enable-background:new 0 0 37.5 43.2;" xml:space="preserve">
<style type="text/css">
	.st0{fill:#F51339;}
</style>
<g>
	<path class="st0" d="M18.5,42.7h-3V42h3V42.7z M12.5,42.7h-3V42h3V42.7z M9.1,40.1H8.4v-3h0.8V40.1z M18.9,39.4h-0.8v-3h0.8V39.4z
		 M9.1,34.1H8.4v-3h0.8V34.1z M18.9,33.4h-0.8v-3h0.8V33.4z M9.1,28.1H8.4v-3h0.8V28.1z M18.9,27.4h-0.8v-3h0.8V27.4z M9.1,22.1H8.4
		v-3h0.8V22.1z M18.9,21.4h-0.8v-3h0.8V21.4z M9.1,16.1H8.4v-3h0.8V16.1z M18.9,15.4h-0.8v-3h0.8V15.4z M9.1,10.1H8.4V8.5H7.7V7.8
		h1.5V10.1z M18.9,9.4h-0.8v-3h0.8V9.4z M4.7,8.5h-3V7.8h3V8.5z M0.7,6.5H0v-3h0.8V6.5z M18.9,3.4h-0.8l0-3.4h0.7V3.4z M15.3,0.8h-3
		V0h3V0.8z M9.3,0.8h-3V0h3V0.8z M3.3,0.8H0V0h3.3V0.8z"/>
	<path class="st0" d="M31.3,43.2c-0.3,0-0.5,0-0.8,0l0.1-0.7c0.9,0.1,1.9,0,2.8-0.3l0.3,0.7C32.9,43.1,32.1,43.2,31.3,43.2z
		 M27.6,42c-0.2-0.2-0.5-0.4-0.7-0.6c-0.8-0.8-1.3-1.7-1.6-2.7l0.7-0.2c0.2,0.9,0.7,1.7,1.4,2.4c0.2,0.2,0.4,0.4,0.6,0.5L27.6,42z
		 M36.2,40.9l-0.6-0.5c0.6-0.7,1-1.6,1.1-2.5l0.7,0.1C37.3,39.1,36.9,40.1,36.2,40.9L36.2,40.9z M26,35.7l-0.7-0.1
		c0.2-1.1,0.7-2,1.5-2.8l0.5,0.5C26.6,33.9,26.2,34.8,26,35.7L26,35.7z M36.5,35.1c-0.3-0.8-0.7-1.5-1.3-2c-0.1-0.1-0.2-0.2-0.3-0.2
		l0.5-0.6c0.1,0.1,0.2,0.2,0.3,0.3c0.7,0.6,1.2,1.4,1.5,2.3L36.5,35.1z M29.6,31.8l-0.2-0.7c1-0.3,2.1-0.3,3.1-0.2l-0.1,0.7
		C31.5,31.5,30.5,31.6,29.6,31.8L29.6,31.8z"/>
</g>
</svg>
