<?xml version="1.0" encoding="utf-8"?>
<!-- Generator: Adobe Illustrator 25.2.3, SVG Export Plug-In . SVG Version: 6.00 Build 0)  -->
<svg version="1.1" id="Layer_1" xmlns="http://www.w3.org/2000/svg" xmlns:xlink="http://www.w3.org/1999/xlink" x="0px" y="0px"
	 viewBox="0 0 49.3 42.7" style="enable-background:new 0 0 49.3 42.7;" xml:space="preserve">
<style type="text/css">
	.st0{fill:#F51339;}
</style>
<g>
	<path class="st0" d="M30.5,21.2c2,2.2,3,5,2.9,7.9c0,2.4-0.7,4.7-1.9,6.7c-1.4,2.2-3.5,3.9-5.9,4.9c-3,1.3-6.3,2-9.6,1.9
		c-2.9,0-5.9-0.4-8.7-1.2c-2.6-0.7-5.1-1.8-7.3-3.3l3.8-7.4C5.5,32,7.3,33,9.3,33.6c2.1,0.7,4.3,1,6.5,1c2,0.1,4-0.4,5.8-1.4
		c1.4-0.9,2.2-2.4,2.1-4c0-3.4-2.6-5.2-7.9-5.2h-4.4v-6.4L20,7.8H2.1V0h29.4v6.3L22,17.1C25.2,17.5,28.2,18.9,30.5,21.2z"/>
	<path class="st0" d="M39.3,40.8c-1.1-1.1-1.7-2.6-1.7-4.2c-0.1-1.6,0.5-3.1,1.7-4.2c2.4-2.1,5.9-2.1,8.3,0c1.1,1.1,1.7,2.6,1.7,4.2
		c0,1.6-0.6,3.1-1.7,4.2C45.3,43,41.6,43,39.3,40.8z"/>
</g>
</svg>
