<?xml version="1.0" encoding="utf-8"?>
<!-- Generator: Adobe Illustrator 25.2.3, SVG Export Plug-In . SVG Version: 6.00 Build 0)  -->
<svg version="1.1" id="Layer_1" xmlns="http://www.w3.org/2000/svg" xmlns:xlink="http://www.w3.org/1999/xlink" x="0px" y="0px"
	 viewBox="0 0 59.5 29.1" style="enable-background:new 0 0 59.5 29.1;" xml:space="preserve">
<style type="text/css">
	.st0{fill:#F51339;}
</style>
<g>
	<path class="st0" d="M52.3,1.9c2.2,1.2,4,3,5.3,5.2c1.3,2.3,2,4.8,1.9,7.4c0,2.6-0.6,5.2-1.9,7.5c-1.3,2.2-3.1,4-5.3,5.3
		c-2.3,1.3-4.8,2-7.5,1.9c-3,0.1-6.1-0.6-8.7-2.1c-2.5-1.5-4.6-3.5-6.3-5.8c-1.7,2.3-3.8,4.3-6.3,5.8c-2.7,1.5-5.7,2.2-8.8,2.1
		c-2.6,0-5.2-0.6-7.5-1.9C5,26,3.2,24.2,1.9,22c-2.6-4.6-2.6-10.3,0-14.9c1.3-2.2,3.1-4,5.3-5.2C9.6,0.6,12.1,0,14.8,0
		c3.1-0.1,6.1,0.6,8.8,2.1C26,3.6,28.1,5.6,29.8,8c1.7-2.3,3.9-4.3,6.3-5.8c2.7-1.5,5.7-2.2,8.7-2.1C47.5,0,50.1,0.6,52.3,1.9z
		 M21,19.7c1.7-1.5,3.2-3.2,4.5-5.1c-1.2-1.9-2.7-3.6-4.5-5.1c-1.6-1.2-3.5-1.8-5.4-1.8c-1.8,0-3.6,0.7-4.9,2
		c-2.7,2.7-2.7,7.1,0,9.8c1.3,1.3,3.1,2,4.9,2C17.5,21.5,19.4,20.9,21,19.7z M49,19.4c1.3-1.3,2-3.1,2-4.9c0-1.8-0.7-3.6-2-4.8
		c-1.3-1.3-3.1-2-4.9-2c-2-0.1-3.9,0.6-5.5,1.8c-1.7,1.5-3.2,3.2-4.4,5.1c1.2,1.9,2.7,3.6,4.4,5.1c1.6,1.2,3.5,1.8,5.5,1.8
		C45.9,21.5,47.7,20.8,49,19.4z"/>
</g>
</svg>
